<?xml version="1.0" encoding="utf-8" standalone="no"?>
<!DOCTYPE svg PUBLIC "-//W3C//DTD SVG 1.1//EN"
  "http://www.w3.org/Graphics/SVG/1.1/DTD/svg11.dtd">
<svg height="399.4715pt" version="1.1" viewBox="0 0 466.008894 399.4715" width="466.008894pt" xmlns="http://www.w3.org/2000/svg" xmlns:xlink="http://www.w3.org/1999/xlink">
 <metadata>
  <rdf:RDF xmlns:cc="http://creativecommons.org/ns#" xmlns:dc="http://purl.org/dc/elements/1.1/" xmlns:rdf="http://www.w3.org/1999/02/22-rdf-syntax-ns#">
   <cc:Work>
    <dc:type rdf:resource="http://purl.org/dc/dcmitype/StillImage"/>
    <dc:date>2021-05-13T15:24:52.337860</dc:date>
    <dc:format>image/svg+xml</dc:format>
    <dc:creator>
     <cc:Agent>
      <dc:title>Matplotlib v3.4.1, https://matplotlib.org/</dc:title>
     </cc:Agent>
    </dc:creator>
   </cc:Work>
  </rdf:RDF>
 </metadata>
 <defs>
  <style type="text/css">*{stroke-linecap:butt;stroke-linejoin:round;}</style>
 </defs>
 <g id="figure_1">
  <g id="patch_1">
   <path d="M 0 399.4715 
L 466.008894 399.4715 
L 466.008894 -0 
L 0 -0 
z
" style="fill:#ffffff;"/>
  </g>
  <g id="axes_1">
   <g id="patch_2">
    <path d="M 12.048578 356.32275 
L 458.448578 356.32275 
L 458.448578 23.68275 
L 12.048578 23.68275 
z
" style="fill:#ffffff;"/>
   </g>
   <g id="patch_3">
    <path clip-path="url(#peeb4a73383)" d="M 162.296923 42.473338 
L 148.274477 42.473338 
L 148.274477 26.943926 
L 162.296923 26.943926 
z
" style="fill:#7fc97f;"/>
   </g>
   <g id="patch_4">
    <path clip-path="url(#peeb4a73383)" d="M 162.296923 59.72824 
L 16.425049 59.72824 
L 16.425049 44.198828 
L 162.296923 44.198828 
z
" style="fill:#7fc97f;"/>
   </g>
   <g id="patch_5">
    <path clip-path="url(#peeb4a73383)" d="M 162.296923 76.983142 
L 19.744346 76.983142 
L 19.744346 61.45373 
L 162.296923 61.45373 
z
" style="fill:#7fc97f;"/>
   </g>
   <g id="patch_6">
    <path clip-path="url(#peeb4a73383)" d="M 162.296923 94.238044 
L 162.586762 94.238044 
L 162.586762 78.708632 
L 162.296923 78.708632 
z
" style="fill:#7fc97f;"/>
   </g>
   <g id="patch_7">
    <path clip-path="url(#peeb4a73383)" d="M 162.296923 111.492946 
L 147.804981 111.492946 
L 147.804981 95.963534 
L 162.296923 95.963534 
z
" style="fill:#7fc97f;"/>
   </g>
   <g id="patch_8">
    <path clip-path="url(#peeb4a73383)" d="M 162.296923 163.257652 
L 176.566756 163.257652 
L 176.566756 147.72824 
L 162.296923 147.72824 
z
" style="fill:#beaed4;"/>
   </g>
   <g id="patch_9">
    <path clip-path="url(#peeb4a73383)" d="M 162.296923 180.512554 
L 454.072108 180.512554 
L 454.072108 164.983142 
L 162.296923 164.983142 
z
" style="fill:#beaed4;"/>
   </g>
   <g id="patch_10">
    <path clip-path="url(#peeb4a73383)" d="M 162.296923 197.767456 
L 435.765339 197.767456 
L 435.765339 182.238044 
L 162.296923 182.238044 
z
" style="fill:#beaed4;"/>
   </g>
   <g id="patch_11">
    <path clip-path="url(#peeb4a73383)" d="M 162.296923 215.022358 
L 176.641352 215.022358 
L 176.641352 199.492946 
L 162.296923 199.492946 
z
" style="fill:#beaed4;"/>
   </g>
   <g id="patch_12">
    <path clip-path="url(#peeb4a73383)" d="M 162.296923 232.27726 
L 176.788865 232.27726 
L 176.788865 216.747848 
L 162.296923 216.747848 
z
" style="fill:#beaed4;"/>
   </g>
   <g id="patch_13">
    <path clip-path="url(#peeb4a73383)" d="M 162.296923 284.041966 
L 161.243173 284.041966 
L 161.243173 268.512554 
L 162.296923 268.512554 
z
" style="fill:#386cb0;"/>
   </g>
   <g id="patch_14">
    <path clip-path="url(#peeb4a73383)" d="M 162.296923 301.296868 
L 168.49635 301.296868 
L 168.49635 285.767456 
L 162.296923 285.767456 
z
" style="fill:#386cb0;"/>
   </g>
   <g id="patch_15">
    <path clip-path="url(#peeb4a73383)" d="M 162.296923 318.55177 
L 164.800952 318.55177 
L 164.800952 303.022358 
L 162.296923 303.022358 
z
" style="fill:#386cb0;"/>
   </g>
   <g id="patch_16">
    <path clip-path="url(#peeb4a73383)" d="M 162.296923 335.806672 
L 165.061187 335.806672 
L 165.061187 320.27726 
L 162.296923 320.27726 
z
" style="fill:#386cb0;"/>
   </g>
   <g id="patch_17">
    <path clip-path="url(#peeb4a73383)" d="M 162.296923 353.061574 
L 154.925595 353.061574 
L 154.925595 337.532162 
L 162.296923 337.532162 
z
" style="fill:#386cb0;"/>
   </g>
   <g id="matplotlib.axis_1">
    <g id="xtick_1">
     <g id="line2d_1"/>
     <g id="text_1">
      <!-- −10 -->
      <g style="fill:#666666;" transform="translate(7.2 374.912125)scale(0.12 -0.12)">
       <defs>
        <path d="M 3381 1997 
L 356 1997 
L 356 2522 
L 3381 2522 
L 3381 1997 
z
" id="ArialMT-2212" transform="scale(0.015625)"/>
        <path d="M 2384 0 
L 1822 0 
L 1822 3584 
Q 1619 3391 1289 3197 
Q 959 3003 697 2906 
L 697 3450 
Q 1169 3672 1522 3987 
Q 1875 4303 2022 4600 
L 2384 4600 
L 2384 0 
z
" id="ArialMT-31" transform="scale(0.015625)"/>
        <path d="M 266 2259 
Q 266 3072 433 3567 
Q 600 4063 929 4331 
Q 1259 4600 1759 4600 
Q 2128 4600 2406 4451 
Q 2684 4303 2865 4023 
Q 3047 3744 3150 3342 
Q 3253 2941 3253 2259 
Q 3253 1453 3087 958 
Q 2922 463 2592 192 
Q 2263 -78 1759 -78 
Q 1097 -78 719 397 
Q 266 969 266 2259 
z
M 844 2259 
Q 844 1131 1108 757 
Q 1372 384 1759 384 
Q 2147 384 2411 759 
Q 2675 1134 2675 2259 
Q 2675 3391 2411 3762 
Q 2147 4134 1753 4134 
Q 1366 4134 1134 3806 
Q 844 3388 844 2259 
z
" id="ArialMT-30" transform="scale(0.015625)"/>
       </defs>
       <use xlink:href="#ArialMT-2212"/>
       <use x="58.398438" xlink:href="#ArialMT-31"/>
       <use x="114.013672" xlink:href="#ArialMT-30"/>
      </g>
     </g>
    </g>
    <g id="xtick_2">
     <g id="line2d_2"/>
     <g id="text_2">
      <!-- −5 -->
      <g style="fill:#666666;" transform="translate(82.996274 374.912125)scale(0.12 -0.12)">
       <defs>
        <path d="M 266 1200 
L 856 1250 
Q 922 819 1161 601 
Q 1400 384 1738 384 
Q 2144 384 2425 690 
Q 2706 997 2706 1503 
Q 2706 1984 2436 2262 
Q 2166 2541 1728 2541 
Q 1456 2541 1237 2417 
Q 1019 2294 894 2097 
L 366 2166 
L 809 4519 
L 3088 4519 
L 3088 3981 
L 1259 3981 
L 1013 2750 
Q 1425 3038 1878 3038 
Q 2478 3038 2890 2622 
Q 3303 2206 3303 1553 
Q 3303 931 2941 478 
Q 2500 -78 1738 -78 
Q 1113 -78 717 272 
Q 322 622 266 1200 
z
" id="ArialMT-35" transform="scale(0.015625)"/>
       </defs>
       <use xlink:href="#ArialMT-2212"/>
       <use x="58.398438" xlink:href="#ArialMT-35"/>
      </g>
     </g>
    </g>
    <g id="xtick_3">
     <g id="line2d_3"/>
     <g id="text_3">
      <!-- 0 -->
      <g style="fill:#666666;" transform="translate(158.960361 374.912125)scale(0.12 -0.12)">
       <use xlink:href="#ArialMT-30"/>
      </g>
     </g>
    </g>
    <g id="xtick_4">
     <g id="line2d_4"/>
     <g id="text_4">
      <!-- 5 -->
      <g style="fill:#666666;" transform="translate(231.420072 374.912125)scale(0.12 -0.12)">
       <use xlink:href="#ArialMT-35"/>
      </g>
     </g>
    </g>
    <g id="xtick_5">
     <g id="line2d_5"/>
     <g id="text_5">
      <!-- 10 -->
      <g style="fill:#666666;" transform="translate(300.543221 374.912125)scale(0.12 -0.12)">
       <use xlink:href="#ArialMT-31"/>
       <use x="55.615234" xlink:href="#ArialMT-30"/>
      </g>
     </g>
    </g>
    <g id="xtick_6">
     <g id="line2d_6"/>
     <g id="text_6">
      <!-- 15 -->
      <g style="fill:#666666;" transform="translate(373.002933 374.912125)scale(0.12 -0.12)">
       <use xlink:href="#ArialMT-31"/>
       <use x="55.615234" xlink:href="#ArialMT-35"/>
      </g>
     </g>
    </g>
    <g id="xtick_7">
     <g id="line2d_7"/>
     <g id="text_7">
      <!-- 20 -->
      <g style="fill:#666666;" transform="translate(445.462644 374.912125)scale(0.12 -0.12)">
       <defs>
        <path d="M 3222 541 
L 3222 0 
L 194 0 
Q 188 203 259 391 
Q 375 700 629 1000 
Q 884 1300 1366 1694 
Q 2113 2306 2375 2664 
Q 2638 3022 2638 3341 
Q 2638 3675 2398 3904 
Q 2159 4134 1775 4134 
Q 1369 4134 1125 3890 
Q 881 3647 878 3216 
L 300 3275 
Q 359 3922 746 4261 
Q 1134 4600 1788 4600 
Q 2447 4600 2831 4234 
Q 3216 3869 3216 3328 
Q 3216 3053 3103 2787 
Q 2991 2522 2730 2228 
Q 2469 1934 1863 1422 
Q 1356 997 1212 845 
Q 1069 694 975 541 
L 3222 541 
z
" id="ArialMT-32" transform="scale(0.015625)"/>
       </defs>
       <use xlink:href="#ArialMT-32"/>
       <use x="55.615234" xlink:href="#ArialMT-30"/>
      </g>
     </g>
    </g>
    <g id="text_8">
     <!-- Value of metric -->
     <g style="fill:#333333;" transform="translate(195.676703 389.8865)scale(0.12 -0.12)">
      <defs>
       <path d="M 1803 0 
L 28 4581 
L 684 4581 
L 1875 1253 
Q 2019 853 2116 503 
Q 2222 878 2363 1253 
L 3600 4581 
L 4219 4581 
L 2425 0 
L 1803 0 
z
" id="ArialMT-56" transform="scale(0.015625)"/>
       <path d="M 2588 409 
Q 2275 144 1986 34 
Q 1697 -75 1366 -75 
Q 819 -75 525 192 
Q 231 459 231 875 
Q 231 1119 342 1320 
Q 453 1522 633 1644 
Q 813 1766 1038 1828 
Q 1203 1872 1538 1913 
Q 2219 1994 2541 2106 
Q 2544 2222 2544 2253 
Q 2544 2597 2384 2738 
Q 2169 2928 1744 2928 
Q 1347 2928 1158 2789 
Q 969 2650 878 2297 
L 328 2372 
Q 403 2725 575 2942 
Q 747 3159 1072 3276 
Q 1397 3394 1825 3394 
Q 2250 3394 2515 3294 
Q 2781 3194 2906 3042 
Q 3031 2891 3081 2659 
Q 3109 2516 3109 2141 
L 3109 1391 
Q 3109 606 3145 398 
Q 3181 191 3288 0 
L 2700 0 
Q 2613 175 2588 409 
z
M 2541 1666 
Q 2234 1541 1622 1453 
Q 1275 1403 1131 1340 
Q 988 1278 909 1158 
Q 831 1038 831 891 
Q 831 666 1001 516 
Q 1172 366 1500 366 
Q 1825 366 2078 508 
Q 2331 650 2450 897 
Q 2541 1088 2541 1459 
L 2541 1666 
z
" id="ArialMT-61" transform="scale(0.015625)"/>
       <path d="M 409 0 
L 409 4581 
L 972 4581 
L 972 0 
L 409 0 
z
" id="ArialMT-6c" transform="scale(0.015625)"/>
       <path d="M 2597 0 
L 2597 488 
Q 2209 -75 1544 -75 
Q 1250 -75 995 37 
Q 741 150 617 320 
Q 494 491 444 738 
Q 409 903 409 1263 
L 409 3319 
L 972 3319 
L 972 1478 
Q 972 1038 1006 884 
Q 1059 663 1231 536 
Q 1403 409 1656 409 
Q 1909 409 2131 539 
Q 2353 669 2445 892 
Q 2538 1116 2538 1541 
L 2538 3319 
L 3100 3319 
L 3100 0 
L 2597 0 
z
" id="ArialMT-75" transform="scale(0.015625)"/>
       <path d="M 2694 1069 
L 3275 997 
Q 3138 488 2766 206 
Q 2394 -75 1816 -75 
Q 1088 -75 661 373 
Q 234 822 234 1631 
Q 234 2469 665 2931 
Q 1097 3394 1784 3394 
Q 2450 3394 2872 2941 
Q 3294 2488 3294 1666 
Q 3294 1616 3291 1516 
L 816 1516 
Q 847 969 1125 678 
Q 1403 388 1819 388 
Q 2128 388 2347 550 
Q 2566 713 2694 1069 
z
M 847 1978 
L 2700 1978 
Q 2663 2397 2488 2606 
Q 2219 2931 1791 2931 
Q 1403 2931 1139 2672 
Q 875 2413 847 1978 
z
" id="ArialMT-65" transform="scale(0.015625)"/>
       <path id="ArialMT-20" transform="scale(0.015625)"/>
       <path d="M 213 1659 
Q 213 2581 725 3025 
Q 1153 3394 1769 3394 
Q 2453 3394 2887 2945 
Q 3322 2497 3322 1706 
Q 3322 1066 3130 698 
Q 2938 331 2570 128 
Q 2203 -75 1769 -75 
Q 1072 -75 642 372 
Q 213 819 213 1659 
z
M 791 1659 
Q 791 1022 1069 705 
Q 1347 388 1769 388 
Q 2188 388 2466 706 
Q 2744 1025 2744 1678 
Q 2744 2294 2464 2611 
Q 2184 2928 1769 2928 
Q 1347 2928 1069 2612 
Q 791 2297 791 1659 
z
" id="ArialMT-6f" transform="scale(0.015625)"/>
       <path d="M 556 0 
L 556 2881 
L 59 2881 
L 59 3319 
L 556 3319 
L 556 3672 
Q 556 4006 616 4169 
Q 697 4388 901 4523 
Q 1106 4659 1475 4659 
Q 1713 4659 2000 4603 
L 1916 4113 
Q 1741 4144 1584 4144 
Q 1328 4144 1222 4034 
Q 1116 3925 1116 3625 
L 1116 3319 
L 1763 3319 
L 1763 2881 
L 1116 2881 
L 1116 0 
L 556 0 
z
" id="ArialMT-66" transform="scale(0.015625)"/>
       <path d="M 422 0 
L 422 3319 
L 925 3319 
L 925 2853 
Q 1081 3097 1340 3245 
Q 1600 3394 1931 3394 
Q 2300 3394 2536 3241 
Q 2772 3088 2869 2813 
Q 3263 3394 3894 3394 
Q 4388 3394 4653 3120 
Q 4919 2847 4919 2278 
L 4919 0 
L 4359 0 
L 4359 2091 
Q 4359 2428 4304 2576 
Q 4250 2725 4106 2815 
Q 3963 2906 3769 2906 
Q 3419 2906 3187 2673 
Q 2956 2441 2956 1928 
L 2956 0 
L 2394 0 
L 2394 2156 
Q 2394 2531 2256 2718 
Q 2119 2906 1806 2906 
Q 1569 2906 1367 2781 
Q 1166 2656 1075 2415 
Q 984 2175 984 1722 
L 984 0 
L 422 0 
z
" id="ArialMT-6d" transform="scale(0.015625)"/>
       <path d="M 1650 503 
L 1731 6 
Q 1494 -44 1306 -44 
Q 1000 -44 831 53 
Q 663 150 594 308 
Q 525 466 525 972 
L 525 2881 
L 113 2881 
L 113 3319 
L 525 3319 
L 525 4141 
L 1084 4478 
L 1084 3319 
L 1650 3319 
L 1650 2881 
L 1084 2881 
L 1084 941 
Q 1084 700 1114 631 
Q 1144 563 1211 522 
Q 1278 481 1403 481 
Q 1497 481 1650 503 
z
" id="ArialMT-74" transform="scale(0.015625)"/>
       <path d="M 416 0 
L 416 3319 
L 922 3319 
L 922 2816 
Q 1116 3169 1280 3281 
Q 1444 3394 1641 3394 
Q 1925 3394 2219 3213 
L 2025 2691 
Q 1819 2813 1613 2813 
Q 1428 2813 1281 2702 
Q 1134 2591 1072 2394 
Q 978 2094 978 1738 
L 978 0 
L 416 0 
z
" id="ArialMT-72" transform="scale(0.015625)"/>
       <path d="M 425 3934 
L 425 4581 
L 988 4581 
L 988 3934 
L 425 3934 
z
M 425 0 
L 425 3319 
L 988 3319 
L 988 0 
L 425 0 
z
" id="ArialMT-69" transform="scale(0.015625)"/>
       <path d="M 2588 1216 
L 3141 1144 
Q 3050 572 2676 248 
Q 2303 -75 1759 -75 
Q 1078 -75 664 370 
Q 250 816 250 1647 
Q 250 2184 428 2587 
Q 606 2991 970 3192 
Q 1334 3394 1763 3394 
Q 2303 3394 2647 3120 
Q 2991 2847 3088 2344 
L 2541 2259 
Q 2463 2594 2264 2762 
Q 2066 2931 1784 2931 
Q 1359 2931 1093 2626 
Q 828 2322 828 1663 
Q 828 994 1084 691 
Q 1341 388 1753 388 
Q 2084 388 2306 591 
Q 2528 794 2588 1216 
z
" id="ArialMT-63" transform="scale(0.015625)"/>
      </defs>
      <use xlink:href="#ArialMT-56"/>
      <use x="59.324219" xlink:href="#ArialMT-61"/>
      <use x="114.939453" xlink:href="#ArialMT-6c"/>
      <use x="137.15625" xlink:href="#ArialMT-75"/>
      <use x="192.771484" xlink:href="#ArialMT-65"/>
      <use x="248.386719" xlink:href="#ArialMT-20"/>
      <use x="276.169922" xlink:href="#ArialMT-6f"/>
      <use x="331.785156" xlink:href="#ArialMT-66"/>
      <use x="359.568359" xlink:href="#ArialMT-20"/>
      <use x="387.351562" xlink:href="#ArialMT-6d"/>
      <use x="470.652344" xlink:href="#ArialMT-65"/>
      <use x="526.267578" xlink:href="#ArialMT-74"/>
      <use x="554.050781" xlink:href="#ArialMT-72"/>
      <use x="587.351562" xlink:href="#ArialMT-69"/>
      <use x="609.568359" xlink:href="#ArialMT-63"/>
     </g>
    </g>
   </g>
   <g id="matplotlib.axis_2"/>
   <g id="patch_18">
    <path d="M 12.048578 356.32275 
L 12.048578 23.68275 
" style="fill:none;stroke:#cccccc;stroke-linecap:square;stroke-linejoin:miter;stroke-width:0.75;"/>
   </g>
   <g id="patch_19">
    <path d="M 12.048578 356.32275 
L 458.448578 356.32275 
" style="fill:none;stroke:#cccccc;stroke-linecap:square;stroke-linejoin:miter;stroke-width:0.75;"/>
   </g>
   <g id="text_9">
    <!--  L  -->
    <g style="fill:#333333;" transform="translate(162.586762 38.159613)scale(0.12 -0.12)">
     <defs>
      <path d="M 469 0 
L 469 4581 
L 1075 4581 
L 1075 541 
L 3331 541 
L 3331 0 
L 469 0 
z
" id="ArialMT-4c" transform="scale(0.015625)"/>
     </defs>
     <use xlink:href="#ArialMT-20"/>
     <use x="27.783203" xlink:href="#ArialMT-4c"/>
     <use x="79.648438" xlink:href="#ArialMT-20"/>
    </g>
   </g>
   <g id="text_10">
    <!--  LSA  -->
    <g style="fill:#333333;" transform="translate(162.586762 55.414515)scale(0.12 -0.12)">
     <defs>
      <path d="M 288 1472 
L 859 1522 
Q 900 1178 1048 958 
Q 1197 738 1509 602 
Q 1822 466 2213 466 
Q 2559 466 2825 569 
Q 3091 672 3220 851 
Q 3350 1031 3350 1244 
Q 3350 1459 3225 1620 
Q 3100 1781 2813 1891 
Q 2628 1963 1997 2114 
Q 1366 2266 1113 2400 
Q 784 2572 623 2826 
Q 463 3081 463 3397 
Q 463 3744 659 4045 
Q 856 4347 1234 4503 
Q 1613 4659 2075 4659 
Q 2584 4659 2973 4495 
Q 3363 4331 3572 4012 
Q 3781 3694 3797 3291 
L 3216 3247 
Q 3169 3681 2898 3903 
Q 2628 4125 2100 4125 
Q 1550 4125 1298 3923 
Q 1047 3722 1047 3438 
Q 1047 3191 1225 3031 
Q 1400 2872 2139 2705 
Q 2878 2538 3153 2413 
Q 3553 2228 3743 1945 
Q 3934 1663 3934 1294 
Q 3934 928 3725 604 
Q 3516 281 3123 101 
Q 2731 -78 2241 -78 
Q 1619 -78 1198 103 
Q 778 284 539 648 
Q 300 1013 288 1472 
z
" id="ArialMT-53" transform="scale(0.015625)"/>
      <path d="M -9 0 
L 1750 4581 
L 2403 4581 
L 4278 0 
L 3588 0 
L 3053 1388 
L 1138 1388 
L 634 0 
L -9 0 
z
M 1313 1881 
L 2866 1881 
L 2388 3150 
Q 2169 3728 2063 4100 
Q 1975 3659 1816 3225 
L 1313 1881 
z
" id="ArialMT-41" transform="scale(0.015625)"/>
     </defs>
     <use xlink:href="#ArialMT-20"/>
     <use x="27.783203" xlink:href="#ArialMT-4c"/>
     <use x="83.398438" xlink:href="#ArialMT-53"/>
     <use x="150.097656" xlink:href="#ArialMT-41"/>
     <use x="211.296875" xlink:href="#ArialMT-20"/>
    </g>
   </g>
   <g id="text_11">
    <!--  LSA-5  -->
    <g style="fill:#333333;" transform="translate(162.586762 72.669417)scale(0.12 -0.12)">
     <defs>
      <path d="M 203 1375 
L 203 1941 
L 1931 1941 
L 1931 1375 
L 203 1375 
z
" id="ArialMT-2d" transform="scale(0.015625)"/>
     </defs>
     <use xlink:href="#ArialMT-20"/>
     <use x="27.783203" xlink:href="#ArialMT-4c"/>
     <use x="83.398438" xlink:href="#ArialMT-53"/>
     <use x="150.097656" xlink:href="#ArialMT-41"/>
     <use x="216.796875" xlink:href="#ArialMT-2d"/>
     <use x="250.097656" xlink:href="#ArialMT-35"/>
     <use x="305.712891" xlink:href="#ArialMT-20"/>
    </g>
   </g>
   <g id="text_12">
    <!--  MCM  -->
    <g style="fill:#333333;" transform="translate(162.586762 89.924319)scale(0.12 -0.12)">
     <defs>
      <path d="M 475 0 
L 475 4581 
L 1388 4581 
L 2472 1338 
Q 2622 884 2691 659 
Q 2769 909 2934 1394 
L 4031 4581 
L 4847 4581 
L 4847 0 
L 4263 0 
L 4263 3834 
L 2931 0 
L 2384 0 
L 1059 3900 
L 1059 0 
L 475 0 
z
" id="ArialMT-4d" transform="scale(0.015625)"/>
      <path d="M 3763 1606 
L 4369 1453 
Q 4178 706 3683 314 
Q 3188 -78 2472 -78 
Q 1731 -78 1267 223 
Q 803 525 561 1097 
Q 319 1669 319 2325 
Q 319 3041 592 3573 
Q 866 4106 1370 4382 
Q 1875 4659 2481 4659 
Q 3169 4659 3637 4309 
Q 4106 3959 4291 3325 
L 3694 3184 
Q 3534 3684 3231 3912 
Q 2928 4141 2469 4141 
Q 1941 4141 1586 3887 
Q 1231 3634 1087 3207 
Q 944 2781 944 2328 
Q 944 1744 1114 1308 
Q 1284 872 1643 656 
Q 2003 441 2422 441 
Q 2931 441 3284 734 
Q 3638 1028 3763 1606 
z
" id="ArialMT-43" transform="scale(0.015625)"/>
     </defs>
     <use xlink:href="#ArialMT-20"/>
     <use x="27.783203" xlink:href="#ArialMT-4d"/>
     <use x="111.083984" xlink:href="#ArialMT-43"/>
     <use x="183.300781" xlink:href="#ArialMT-4d"/>
     <use x="266.601562" xlink:href="#ArialMT-20"/>
    </g>
   </g>
   <g id="text_13">
    <!--  Q  -->
    <g style="fill:#333333;" transform="translate(162.586762 107.179221)scale(0.12 -0.12)">
     <defs>
      <path d="M 3966 491 
Q 4388 200 4744 66 
L 4566 -356 
Q 4072 -178 3581 206 
Q 3072 -78 2456 -78 
Q 1834 -78 1328 222 
Q 822 522 548 1065 
Q 275 1609 275 2291 
Q 275 2969 550 3525 
Q 825 4081 1333 4372 
Q 1841 4663 2469 4663 
Q 3103 4663 3612 4361 
Q 4122 4059 4389 3517 
Q 4656 2975 4656 2294 
Q 4656 1728 4484 1276 
Q 4313 825 3966 491 
z
M 2631 1266 
Q 3156 1119 3497 828 
Q 4031 1316 4031 2294 
Q 4031 2850 3842 3265 
Q 3653 3681 3289 3911 
Q 2925 4141 2472 4141 
Q 1794 4141 1347 3677 
Q 900 3213 900 2291 
Q 900 1397 1342 919 
Q 1784 441 2472 441 
Q 2797 441 3084 563 
Q 2800 747 2484 825 
L 2631 1266 
z
" id="ArialMT-51" transform="scale(0.015625)"/>
     </defs>
     <use xlink:href="#ArialMT-20"/>
     <use x="27.783203" xlink:href="#ArialMT-51"/>
     <use x="105.566406" xlink:href="#ArialMT-20"/>
    </g>
   </g>
   <g id="text_14">
    <!--  L  -->
    <g style="fill:#333333;" transform="translate(149.406298 158.943926)scale(0.12 -0.12)">
     <use xlink:href="#ArialMT-20"/>
     <use x="27.783203" xlink:href="#ArialMT-4c"/>
     <use x="79.648438" xlink:href="#ArialMT-20"/>
    </g>
   </g>
   <g id="text_15">
    <!--  LSA  -->
    <g style="fill:#333333;" transform="translate(133.607548 176.198828)scale(0.12 -0.12)">
     <use xlink:href="#ArialMT-20"/>
     <use x="27.783203" xlink:href="#ArialMT-4c"/>
     <use x="83.398438" xlink:href="#ArialMT-53"/>
     <use x="150.097656" xlink:href="#ArialMT-41"/>
     <use x="211.296875" xlink:href="#ArialMT-20"/>
    </g>
   </g>
   <g id="text_16">
    <!--  LSA-5  -->
    <g style="fill:#333333;" transform="translate(122.278798 193.45373)scale(0.12 -0.12)">
     <use xlink:href="#ArialMT-20"/>
     <use x="27.783203" xlink:href="#ArialMT-4c"/>
     <use x="83.398438" xlink:href="#ArialMT-53"/>
     <use x="150.097656" xlink:href="#ArialMT-41"/>
     <use x="216.796875" xlink:href="#ArialMT-2d"/>
     <use x="250.097656" xlink:href="#ArialMT-35"/>
     <use x="305.712891" xlink:href="#ArialMT-20"/>
    </g>
   </g>
   <g id="text_17">
    <!--  MCM  -->
    <g style="fill:#333333;" transform="translate(126.971923 210.708632)scale(0.12 -0.12)">
     <use xlink:href="#ArialMT-20"/>
     <use x="27.783203" xlink:href="#ArialMT-4d"/>
     <use x="111.083984" xlink:href="#ArialMT-43"/>
     <use x="183.300781" xlink:href="#ArialMT-4d"/>
     <use x="266.601562" xlink:href="#ArialMT-20"/>
    </g>
   </g>
   <g id="text_18">
    <!--  Q  -->
    <g style="fill:#333333;" transform="translate(146.295673 227.963534)scale(0.12 -0.12)">
     <use xlink:href="#ArialMT-20"/>
     <use x="27.783203" xlink:href="#ArialMT-51"/>
     <use x="105.566406" xlink:href="#ArialMT-20"/>
    </g>
   </g>
   <g id="text_19">
    <!--  L  -->
    <g style="fill:#333333;" transform="translate(142.03497 279.72824)scale(0.12 -0.12)">
     <use xlink:href="#ArialMT-20"/>
     <use x="27.783203" xlink:href="#ArialMT-4c"/>
     <use x="79.648438" xlink:href="#ArialMT-20"/>
    </g>
   </g>
   <g id="text_20">
    <!--  LSA  -->
    <g style="fill:#333333;" transform="translate(126.23622 296.983142)scale(0.12 -0.12)">
     <use xlink:href="#ArialMT-20"/>
     <use x="27.783203" xlink:href="#ArialMT-4c"/>
     <use x="83.398438" xlink:href="#ArialMT-53"/>
     <use x="150.097656" xlink:href="#ArialMT-41"/>
     <use x="211.296875" xlink:href="#ArialMT-20"/>
    </g>
   </g>
   <g id="text_21">
    <!--  LSA-5  -->
    <g style="fill:#333333;" transform="translate(114.90747 314.238044)scale(0.12 -0.12)">
     <use xlink:href="#ArialMT-20"/>
     <use x="27.783203" xlink:href="#ArialMT-4c"/>
     <use x="83.398438" xlink:href="#ArialMT-53"/>
     <use x="150.097656" xlink:href="#ArialMT-41"/>
     <use x="216.796875" xlink:href="#ArialMT-2d"/>
     <use x="250.097656" xlink:href="#ArialMT-35"/>
     <use x="305.712891" xlink:href="#ArialMT-20"/>
    </g>
   </g>
   <g id="text_22">
    <!--  MCM  -->
    <g style="fill:#333333;" transform="translate(119.600595 331.492946)scale(0.12 -0.12)">
     <use xlink:href="#ArialMT-20"/>
     <use x="27.783203" xlink:href="#ArialMT-4d"/>
     <use x="111.083984" xlink:href="#ArialMT-43"/>
     <use x="183.300781" xlink:href="#ArialMT-4d"/>
     <use x="266.601562" xlink:href="#ArialMT-20"/>
    </g>
   </g>
   <g id="text_23">
    <!--  Q  -->
    <g style="fill:#333333;" transform="translate(138.924345 348.747848)scale(0.12 -0.12)">
     <use xlink:href="#ArialMT-20"/>
     <use x="27.783203" xlink:href="#ArialMT-51"/>
     <use x="105.566406" xlink:href="#ArialMT-20"/>
    </g>
   </g>
   <g id="text_24">
    <!-- Full-length sequences for each participant -->
    <g style="fill:#333333;" transform="translate(101.580578 17.68275)scale(0.144 -0.144)">
     <defs>
      <path d="M 525 0 
L 525 4581 
L 3616 4581 
L 3616 4041 
L 1131 4041 
L 1131 2622 
L 3281 2622 
L 3281 2081 
L 1131 2081 
L 1131 0 
L 525 0 
z
" id="ArialMT-46" transform="scale(0.015625)"/>
      <path d="M 422 0 
L 422 3319 
L 928 3319 
L 928 2847 
Q 1294 3394 1984 3394 
Q 2284 3394 2536 3286 
Q 2788 3178 2913 3003 
Q 3038 2828 3088 2588 
Q 3119 2431 3119 2041 
L 3119 0 
L 2556 0 
L 2556 2019 
Q 2556 2363 2490 2533 
Q 2425 2703 2258 2804 
Q 2091 2906 1866 2906 
Q 1506 2906 1245 2678 
Q 984 2450 984 1813 
L 984 0 
L 422 0 
z
" id="ArialMT-6e" transform="scale(0.015625)"/>
      <path d="M 319 -275 
L 866 -356 
Q 900 -609 1056 -725 
Q 1266 -881 1628 -881 
Q 2019 -881 2231 -725 
Q 2444 -569 2519 -288 
Q 2563 -116 2559 434 
Q 2191 0 1641 0 
Q 956 0 581 494 
Q 206 988 206 1678 
Q 206 2153 378 2554 
Q 550 2956 876 3175 
Q 1203 3394 1644 3394 
Q 2231 3394 2613 2919 
L 2613 3319 
L 3131 3319 
L 3131 450 
Q 3131 -325 2973 -648 
Q 2816 -972 2473 -1159 
Q 2131 -1347 1631 -1347 
Q 1038 -1347 672 -1080 
Q 306 -813 319 -275 
z
M 784 1719 
Q 784 1066 1043 766 
Q 1303 466 1694 466 
Q 2081 466 2343 764 
Q 2606 1063 2606 1700 
Q 2606 2309 2336 2618 
Q 2066 2928 1684 2928 
Q 1309 2928 1046 2623 
Q 784 2319 784 1719 
z
" id="ArialMT-67" transform="scale(0.015625)"/>
      <path d="M 422 0 
L 422 4581 
L 984 4581 
L 984 2938 
Q 1378 3394 1978 3394 
Q 2347 3394 2619 3248 
Q 2891 3103 3008 2847 
Q 3125 2591 3125 2103 
L 3125 0 
L 2563 0 
L 2563 2103 
Q 2563 2525 2380 2717 
Q 2197 2909 1863 2909 
Q 1613 2909 1392 2779 
Q 1172 2650 1078 2428 
Q 984 2206 984 1816 
L 984 0 
L 422 0 
z
" id="ArialMT-68" transform="scale(0.015625)"/>
      <path d="M 197 991 
L 753 1078 
Q 800 744 1014 566 
Q 1228 388 1613 388 
Q 2000 388 2187 545 
Q 2375 703 2375 916 
Q 2375 1106 2209 1216 
Q 2094 1291 1634 1406 
Q 1016 1563 777 1677 
Q 538 1791 414 1992 
Q 291 2194 291 2438 
Q 291 2659 392 2848 
Q 494 3038 669 3163 
Q 800 3259 1026 3326 
Q 1253 3394 1513 3394 
Q 1903 3394 2198 3281 
Q 2494 3169 2634 2976 
Q 2775 2784 2828 2463 
L 2278 2388 
Q 2241 2644 2061 2787 
Q 1881 2931 1553 2931 
Q 1166 2931 1000 2803 
Q 834 2675 834 2503 
Q 834 2394 903 2306 
Q 972 2216 1119 2156 
Q 1203 2125 1616 2013 
Q 2213 1853 2448 1751 
Q 2684 1650 2818 1456 
Q 2953 1263 2953 975 
Q 2953 694 2789 445 
Q 2625 197 2315 61 
Q 2006 -75 1616 -75 
Q 969 -75 630 194 
Q 291 463 197 991 
z
" id="ArialMT-73" transform="scale(0.015625)"/>
      <path d="M 2538 -1272 
L 2538 353 
Q 2406 169 2170 47 
Q 1934 -75 1669 -75 
Q 1078 -75 651 397 
Q 225 869 225 1691 
Q 225 2191 398 2587 
Q 572 2984 901 3189 
Q 1231 3394 1625 3394 
Q 2241 3394 2594 2875 
L 2594 3319 
L 3100 3319 
L 3100 -1272 
L 2538 -1272 
z
M 803 1669 
Q 803 1028 1072 708 
Q 1341 388 1716 388 
Q 2075 388 2334 692 
Q 2594 997 2594 1619 
Q 2594 2281 2320 2615 
Q 2047 2950 1678 2950 
Q 1313 2950 1058 2639 
Q 803 2328 803 1669 
z
" id="ArialMT-71" transform="scale(0.015625)"/>
      <path d="M 422 -1272 
L 422 3319 
L 934 3319 
L 934 2888 
Q 1116 3141 1344 3267 
Q 1572 3394 1897 3394 
Q 2322 3394 2647 3175 
Q 2972 2956 3137 2557 
Q 3303 2159 3303 1684 
Q 3303 1175 3120 767 
Q 2938 359 2589 142 
Q 2241 -75 1856 -75 
Q 1575 -75 1351 44 
Q 1128 163 984 344 
L 984 -1272 
L 422 -1272 
z
M 931 1641 
Q 931 1000 1190 694 
Q 1450 388 1819 388 
Q 2194 388 2461 705 
Q 2728 1022 2728 1688 
Q 2728 2322 2467 2637 
Q 2206 2953 1844 2953 
Q 1484 2953 1207 2617 
Q 931 2281 931 1641 
z
" id="ArialMT-70" transform="scale(0.015625)"/>
     </defs>
     <use xlink:href="#ArialMT-46"/>
     <use x="61.083984" xlink:href="#ArialMT-75"/>
     <use x="116.699219" xlink:href="#ArialMT-6c"/>
     <use x="138.916016" xlink:href="#ArialMT-6c"/>
     <use x="161.132812" xlink:href="#ArialMT-2d"/>
     <use x="194.433594" xlink:href="#ArialMT-6c"/>
     <use x="216.650391" xlink:href="#ArialMT-65"/>
     <use x="272.265625" xlink:href="#ArialMT-6e"/>
     <use x="327.880859" xlink:href="#ArialMT-67"/>
     <use x="383.496094" xlink:href="#ArialMT-74"/>
     <use x="411.279297" xlink:href="#ArialMT-68"/>
     <use x="466.894531" xlink:href="#ArialMT-20"/>
     <use x="494.677734" xlink:href="#ArialMT-73"/>
     <use x="544.677734" xlink:href="#ArialMT-65"/>
     <use x="600.292969" xlink:href="#ArialMT-71"/>
     <use x="655.908203" xlink:href="#ArialMT-75"/>
     <use x="711.523438" xlink:href="#ArialMT-65"/>
     <use x="767.138672" xlink:href="#ArialMT-6e"/>
     <use x="822.753906" xlink:href="#ArialMT-63"/>
     <use x="872.753906" xlink:href="#ArialMT-65"/>
     <use x="928.369141" xlink:href="#ArialMT-73"/>
     <use x="978.369141" xlink:href="#ArialMT-20"/>
     <use x="1006.152344" xlink:href="#ArialMT-66"/>
     <use x="1033.935547" xlink:href="#ArialMT-6f"/>
     <use x="1089.550781" xlink:href="#ArialMT-72"/>
     <use x="1122.851562" xlink:href="#ArialMT-20"/>
     <use x="1150.634766" xlink:href="#ArialMT-65"/>
     <use x="1206.25" xlink:href="#ArialMT-61"/>
     <use x="1261.865234" xlink:href="#ArialMT-63"/>
     <use x="1311.865234" xlink:href="#ArialMT-68"/>
     <use x="1367.480469" xlink:href="#ArialMT-20"/>
     <use x="1395.263672" xlink:href="#ArialMT-70"/>
     <use x="1450.878906" xlink:href="#ArialMT-61"/>
     <use x="1506.494141" xlink:href="#ArialMT-72"/>
     <use x="1539.794922" xlink:href="#ArialMT-74"/>
     <use x="1567.578125" xlink:href="#ArialMT-69"/>
     <use x="1589.794922" xlink:href="#ArialMT-63"/>
     <use x="1639.794922" xlink:href="#ArialMT-69"/>
     <use x="1662.011719" xlink:href="#ArialMT-70"/>
     <use x="1717.626953" xlink:href="#ArialMT-61"/>
     <use x="1773.242188" xlink:href="#ArialMT-6e"/>
     <use x="1828.857422" xlink:href="#ArialMT-74"/>
    </g>
   </g>
   <g id="legend_1">
    <g id="patch_20">
     <path d="M 379.233578 84.205875 
L 452.448578 84.205875 
L 452.448578 29.68275 
L 379.233578 29.68275 
z
" style="fill:#ffffff;opacity:0.6;"/>
    </g>
    <g id="patch_21">
     <path d="M 384.033578 43.072125 
L 408.033578 43.072125 
L 408.033578 34.672125 
L 384.033578 34.672125 
z
" style="fill:#7fc97f;"/>
    </g>
    <g id="text_25">
     <!-- min -->
     <g style="fill:#333333;" transform="translate(417.633578 43.072125)scale(0.12 -0.12)">
      <use xlink:href="#ArialMT-6d"/>
      <use x="83.300781" xlink:href="#ArialMT-69"/>
      <use x="105.517578" xlink:href="#ArialMT-6e"/>
     </g>
    </g>
    <g id="patch_22">
     <path d="M 384.033578 60.0465 
L 408.033578 60.0465 
L 408.033578 51.6465 
L 384.033578 51.6465 
z
" style="fill:#beaed4;"/>
    </g>
    <g id="text_26">
     <!-- max -->
     <g style="fill:#333333;" transform="translate(417.633578 60.0465)scale(0.12 -0.12)">
      <defs>
       <path d="M 47 0 
L 1259 1725 
L 138 3319 
L 841 3319 
L 1350 2541 
Q 1494 2319 1581 2169 
Q 1719 2375 1834 2534 
L 2394 3319 
L 3066 3319 
L 1919 1756 
L 3153 0 
L 2463 0 
L 1781 1031 
L 1600 1309 
L 728 0 
L 47 0 
z
" id="ArialMT-78" transform="scale(0.015625)"/>
      </defs>
      <use xlink:href="#ArialMT-6d"/>
      <use x="83.300781" xlink:href="#ArialMT-61"/>
      <use x="138.916016" xlink:href="#ArialMT-78"/>
     </g>
    </g>
    <g id="patch_23">
     <path d="M 384.033578 77.020875 
L 408.033578 77.020875 
L 408.033578 68.620875 
L 384.033578 68.620875 
z
" style="fill:#386cb0;"/>
    </g>
    <g id="text_27">
     <!-- mean -->
     <g style="fill:#333333;" transform="translate(417.633578 77.020875)scale(0.12 -0.12)">
      <use xlink:href="#ArialMT-6d"/>
      <use x="83.300781" xlink:href="#ArialMT-65"/>
      <use x="138.916016" xlink:href="#ArialMT-61"/>
      <use x="194.53125" xlink:href="#ArialMT-6e"/>
     </g>
    </g>
   </g>
  </g>
 </g>
 <defs>
  <clipPath id="peeb4a73383">
   <rect height="332.64" width="446.4" x="12.048578" y="23.68275"/>
  </clipPath>
 </defs>
</svg>
