<?xml version="1.0" encoding="utf-8" standalone="no"?>
<!DOCTYPE svg PUBLIC "-//W3C//DTD SVG 1.1//EN"
  "http://www.w3.org/Graphics/SVG/1.1/DTD/svg11.dtd">
<svg height="399.582875pt" version="1.1" viewBox="0 0 516.13625 399.582875" width="516.13625pt" xmlns="http://www.w3.org/2000/svg" xmlns:xlink="http://www.w3.org/1999/xlink">
 <metadata>
  <rdf:RDF xmlns:cc="http://creativecommons.org/ns#" xmlns:dc="http://purl.org/dc/elements/1.1/" xmlns:rdf="http://www.w3.org/1999/02/22-rdf-syntax-ns#">
   <cc:Work>
    <dc:type rdf:resource="http://purl.org/dc/dcmitype/StillImage"/>
    <dc:date>2021-05-13T15:24:51.438181</dc:date>
    <dc:format>image/svg+xml</dc:format>
    <dc:creator>
     <cc:Agent>
      <dc:title>Matplotlib v3.4.1, https://matplotlib.org/</dc:title>
     </cc:Agent>
    </dc:creator>
   </cc:Work>
  </rdf:RDF>
 </metadata>
 <defs>
  <style type="text/css">*{stroke-linecap:butt;stroke-linejoin:round;}</style>
 </defs>
 <g id="figure_1">
  <g id="patch_1">
   <path d="M 0 399.582875 
L 516.13625 399.582875 
L 516.13625 0 
L 0 0 
z
" style="fill:#ffffff;"/>
  </g>
  <g id="axes_1">
   <g id="patch_2">
    <path d="M 55.863125 356.14725 
L 502.263125 356.14725 
L 502.263125 23.50725 
L 55.863125 23.50725 
z
" style="fill:#ffffff;"/>
   </g>
   <g id="matplotlib.axis_1">
    <g id="xtick_1">
     <g id="line2d_1"/>
     <g id="text_1">
      <!-- 5 -->
      <g style="fill:#666666;" transform="translate(52.526563 374.736625)scale(0.12 -0.12)">
       <defs>
        <path d="M 266 1200 
L 856 1250 
Q 922 819 1161 601 
Q 1400 384 1738 384 
Q 2144 384 2425 690 
Q 2706 997 2706 1503 
Q 2706 1984 2436 2262 
Q 2166 2541 1728 2541 
Q 1456 2541 1237 2417 
Q 1019 2294 894 2097 
L 366 2166 
L 809 4519 
L 3088 4519 
L 3088 3981 
L 1259 3981 
L 1013 2750 
Q 1425 3038 1878 3038 
Q 2478 3038 2890 2622 
Q 3303 2206 3303 1553 
Q 3303 931 2941 478 
Q 2500 -78 1738 -78 
Q 1113 -78 717 272 
Q 322 622 266 1200 
z
" id="ArialMT-35" transform="scale(0.015625)"/>
       </defs>
       <use xlink:href="#ArialMT-35"/>
      </g>
     </g>
    </g>
    <g id="xtick_2">
     <g id="line2d_2"/>
     <g id="text_2">
      <!-- 10 -->
      <g style="fill:#666666;" transform="translate(98.79 374.736625)scale(0.12 -0.12)">
       <defs>
        <path d="M 2384 0 
L 1822 0 
L 1822 3584 
Q 1619 3391 1289 3197 
Q 959 3003 697 2906 
L 697 3450 
Q 1169 3672 1522 3987 
Q 1875 4303 2022 4600 
L 2384 4600 
L 2384 0 
z
" id="ArialMT-31" transform="scale(0.015625)"/>
        <path d="M 266 2259 
Q 266 3072 433 3567 
Q 600 4063 929 4331 
Q 1259 4600 1759 4600 
Q 2128 4600 2406 4451 
Q 2684 4303 2865 4023 
Q 3047 3744 3150 3342 
Q 3253 2941 3253 2259 
Q 3253 1453 3087 958 
Q 2922 463 2592 192 
Q 2263 -78 1759 -78 
Q 1097 -78 719 397 
Q 266 969 266 2259 
z
M 844 2259 
Q 844 1131 1108 757 
Q 1372 384 1759 384 
Q 2147 384 2411 759 
Q 2675 1134 2675 2259 
Q 2675 3391 2411 3762 
Q 2147 4134 1753 4134 
Q 1366 4134 1134 3806 
Q 844 3388 844 2259 
z
" id="ArialMT-30" transform="scale(0.015625)"/>
       </defs>
       <use xlink:href="#ArialMT-31"/>
       <use x="55.615234" xlink:href="#ArialMT-30"/>
      </g>
     </g>
    </g>
    <g id="xtick_3">
     <g id="line2d_3"/>
     <g id="text_3">
      <!-- 15 -->
      <g style="fill:#666666;" transform="translate(148.39 374.736625)scale(0.12 -0.12)">
       <use xlink:href="#ArialMT-31"/>
       <use x="55.615234" xlink:href="#ArialMT-35"/>
      </g>
     </g>
    </g>
    <g id="xtick_4">
     <g id="line2d_4"/>
     <g id="text_4">
      <!-- 20 -->
      <g style="fill:#666666;" transform="translate(197.99 374.736625)scale(0.12 -0.12)">
       <defs>
        <path d="M 3222 541 
L 3222 0 
L 194 0 
Q 188 203 259 391 
Q 375 700 629 1000 
Q 884 1300 1366 1694 
Q 2113 2306 2375 2664 
Q 2638 3022 2638 3341 
Q 2638 3675 2398 3904 
Q 2159 4134 1775 4134 
Q 1369 4134 1125 3890 
Q 881 3647 878 3216 
L 300 3275 
Q 359 3922 746 4261 
Q 1134 4600 1788 4600 
Q 2447 4600 2831 4234 
Q 3216 3869 3216 3328 
Q 3216 3053 3103 2787 
Q 2991 2522 2730 2228 
Q 2469 1934 1863 1422 
Q 1356 997 1212 845 
Q 1069 694 975 541 
L 3222 541 
z
" id="ArialMT-32" transform="scale(0.015625)"/>
       </defs>
       <use xlink:href="#ArialMT-32"/>
       <use x="55.615234" xlink:href="#ArialMT-30"/>
      </g>
     </g>
    </g>
    <g id="xtick_5">
     <g id="line2d_5"/>
     <g id="text_5">
      <!-- 25 -->
      <g style="fill:#666666;" transform="translate(247.59 374.736625)scale(0.12 -0.12)">
       <use xlink:href="#ArialMT-32"/>
       <use x="55.615234" xlink:href="#ArialMT-35"/>
      </g>
     </g>
    </g>
    <g id="xtick_6">
     <g id="line2d_6"/>
     <g id="text_6">
      <!-- 30 -->
      <g style="fill:#666666;" transform="translate(297.19 374.736625)scale(0.12 -0.12)">
       <defs>
        <path d="M 269 1209 
L 831 1284 
Q 928 806 1161 595 
Q 1394 384 1728 384 
Q 2125 384 2398 659 
Q 2672 934 2672 1341 
Q 2672 1728 2419 1979 
Q 2166 2231 1775 2231 
Q 1616 2231 1378 2169 
L 1441 2663 
Q 1497 2656 1531 2656 
Q 1891 2656 2178 2843 
Q 2466 3031 2466 3422 
Q 2466 3731 2256 3934 
Q 2047 4138 1716 4138 
Q 1388 4138 1169 3931 
Q 950 3725 888 3313 
L 325 3413 
Q 428 3978 793 4289 
Q 1159 4600 1703 4600 
Q 2078 4600 2393 4439 
Q 2709 4278 2876 4000 
Q 3044 3722 3044 3409 
Q 3044 3113 2884 2869 
Q 2725 2625 2413 2481 
Q 2819 2388 3044 2092 
Q 3269 1797 3269 1353 
Q 3269 753 2831 336 
Q 2394 -81 1725 -81 
Q 1122 -81 723 278 
Q 325 638 269 1209 
z
" id="ArialMT-33" transform="scale(0.015625)"/>
       </defs>
       <use xlink:href="#ArialMT-33"/>
       <use x="55.615234" xlink:href="#ArialMT-30"/>
      </g>
     </g>
    </g>
    <g id="xtick_7">
     <g id="line2d_7"/>
     <g id="text_7">
      <!-- 35 -->
      <g style="fill:#666666;" transform="translate(346.79 374.736625)scale(0.12 -0.12)">
       <use xlink:href="#ArialMT-33"/>
       <use x="55.615234" xlink:href="#ArialMT-35"/>
      </g>
     </g>
    </g>
    <g id="xtick_8">
     <g id="line2d_8"/>
     <g id="text_8">
      <!-- 40 -->
      <g style="fill:#666666;" transform="translate(396.39 374.736625)scale(0.12 -0.12)">
       <defs>
        <path d="M 2069 0 
L 2069 1097 
L 81 1097 
L 81 1613 
L 2172 4581 
L 2631 4581 
L 2631 1613 
L 3250 1613 
L 3250 1097 
L 2631 1097 
L 2631 0 
L 2069 0 
z
M 2069 1613 
L 2069 3678 
L 634 1613 
L 2069 1613 
z
" id="ArialMT-34" transform="scale(0.015625)"/>
       </defs>
       <use xlink:href="#ArialMT-34"/>
       <use x="55.615234" xlink:href="#ArialMT-30"/>
      </g>
     </g>
    </g>
    <g id="xtick_9">
     <g id="line2d_9"/>
     <g id="text_9">
      <!-- 45 -->
      <g style="fill:#666666;" transform="translate(445.99 374.736625)scale(0.12 -0.12)">
       <use xlink:href="#ArialMT-34"/>
       <use x="55.615234" xlink:href="#ArialMT-35"/>
      </g>
     </g>
    </g>
    <g id="xtick_10">
     <g id="line2d_10"/>
     <g id="text_10">
      <!-- 50 -->
      <g style="fill:#666666;" transform="translate(495.59 374.736625)scale(0.12 -0.12)">
       <use xlink:href="#ArialMT-35"/>
       <use x="55.615234" xlink:href="#ArialMT-30"/>
      </g>
     </g>
    </g>
    <g id="text_11">
     <!-- Sequence length -->
     <g style="fill:#333333;" transform="translate(234.028438 389.85725)scale(0.12 -0.12)">
      <defs>
       <path d="M 288 1472 
L 859 1522 
Q 900 1178 1048 958 
Q 1197 738 1509 602 
Q 1822 466 2213 466 
Q 2559 466 2825 569 
Q 3091 672 3220 851 
Q 3350 1031 3350 1244 
Q 3350 1459 3225 1620 
Q 3100 1781 2813 1891 
Q 2628 1963 1997 2114 
Q 1366 2266 1113 2400 
Q 784 2572 623 2826 
Q 463 3081 463 3397 
Q 463 3744 659 4045 
Q 856 4347 1234 4503 
Q 1613 4659 2075 4659 
Q 2584 4659 2973 4495 
Q 3363 4331 3572 4012 
Q 3781 3694 3797 3291 
L 3216 3247 
Q 3169 3681 2898 3903 
Q 2628 4125 2100 4125 
Q 1550 4125 1298 3923 
Q 1047 3722 1047 3438 
Q 1047 3191 1225 3031 
Q 1400 2872 2139 2705 
Q 2878 2538 3153 2413 
Q 3553 2228 3743 1945 
Q 3934 1663 3934 1294 
Q 3934 928 3725 604 
Q 3516 281 3123 101 
Q 2731 -78 2241 -78 
Q 1619 -78 1198 103 
Q 778 284 539 648 
Q 300 1013 288 1472 
z
" id="ArialMT-53" transform="scale(0.015625)"/>
       <path d="M 2694 1069 
L 3275 997 
Q 3138 488 2766 206 
Q 2394 -75 1816 -75 
Q 1088 -75 661 373 
Q 234 822 234 1631 
Q 234 2469 665 2931 
Q 1097 3394 1784 3394 
Q 2450 3394 2872 2941 
Q 3294 2488 3294 1666 
Q 3294 1616 3291 1516 
L 816 1516 
Q 847 969 1125 678 
Q 1403 388 1819 388 
Q 2128 388 2347 550 
Q 2566 713 2694 1069 
z
M 847 1978 
L 2700 1978 
Q 2663 2397 2488 2606 
Q 2219 2931 1791 2931 
Q 1403 2931 1139 2672 
Q 875 2413 847 1978 
z
" id="ArialMT-65" transform="scale(0.015625)"/>
       <path d="M 2538 -1272 
L 2538 353 
Q 2406 169 2170 47 
Q 1934 -75 1669 -75 
Q 1078 -75 651 397 
Q 225 869 225 1691 
Q 225 2191 398 2587 
Q 572 2984 901 3189 
Q 1231 3394 1625 3394 
Q 2241 3394 2594 2875 
L 2594 3319 
L 3100 3319 
L 3100 -1272 
L 2538 -1272 
z
M 803 1669 
Q 803 1028 1072 708 
Q 1341 388 1716 388 
Q 2075 388 2334 692 
Q 2594 997 2594 1619 
Q 2594 2281 2320 2615 
Q 2047 2950 1678 2950 
Q 1313 2950 1058 2639 
Q 803 2328 803 1669 
z
" id="ArialMT-71" transform="scale(0.015625)"/>
       <path d="M 2597 0 
L 2597 488 
Q 2209 -75 1544 -75 
Q 1250 -75 995 37 
Q 741 150 617 320 
Q 494 491 444 738 
Q 409 903 409 1263 
L 409 3319 
L 972 3319 
L 972 1478 
Q 972 1038 1006 884 
Q 1059 663 1231 536 
Q 1403 409 1656 409 
Q 1909 409 2131 539 
Q 2353 669 2445 892 
Q 2538 1116 2538 1541 
L 2538 3319 
L 3100 3319 
L 3100 0 
L 2597 0 
z
" id="ArialMT-75" transform="scale(0.015625)"/>
       <path d="M 422 0 
L 422 3319 
L 928 3319 
L 928 2847 
Q 1294 3394 1984 3394 
Q 2284 3394 2536 3286 
Q 2788 3178 2913 3003 
Q 3038 2828 3088 2588 
Q 3119 2431 3119 2041 
L 3119 0 
L 2556 0 
L 2556 2019 
Q 2556 2363 2490 2533 
Q 2425 2703 2258 2804 
Q 2091 2906 1866 2906 
Q 1506 2906 1245 2678 
Q 984 2450 984 1813 
L 984 0 
L 422 0 
z
" id="ArialMT-6e" transform="scale(0.015625)"/>
       <path d="M 2588 1216 
L 3141 1144 
Q 3050 572 2676 248 
Q 2303 -75 1759 -75 
Q 1078 -75 664 370 
Q 250 816 250 1647 
Q 250 2184 428 2587 
Q 606 2991 970 3192 
Q 1334 3394 1763 3394 
Q 2303 3394 2647 3120 
Q 2991 2847 3088 2344 
L 2541 2259 
Q 2463 2594 2264 2762 
Q 2066 2931 1784 2931 
Q 1359 2931 1093 2626 
Q 828 2322 828 1663 
Q 828 994 1084 691 
Q 1341 388 1753 388 
Q 2084 388 2306 591 
Q 2528 794 2588 1216 
z
" id="ArialMT-63" transform="scale(0.015625)"/>
       <path id="ArialMT-20" transform="scale(0.015625)"/>
       <path d="M 409 0 
L 409 4581 
L 972 4581 
L 972 0 
L 409 0 
z
" id="ArialMT-6c" transform="scale(0.015625)"/>
       <path d="M 319 -275 
L 866 -356 
Q 900 -609 1056 -725 
Q 1266 -881 1628 -881 
Q 2019 -881 2231 -725 
Q 2444 -569 2519 -288 
Q 2563 -116 2559 434 
Q 2191 0 1641 0 
Q 956 0 581 494 
Q 206 988 206 1678 
Q 206 2153 378 2554 
Q 550 2956 876 3175 
Q 1203 3394 1644 3394 
Q 2231 3394 2613 2919 
L 2613 3319 
L 3131 3319 
L 3131 450 
Q 3131 -325 2973 -648 
Q 2816 -972 2473 -1159 
Q 2131 -1347 1631 -1347 
Q 1038 -1347 672 -1080 
Q 306 -813 319 -275 
z
M 784 1719 
Q 784 1066 1043 766 
Q 1303 466 1694 466 
Q 2081 466 2343 764 
Q 2606 1063 2606 1700 
Q 2606 2309 2336 2618 
Q 2066 2928 1684 2928 
Q 1309 2928 1046 2623 
Q 784 2319 784 1719 
z
" id="ArialMT-67" transform="scale(0.015625)"/>
       <path d="M 1650 503 
L 1731 6 
Q 1494 -44 1306 -44 
Q 1000 -44 831 53 
Q 663 150 594 308 
Q 525 466 525 972 
L 525 2881 
L 113 2881 
L 113 3319 
L 525 3319 
L 525 4141 
L 1084 4478 
L 1084 3319 
L 1650 3319 
L 1650 2881 
L 1084 2881 
L 1084 941 
Q 1084 700 1114 631 
Q 1144 563 1211 522 
Q 1278 481 1403 481 
Q 1497 481 1650 503 
z
" id="ArialMT-74" transform="scale(0.015625)"/>
       <path d="M 422 0 
L 422 4581 
L 984 4581 
L 984 2938 
Q 1378 3394 1978 3394 
Q 2347 3394 2619 3248 
Q 2891 3103 3008 2847 
Q 3125 2591 3125 2103 
L 3125 0 
L 2563 0 
L 2563 2103 
Q 2563 2525 2380 2717 
Q 2197 2909 1863 2909 
Q 1613 2909 1392 2779 
Q 1172 2650 1078 2428 
Q 984 2206 984 1816 
L 984 0 
L 422 0 
z
" id="ArialMT-68" transform="scale(0.015625)"/>
      </defs>
      <use xlink:href="#ArialMT-53"/>
      <use x="66.699219" xlink:href="#ArialMT-65"/>
      <use x="122.314453" xlink:href="#ArialMT-71"/>
      <use x="177.929688" xlink:href="#ArialMT-75"/>
      <use x="233.544922" xlink:href="#ArialMT-65"/>
      <use x="289.160156" xlink:href="#ArialMT-6e"/>
      <use x="344.775391" xlink:href="#ArialMT-63"/>
      <use x="394.775391" xlink:href="#ArialMT-65"/>
      <use x="450.390625" xlink:href="#ArialMT-20"/>
      <use x="478.173828" xlink:href="#ArialMT-6c"/>
      <use x="500.390625" xlink:href="#ArialMT-65"/>
      <use x="556.005859" xlink:href="#ArialMT-6e"/>
      <use x="611.621094" xlink:href="#ArialMT-67"/>
      <use x="667.236328" xlink:href="#ArialMT-74"/>
      <use x="695.019531" xlink:href="#ArialMT-68"/>
     </g>
    </g>
   </g>
   <g id="matplotlib.axis_2">
    <g id="ytick_1">
     <g id="line2d_11"/>
     <g id="text_12">
      <!-- −1.5 -->
      <g style="fill:#666666;" transform="translate(22.174375 339.882249)scale(0.12 -0.12)">
       <defs>
        <path d="M 3381 1997 
L 356 1997 
L 356 2522 
L 3381 2522 
L 3381 1997 
z
" id="ArialMT-2212" transform="scale(0.015625)"/>
        <path d="M 581 0 
L 581 641 
L 1222 641 
L 1222 0 
L 581 0 
z
" id="ArialMT-2e" transform="scale(0.015625)"/>
       </defs>
       <use xlink:href="#ArialMT-2212"/>
       <use x="58.398438" xlink:href="#ArialMT-31"/>
       <use x="114.013672" xlink:href="#ArialMT-2e"/>
       <use x="141.796875" xlink:href="#ArialMT-35"/>
      </g>
     </g>
    </g>
    <g id="ytick_2">
     <g id="line2d_12"/>
     <g id="text_13">
      <!-- −1.0 -->
      <g style="fill:#666666;" transform="translate(22.174375 266.123399)scale(0.12 -0.12)">
       <use xlink:href="#ArialMT-2212"/>
       <use x="58.398438" xlink:href="#ArialMT-31"/>
       <use x="114.013672" xlink:href="#ArialMT-2e"/>
       <use x="141.796875" xlink:href="#ArialMT-30"/>
      </g>
     </g>
    </g>
    <g id="ytick_3">
     <g id="line2d_13"/>
     <g id="text_14">
      <!-- −0.5 -->
      <g style="fill:#666666;" transform="translate(22.174375 192.36455)scale(0.12 -0.12)">
       <use xlink:href="#ArialMT-2212"/>
       <use x="58.398438" xlink:href="#ArialMT-30"/>
       <use x="114.013672" xlink:href="#ArialMT-2e"/>
       <use x="141.796875" xlink:href="#ArialMT-35"/>
      </g>
     </g>
    </g>
    <g id="ytick_4">
     <g id="line2d_14"/>
     <g id="text_15">
      <!-- 0.0 -->
      <g style="fill:#666666;" transform="translate(29.183125 118.605701)scale(0.12 -0.12)">
       <use xlink:href="#ArialMT-30"/>
       <use x="55.615234" xlink:href="#ArialMT-2e"/>
       <use x="83.398438" xlink:href="#ArialMT-30"/>
      </g>
     </g>
    </g>
    <g id="ytick_5">
     <g id="line2d_15"/>
     <g id="text_16">
      <!-- 0.5 -->
      <g style="fill:#666666;" transform="translate(29.183125 44.846851)scale(0.12 -0.12)">
       <use xlink:href="#ArialMT-30"/>
       <use x="55.615234" xlink:href="#ArialMT-2e"/>
       <use x="83.398438" xlink:href="#ArialMT-35"/>
      </g>
     </g>
    </g>
    <g id="text_17">
     <!-- Metric value -->
     <g style="fill:#333333;" transform="translate(15.789375 222.169125)rotate(-90)scale(0.12 -0.12)">
      <defs>
       <path d="M 475 0 
L 475 4581 
L 1388 4581 
L 2472 1338 
Q 2622 884 2691 659 
Q 2769 909 2934 1394 
L 4031 4581 
L 4847 4581 
L 4847 0 
L 4263 0 
L 4263 3834 
L 2931 0 
L 2384 0 
L 1059 3900 
L 1059 0 
L 475 0 
z
" id="ArialMT-4d" transform="scale(0.015625)"/>
       <path d="M 416 0 
L 416 3319 
L 922 3319 
L 922 2816 
Q 1116 3169 1280 3281 
Q 1444 3394 1641 3394 
Q 1925 3394 2219 3213 
L 2025 2691 
Q 1819 2813 1613 2813 
Q 1428 2813 1281 2702 
Q 1134 2591 1072 2394 
Q 978 2094 978 1738 
L 978 0 
L 416 0 
z
" id="ArialMT-72" transform="scale(0.015625)"/>
       <path d="M 425 3934 
L 425 4581 
L 988 4581 
L 988 3934 
L 425 3934 
z
M 425 0 
L 425 3319 
L 988 3319 
L 988 0 
L 425 0 
z
" id="ArialMT-69" transform="scale(0.015625)"/>
       <path d="M 1344 0 
L 81 3319 
L 675 3319 
L 1388 1331 
Q 1503 1009 1600 663 
Q 1675 925 1809 1294 
L 2547 3319 
L 3125 3319 
L 1869 0 
L 1344 0 
z
" id="ArialMT-76" transform="scale(0.015625)"/>
       <path d="M 2588 409 
Q 2275 144 1986 34 
Q 1697 -75 1366 -75 
Q 819 -75 525 192 
Q 231 459 231 875 
Q 231 1119 342 1320 
Q 453 1522 633 1644 
Q 813 1766 1038 1828 
Q 1203 1872 1538 1913 
Q 2219 1994 2541 2106 
Q 2544 2222 2544 2253 
Q 2544 2597 2384 2738 
Q 2169 2928 1744 2928 
Q 1347 2928 1158 2789 
Q 969 2650 878 2297 
L 328 2372 
Q 403 2725 575 2942 
Q 747 3159 1072 3276 
Q 1397 3394 1825 3394 
Q 2250 3394 2515 3294 
Q 2781 3194 2906 3042 
Q 3031 2891 3081 2659 
Q 3109 2516 3109 2141 
L 3109 1391 
Q 3109 606 3145 398 
Q 3181 191 3288 0 
L 2700 0 
Q 2613 175 2588 409 
z
M 2541 1666 
Q 2234 1541 1622 1453 
Q 1275 1403 1131 1340 
Q 988 1278 909 1158 
Q 831 1038 831 891 
Q 831 666 1001 516 
Q 1172 366 1500 366 
Q 1825 366 2078 508 
Q 2331 650 2450 897 
Q 2541 1088 2541 1459 
L 2541 1666 
z
" id="ArialMT-61" transform="scale(0.015625)"/>
      </defs>
      <use xlink:href="#ArialMT-4d"/>
      <use x="83.300781" xlink:href="#ArialMT-65"/>
      <use x="138.916016" xlink:href="#ArialMT-74"/>
      <use x="166.699219" xlink:href="#ArialMT-72"/>
      <use x="200" xlink:href="#ArialMT-69"/>
      <use x="222.216797" xlink:href="#ArialMT-63"/>
      <use x="272.216797" xlink:href="#ArialMT-20"/>
      <use x="300" xlink:href="#ArialMT-76"/>
      <use x="350" xlink:href="#ArialMT-61"/>
      <use x="405.615234" xlink:href="#ArialMT-6c"/>
      <use x="427.832031" xlink:href="#ArialMT-75"/>
      <use x="483.447266" xlink:href="#ArialMT-65"/>
     </g>
    </g>
   </g>
   <g id="line2d_16">
    <path clip-path="url(#p45e102ce07)" d="M 55.863125 114.200637 
L 65.783125 118.386962 
L 75.703125 122.837611 
L 85.623125 127.418165 
L 95.543125 133.256524 
L 105.463125 138.864533 
L 115.383125 144.522896 
L 125.303125 150.633586 
L 135.223125 156.759566 
L 145.143125 163.788641 
L 155.063125 169.127993 
L 164.983125 174.432046 
L 174.903125 179.963844 
L 184.823125 189.036699 
L 194.743125 194.644824 
L 204.663125 199.725321 
L 214.583125 205.857984 
L 224.503125 212.738177 
L 234.423125 220.008669 
L 244.343125 225.643893 
L 254.263125 230.24339 
L 264.183125 236.467192 
L 274.103125 241.303989 
L 284.023125 247.964751 
L 293.943125 253.887718 
L 303.863125 259.461816 
L 313.783125 264.354166 
L 323.703125 269.755023 
L 333.623125 275.121088 
L 343.543125 279.8383 
L 353.463125 285.598096 
L 363.383125 292.402664 
L 373.303125 297.863532 
L 383.223125 303.680508 
L 393.143125 307.80111 
L 403.063125 312.186898 
L 412.983125 318.431324 
L 422.903125 322.010291 
L 432.823125 326.584154 
L 442.743125 332.503964 
L 452.663125 335.392009 
L 462.583125 338.434344 
L 472.503125 343.649413 
L 482.423125 347.621126 
L 492.343125 352.519629 
L 502.263125 356.14725 
" style="fill:none;stroke:#7fc97f;stroke-linecap:square;stroke-width:1.5;"/>
   </g>
   <g id="line2d_17">
    <path clip-path="url(#p45e102ce07)" d="M 55.863125 114.311013 
L 65.783125 114.313584 
L 75.703125 114.324179 
L 85.623125 114.321956 
L 95.543125 114.299843 
L 105.463125 114.292613 
L 115.383125 114.257843 
L 125.303125 114.233699 
L 135.223125 114.175196 
L 145.143125 114.14332 
L 155.063125 114.115799 
L 164.983125 114.089458 
L 174.903125 114.064263 
L 184.823125 114.037648 
L 194.743125 113.991754 
L 204.663125 113.932421 
L 214.583125 113.875087 
L 224.503125 113.839415 
L 234.423125 113.815679 
L 244.343125 113.772177 
L 254.263125 113.678448 
L 264.183125 113.538966 
L 274.103125 113.495348 
L 284.023125 113.358209 
L 293.943125 113.282362 
L 303.863125 113.21512 
L 313.783125 113.052219 
L 323.703125 112.870685 
L 333.623125 112.740069 
L 343.543125 112.645275 
L 353.463125 112.500689 
L 363.383125 112.394898 
L 373.303125 112.359504 
L 383.223125 112.21822 
L 393.143125 112.060745 
L 403.063125 111.677042 
L 412.983125 111.618884 
L 422.903125 111.439255 
L 432.823125 111.128084 
L 442.743125 110.983567 
L 452.663125 110.943152 
L 462.583125 110.843816 
L 472.503125 110.54128 
L 482.423125 110.400036 
L 492.343125 110.164405 
L 502.263125 109.902332 
" style="fill:none;stroke:#beaed4;stroke-linecap:square;stroke-width:1.5;"/>
   </g>
   <g id="line2d_18">
    <path clip-path="url(#p45e102ce07)" d="M 75.703125 114.311013 
L 85.623125 114.311013 
L 95.543125 114.311013 
L 105.463125 114.291729 
L 115.383125 114.244488 
L 125.303125 114.300504 
L 135.223125 114.309766 
L 145.143125 114.290481 
L 155.063125 114.313881 
L 164.983125 114.310415 
L 174.903125 114.282684 
L 184.823125 114.291048 
L 194.743125 114.331938 
L 204.663125 114.363956 
L 214.583125 114.332625 
L 224.503125 114.343224 
L 234.423125 114.36885 
L 244.343125 114.36871 
L 254.263125 114.309315 
L 264.183125 114.32792 
L 274.103125 114.339006 
L 284.023125 114.337809 
L 293.943125 114.317395 
L 303.863125 114.332151 
L 313.783125 114.296133 
L 323.703125 114.186731 
L 333.623125 114.244772 
L 343.543125 114.197349 
L 353.463125 114.237768 
L 363.383125 114.194094 
L 373.303125 114.20194 
L 383.223125 114.200882 
L 393.143125 113.999993 
L 403.063125 114.056936 
L 412.983125 114.088879 
L 422.903125 114.113115 
L 432.823125 114.106757 
L 442.743125 114.085186 
L 452.663125 114.103264 
L 462.583125 114.055302 
L 472.503125 114.03084 
L 482.423125 114.001416 
L 492.343125 113.977079 
L 502.263125 113.938319 
" style="fill:none;stroke:#386cb0;stroke-linecap:square;stroke-width:1.5;"/>
   </g>
   <g id="line2d_19">
    <path clip-path="url(#p45e102ce07)" d="M 55.863125 23.50725 
L 65.783125 27.162096 
L 75.703125 29.218833 
L 85.623125 31.204648 
L 95.543125 32.623087 
L 105.463125 33.819305 
L 115.383125 34.883134 
L 125.303125 35.937507 
L 135.223125 37.039162 
L 145.143125 37.417413 
L 155.063125 37.620722 
L 164.983125 37.998973 
L 174.903125 39.053346 
L 184.823125 39.393771 
L 194.743125 39.535615 
L 204.663125 39.819303 
L 214.583125 40.218493 
L 224.503125 40.714946 
L 234.423125 40.960809 
L 244.343125 41.291778 
L 254.263125 41.667327 
L 264.183125 41.880093 
L 274.103125 42.281984 
L 284.023125 42.485294 
L 293.943125 42.603497 
L 303.863125 42.768982 
L 313.783125 43.123592 
L 323.703125 43.312717 
L 333.623125 43.421464 
L 343.543125 43.624774 
L 353.463125 43.837539 
L 363.383125 43.884821 
L 373.303125 44.127982 
L 383.223125 44.340748 
L 393.143125 44.827745 
L 403.063125 45.300558 
L 412.983125 45.522781 
L 422.903125 45.782828 
L 432.823125 46.023963 
L 442.743125 46.203631 
L 452.663125 46.440038 
L 462.583125 46.832473 
L 472.503125 46.974317 
L 482.423125 47.187083 
L 492.343125 47.376208 
L 502.263125 47.59843 
" style="fill:none;stroke:#bf5b17;stroke-linecap:square;stroke-width:1.5;"/>
   </g>
   <g id="line2d_20">
    <path clip-path="url(#p45e102ce07)" d="M 55.863125 114.565793 
L 65.783125 115.028113 
L 75.703125 115.203542 
L 85.623125 115.271882 
L 95.543125 115.570648 
L 105.463125 115.593883 
L 115.383125 115.950063 
L 125.303125 116.12307 
L 135.223125 116.428236 
L 145.143125 116.547731 
L 155.063125 116.743521 
L 164.983125 116.786324 
L 174.903125 117.009592 
L 184.823125 117.02907 
L 194.743125 117.205357 
L 204.663125 117.473486 
L 214.583125 117.704383 
L 224.503125 117.797437 
L 234.423125 117.831545 
L 244.343125 117.907411 
L 254.263125 118.341872 
L 264.183125 118.943424 
L 274.103125 119.061845 
L 284.023125 119.368496 
L 293.943125 119.494095 
L 303.863125 119.60652 
L 313.783125 119.991153 
L 323.703125 120.268904 
L 333.623125 120.714862 
L 343.543125 120.89144 
L 353.463125 121.215384 
L 363.383125 121.496551 
L 373.303125 121.491925 
L 383.223125 121.623748 
L 393.143125 122.007782 
L 403.063125 122.770765 
L 412.983125 123.096699 
L 422.903125 123.490813 
L 432.823125 123.985968 
L 442.743125 124.255171 
L 452.663125 124.230901 
L 462.583125 124.472581 
L 472.503125 125.12576 
L 482.423125 125.323644 
L 492.343125 125.578447 
L 502.263125 125.972759 
" style="fill:none;stroke:#fdc086;stroke-linecap:square;stroke-width:1.5;"/>
   </g>
   <g id="patch_3">
    <path d="M 55.863125 356.14725 
L 55.863125 23.50725 
" style="fill:none;stroke:#cccccc;stroke-linecap:square;stroke-linejoin:miter;stroke-width:0.75;"/>
   </g>
   <g id="patch_4">
    <path d="M 55.863125 356.14725 
L 502.263125 356.14725 
" style="fill:none;stroke:#cccccc;stroke-linecap:square;stroke-linejoin:miter;stroke-width:0.75;"/>
   </g>
   <g id="text_18">
    <!-- Mean of transitions -->
    <g style="fill:#333333;" transform="translate(218.236625 17.50725)scale(0.144 -0.144)">
     <defs>
      <path d="M 213 1659 
Q 213 2581 725 3025 
Q 1153 3394 1769 3394 
Q 2453 3394 2887 2945 
Q 3322 2497 3322 1706 
Q 3322 1066 3130 698 
Q 2938 331 2570 128 
Q 2203 -75 1769 -75 
Q 1072 -75 642 372 
Q 213 819 213 1659 
z
M 791 1659 
Q 791 1022 1069 705 
Q 1347 388 1769 388 
Q 2188 388 2466 706 
Q 2744 1025 2744 1678 
Q 2744 2294 2464 2611 
Q 2184 2928 1769 2928 
Q 1347 2928 1069 2612 
Q 791 2297 791 1659 
z
" id="ArialMT-6f" transform="scale(0.015625)"/>
      <path d="M 556 0 
L 556 2881 
L 59 2881 
L 59 3319 
L 556 3319 
L 556 3672 
Q 556 4006 616 4169 
Q 697 4388 901 4523 
Q 1106 4659 1475 4659 
Q 1713 4659 2000 4603 
L 1916 4113 
Q 1741 4144 1584 4144 
Q 1328 4144 1222 4034 
Q 1116 3925 1116 3625 
L 1116 3319 
L 1763 3319 
L 1763 2881 
L 1116 2881 
L 1116 0 
L 556 0 
z
" id="ArialMT-66" transform="scale(0.015625)"/>
      <path d="M 197 991 
L 753 1078 
Q 800 744 1014 566 
Q 1228 388 1613 388 
Q 2000 388 2187 545 
Q 2375 703 2375 916 
Q 2375 1106 2209 1216 
Q 2094 1291 1634 1406 
Q 1016 1563 777 1677 
Q 538 1791 414 1992 
Q 291 2194 291 2438 
Q 291 2659 392 2848 
Q 494 3038 669 3163 
Q 800 3259 1026 3326 
Q 1253 3394 1513 3394 
Q 1903 3394 2198 3281 
Q 2494 3169 2634 2976 
Q 2775 2784 2828 2463 
L 2278 2388 
Q 2241 2644 2061 2787 
Q 1881 2931 1553 2931 
Q 1166 2931 1000 2803 
Q 834 2675 834 2503 
Q 834 2394 903 2306 
Q 972 2216 1119 2156 
Q 1203 2125 1616 2013 
Q 2213 1853 2448 1751 
Q 2684 1650 2818 1456 
Q 2953 1263 2953 975 
Q 2953 694 2789 445 
Q 2625 197 2315 61 
Q 2006 -75 1616 -75 
Q 969 -75 630 194 
Q 291 463 197 991 
z
" id="ArialMT-73" transform="scale(0.015625)"/>
     </defs>
     <use xlink:href="#ArialMT-4d"/>
     <use x="83.300781" xlink:href="#ArialMT-65"/>
     <use x="138.916016" xlink:href="#ArialMT-61"/>
     <use x="194.53125" xlink:href="#ArialMT-6e"/>
     <use x="250.146484" xlink:href="#ArialMT-20"/>
     <use x="277.929688" xlink:href="#ArialMT-6f"/>
     <use x="333.544922" xlink:href="#ArialMT-66"/>
     <use x="361.328125" xlink:href="#ArialMT-20"/>
     <use x="389.111328" xlink:href="#ArialMT-74"/>
     <use x="416.894531" xlink:href="#ArialMT-72"/>
     <use x="450.195312" xlink:href="#ArialMT-61"/>
     <use x="505.810547" xlink:href="#ArialMT-6e"/>
     <use x="561.425781" xlink:href="#ArialMT-73"/>
     <use x="611.425781" xlink:href="#ArialMT-69"/>
     <use x="633.642578" xlink:href="#ArialMT-74"/>
     <use x="661.425781" xlink:href="#ArialMT-69"/>
     <use x="683.642578" xlink:href="#ArialMT-6f"/>
     <use x="739.257812" xlink:href="#ArialMT-6e"/>
     <use x="794.873047" xlink:href="#ArialMT-73"/>
    </g>
   </g>
   <g id="legend_1">
    <g id="patch_5">
     <path d="M 61.863125 350.14725 
L 138.41375 350.14725 
L 138.41375 261.675375 
L 61.863125 261.675375 
z
" style="fill:#ffffff;opacity:0.6;"/>
    </g>
    <g id="line2d_21">
     <path d="M 66.663125 270.86475 
L 90.663125 270.86475 
" style="fill:none;stroke:#7fc97f;stroke-linecap:square;stroke-width:1.5;"/>
    </g>
    <g id="line2d_22"/>
    <g id="text_19">
     <!-- L -->
     <g style="fill:#333333;" transform="translate(100.263125 275.06475)scale(0.12 -0.12)">
      <defs>
       <path d="M 469 0 
L 469 4581 
L 1075 4581 
L 1075 541 
L 3331 541 
L 3331 0 
L 469 0 
z
" id="ArialMT-4c" transform="scale(0.015625)"/>
      </defs>
      <use xlink:href="#ArialMT-4c"/>
     </g>
    </g>
    <g id="line2d_23">
     <path d="M 66.663125 287.839125 
L 90.663125 287.839125 
" style="fill:none;stroke:#beaed4;stroke-linecap:square;stroke-width:1.5;"/>
    </g>
    <g id="line2d_24"/>
    <g id="text_20">
     <!-- LSA -->
     <g style="fill:#333333;" transform="translate(100.263125 292.039125)scale(0.12 -0.12)">
      <defs>
       <path d="M -9 0 
L 1750 4581 
L 2403 4581 
L 4278 0 
L 3588 0 
L 3053 1388 
L 1138 1388 
L 634 0 
L -9 0 
z
M 1313 1881 
L 2866 1881 
L 2388 3150 
Q 2169 3728 2063 4100 
Q 1975 3659 1816 3225 
L 1313 1881 
z
" id="ArialMT-41" transform="scale(0.015625)"/>
      </defs>
      <use xlink:href="#ArialMT-4c"/>
      <use x="55.615234" xlink:href="#ArialMT-53"/>
      <use x="122.314453" xlink:href="#ArialMT-41"/>
     </g>
    </g>
    <g id="line2d_25">
     <path d="M 66.663125 304.8135 
L 90.663125 304.8135 
" style="fill:none;stroke:#386cb0;stroke-linecap:square;stroke-width:1.5;"/>
    </g>
    <g id="line2d_26"/>
    <g id="text_21">
     <!-- LSA-5 -->
     <g style="fill:#333333;" transform="translate(100.263125 309.0135)scale(0.12 -0.12)">
      <defs>
       <path d="M 203 1375 
L 203 1941 
L 1931 1941 
L 1931 1375 
L 203 1375 
z
" id="ArialMT-2d" transform="scale(0.015625)"/>
      </defs>
      <use xlink:href="#ArialMT-4c"/>
      <use x="55.615234" xlink:href="#ArialMT-53"/>
      <use x="122.314453" xlink:href="#ArialMT-41"/>
      <use x="189.013672" xlink:href="#ArialMT-2d"/>
      <use x="222.314453" xlink:href="#ArialMT-35"/>
     </g>
    </g>
    <g id="line2d_27">
     <path d="M 66.663125 321.787875 
L 90.663125 321.787875 
" style="fill:none;stroke:#bf5b17;stroke-linecap:square;stroke-width:1.5;"/>
    </g>
    <g id="line2d_28"/>
    <g id="text_22">
     <!-- MCM -->
     <g style="fill:#333333;" transform="translate(100.263125 325.987875)scale(0.12 -0.12)">
      <defs>
       <path d="M 3763 1606 
L 4369 1453 
Q 4178 706 3683 314 
Q 3188 -78 2472 -78 
Q 1731 -78 1267 223 
Q 803 525 561 1097 
Q 319 1669 319 2325 
Q 319 3041 592 3573 
Q 866 4106 1370 4382 
Q 1875 4659 2481 4659 
Q 3169 4659 3637 4309 
Q 4106 3959 4291 3325 
L 3694 3184 
Q 3534 3684 3231 3912 
Q 2928 4141 2469 4141 
Q 1941 4141 1586 3887 
Q 1231 3634 1087 3207 
Q 944 2781 944 2328 
Q 944 1744 1114 1308 
Q 1284 872 1643 656 
Q 2003 441 2422 441 
Q 2931 441 3284 734 
Q 3638 1028 3763 1606 
z
" id="ArialMT-43" transform="scale(0.015625)"/>
      </defs>
      <use xlink:href="#ArialMT-4d"/>
      <use x="83.300781" xlink:href="#ArialMT-43"/>
      <use x="155.517578" xlink:href="#ArialMT-4d"/>
     </g>
    </g>
    <g id="line2d_29">
     <path d="M 66.663125 338.76225 
L 90.663125 338.76225 
" style="fill:none;stroke:#fdc086;stroke-linecap:square;stroke-width:1.5;"/>
    </g>
    <g id="line2d_30"/>
    <g id="text_23">
     <!-- Q -->
     <g style="fill:#333333;" transform="translate(100.263125 342.96225)scale(0.12 -0.12)">
      <defs>
       <path d="M 3966 491 
Q 4388 200 4744 66 
L 4566 -356 
Q 4072 -178 3581 206 
Q 3072 -78 2456 -78 
Q 1834 -78 1328 222 
Q 822 522 548 1065 
Q 275 1609 275 2291 
Q 275 2969 550 3525 
Q 825 4081 1333 4372 
Q 1841 4663 2469 4663 
Q 3103 4663 3612 4361 
Q 4122 4059 4389 3517 
Q 4656 2975 4656 2294 
Q 4656 1728 4484 1276 
Q 4313 825 3966 491 
z
M 2631 1266 
Q 3156 1119 3497 828 
Q 4031 1316 4031 2294 
Q 4031 2850 3842 3265 
Q 3653 3681 3289 3911 
Q 2925 4141 2472 4141 
Q 1794 4141 1347 3677 
Q 900 3213 900 2291 
Q 900 1397 1342 919 
Q 1784 441 2472 441 
Q 2797 441 3084 563 
Q 2800 747 2484 825 
L 2631 1266 
z
" id="ArialMT-51" transform="scale(0.015625)"/>
      </defs>
      <use xlink:href="#ArialMT-51"/>
     </g>
    </g>
   </g>
  </g>
 </g>
 <defs>
  <clipPath id="p45e102ce07">
   <rect height="332.64" width="446.4" x="55.863125" y="23.50725"/>
  </clipPath>
 </defs>
</svg>
