<?xml version="1.0" encoding="utf-8" standalone="no"?>
<!DOCTYPE svg PUBLIC "-//W3C//DTD SVG 1.1//EN"
  "http://www.w3.org/Graphics/SVG/1.1/DTD/svg11.dtd">
<svg height="399.582875pt" version="1.1" viewBox="0 0 506.129375 399.582875" width="506.129375pt" xmlns="http://www.w3.org/2000/svg" xmlns:xlink="http://www.w3.org/1999/xlink">
 <metadata>
  <rdf:RDF xmlns:cc="http://creativecommons.org/ns#" xmlns:dc="http://purl.org/dc/elements/1.1/" xmlns:rdf="http://www.w3.org/1999/02/22-rdf-syntax-ns#">
   <cc:Work>
    <dc:type rdf:resource="http://purl.org/dc/dcmitype/StillImage"/>
    <dc:date>2021-05-13T15:24:51.157545</dc:date>
    <dc:format>image/svg+xml</dc:format>
    <dc:creator>
     <cc:Agent>
      <dc:title>Matplotlib v3.4.1, https://matplotlib.org/</dc:title>
     </cc:Agent>
    </dc:creator>
   </cc:Work>
  </rdf:RDF>
 </metadata>
 <defs>
  <style type="text/css">*{stroke-linecap:butt;stroke-linejoin:round;}</style>
 </defs>
 <g id="figure_1">
  <g id="patch_1">
   <path d="M 0 399.582875 
L 506.129375 399.582875 
L 506.129375 0 
L 0 0 
z
" style="fill:#ffffff;"/>
  </g>
  <g id="axes_1">
   <g id="patch_2">
    <path d="M 45.85625 356.14725 
L 492.25625 356.14725 
L 492.25625 23.50725 
L 45.85625 23.50725 
z
" style="fill:#ffffff;"/>
   </g>
   <g id="matplotlib.axis_1">
    <g id="xtick_1">
     <g id="line2d_1"/>
     <g id="text_1">
      <!-- 5 -->
      <g style="fill:#666666;" transform="translate(42.519688 374.736625)scale(0.12 -0.12)">
       <defs>
        <path d="M 266 1200 
L 856 1250 
Q 922 819 1161 601 
Q 1400 384 1738 384 
Q 2144 384 2425 690 
Q 2706 997 2706 1503 
Q 2706 1984 2436 2262 
Q 2166 2541 1728 2541 
Q 1456 2541 1237 2417 
Q 1019 2294 894 2097 
L 366 2166 
L 809 4519 
L 3088 4519 
L 3088 3981 
L 1259 3981 
L 1013 2750 
Q 1425 3038 1878 3038 
Q 2478 3038 2890 2622 
Q 3303 2206 3303 1553 
Q 3303 931 2941 478 
Q 2500 -78 1738 -78 
Q 1113 -78 717 272 
Q 322 622 266 1200 
z
" id="ArialMT-35" transform="scale(0.015625)"/>
       </defs>
       <use xlink:href="#ArialMT-35"/>
      </g>
     </g>
    </g>
    <g id="xtick_2">
     <g id="line2d_2"/>
     <g id="text_2">
      <!-- 10 -->
      <g style="fill:#666666;" transform="translate(88.783125 374.736625)scale(0.12 -0.12)">
       <defs>
        <path d="M 2384 0 
L 1822 0 
L 1822 3584 
Q 1619 3391 1289 3197 
Q 959 3003 697 2906 
L 697 3450 
Q 1169 3672 1522 3987 
Q 1875 4303 2022 4600 
L 2384 4600 
L 2384 0 
z
" id="ArialMT-31" transform="scale(0.015625)"/>
        <path d="M 266 2259 
Q 266 3072 433 3567 
Q 600 4063 929 4331 
Q 1259 4600 1759 4600 
Q 2128 4600 2406 4451 
Q 2684 4303 2865 4023 
Q 3047 3744 3150 3342 
Q 3253 2941 3253 2259 
Q 3253 1453 3087 958 
Q 2922 463 2592 192 
Q 2263 -78 1759 -78 
Q 1097 -78 719 397 
Q 266 969 266 2259 
z
M 844 2259 
Q 844 1131 1108 757 
Q 1372 384 1759 384 
Q 2147 384 2411 759 
Q 2675 1134 2675 2259 
Q 2675 3391 2411 3762 
Q 2147 4134 1753 4134 
Q 1366 4134 1134 3806 
Q 844 3388 844 2259 
z
" id="ArialMT-30" transform="scale(0.015625)"/>
       </defs>
       <use xlink:href="#ArialMT-31"/>
       <use x="55.615234" xlink:href="#ArialMT-30"/>
      </g>
     </g>
    </g>
    <g id="xtick_3">
     <g id="line2d_3"/>
     <g id="text_3">
      <!-- 15 -->
      <g style="fill:#666666;" transform="translate(138.383125 374.736625)scale(0.12 -0.12)">
       <use xlink:href="#ArialMT-31"/>
       <use x="55.615234" xlink:href="#ArialMT-35"/>
      </g>
     </g>
    </g>
    <g id="xtick_4">
     <g id="line2d_4"/>
     <g id="text_4">
      <!-- 20 -->
      <g style="fill:#666666;" transform="translate(187.983125 374.736625)scale(0.12 -0.12)">
       <defs>
        <path d="M 3222 541 
L 3222 0 
L 194 0 
Q 188 203 259 391 
Q 375 700 629 1000 
Q 884 1300 1366 1694 
Q 2113 2306 2375 2664 
Q 2638 3022 2638 3341 
Q 2638 3675 2398 3904 
Q 2159 4134 1775 4134 
Q 1369 4134 1125 3890 
Q 881 3647 878 3216 
L 300 3275 
Q 359 3922 746 4261 
Q 1134 4600 1788 4600 
Q 2447 4600 2831 4234 
Q 3216 3869 3216 3328 
Q 3216 3053 3103 2787 
Q 2991 2522 2730 2228 
Q 2469 1934 1863 1422 
Q 1356 997 1212 845 
Q 1069 694 975 541 
L 3222 541 
z
" id="ArialMT-32" transform="scale(0.015625)"/>
       </defs>
       <use xlink:href="#ArialMT-32"/>
       <use x="55.615234" xlink:href="#ArialMT-30"/>
      </g>
     </g>
    </g>
    <g id="xtick_5">
     <g id="line2d_5"/>
     <g id="text_5">
      <!-- 25 -->
      <g style="fill:#666666;" transform="translate(237.583125 374.736625)scale(0.12 -0.12)">
       <use xlink:href="#ArialMT-32"/>
       <use x="55.615234" xlink:href="#ArialMT-35"/>
      </g>
     </g>
    </g>
    <g id="xtick_6">
     <g id="line2d_6"/>
     <g id="text_6">
      <!-- 30 -->
      <g style="fill:#666666;" transform="translate(287.183125 374.736625)scale(0.12 -0.12)">
       <defs>
        <path d="M 269 1209 
L 831 1284 
Q 928 806 1161 595 
Q 1394 384 1728 384 
Q 2125 384 2398 659 
Q 2672 934 2672 1341 
Q 2672 1728 2419 1979 
Q 2166 2231 1775 2231 
Q 1616 2231 1378 2169 
L 1441 2663 
Q 1497 2656 1531 2656 
Q 1891 2656 2178 2843 
Q 2466 3031 2466 3422 
Q 2466 3731 2256 3934 
Q 2047 4138 1716 4138 
Q 1388 4138 1169 3931 
Q 950 3725 888 3313 
L 325 3413 
Q 428 3978 793 4289 
Q 1159 4600 1703 4600 
Q 2078 4600 2393 4439 
Q 2709 4278 2876 4000 
Q 3044 3722 3044 3409 
Q 3044 3113 2884 2869 
Q 2725 2625 2413 2481 
Q 2819 2388 3044 2092 
Q 3269 1797 3269 1353 
Q 3269 753 2831 336 
Q 2394 -81 1725 -81 
Q 1122 -81 723 278 
Q 325 638 269 1209 
z
" id="ArialMT-33" transform="scale(0.015625)"/>
       </defs>
       <use xlink:href="#ArialMT-33"/>
       <use x="55.615234" xlink:href="#ArialMT-30"/>
      </g>
     </g>
    </g>
    <g id="xtick_7">
     <g id="line2d_7"/>
     <g id="text_7">
      <!-- 35 -->
      <g style="fill:#666666;" transform="translate(336.783125 374.736625)scale(0.12 -0.12)">
       <use xlink:href="#ArialMT-33"/>
       <use x="55.615234" xlink:href="#ArialMT-35"/>
      </g>
     </g>
    </g>
    <g id="xtick_8">
     <g id="line2d_8"/>
     <g id="text_8">
      <!-- 40 -->
      <g style="fill:#666666;" transform="translate(386.383125 374.736625)scale(0.12 -0.12)">
       <defs>
        <path d="M 2069 0 
L 2069 1097 
L 81 1097 
L 81 1613 
L 2172 4581 
L 2631 4581 
L 2631 1613 
L 3250 1613 
L 3250 1097 
L 2631 1097 
L 2631 0 
L 2069 0 
z
M 2069 1613 
L 2069 3678 
L 634 1613 
L 2069 1613 
z
" id="ArialMT-34" transform="scale(0.015625)"/>
       </defs>
       <use xlink:href="#ArialMT-34"/>
       <use x="55.615234" xlink:href="#ArialMT-30"/>
      </g>
     </g>
    </g>
    <g id="xtick_9">
     <g id="line2d_9"/>
     <g id="text_9">
      <!-- 45 -->
      <g style="fill:#666666;" transform="translate(435.983125 374.736625)scale(0.12 -0.12)">
       <use xlink:href="#ArialMT-34"/>
       <use x="55.615234" xlink:href="#ArialMT-35"/>
      </g>
     </g>
    </g>
    <g id="xtick_10">
     <g id="line2d_10"/>
     <g id="text_10">
      <!-- 50 -->
      <g style="fill:#666666;" transform="translate(485.583125 374.736625)scale(0.12 -0.12)">
       <use xlink:href="#ArialMT-35"/>
       <use x="55.615234" xlink:href="#ArialMT-30"/>
      </g>
     </g>
    </g>
    <g id="text_11">
     <!-- Sequence length -->
     <g style="fill:#333333;" transform="translate(224.021562 389.85725)scale(0.12 -0.12)">
      <defs>
       <path d="M 288 1472 
L 859 1522 
Q 900 1178 1048 958 
Q 1197 738 1509 602 
Q 1822 466 2213 466 
Q 2559 466 2825 569 
Q 3091 672 3220 851 
Q 3350 1031 3350 1244 
Q 3350 1459 3225 1620 
Q 3100 1781 2813 1891 
Q 2628 1963 1997 2114 
Q 1366 2266 1113 2400 
Q 784 2572 623 2826 
Q 463 3081 463 3397 
Q 463 3744 659 4045 
Q 856 4347 1234 4503 
Q 1613 4659 2075 4659 
Q 2584 4659 2973 4495 
Q 3363 4331 3572 4012 
Q 3781 3694 3797 3291 
L 3216 3247 
Q 3169 3681 2898 3903 
Q 2628 4125 2100 4125 
Q 1550 4125 1298 3923 
Q 1047 3722 1047 3438 
Q 1047 3191 1225 3031 
Q 1400 2872 2139 2705 
Q 2878 2538 3153 2413 
Q 3553 2228 3743 1945 
Q 3934 1663 3934 1294 
Q 3934 928 3725 604 
Q 3516 281 3123 101 
Q 2731 -78 2241 -78 
Q 1619 -78 1198 103 
Q 778 284 539 648 
Q 300 1013 288 1472 
z
" id="ArialMT-53" transform="scale(0.015625)"/>
       <path d="M 2694 1069 
L 3275 997 
Q 3138 488 2766 206 
Q 2394 -75 1816 -75 
Q 1088 -75 661 373 
Q 234 822 234 1631 
Q 234 2469 665 2931 
Q 1097 3394 1784 3394 
Q 2450 3394 2872 2941 
Q 3294 2488 3294 1666 
Q 3294 1616 3291 1516 
L 816 1516 
Q 847 969 1125 678 
Q 1403 388 1819 388 
Q 2128 388 2347 550 
Q 2566 713 2694 1069 
z
M 847 1978 
L 2700 1978 
Q 2663 2397 2488 2606 
Q 2219 2931 1791 2931 
Q 1403 2931 1139 2672 
Q 875 2413 847 1978 
z
" id="ArialMT-65" transform="scale(0.015625)"/>
       <path d="M 2538 -1272 
L 2538 353 
Q 2406 169 2170 47 
Q 1934 -75 1669 -75 
Q 1078 -75 651 397 
Q 225 869 225 1691 
Q 225 2191 398 2587 
Q 572 2984 901 3189 
Q 1231 3394 1625 3394 
Q 2241 3394 2594 2875 
L 2594 3319 
L 3100 3319 
L 3100 -1272 
L 2538 -1272 
z
M 803 1669 
Q 803 1028 1072 708 
Q 1341 388 1716 388 
Q 2075 388 2334 692 
Q 2594 997 2594 1619 
Q 2594 2281 2320 2615 
Q 2047 2950 1678 2950 
Q 1313 2950 1058 2639 
Q 803 2328 803 1669 
z
" id="ArialMT-71" transform="scale(0.015625)"/>
       <path d="M 2597 0 
L 2597 488 
Q 2209 -75 1544 -75 
Q 1250 -75 995 37 
Q 741 150 617 320 
Q 494 491 444 738 
Q 409 903 409 1263 
L 409 3319 
L 972 3319 
L 972 1478 
Q 972 1038 1006 884 
Q 1059 663 1231 536 
Q 1403 409 1656 409 
Q 1909 409 2131 539 
Q 2353 669 2445 892 
Q 2538 1116 2538 1541 
L 2538 3319 
L 3100 3319 
L 3100 0 
L 2597 0 
z
" id="ArialMT-75" transform="scale(0.015625)"/>
       <path d="M 422 0 
L 422 3319 
L 928 3319 
L 928 2847 
Q 1294 3394 1984 3394 
Q 2284 3394 2536 3286 
Q 2788 3178 2913 3003 
Q 3038 2828 3088 2588 
Q 3119 2431 3119 2041 
L 3119 0 
L 2556 0 
L 2556 2019 
Q 2556 2363 2490 2533 
Q 2425 2703 2258 2804 
Q 2091 2906 1866 2906 
Q 1506 2906 1245 2678 
Q 984 2450 984 1813 
L 984 0 
L 422 0 
z
" id="ArialMT-6e" transform="scale(0.015625)"/>
       <path d="M 2588 1216 
L 3141 1144 
Q 3050 572 2676 248 
Q 2303 -75 1759 -75 
Q 1078 -75 664 370 
Q 250 816 250 1647 
Q 250 2184 428 2587 
Q 606 2991 970 3192 
Q 1334 3394 1763 3394 
Q 2303 3394 2647 3120 
Q 2991 2847 3088 2344 
L 2541 2259 
Q 2463 2594 2264 2762 
Q 2066 2931 1784 2931 
Q 1359 2931 1093 2626 
Q 828 2322 828 1663 
Q 828 994 1084 691 
Q 1341 388 1753 388 
Q 2084 388 2306 591 
Q 2528 794 2588 1216 
z
" id="ArialMT-63" transform="scale(0.015625)"/>
       <path id="ArialMT-20" transform="scale(0.015625)"/>
       <path d="M 409 0 
L 409 4581 
L 972 4581 
L 972 0 
L 409 0 
z
" id="ArialMT-6c" transform="scale(0.015625)"/>
       <path d="M 319 -275 
L 866 -356 
Q 900 -609 1056 -725 
Q 1266 -881 1628 -881 
Q 2019 -881 2231 -725 
Q 2444 -569 2519 -288 
Q 2563 -116 2559 434 
Q 2191 0 1641 0 
Q 956 0 581 494 
Q 206 988 206 1678 
Q 206 2153 378 2554 
Q 550 2956 876 3175 
Q 1203 3394 1644 3394 
Q 2231 3394 2613 2919 
L 2613 3319 
L 3131 3319 
L 3131 450 
Q 3131 -325 2973 -648 
Q 2816 -972 2473 -1159 
Q 2131 -1347 1631 -1347 
Q 1038 -1347 672 -1080 
Q 306 -813 319 -275 
z
M 784 1719 
Q 784 1066 1043 766 
Q 1303 466 1694 466 
Q 2081 466 2343 764 
Q 2606 1063 2606 1700 
Q 2606 2309 2336 2618 
Q 2066 2928 1684 2928 
Q 1309 2928 1046 2623 
Q 784 2319 784 1719 
z
" id="ArialMT-67" transform="scale(0.015625)"/>
       <path d="M 1650 503 
L 1731 6 
Q 1494 -44 1306 -44 
Q 1000 -44 831 53 
Q 663 150 594 308 
Q 525 466 525 972 
L 525 2881 
L 113 2881 
L 113 3319 
L 525 3319 
L 525 4141 
L 1084 4478 
L 1084 3319 
L 1650 3319 
L 1650 2881 
L 1084 2881 
L 1084 941 
Q 1084 700 1114 631 
Q 1144 563 1211 522 
Q 1278 481 1403 481 
Q 1497 481 1650 503 
z
" id="ArialMT-74" transform="scale(0.015625)"/>
       <path d="M 422 0 
L 422 4581 
L 984 4581 
L 984 2938 
Q 1378 3394 1978 3394 
Q 2347 3394 2619 3248 
Q 2891 3103 3008 2847 
Q 3125 2591 3125 2103 
L 3125 0 
L 2563 0 
L 2563 2103 
Q 2563 2525 2380 2717 
Q 2197 2909 1863 2909 
Q 1613 2909 1392 2779 
Q 1172 2650 1078 2428 
Q 984 2206 984 1816 
L 984 0 
L 422 0 
z
" id="ArialMT-68" transform="scale(0.015625)"/>
      </defs>
      <use xlink:href="#ArialMT-53"/>
      <use x="66.699219" xlink:href="#ArialMT-65"/>
      <use x="122.314453" xlink:href="#ArialMT-71"/>
      <use x="177.929688" xlink:href="#ArialMT-75"/>
      <use x="233.544922" xlink:href="#ArialMT-65"/>
      <use x="289.160156" xlink:href="#ArialMT-6e"/>
      <use x="344.775391" xlink:href="#ArialMT-63"/>
      <use x="394.775391" xlink:href="#ArialMT-65"/>
      <use x="450.390625" xlink:href="#ArialMT-20"/>
      <use x="478.173828" xlink:href="#ArialMT-6c"/>
      <use x="500.390625" xlink:href="#ArialMT-65"/>
      <use x="556.005859" xlink:href="#ArialMT-6e"/>
      <use x="611.621094" xlink:href="#ArialMT-67"/>
      <use x="667.236328" xlink:href="#ArialMT-74"/>
      <use x="695.019531" xlink:href="#ArialMT-68"/>
     </g>
    </g>
   </g>
   <g id="matplotlib.axis_2">
    <g id="ytick_1">
     <g id="line2d_11"/>
     <g id="text_12">
      <!-- −7 -->
      <g style="fill:#666666;" transform="translate(22.174375 321.087857)scale(0.12 -0.12)">
       <defs>
        <path d="M 3381 1997 
L 356 1997 
L 356 2522 
L 3381 2522 
L 3381 1997 
z
" id="ArialMT-2212" transform="scale(0.015625)"/>
        <path d="M 303 3981 
L 303 4522 
L 3269 4522 
L 3269 4084 
Q 2831 3619 2401 2847 
Q 1972 2075 1738 1259 
Q 1569 684 1522 0 
L 944 0 
Q 953 541 1156 1306 
Q 1359 2072 1739 2783 
Q 2119 3494 2547 3981 
L 303 3981 
z
" id="ArialMT-37" transform="scale(0.015625)"/>
       </defs>
       <use xlink:href="#ArialMT-2212"/>
       <use x="58.398438" xlink:href="#ArialMT-37"/>
      </g>
     </g>
    </g>
    <g id="ytick_2">
     <g id="line2d_12"/>
     <g id="text_13">
      <!-- −6 -->
      <g style="fill:#666666;" transform="translate(22.174375 280.696232)scale(0.12 -0.12)">
       <defs>
        <path d="M 3184 3459 
L 2625 3416 
Q 2550 3747 2413 3897 
Q 2184 4138 1850 4138 
Q 1581 4138 1378 3988 
Q 1113 3794 959 3422 
Q 806 3050 800 2363 
Q 1003 2672 1297 2822 
Q 1591 2972 1913 2972 
Q 2475 2972 2870 2558 
Q 3266 2144 3266 1488 
Q 3266 1056 3080 686 
Q 2894 316 2569 119 
Q 2244 -78 1831 -78 
Q 1128 -78 684 439 
Q 241 956 241 2144 
Q 241 3472 731 4075 
Q 1159 4600 1884 4600 
Q 2425 4600 2770 4297 
Q 3116 3994 3184 3459 
z
M 888 1484 
Q 888 1194 1011 928 
Q 1134 663 1356 523 
Q 1578 384 1822 384 
Q 2178 384 2434 671 
Q 2691 959 2691 1453 
Q 2691 1928 2437 2201 
Q 2184 2475 1800 2475 
Q 1419 2475 1153 2201 
Q 888 1928 888 1484 
z
" id="ArialMT-36" transform="scale(0.015625)"/>
       </defs>
       <use xlink:href="#ArialMT-2212"/>
       <use x="58.398438" xlink:href="#ArialMT-36"/>
      </g>
     </g>
    </g>
    <g id="ytick_3">
     <g id="line2d_13"/>
     <g id="text_14">
      <!-- −5 -->
      <g style="fill:#666666;" transform="translate(22.174375 240.304607)scale(0.12 -0.12)">
       <use xlink:href="#ArialMT-2212"/>
       <use x="58.398438" xlink:href="#ArialMT-35"/>
      </g>
     </g>
    </g>
    <g id="ytick_4">
     <g id="line2d_14"/>
     <g id="text_15">
      <!-- −4 -->
      <g style="fill:#666666;" transform="translate(22.174375 199.912982)scale(0.12 -0.12)">
       <use xlink:href="#ArialMT-2212"/>
       <use x="58.398438" xlink:href="#ArialMT-34"/>
      </g>
     </g>
    </g>
    <g id="ytick_5">
     <g id="line2d_15"/>
     <g id="text_16">
      <!-- −3 -->
      <g style="fill:#666666;" transform="translate(22.174375 159.521357)scale(0.12 -0.12)">
       <use xlink:href="#ArialMT-2212"/>
       <use x="58.398438" xlink:href="#ArialMT-33"/>
      </g>
     </g>
    </g>
    <g id="ytick_6">
     <g id="line2d_16"/>
     <g id="text_17">
      <!-- −2 -->
      <g style="fill:#666666;" transform="translate(22.174375 119.129732)scale(0.12 -0.12)">
       <use xlink:href="#ArialMT-2212"/>
       <use x="58.398438" xlink:href="#ArialMT-32"/>
      </g>
     </g>
    </g>
    <g id="ytick_7">
     <g id="line2d_17"/>
     <g id="text_18">
      <!-- −1 -->
      <g style="fill:#666666;" transform="translate(22.174375 78.738107)scale(0.12 -0.12)">
       <use xlink:href="#ArialMT-2212"/>
       <use x="58.398438" xlink:href="#ArialMT-31"/>
      </g>
     </g>
    </g>
    <g id="ytick_8">
     <g id="line2d_18"/>
     <g id="text_19">
      <!-- 0 -->
      <g style="fill:#666666;" transform="translate(29.183125 38.346482)scale(0.12 -0.12)">
       <use xlink:href="#ArialMT-30"/>
      </g>
     </g>
    </g>
    <g id="text_20">
     <!-- Metric value -->
     <g style="fill:#333333;" transform="translate(15.789375 222.169125)rotate(-90)scale(0.12 -0.12)">
      <defs>
       <path d="M 475 0 
L 475 4581 
L 1388 4581 
L 2472 1338 
Q 2622 884 2691 659 
Q 2769 909 2934 1394 
L 4031 4581 
L 4847 4581 
L 4847 0 
L 4263 0 
L 4263 3834 
L 2931 0 
L 2384 0 
L 1059 3900 
L 1059 0 
L 475 0 
z
" id="ArialMT-4d" transform="scale(0.015625)"/>
       <path d="M 416 0 
L 416 3319 
L 922 3319 
L 922 2816 
Q 1116 3169 1280 3281 
Q 1444 3394 1641 3394 
Q 1925 3394 2219 3213 
L 2025 2691 
Q 1819 2813 1613 2813 
Q 1428 2813 1281 2702 
Q 1134 2591 1072 2394 
Q 978 2094 978 1738 
L 978 0 
L 416 0 
z
" id="ArialMT-72" transform="scale(0.015625)"/>
       <path d="M 425 3934 
L 425 4581 
L 988 4581 
L 988 3934 
L 425 3934 
z
M 425 0 
L 425 3319 
L 988 3319 
L 988 0 
L 425 0 
z
" id="ArialMT-69" transform="scale(0.015625)"/>
       <path d="M 1344 0 
L 81 3319 
L 675 3319 
L 1388 1331 
Q 1503 1009 1600 663 
Q 1675 925 1809 1294 
L 2547 3319 
L 3125 3319 
L 1869 0 
L 1344 0 
z
" id="ArialMT-76" transform="scale(0.015625)"/>
       <path d="M 2588 409 
Q 2275 144 1986 34 
Q 1697 -75 1366 -75 
Q 819 -75 525 192 
Q 231 459 231 875 
Q 231 1119 342 1320 
Q 453 1522 633 1644 
Q 813 1766 1038 1828 
Q 1203 1872 1538 1913 
Q 2219 1994 2541 2106 
Q 2544 2222 2544 2253 
Q 2544 2597 2384 2738 
Q 2169 2928 1744 2928 
Q 1347 2928 1158 2789 
Q 969 2650 878 2297 
L 328 2372 
Q 403 2725 575 2942 
Q 747 3159 1072 3276 
Q 1397 3394 1825 3394 
Q 2250 3394 2515 3294 
Q 2781 3194 2906 3042 
Q 3031 2891 3081 2659 
Q 3109 2516 3109 2141 
L 3109 1391 
Q 3109 606 3145 398 
Q 3181 191 3288 0 
L 2700 0 
Q 2613 175 2588 409 
z
M 2541 1666 
Q 2234 1541 1622 1453 
Q 1275 1403 1131 1340 
Q 988 1278 909 1158 
Q 831 1038 831 891 
Q 831 666 1001 516 
Q 1172 366 1500 366 
Q 1825 366 2078 508 
Q 2331 650 2450 897 
Q 2541 1088 2541 1459 
L 2541 1666 
z
" id="ArialMT-61" transform="scale(0.015625)"/>
      </defs>
      <use xlink:href="#ArialMT-4d"/>
      <use x="83.300781" xlink:href="#ArialMT-65"/>
      <use x="138.916016" xlink:href="#ArialMT-74"/>
      <use x="166.699219" xlink:href="#ArialMT-72"/>
      <use x="200" xlink:href="#ArialMT-69"/>
      <use x="222.216797" xlink:href="#ArialMT-63"/>
      <use x="272.216797" xlink:href="#ArialMT-20"/>
      <use x="300" xlink:href="#ArialMT-76"/>
      <use x="350" xlink:href="#ArialMT-61"/>
      <use x="405.615234" xlink:href="#ArialMT-6c"/>
      <use x="427.832031" xlink:href="#ArialMT-75"/>
      <use x="483.447266" xlink:href="#ArialMT-65"/>
     </g>
    </g>
   </g>
   <g id="line2d_19">
    <path clip-path="url(#pa9cf2dbd1a)" d="M 45.85625 53.261616 
L 55.77625 61.515221 
L 65.69625 70.2495 
L 75.61625 76.594025 
L 85.53625 85.630908 
L 95.45625 92.916556 
L 105.37625 100.967731 
L 115.29625 109.208698 
L 125.21625 116.926939 
L 135.13625 125.751788 
L 145.05625 132.204367 
L 154.97625 138.359094 
L 164.89625 144.978946 
L 174.81625 156.122767 
L 184.73625 162.689448 
L 194.65625 168.515488 
L 204.57625 175.428549 
L 214.49625 183.656758 
L 224.41625 192.563057 
L 234.33625 199.815809 
L 244.25625 206.653466 
L 254.17625 213.401242 
L 264.09625 218.439678 
L 274.01625 225.924165 
L 283.93625 232.490455 
L 293.85625 240.038305 
L 303.77625 245.220107 
L 313.69625 253.426426 
L 323.61625 258.979232 
L 333.53625 263.815895 
L 343.45625 270.861682 
L 353.37625 279.587748 
L 363.29625 285.225289 
L 373.21625 292.086702 
L 383.13625 297.741648 
L 393.05625 304.523584 
L 402.97625 310.790727 
L 412.89625 314.973267 
L 422.81625 320.143632 
L 432.73625 328.179011 
L 442.65625 330.317288 
L 452.57625 335.973503 
L 462.49625 342.477959 
L 472.41625 346.837159 
L 482.33625 352.718955 
L 492.25625 356.14725 
" style="fill:none;stroke:#7fc97f;stroke-linecap:square;stroke-width:1.5;"/>
   </g>
   <g id="line2d_20">
    <path clip-path="url(#pa9cf2dbd1a)" d="M 45.85625 80.63729 
L 55.77625 90.853932 
L 65.69625 99.960954 
L 75.61625 107.624282 
L 85.53625 114.77809 
L 95.45625 120.94577 
L 105.37625 126.531281 
L 115.29625 132.515961 
L 125.21625 138.161969 
L 135.13625 143.432926 
L 145.05625 148.576252 
L 154.97625 152.607097 
L 164.89625 157.066283 
L 174.81625 161.628511 
L 184.73625 165.97705 
L 194.65625 169.765759 
L 204.57625 172.823625 
L 214.49625 176.484291 
L 224.41625 180.204142 
L 234.33625 183.252793 
L 244.25625 187.972127 
L 254.17625 191.23709 
L 264.09625 194.849548 
L 274.01625 198.096045 
L 283.93625 200.726602 
L 293.85625 204.860052 
L 303.77625 206.32466 
L 313.69625 210.383192 
L 323.61625 213.33948 
L 333.53625 215.869406 
L 343.45625 217.958154 
L 353.37625 221.150787 
L 363.29625 223.920318 
L 373.21625 226.664432 
L 383.13625 228.301933 
L 393.05625 232.007679 
L 402.97625 233.882384 
L 412.89625 236.417879 
L 422.81625 238.075922 
L 432.73625 241.769948 
L 442.65625 243.195324 
L 452.57625 245.294875 
L 462.49625 247.786838 
L 472.41625 249.646813 
L 482.33625 252.242943 
L 492.25625 254.056622 
" style="fill:none;stroke:#beaed4;stroke-linecap:square;stroke-width:1.5;"/>
   </g>
   <g id="line2d_21">
    <path clip-path="url(#pa9cf2dbd1a)" d="M 65.69625 91.174178 
L 75.61625 82.149533 
L 85.53625 93.107669 
L 95.45625 95.411534 
L 105.37625 90.928331 
L 115.29625 77.840949 
L 125.21625 78.108876 
L 135.13625 80.650081 
L 145.05625 84.038768 
L 154.97625 85.961608 
L 164.89625 89.085749 
L 174.81625 93.663299 
L 184.73625 97.711295 
L 194.65625 101.747761 
L 204.57625 106.653237 
L 214.49625 110.094348 
L 224.41625 113.158922 
L 234.33625 113.091709 
L 244.25625 114.877377 
L 254.17625 119.119302 
L 264.09625 121.319072 
L 274.01625 125.194605 
L 283.93625 130.546017 
L 293.85625 134.272837 
L 303.77625 135.560334 
L 313.69625 138.711293 
L 323.61625 142.641338 
L 333.53625 145.424113 
L 343.45625 147.040064 
L 353.37625 150.115586 
L 363.29625 153.09969 
L 373.21625 154.483697 
L 383.13625 153.743833 
L 393.05625 155.687029 
L 402.97625 157.705667 
L 412.89625 159.290369 
L 422.81625 161.111471 
L 432.73625 165.727219 
L 442.65625 167.132767 
L 452.57625 167.027558 
L 462.49625 170.161453 
L 472.41625 171.763675 
L 482.33625 173.382284 
L 492.25625 176.268038 
" style="fill:none;stroke:#386cb0;stroke-linecap:square;stroke-width:1.5;"/>
   </g>
   <g id="line2d_22">
    <path clip-path="url(#pa9cf2dbd1a)" d="M 45.85625 23.50725 
L 55.77625 25.973469 
L 65.69625 27.268073 
L 75.61625 28.248272 
L 85.53625 29.061098 
L 95.45625 29.641512 
L 105.37625 30.121379 
L 115.29625 30.591673 
L 125.21625 31.132464 
L 135.13625 31.321177 
L 145.05625 31.405255 
L 154.97625 31.483301 
L 164.89625 31.99823 
L 174.81625 32.178427 
L 184.73625 32.187566 
L 194.65625 32.261154 
L 204.57625 32.412827 
L 214.49625 32.642526 
L 224.41625 32.727768 
L 234.33625 32.731299 
L 244.25625 32.805739 
L 254.17625 32.883544 
L 264.09625 33.036029 
L 274.01625 33.116803 
L 283.93625 33.11968 
L 293.85625 33.11968 
L 303.77625 33.11968 
L 313.69625 33.11968 
L 323.61625 33.11968 
L 333.53625 33.11968 
L 343.45625 33.11968 
L 353.37625 33.11968 
L 363.29625 33.195199 
L 373.21625 33.197356 
L 383.13625 33.197356 
L 393.05625 33.348725 
L 402.97625 33.352709 
L 412.89625 33.352709 
L 422.81625 33.352709 
L 432.73625 33.428578 
L 442.65625 33.430385 
L 452.57625 33.430385 
L 462.49625 33.430385 
L 472.41625 33.430385 
L 482.33625 33.430385 
L 492.25625 33.430385 
" style="fill:none;stroke:#bf5b17;stroke-linecap:square;stroke-width:1.5;"/>
   </g>
   <g id="line2d_23">
    <path clip-path="url(#pa9cf2dbd1a)" d="M 45.85625 74.443419 
L 55.77625 74.443419 
L 65.69625 74.443419 
L 75.61625 74.443419 
L 85.53625 74.443419 
L 95.45625 74.443419 
L 105.37625 74.443419 
L 115.29625 74.443419 
L 125.21625 74.443419 
L 135.13625 74.443419 
L 145.05625 74.443419 
L 154.97625 74.443419 
L 164.89625 74.443419 
L 174.81625 74.443419 
L 184.73625 74.443419 
L 194.65625 74.443419 
L 204.57625 74.443419 
L 214.49625 74.443419 
L 224.41625 74.443419 
L 234.33625 74.443419 
L 244.25625 74.443419 
L 254.17625 74.443419 
L 264.09625 74.443419 
L 274.01625 74.443419 
L 283.93625 74.443419 
L 293.85625 74.443419 
L 303.77625 74.443419 
L 313.69625 74.443419 
L 323.61625 74.443419 
L 333.53625 74.443419 
L 343.45625 74.443419 
L 353.37625 74.443419 
L 363.29625 74.443419 
L 373.21625 74.443419 
L 383.13625 74.443419 
L 393.05625 74.443419 
L 402.97625 74.443419 
L 412.89625 74.443419 
L 422.81625 74.443419 
L 432.73625 74.443419 
L 442.65625 74.443419 
L 452.57625 74.443419 
L 462.49625 74.443419 
L 472.41625 74.443419 
L 482.33625 74.443419 
L 492.25625 74.443419 
" style="fill:none;stroke:#fdc086;stroke-linecap:square;stroke-width:1.5;"/>
   </g>
   <g id="patch_3">
    <path d="M 45.85625 356.14725 
L 45.85625 23.50725 
" style="fill:none;stroke:#cccccc;stroke-linecap:square;stroke-linejoin:miter;stroke-width:0.75;"/>
   </g>
   <g id="patch_4">
    <path d="M 45.85625 356.14725 
L 492.25625 356.14725 
" style="fill:none;stroke:#cccccc;stroke-linecap:square;stroke-linejoin:miter;stroke-width:0.75;"/>
   </g>
   <g id="text_21">
    <!-- Minimum-value transition -->
    <g style="fill:#333333;" transform="translate(189.035 17.50725)scale(0.144 -0.144)">
     <defs>
      <path d="M 422 0 
L 422 3319 
L 925 3319 
L 925 2853 
Q 1081 3097 1340 3245 
Q 1600 3394 1931 3394 
Q 2300 3394 2536 3241 
Q 2772 3088 2869 2813 
Q 3263 3394 3894 3394 
Q 4388 3394 4653 3120 
Q 4919 2847 4919 2278 
L 4919 0 
L 4359 0 
L 4359 2091 
Q 4359 2428 4304 2576 
Q 4250 2725 4106 2815 
Q 3963 2906 3769 2906 
Q 3419 2906 3187 2673 
Q 2956 2441 2956 1928 
L 2956 0 
L 2394 0 
L 2394 2156 
Q 2394 2531 2256 2718 
Q 2119 2906 1806 2906 
Q 1569 2906 1367 2781 
Q 1166 2656 1075 2415 
Q 984 2175 984 1722 
L 984 0 
L 422 0 
z
" id="ArialMT-6d" transform="scale(0.015625)"/>
      <path d="M 203 1375 
L 203 1941 
L 1931 1941 
L 1931 1375 
L 203 1375 
z
" id="ArialMT-2d" transform="scale(0.015625)"/>
      <path d="M 197 991 
L 753 1078 
Q 800 744 1014 566 
Q 1228 388 1613 388 
Q 2000 388 2187 545 
Q 2375 703 2375 916 
Q 2375 1106 2209 1216 
Q 2094 1291 1634 1406 
Q 1016 1563 777 1677 
Q 538 1791 414 1992 
Q 291 2194 291 2438 
Q 291 2659 392 2848 
Q 494 3038 669 3163 
Q 800 3259 1026 3326 
Q 1253 3394 1513 3394 
Q 1903 3394 2198 3281 
Q 2494 3169 2634 2976 
Q 2775 2784 2828 2463 
L 2278 2388 
Q 2241 2644 2061 2787 
Q 1881 2931 1553 2931 
Q 1166 2931 1000 2803 
Q 834 2675 834 2503 
Q 834 2394 903 2306 
Q 972 2216 1119 2156 
Q 1203 2125 1616 2013 
Q 2213 1853 2448 1751 
Q 2684 1650 2818 1456 
Q 2953 1263 2953 975 
Q 2953 694 2789 445 
Q 2625 197 2315 61 
Q 2006 -75 1616 -75 
Q 969 -75 630 194 
Q 291 463 197 991 
z
" id="ArialMT-73" transform="scale(0.015625)"/>
      <path d="M 213 1659 
Q 213 2581 725 3025 
Q 1153 3394 1769 3394 
Q 2453 3394 2887 2945 
Q 3322 2497 3322 1706 
Q 3322 1066 3130 698 
Q 2938 331 2570 128 
Q 2203 -75 1769 -75 
Q 1072 -75 642 372 
Q 213 819 213 1659 
z
M 791 1659 
Q 791 1022 1069 705 
Q 1347 388 1769 388 
Q 2188 388 2466 706 
Q 2744 1025 2744 1678 
Q 2744 2294 2464 2611 
Q 2184 2928 1769 2928 
Q 1347 2928 1069 2612 
Q 791 2297 791 1659 
z
" id="ArialMT-6f" transform="scale(0.015625)"/>
     </defs>
     <use xlink:href="#ArialMT-4d"/>
     <use x="83.300781" xlink:href="#ArialMT-69"/>
     <use x="105.517578" xlink:href="#ArialMT-6e"/>
     <use x="161.132812" xlink:href="#ArialMT-69"/>
     <use x="183.349609" xlink:href="#ArialMT-6d"/>
     <use x="266.650391" xlink:href="#ArialMT-75"/>
     <use x="322.265625" xlink:href="#ArialMT-6d"/>
     <use x="405.566406" xlink:href="#ArialMT-2d"/>
     <use x="438.867188" xlink:href="#ArialMT-76"/>
     <use x="488.867188" xlink:href="#ArialMT-61"/>
     <use x="544.482422" xlink:href="#ArialMT-6c"/>
     <use x="566.699219" xlink:href="#ArialMT-75"/>
     <use x="622.314453" xlink:href="#ArialMT-65"/>
     <use x="677.929688" xlink:href="#ArialMT-20"/>
     <use x="705.712891" xlink:href="#ArialMT-74"/>
     <use x="733.496094" xlink:href="#ArialMT-72"/>
     <use x="766.796875" xlink:href="#ArialMT-61"/>
     <use x="822.412109" xlink:href="#ArialMT-6e"/>
     <use x="878.027344" xlink:href="#ArialMT-73"/>
     <use x="928.027344" xlink:href="#ArialMT-69"/>
     <use x="950.244141" xlink:href="#ArialMT-74"/>
     <use x="978.027344" xlink:href="#ArialMT-69"/>
     <use x="1000.244141" xlink:href="#ArialMT-6f"/>
     <use x="1055.859375" xlink:href="#ArialMT-6e"/>
    </g>
   </g>
   <g id="legend_1">
    <g id="patch_5">
     <path d="M 51.85625 350.14725 
L 128.406875 350.14725 
L 128.406875 261.675375 
L 51.85625 261.675375 
z
" style="fill:#ffffff;opacity:0.6;"/>
    </g>
    <g id="line2d_24">
     <path d="M 56.65625 270.86475 
L 80.65625 270.86475 
" style="fill:none;stroke:#7fc97f;stroke-linecap:square;stroke-width:1.5;"/>
    </g>
    <g id="line2d_25"/>
    <g id="text_22">
     <!-- L -->
     <g style="fill:#333333;" transform="translate(90.25625 275.06475)scale(0.12 -0.12)">
      <defs>
       <path d="M 469 0 
L 469 4581 
L 1075 4581 
L 1075 541 
L 3331 541 
L 3331 0 
L 469 0 
z
" id="ArialMT-4c" transform="scale(0.015625)"/>
      </defs>
      <use xlink:href="#ArialMT-4c"/>
     </g>
    </g>
    <g id="line2d_26">
     <path d="M 56.65625 287.839125 
L 80.65625 287.839125 
" style="fill:none;stroke:#beaed4;stroke-linecap:square;stroke-width:1.5;"/>
    </g>
    <g id="line2d_27"/>
    <g id="text_23">
     <!-- LSA -->
     <g style="fill:#333333;" transform="translate(90.25625 292.039125)scale(0.12 -0.12)">
      <defs>
       <path d="M -9 0 
L 1750 4581 
L 2403 4581 
L 4278 0 
L 3588 0 
L 3053 1388 
L 1138 1388 
L 634 0 
L -9 0 
z
M 1313 1881 
L 2866 1881 
L 2388 3150 
Q 2169 3728 2063 4100 
Q 1975 3659 1816 3225 
L 1313 1881 
z
" id="ArialMT-41" transform="scale(0.015625)"/>
      </defs>
      <use xlink:href="#ArialMT-4c"/>
      <use x="55.615234" xlink:href="#ArialMT-53"/>
      <use x="122.314453" xlink:href="#ArialMT-41"/>
     </g>
    </g>
    <g id="line2d_28">
     <path d="M 56.65625 304.8135 
L 80.65625 304.8135 
" style="fill:none;stroke:#386cb0;stroke-linecap:square;stroke-width:1.5;"/>
    </g>
    <g id="line2d_29"/>
    <g id="text_24">
     <!-- LSA-5 -->
     <g style="fill:#333333;" transform="translate(90.25625 309.0135)scale(0.12 -0.12)">
      <use xlink:href="#ArialMT-4c"/>
      <use x="55.615234" xlink:href="#ArialMT-53"/>
      <use x="122.314453" xlink:href="#ArialMT-41"/>
      <use x="189.013672" xlink:href="#ArialMT-2d"/>
      <use x="222.314453" xlink:href="#ArialMT-35"/>
     </g>
    </g>
    <g id="line2d_30">
     <path d="M 56.65625 321.787875 
L 80.65625 321.787875 
" style="fill:none;stroke:#bf5b17;stroke-linecap:square;stroke-width:1.5;"/>
    </g>
    <g id="line2d_31"/>
    <g id="text_25">
     <!-- MCM -->
     <g style="fill:#333333;" transform="translate(90.25625 325.987875)scale(0.12 -0.12)">
      <defs>
       <path d="M 3763 1606 
L 4369 1453 
Q 4178 706 3683 314 
Q 3188 -78 2472 -78 
Q 1731 -78 1267 223 
Q 803 525 561 1097 
Q 319 1669 319 2325 
Q 319 3041 592 3573 
Q 866 4106 1370 4382 
Q 1875 4659 2481 4659 
Q 3169 4659 3637 4309 
Q 4106 3959 4291 3325 
L 3694 3184 
Q 3534 3684 3231 3912 
Q 2928 4141 2469 4141 
Q 1941 4141 1586 3887 
Q 1231 3634 1087 3207 
Q 944 2781 944 2328 
Q 944 1744 1114 1308 
Q 1284 872 1643 656 
Q 2003 441 2422 441 
Q 2931 441 3284 734 
Q 3638 1028 3763 1606 
z
" id="ArialMT-43" transform="scale(0.015625)"/>
      </defs>
      <use xlink:href="#ArialMT-4d"/>
      <use x="83.300781" xlink:href="#ArialMT-43"/>
      <use x="155.517578" xlink:href="#ArialMT-4d"/>
     </g>
    </g>
    <g id="line2d_32">
     <path d="M 56.65625 338.76225 
L 80.65625 338.76225 
" style="fill:none;stroke:#fdc086;stroke-linecap:square;stroke-width:1.5;"/>
    </g>
    <g id="line2d_33"/>
    <g id="text_26">
     <!-- Q -->
     <g style="fill:#333333;" transform="translate(90.25625 342.96225)scale(0.12 -0.12)">
      <defs>
       <path d="M 3966 491 
Q 4388 200 4744 66 
L 4566 -356 
Q 4072 -178 3581 206 
Q 3072 -78 2456 -78 
Q 1834 -78 1328 222 
Q 822 522 548 1065 
Q 275 1609 275 2291 
Q 275 2969 550 3525 
Q 825 4081 1333 4372 
Q 1841 4663 2469 4663 
Q 3103 4663 3612 4361 
Q 4122 4059 4389 3517 
Q 4656 2975 4656 2294 
Q 4656 1728 4484 1276 
Q 4313 825 3966 491 
z
M 2631 1266 
Q 3156 1119 3497 828 
Q 4031 1316 4031 2294 
Q 4031 2850 3842 3265 
Q 3653 3681 3289 3911 
Q 2925 4141 2472 4141 
Q 1794 4141 1347 3677 
Q 900 3213 900 2291 
Q 900 1397 1342 919 
Q 1784 441 2472 441 
Q 2797 441 3084 563 
Q 2800 747 2484 825 
L 2631 1266 
z
" id="ArialMT-51" transform="scale(0.015625)"/>
      </defs>
      <use xlink:href="#ArialMT-51"/>
     </g>
    </g>
   </g>
  </g>
 </g>
 <defs>
  <clipPath id="pa9cf2dbd1a">
   <rect height="332.64" width="446.4" x="45.85625" y="23.50725"/>
  </clipPath>
 </defs>
</svg>
