<?xml version="1.0" encoding="utf-8" standalone="no"?>
<!DOCTYPE svg PUBLIC "-//W3C//DTD SVG 1.1//EN"
  "http://www.w3.org/Graphics/SVG/1.1/DTD/svg11.dtd">
<svg height="399.582875pt" version="1.1" viewBox="0 0 509.1275 399.582875" width="509.1275pt" xmlns="http://www.w3.org/2000/svg" xmlns:xlink="http://www.w3.org/1999/xlink">
 <metadata>
  <rdf:RDF xmlns:cc="http://creativecommons.org/ns#" xmlns:dc="http://purl.org/dc/elements/1.1/" xmlns:rdf="http://www.w3.org/1999/02/22-rdf-syntax-ns#">
   <cc:Work>
    <dc:type rdf:resource="http://purl.org/dc/dcmitype/StillImage"/>
    <dc:date>2021-05-13T15:24:51.903167</dc:date>
    <dc:format>image/svg+xml</dc:format>
    <dc:creator>
     <cc:Agent>
      <dc:title>Matplotlib v3.4.1, https://matplotlib.org/</dc:title>
     </cc:Agent>
    </dc:creator>
   </cc:Work>
  </rdf:RDF>
 </metadata>
 <defs>
  <style type="text/css">*{stroke-linecap:butt;stroke-linejoin:round;}</style>
 </defs>
 <g id="figure_1">
  <g id="patch_1">
   <path d="M 0 399.582875 
L 509.1275 399.582875 
L 509.1275 0 
L 0 0 
z
" style="fill:#ffffff;"/>
  </g>
  <g id="axes_1">
   <g id="patch_2">
    <path d="M 48.854375 356.14725 
L 495.254375 356.14725 
L 495.254375 23.50725 
L 48.854375 23.50725 
z
" style="fill:#ffffff;"/>
   </g>
   <g id="matplotlib.axis_1">
    <g id="xtick_1">
     <g id="line2d_1"/>
     <g id="text_1">
      <!-- 5 -->
      <g style="fill:#666666;" transform="translate(45.517813 374.736625)scale(0.12 -0.12)">
       <defs>
        <path d="M 266 1200 
L 856 1250 
Q 922 819 1161 601 
Q 1400 384 1738 384 
Q 2144 384 2425 690 
Q 2706 997 2706 1503 
Q 2706 1984 2436 2262 
Q 2166 2541 1728 2541 
Q 1456 2541 1237 2417 
Q 1019 2294 894 2097 
L 366 2166 
L 809 4519 
L 3088 4519 
L 3088 3981 
L 1259 3981 
L 1013 2750 
Q 1425 3038 1878 3038 
Q 2478 3038 2890 2622 
Q 3303 2206 3303 1553 
Q 3303 931 2941 478 
Q 2500 -78 1738 -78 
Q 1113 -78 717 272 
Q 322 622 266 1200 
z
" id="ArialMT-35" transform="scale(0.015625)"/>
       </defs>
       <use xlink:href="#ArialMT-35"/>
      </g>
     </g>
    </g>
    <g id="xtick_2">
     <g id="line2d_2"/>
     <g id="text_2">
      <!-- 10 -->
      <g style="fill:#666666;" transform="translate(91.78125 374.736625)scale(0.12 -0.12)">
       <defs>
        <path d="M 2384 0 
L 1822 0 
L 1822 3584 
Q 1619 3391 1289 3197 
Q 959 3003 697 2906 
L 697 3450 
Q 1169 3672 1522 3987 
Q 1875 4303 2022 4600 
L 2384 4600 
L 2384 0 
z
" id="ArialMT-31" transform="scale(0.015625)"/>
        <path d="M 266 2259 
Q 266 3072 433 3567 
Q 600 4063 929 4331 
Q 1259 4600 1759 4600 
Q 2128 4600 2406 4451 
Q 2684 4303 2865 4023 
Q 3047 3744 3150 3342 
Q 3253 2941 3253 2259 
Q 3253 1453 3087 958 
Q 2922 463 2592 192 
Q 2263 -78 1759 -78 
Q 1097 -78 719 397 
Q 266 969 266 2259 
z
M 844 2259 
Q 844 1131 1108 757 
Q 1372 384 1759 384 
Q 2147 384 2411 759 
Q 2675 1134 2675 2259 
Q 2675 3391 2411 3762 
Q 2147 4134 1753 4134 
Q 1366 4134 1134 3806 
Q 844 3388 844 2259 
z
" id="ArialMT-30" transform="scale(0.015625)"/>
       </defs>
       <use xlink:href="#ArialMT-31"/>
       <use x="55.615234" xlink:href="#ArialMT-30"/>
      </g>
     </g>
    </g>
    <g id="xtick_3">
     <g id="line2d_3"/>
     <g id="text_3">
      <!-- 15 -->
      <g style="fill:#666666;" transform="translate(141.38125 374.736625)scale(0.12 -0.12)">
       <use xlink:href="#ArialMT-31"/>
       <use x="55.615234" xlink:href="#ArialMT-35"/>
      </g>
     </g>
    </g>
    <g id="xtick_4">
     <g id="line2d_4"/>
     <g id="text_4">
      <!-- 20 -->
      <g style="fill:#666666;" transform="translate(190.98125 374.736625)scale(0.12 -0.12)">
       <defs>
        <path d="M 3222 541 
L 3222 0 
L 194 0 
Q 188 203 259 391 
Q 375 700 629 1000 
Q 884 1300 1366 1694 
Q 2113 2306 2375 2664 
Q 2638 3022 2638 3341 
Q 2638 3675 2398 3904 
Q 2159 4134 1775 4134 
Q 1369 4134 1125 3890 
Q 881 3647 878 3216 
L 300 3275 
Q 359 3922 746 4261 
Q 1134 4600 1788 4600 
Q 2447 4600 2831 4234 
Q 3216 3869 3216 3328 
Q 3216 3053 3103 2787 
Q 2991 2522 2730 2228 
Q 2469 1934 1863 1422 
Q 1356 997 1212 845 
Q 1069 694 975 541 
L 3222 541 
z
" id="ArialMT-32" transform="scale(0.015625)"/>
       </defs>
       <use xlink:href="#ArialMT-32"/>
       <use x="55.615234" xlink:href="#ArialMT-30"/>
      </g>
     </g>
    </g>
    <g id="xtick_5">
     <g id="line2d_5"/>
     <g id="text_5">
      <!-- 25 -->
      <g style="fill:#666666;" transform="translate(240.58125 374.736625)scale(0.12 -0.12)">
       <use xlink:href="#ArialMT-32"/>
       <use x="55.615234" xlink:href="#ArialMT-35"/>
      </g>
     </g>
    </g>
    <g id="xtick_6">
     <g id="line2d_6"/>
     <g id="text_6">
      <!-- 30 -->
      <g style="fill:#666666;" transform="translate(290.18125 374.736625)scale(0.12 -0.12)">
       <defs>
        <path d="M 269 1209 
L 831 1284 
Q 928 806 1161 595 
Q 1394 384 1728 384 
Q 2125 384 2398 659 
Q 2672 934 2672 1341 
Q 2672 1728 2419 1979 
Q 2166 2231 1775 2231 
Q 1616 2231 1378 2169 
L 1441 2663 
Q 1497 2656 1531 2656 
Q 1891 2656 2178 2843 
Q 2466 3031 2466 3422 
Q 2466 3731 2256 3934 
Q 2047 4138 1716 4138 
Q 1388 4138 1169 3931 
Q 950 3725 888 3313 
L 325 3413 
Q 428 3978 793 4289 
Q 1159 4600 1703 4600 
Q 2078 4600 2393 4439 
Q 2709 4278 2876 4000 
Q 3044 3722 3044 3409 
Q 3044 3113 2884 2869 
Q 2725 2625 2413 2481 
Q 2819 2388 3044 2092 
Q 3269 1797 3269 1353 
Q 3269 753 2831 336 
Q 2394 -81 1725 -81 
Q 1122 -81 723 278 
Q 325 638 269 1209 
z
" id="ArialMT-33" transform="scale(0.015625)"/>
       </defs>
       <use xlink:href="#ArialMT-33"/>
       <use x="55.615234" xlink:href="#ArialMT-30"/>
      </g>
     </g>
    </g>
    <g id="xtick_7">
     <g id="line2d_7"/>
     <g id="text_7">
      <!-- 35 -->
      <g style="fill:#666666;" transform="translate(339.78125 374.736625)scale(0.12 -0.12)">
       <use xlink:href="#ArialMT-33"/>
       <use x="55.615234" xlink:href="#ArialMT-35"/>
      </g>
     </g>
    </g>
    <g id="xtick_8">
     <g id="line2d_8"/>
     <g id="text_8">
      <!-- 40 -->
      <g style="fill:#666666;" transform="translate(389.38125 374.736625)scale(0.12 -0.12)">
       <defs>
        <path d="M 2069 0 
L 2069 1097 
L 81 1097 
L 81 1613 
L 2172 4581 
L 2631 4581 
L 2631 1613 
L 3250 1613 
L 3250 1097 
L 2631 1097 
L 2631 0 
L 2069 0 
z
M 2069 1613 
L 2069 3678 
L 634 1613 
L 2069 1613 
z
" id="ArialMT-34" transform="scale(0.015625)"/>
       </defs>
       <use xlink:href="#ArialMT-34"/>
       <use x="55.615234" xlink:href="#ArialMT-30"/>
      </g>
     </g>
    </g>
    <g id="xtick_9">
     <g id="line2d_9"/>
     <g id="text_9">
      <!-- 45 -->
      <g style="fill:#666666;" transform="translate(438.98125 374.736625)scale(0.12 -0.12)">
       <use xlink:href="#ArialMT-34"/>
       <use x="55.615234" xlink:href="#ArialMT-35"/>
      </g>
     </g>
    </g>
    <g id="xtick_10">
     <g id="line2d_10"/>
     <g id="text_10">
      <!-- 50 -->
      <g style="fill:#666666;" transform="translate(488.58125 374.736625)scale(0.12 -0.12)">
       <use xlink:href="#ArialMT-35"/>
       <use x="55.615234" xlink:href="#ArialMT-30"/>
      </g>
     </g>
    </g>
    <g id="text_11">
     <!-- Sequence length -->
     <g style="fill:#333333;" transform="translate(227.019688 389.85725)scale(0.12 -0.12)">
      <defs>
       <path d="M 288 1472 
L 859 1522 
Q 900 1178 1048 958 
Q 1197 738 1509 602 
Q 1822 466 2213 466 
Q 2559 466 2825 569 
Q 3091 672 3220 851 
Q 3350 1031 3350 1244 
Q 3350 1459 3225 1620 
Q 3100 1781 2813 1891 
Q 2628 1963 1997 2114 
Q 1366 2266 1113 2400 
Q 784 2572 623 2826 
Q 463 3081 463 3397 
Q 463 3744 659 4045 
Q 856 4347 1234 4503 
Q 1613 4659 2075 4659 
Q 2584 4659 2973 4495 
Q 3363 4331 3572 4012 
Q 3781 3694 3797 3291 
L 3216 3247 
Q 3169 3681 2898 3903 
Q 2628 4125 2100 4125 
Q 1550 4125 1298 3923 
Q 1047 3722 1047 3438 
Q 1047 3191 1225 3031 
Q 1400 2872 2139 2705 
Q 2878 2538 3153 2413 
Q 3553 2228 3743 1945 
Q 3934 1663 3934 1294 
Q 3934 928 3725 604 
Q 3516 281 3123 101 
Q 2731 -78 2241 -78 
Q 1619 -78 1198 103 
Q 778 284 539 648 
Q 300 1013 288 1472 
z
" id="ArialMT-53" transform="scale(0.015625)"/>
       <path d="M 2694 1069 
L 3275 997 
Q 3138 488 2766 206 
Q 2394 -75 1816 -75 
Q 1088 -75 661 373 
Q 234 822 234 1631 
Q 234 2469 665 2931 
Q 1097 3394 1784 3394 
Q 2450 3394 2872 2941 
Q 3294 2488 3294 1666 
Q 3294 1616 3291 1516 
L 816 1516 
Q 847 969 1125 678 
Q 1403 388 1819 388 
Q 2128 388 2347 550 
Q 2566 713 2694 1069 
z
M 847 1978 
L 2700 1978 
Q 2663 2397 2488 2606 
Q 2219 2931 1791 2931 
Q 1403 2931 1139 2672 
Q 875 2413 847 1978 
z
" id="ArialMT-65" transform="scale(0.015625)"/>
       <path d="M 2538 -1272 
L 2538 353 
Q 2406 169 2170 47 
Q 1934 -75 1669 -75 
Q 1078 -75 651 397 
Q 225 869 225 1691 
Q 225 2191 398 2587 
Q 572 2984 901 3189 
Q 1231 3394 1625 3394 
Q 2241 3394 2594 2875 
L 2594 3319 
L 3100 3319 
L 3100 -1272 
L 2538 -1272 
z
M 803 1669 
Q 803 1028 1072 708 
Q 1341 388 1716 388 
Q 2075 388 2334 692 
Q 2594 997 2594 1619 
Q 2594 2281 2320 2615 
Q 2047 2950 1678 2950 
Q 1313 2950 1058 2639 
Q 803 2328 803 1669 
z
" id="ArialMT-71" transform="scale(0.015625)"/>
       <path d="M 2597 0 
L 2597 488 
Q 2209 -75 1544 -75 
Q 1250 -75 995 37 
Q 741 150 617 320 
Q 494 491 444 738 
Q 409 903 409 1263 
L 409 3319 
L 972 3319 
L 972 1478 
Q 972 1038 1006 884 
Q 1059 663 1231 536 
Q 1403 409 1656 409 
Q 1909 409 2131 539 
Q 2353 669 2445 892 
Q 2538 1116 2538 1541 
L 2538 3319 
L 3100 3319 
L 3100 0 
L 2597 0 
z
" id="ArialMT-75" transform="scale(0.015625)"/>
       <path d="M 422 0 
L 422 3319 
L 928 3319 
L 928 2847 
Q 1294 3394 1984 3394 
Q 2284 3394 2536 3286 
Q 2788 3178 2913 3003 
Q 3038 2828 3088 2588 
Q 3119 2431 3119 2041 
L 3119 0 
L 2556 0 
L 2556 2019 
Q 2556 2363 2490 2533 
Q 2425 2703 2258 2804 
Q 2091 2906 1866 2906 
Q 1506 2906 1245 2678 
Q 984 2450 984 1813 
L 984 0 
L 422 0 
z
" id="ArialMT-6e" transform="scale(0.015625)"/>
       <path d="M 2588 1216 
L 3141 1144 
Q 3050 572 2676 248 
Q 2303 -75 1759 -75 
Q 1078 -75 664 370 
Q 250 816 250 1647 
Q 250 2184 428 2587 
Q 606 2991 970 3192 
Q 1334 3394 1763 3394 
Q 2303 3394 2647 3120 
Q 2991 2847 3088 2344 
L 2541 2259 
Q 2463 2594 2264 2762 
Q 2066 2931 1784 2931 
Q 1359 2931 1093 2626 
Q 828 2322 828 1663 
Q 828 994 1084 691 
Q 1341 388 1753 388 
Q 2084 388 2306 591 
Q 2528 794 2588 1216 
z
" id="ArialMT-63" transform="scale(0.015625)"/>
       <path id="ArialMT-20" transform="scale(0.015625)"/>
       <path d="M 409 0 
L 409 4581 
L 972 4581 
L 972 0 
L 409 0 
z
" id="ArialMT-6c" transform="scale(0.015625)"/>
       <path d="M 319 -275 
L 866 -356 
Q 900 -609 1056 -725 
Q 1266 -881 1628 -881 
Q 2019 -881 2231 -725 
Q 2444 -569 2519 -288 
Q 2563 -116 2559 434 
Q 2191 0 1641 0 
Q 956 0 581 494 
Q 206 988 206 1678 
Q 206 2153 378 2554 
Q 550 2956 876 3175 
Q 1203 3394 1644 3394 
Q 2231 3394 2613 2919 
L 2613 3319 
L 3131 3319 
L 3131 450 
Q 3131 -325 2973 -648 
Q 2816 -972 2473 -1159 
Q 2131 -1347 1631 -1347 
Q 1038 -1347 672 -1080 
Q 306 -813 319 -275 
z
M 784 1719 
Q 784 1066 1043 766 
Q 1303 466 1694 466 
Q 2081 466 2343 764 
Q 2606 1063 2606 1700 
Q 2606 2309 2336 2618 
Q 2066 2928 1684 2928 
Q 1309 2928 1046 2623 
Q 784 2319 784 1719 
z
" id="ArialMT-67" transform="scale(0.015625)"/>
       <path d="M 1650 503 
L 1731 6 
Q 1494 -44 1306 -44 
Q 1000 -44 831 53 
Q 663 150 594 308 
Q 525 466 525 972 
L 525 2881 
L 113 2881 
L 113 3319 
L 525 3319 
L 525 4141 
L 1084 4478 
L 1084 3319 
L 1650 3319 
L 1650 2881 
L 1084 2881 
L 1084 941 
Q 1084 700 1114 631 
Q 1144 563 1211 522 
Q 1278 481 1403 481 
Q 1497 481 1650 503 
z
" id="ArialMT-74" transform="scale(0.015625)"/>
       <path d="M 422 0 
L 422 4581 
L 984 4581 
L 984 2938 
Q 1378 3394 1978 3394 
Q 2347 3394 2619 3248 
Q 2891 3103 3008 2847 
Q 3125 2591 3125 2103 
L 3125 0 
L 2563 0 
L 2563 2103 
Q 2563 2525 2380 2717 
Q 2197 2909 1863 2909 
Q 1613 2909 1392 2779 
Q 1172 2650 1078 2428 
Q 984 2206 984 1816 
L 984 0 
L 422 0 
z
" id="ArialMT-68" transform="scale(0.015625)"/>
      </defs>
      <use xlink:href="#ArialMT-53"/>
      <use x="66.699219" xlink:href="#ArialMT-65"/>
      <use x="122.314453" xlink:href="#ArialMT-71"/>
      <use x="177.929688" xlink:href="#ArialMT-75"/>
      <use x="233.544922" xlink:href="#ArialMT-65"/>
      <use x="289.160156" xlink:href="#ArialMT-6e"/>
      <use x="344.775391" xlink:href="#ArialMT-63"/>
      <use x="394.775391" xlink:href="#ArialMT-65"/>
      <use x="450.390625" xlink:href="#ArialMT-20"/>
      <use x="478.173828" xlink:href="#ArialMT-6c"/>
      <use x="500.390625" xlink:href="#ArialMT-65"/>
      <use x="556.005859" xlink:href="#ArialMT-6e"/>
      <use x="611.621094" xlink:href="#ArialMT-67"/>
      <use x="667.236328" xlink:href="#ArialMT-74"/>
      <use x="695.019531" xlink:href="#ArialMT-68"/>
     </g>
    </g>
   </g>
   <g id="matplotlib.axis_2">
    <g id="ytick_1">
     <g id="line2d_11"/>
     <g id="text_12">
      <!-- 0.0 -->
      <g style="fill:#666666;" transform="translate(22.174375 309.342807)scale(0.12 -0.12)">
       <defs>
        <path d="M 581 0 
L 581 641 
L 1222 641 
L 1222 0 
L 581 0 
z
" id="ArialMT-2e" transform="scale(0.015625)"/>
       </defs>
       <use xlink:href="#ArialMT-30"/>
       <use x="55.615234" xlink:href="#ArialMT-2e"/>
       <use x="83.398438" xlink:href="#ArialMT-30"/>
      </g>
     </g>
    </g>
    <g id="ytick_2">
     <g id="line2d_12"/>
     <g id="text_13">
      <!-- 0.2 -->
      <g style="fill:#666666;" transform="translate(22.174375 252.217179)scale(0.12 -0.12)">
       <use xlink:href="#ArialMT-30"/>
       <use x="55.615234" xlink:href="#ArialMT-2e"/>
       <use x="83.398438" xlink:href="#ArialMT-32"/>
      </g>
     </g>
    </g>
    <g id="ytick_3">
     <g id="line2d_13"/>
     <g id="text_14">
      <!-- 0.4 -->
      <g style="fill:#666666;" transform="translate(22.174375 195.09155)scale(0.12 -0.12)">
       <use xlink:href="#ArialMT-30"/>
       <use x="55.615234" xlink:href="#ArialMT-2e"/>
       <use x="83.398438" xlink:href="#ArialMT-34"/>
      </g>
     </g>
    </g>
    <g id="ytick_4">
     <g id="line2d_14"/>
     <g id="text_15">
      <!-- 0.6 -->
      <g style="fill:#666666;" transform="translate(22.174375 137.965922)scale(0.12 -0.12)">
       <defs>
        <path d="M 3184 3459 
L 2625 3416 
Q 2550 3747 2413 3897 
Q 2184 4138 1850 4138 
Q 1581 4138 1378 3988 
Q 1113 3794 959 3422 
Q 806 3050 800 2363 
Q 1003 2672 1297 2822 
Q 1591 2972 1913 2972 
Q 2475 2972 2870 2558 
Q 3266 2144 3266 1488 
Q 3266 1056 3080 686 
Q 2894 316 2569 119 
Q 2244 -78 1831 -78 
Q 1128 -78 684 439 
Q 241 956 241 2144 
Q 241 3472 731 4075 
Q 1159 4600 1884 4600 
Q 2425 4600 2770 4297 
Q 3116 3994 3184 3459 
z
M 888 1484 
Q 888 1194 1011 928 
Q 1134 663 1356 523 
Q 1578 384 1822 384 
Q 2178 384 2434 671 
Q 2691 959 2691 1453 
Q 2691 1928 2437 2201 
Q 2184 2475 1800 2475 
Q 1419 2475 1153 2201 
Q 888 1928 888 1484 
z
" id="ArialMT-36" transform="scale(0.015625)"/>
       </defs>
       <use xlink:href="#ArialMT-30"/>
       <use x="55.615234" xlink:href="#ArialMT-2e"/>
       <use x="83.398438" xlink:href="#ArialMT-36"/>
      </g>
     </g>
    </g>
    <g id="ytick_5">
     <g id="line2d_15"/>
     <g id="text_16">
      <!-- 0.8 -->
      <g style="fill:#666666;" transform="translate(22.174375 80.840294)scale(0.12 -0.12)">
       <defs>
        <path d="M 1131 2484 
Q 781 2613 612 2850 
Q 444 3088 444 3419 
Q 444 3919 803 4259 
Q 1163 4600 1759 4600 
Q 2359 4600 2725 4251 
Q 3091 3903 3091 3403 
Q 3091 3084 2923 2848 
Q 2756 2613 2416 2484 
Q 2838 2347 3058 2040 
Q 3278 1734 3278 1309 
Q 3278 722 2862 322 
Q 2447 -78 1769 -78 
Q 1091 -78 675 323 
Q 259 725 259 1325 
Q 259 1772 486 2073 
Q 713 2375 1131 2484 
z
M 1019 3438 
Q 1019 3113 1228 2906 
Q 1438 2700 1772 2700 
Q 2097 2700 2305 2904 
Q 2513 3109 2513 3406 
Q 2513 3716 2298 3927 
Q 2084 4138 1766 4138 
Q 1444 4138 1231 3931 
Q 1019 3725 1019 3438 
z
M 838 1322 
Q 838 1081 952 856 
Q 1066 631 1291 507 
Q 1516 384 1775 384 
Q 2178 384 2440 643 
Q 2703 903 2703 1303 
Q 2703 1709 2433 1975 
Q 2163 2241 1756 2241 
Q 1359 2241 1098 1978 
Q 838 1716 838 1322 
z
" id="ArialMT-38" transform="scale(0.015625)"/>
       </defs>
       <use xlink:href="#ArialMT-30"/>
       <use x="55.615234" xlink:href="#ArialMT-2e"/>
       <use x="83.398438" xlink:href="#ArialMT-38"/>
      </g>
     </g>
    </g>
    <g id="text_17">
     <!-- Metric value -->
     <g style="fill:#333333;" transform="translate(15.789375 222.169125)rotate(-90)scale(0.12 -0.12)">
      <defs>
       <path d="M 475 0 
L 475 4581 
L 1388 4581 
L 2472 1338 
Q 2622 884 2691 659 
Q 2769 909 2934 1394 
L 4031 4581 
L 4847 4581 
L 4847 0 
L 4263 0 
L 4263 3834 
L 2931 0 
L 2384 0 
L 1059 3900 
L 1059 0 
L 475 0 
z
" id="ArialMT-4d" transform="scale(0.015625)"/>
       <path d="M 416 0 
L 416 3319 
L 922 3319 
L 922 2816 
Q 1116 3169 1280 3281 
Q 1444 3394 1641 3394 
Q 1925 3394 2219 3213 
L 2025 2691 
Q 1819 2813 1613 2813 
Q 1428 2813 1281 2702 
Q 1134 2591 1072 2394 
Q 978 2094 978 1738 
L 978 0 
L 416 0 
z
" id="ArialMT-72" transform="scale(0.015625)"/>
       <path d="M 425 3934 
L 425 4581 
L 988 4581 
L 988 3934 
L 425 3934 
z
M 425 0 
L 425 3319 
L 988 3319 
L 988 0 
L 425 0 
z
" id="ArialMT-69" transform="scale(0.015625)"/>
       <path d="M 1344 0 
L 81 3319 
L 675 3319 
L 1388 1331 
Q 1503 1009 1600 663 
Q 1675 925 1809 1294 
L 2547 3319 
L 3125 3319 
L 1869 0 
L 1344 0 
z
" id="ArialMT-76" transform="scale(0.015625)"/>
       <path d="M 2588 409 
Q 2275 144 1986 34 
Q 1697 -75 1366 -75 
Q 819 -75 525 192 
Q 231 459 231 875 
Q 231 1119 342 1320 
Q 453 1522 633 1644 
Q 813 1766 1038 1828 
Q 1203 1872 1538 1913 
Q 2219 1994 2541 2106 
Q 2544 2222 2544 2253 
Q 2544 2597 2384 2738 
Q 2169 2928 1744 2928 
Q 1347 2928 1158 2789 
Q 969 2650 878 2297 
L 328 2372 
Q 403 2725 575 2942 
Q 747 3159 1072 3276 
Q 1397 3394 1825 3394 
Q 2250 3394 2515 3294 
Q 2781 3194 2906 3042 
Q 3031 2891 3081 2659 
Q 3109 2516 3109 2141 
L 3109 1391 
Q 3109 606 3145 398 
Q 3181 191 3288 0 
L 2700 0 
Q 2613 175 2588 409 
z
M 2541 1666 
Q 2234 1541 1622 1453 
Q 1275 1403 1131 1340 
Q 988 1278 909 1158 
Q 831 1038 831 891 
Q 831 666 1001 516 
Q 1172 366 1500 366 
Q 1825 366 2078 508 
Q 2331 650 2450 897 
Q 2541 1088 2541 1459 
L 2541 1666 
z
" id="ArialMT-61" transform="scale(0.015625)"/>
      </defs>
      <use xlink:href="#ArialMT-4d"/>
      <use x="83.300781" xlink:href="#ArialMT-65"/>
      <use x="138.916016" xlink:href="#ArialMT-74"/>
      <use x="166.699219" xlink:href="#ArialMT-72"/>
      <use x="200" xlink:href="#ArialMT-69"/>
      <use x="222.216797" xlink:href="#ArialMT-63"/>
      <use x="272.216797" xlink:href="#ArialMT-20"/>
      <use x="300" xlink:href="#ArialMT-76"/>
      <use x="350" xlink:href="#ArialMT-61"/>
      <use x="405.615234" xlink:href="#ArialMT-6c"/>
      <use x="427.832031" xlink:href="#ArialMT-75"/>
      <use x="483.447266" xlink:href="#ArialMT-65"/>
     </g>
    </g>
   </g>
   <g id="line2d_16">
    <path clip-path="url(#p008c6ab4d9)" d="M 48.854375 232.919801 
L 58.774375 223.113124 
L 68.694375 234.30226 
L 78.614375 234.267462 
L 88.534375 229.204243 
L 98.454375 230.278101 
L 108.374375 233.923355 
L 118.294375 231.703838 
L 128.214375 236.053311 
L 138.134375 234.87707 
L 148.054375 235.140151 
L 157.974375 232.934321 
L 167.894375 228.425929 
L 177.814375 229.708738 
L 187.734375 230.336777 
L 197.654375 228.492725 
L 207.574375 229.343157 
L 217.494375 228.895492 
L 227.414375 229.798025 
L 237.334375 229.79095 
L 247.254375 230.930561 
L 257.174375 230.706558 
L 267.094375 229.92303 
L 277.014375 229.705589 
L 286.934375 231.520414 
L 296.854375 231.325706 
L 306.774375 233.00647 
L 316.694375 232.913399 
L 326.614375 233.24971 
L 336.534375 233.938717 
L 346.454375 234.18082 
L 356.374375 231.953458 
L 366.294375 232.108833 
L 376.214375 233.371818 
L 386.134375 234.255094 
L 396.054375 234.274385 
L 405.974375 233.261337 
L 415.894375 234.195032 
L 425.814375 234.275082 
L 435.734375 233.725382 
L 445.654375 233.467612 
L 455.574375 232.166189 
L 465.494375 231.069178 
L 475.414375 231.107724 
L 485.334375 231.871989 
L 495.254375 231.992851 
" style="fill:none;stroke:#7fc97f;stroke-linecap:square;stroke-width:1.5;"/>
   </g>
   <g id="line2d_17">
    <path clip-path="url(#p008c6ab4d9)" d="M 48.854375 171.592381 
L 58.774375 161.725224 
L 68.694375 177.618053 
L 78.614375 173.021377 
L 88.534375 166.967806 
L 98.454375 170.163012 
L 108.374375 169.845859 
L 118.294375 166.391852 
L 128.214375 169.181053 
L 138.134375 169.296818 
L 148.054375 166.727472 
L 157.974375 162.707526 
L 167.894375 158.372345 
L 177.814375 157.205812 
L 187.734375 157.581972 
L 197.654375 155.247818 
L 207.574375 152.732053 
L 217.494375 151.759008 
L 227.414375 152.021238 
L 237.334375 153.504873 
L 247.254375 154.25165 
L 257.174375 153.728755 
L 267.094375 153.562937 
L 277.014375 152.469726 
L 286.934375 152.992614 
L 296.854375 155.820788 
L 306.774375 159.349786 
L 316.694375 158.344294 
L 326.614375 158.628878 
L 336.534375 159.636681 
L 346.454375 160.709128 
L 356.374375 158.374373 
L 366.294375 157.094393 
L 376.214375 157.034676 
L 386.134375 158.948591 
L 396.054375 158.416641 
L 405.974375 157.930865 
L 415.894375 157.666197 
L 425.814375 158.653581 
L 435.734375 158.384714 
L 445.654375 157.84363 
L 455.574375 156.286282 
L 465.494375 153.565682 
L 475.414375 152.319878 
L 485.334375 150.727231 
L 495.254375 151.078204 
" style="fill:none;stroke:#beaed4;stroke-linecap:square;stroke-width:1.5;"/>
   </g>
   <g id="line2d_18">
    <path clip-path="url(#p008c6ab4d9)" d="M 98.454375 170.401722 
L 108.374375 206.103629 
L 118.294375 206.103629 
L 128.214375 188.252676 
L 138.134375 188.252676 
L 148.054375 162.815414 
L 157.974375 223.995044 
L 167.894375 223.995044 
L 177.814375 213.276379 
L 187.734375 194.931376 
L 197.654375 190.8431 
L 207.574375 191.235878 
L 217.494375 180.173851 
L 227.414375 183.82965 
L 237.334375 185.650732 
L 247.254375 182.068675 
L 257.174375 178.396262 
L 267.094375 177.596808 
L 277.014375 174.394029 
L 286.934375 174.394029 
L 296.854375 189.258776 
L 306.774375 191.536565 
L 316.694375 186.449113 
L 326.614375 182.474423 
L 336.534375 177.487148 
L 346.454375 176.528671 
L 356.374375 172.209666 
L 366.294375 178.514584 
L 376.214375 177.432869 
L 386.134375 182.602854 
L 396.054375 181.669877 
L 405.974375 178.217506 
L 415.894375 176.248262 
L 425.814375 177.063619 
L 435.734375 193.26176 
L 445.654375 195.554119 
L 455.574375 194.748499 
L 465.494375 192.429759 
L 475.414375 201.214187 
L 485.334375 204.517205 
L 495.254375 201.081633 
" style="fill:none;stroke:#386cb0;stroke-linecap:square;stroke-width:1.5;"/>
   </g>
   <g id="line2d_19">
    <path clip-path="url(#p008c6ab4d9)" d="M 48.854375 284.130907 
L 58.774375 291.926314 
L 68.694375 311.006334 
L 78.614375 313.211906 
L 88.534375 301.497652 
L 98.454375 297.539046 
L 108.374375 294.169681 
L 118.294375 315.106394 
L 128.214375 319.740647 
L 138.134375 318.144564 
L 148.054375 339.207025 
L 157.974375 330.172944 
L 167.894375 325.323139 
L 177.814375 334.818553 
L 187.734375 331.637656 
L 197.654375 346.5756 
L 207.574375 329.970648 
L 217.494375 325.764429 
L 227.414375 324.445895 
L 237.334375 325.498203 
L 247.254375 322.657775 
L 257.174375 342.898026 
L 267.094375 337.412901 
L 277.014375 334.249262 
L 286.934375 324.683008 
L 296.854375 350.076097 
L 306.774375 356.14725 
L 316.694375 340.060742 
L 326.614375 355.206226 
L 336.534375 347.34003 
L 346.454375 339.770557 
L 356.374375 334.667581 
L 366.294375 339.791866 
L 376.214375 339.346094 
L 386.134375 351.40695 
L 396.054375 336.541347 
L 405.974375 333.299185 
L 415.894375 339.83025 
L 425.814375 329.03873 
L 435.734375 325.455927 
L 445.654375 321.222859 
L 455.574375 322.182174 
L 465.494375 320.296513 
L 475.414375 315.960832 
L 485.334375 321.73873 
L 495.254375 314.476925 
" style="fill:none;stroke:#bf5b17;stroke-linecap:square;stroke-width:1.5;"/>
   </g>
   <g id="line2d_20">
    <path clip-path="url(#p008c6ab4d9)" d="M 48.854375 23.50725 
L 58.774375 23.999527 
L 68.694375 24.180448 
L 78.614375 25.969617 
L 88.534375 25.826299 
L 98.454375 26.90951 
L 108.374375 28.130624 
L 118.294375 29.270949 
L 128.214375 29.670264 
L 138.134375 30.099134 
L 148.054375 30.419992 
L 157.974375 31.863669 
L 167.894375 32.024621 
L 177.814375 32.290521 
L 187.734375 33.058338 
L 197.654375 33.892954 
L 207.574375 34.474127 
L 217.494375 34.763482 
L 227.414375 35.32922 
L 237.334375 37.316692 
L 247.254375 38.575199 
L 257.174375 38.914335 
L 267.094375 39.494698 
L 277.014375 39.783166 
L 286.934375 40.439136 
L 296.854375 41.376236 
L 306.774375 43.325405 
L 316.694375 44.356215 
L 326.614375 44.96533 
L 336.534375 46.042995 
L 346.454375 47.261226 
L 356.374375 47.542356 
L 366.294375 48.066966 
L 376.214375 49.282803 
L 386.134375 52.041817 
L 396.054375 53.032057 
L 405.974375 54.252451 
L 415.894375 55.743009 
L 425.814375 57.047247 
L 435.734375 57.113223 
L 445.654375 58.507892 
L 455.574375 60.785851 
L 465.494375 61.622652 
L 475.414375 62.831365 
L 485.334375 63.9471 
L 495.254375 65.183706 
" style="fill:none;stroke:#fdc086;stroke-linecap:square;stroke-width:1.5;"/>
   </g>
   <g id="line2d_21">
    <path clip-path="url(#p008c6ab4d9)" d="M 48.854375 217.875895 
L 58.774375 210.965477 
L 68.694375 239.737543 
L 78.614375 230.295815 
L 88.534375 223.057675 
L 98.454375 231.733515 
L 108.374375 234.124531 
L 118.294375 231.601367 
L 128.214375 241.90192 
L 138.134375 245.575406 
L 148.054375 246.584991 
L 157.974375 238.977193 
L 167.894375 235.11811 
L 177.814375 235.48007 
L 187.734375 238.727443 
L 197.654375 233.946927 
L 207.574375 233.592341 
L 217.494375 235.225408 
L 227.414375 234.801077 
L 237.334375 231.786432 
L 247.254375 233.270613 
L 257.174375 234.475493 
L 267.094375 233.924756 
L 277.014375 233.884176 
L 286.934375 234.688939 
L 296.854375 234.491452 
L 306.774375 236.978011 
L 316.694375 237.755179 
L 326.614375 237.918389 
L 336.534375 239.992387 
L 346.454375 239.313698 
L 356.374375 236.732541 
L 366.294375 236.520757 
L 376.214375 236.829024 
L 386.134375 237.962007 
L 396.054375 236.82997 
L 405.974375 235.738641 
L 415.894375 235.904577 
L 425.814375 237.03482 
L 435.734375 237.399781 
L 445.654375 235.912281 
L 455.574375 233.449937 
L 465.494375 231.195506 
L 475.414375 230.638559 
L 485.334375 229.599261 
L 495.254375 229.846624 
" style="fill:none;stroke:#f0027f;stroke-linecap:square;stroke-width:1.5;"/>
   </g>
   <g id="patch_3">
    <path d="M 48.854375 356.14725 
L 48.854375 23.50725 
" style="fill:none;stroke:#cccccc;stroke-linecap:square;stroke-linejoin:miter;stroke-width:0.75;"/>
   </g>
   <g id="patch_4">
    <path d="M 48.854375 356.14725 
L 495.254375 356.14725 
" style="fill:none;stroke:#cccccc;stroke-linecap:square;stroke-linejoin:miter;stroke-width:0.75;"/>
   </g>
   <g id="text_18">
    <!-- Mean of transitions -->
    <g style="fill:#333333;" transform="translate(211.227875 17.50725)scale(0.144 -0.144)">
     <defs>
      <path d="M 213 1659 
Q 213 2581 725 3025 
Q 1153 3394 1769 3394 
Q 2453 3394 2887 2945 
Q 3322 2497 3322 1706 
Q 3322 1066 3130 698 
Q 2938 331 2570 128 
Q 2203 -75 1769 -75 
Q 1072 -75 642 372 
Q 213 819 213 1659 
z
M 791 1659 
Q 791 1022 1069 705 
Q 1347 388 1769 388 
Q 2188 388 2466 706 
Q 2744 1025 2744 1678 
Q 2744 2294 2464 2611 
Q 2184 2928 1769 2928 
Q 1347 2928 1069 2612 
Q 791 2297 791 1659 
z
" id="ArialMT-6f" transform="scale(0.015625)"/>
      <path d="M 556 0 
L 556 2881 
L 59 2881 
L 59 3319 
L 556 3319 
L 556 3672 
Q 556 4006 616 4169 
Q 697 4388 901 4523 
Q 1106 4659 1475 4659 
Q 1713 4659 2000 4603 
L 1916 4113 
Q 1741 4144 1584 4144 
Q 1328 4144 1222 4034 
Q 1116 3925 1116 3625 
L 1116 3319 
L 1763 3319 
L 1763 2881 
L 1116 2881 
L 1116 0 
L 556 0 
z
" id="ArialMT-66" transform="scale(0.015625)"/>
      <path d="M 197 991 
L 753 1078 
Q 800 744 1014 566 
Q 1228 388 1613 388 
Q 2000 388 2187 545 
Q 2375 703 2375 916 
Q 2375 1106 2209 1216 
Q 2094 1291 1634 1406 
Q 1016 1563 777 1677 
Q 538 1791 414 1992 
Q 291 2194 291 2438 
Q 291 2659 392 2848 
Q 494 3038 669 3163 
Q 800 3259 1026 3326 
Q 1253 3394 1513 3394 
Q 1903 3394 2198 3281 
Q 2494 3169 2634 2976 
Q 2775 2784 2828 2463 
L 2278 2388 
Q 2241 2644 2061 2787 
Q 1881 2931 1553 2931 
Q 1166 2931 1000 2803 
Q 834 2675 834 2503 
Q 834 2394 903 2306 
Q 972 2216 1119 2156 
Q 1203 2125 1616 2013 
Q 2213 1853 2448 1751 
Q 2684 1650 2818 1456 
Q 2953 1263 2953 975 
Q 2953 694 2789 445 
Q 2625 197 2315 61 
Q 2006 -75 1616 -75 
Q 969 -75 630 194 
Q 291 463 197 991 
z
" id="ArialMT-73" transform="scale(0.015625)"/>
     </defs>
     <use xlink:href="#ArialMT-4d"/>
     <use x="83.300781" xlink:href="#ArialMT-65"/>
     <use x="138.916016" xlink:href="#ArialMT-61"/>
     <use x="194.53125" xlink:href="#ArialMT-6e"/>
     <use x="250.146484" xlink:href="#ArialMT-20"/>
     <use x="277.929688" xlink:href="#ArialMT-6f"/>
     <use x="333.544922" xlink:href="#ArialMT-66"/>
     <use x="361.328125" xlink:href="#ArialMT-20"/>
     <use x="389.111328" xlink:href="#ArialMT-74"/>
     <use x="416.894531" xlink:href="#ArialMT-72"/>
     <use x="450.195312" xlink:href="#ArialMT-61"/>
     <use x="505.810547" xlink:href="#ArialMT-6e"/>
     <use x="561.425781" xlink:href="#ArialMT-73"/>
     <use x="611.425781" xlink:href="#ArialMT-69"/>
     <use x="633.642578" xlink:href="#ArialMT-74"/>
     <use x="661.425781" xlink:href="#ArialMT-69"/>
     <use x="683.642578" xlink:href="#ArialMT-6f"/>
     <use x="739.257812" xlink:href="#ArialMT-6e"/>
     <use x="794.873047" xlink:href="#ArialMT-73"/>
    </g>
   </g>
   <g id="legend_1">
    <g id="patch_5">
     <path d="M 54.854375 134.9535 
L 131.405 134.9535 
L 131.405 29.50725 
L 54.854375 29.50725 
z
" style="fill:#ffffff;opacity:0.6;"/>
    </g>
    <g id="line2d_22">
     <path d="M 59.654375 38.696625 
L 83.654375 38.696625 
" style="fill:none;stroke:#7fc97f;stroke-linecap:square;stroke-width:1.5;"/>
    </g>
    <g id="line2d_23"/>
    <g id="text_19">
     <!-- L -->
     <g style="fill:#333333;" transform="translate(93.254375 42.896625)scale(0.12 -0.12)">
      <defs>
       <path d="M 469 0 
L 469 4581 
L 1075 4581 
L 1075 541 
L 3331 541 
L 3331 0 
L 469 0 
z
" id="ArialMT-4c" transform="scale(0.015625)"/>
      </defs>
      <use xlink:href="#ArialMT-4c"/>
     </g>
    </g>
    <g id="line2d_24">
     <path d="M 59.654375 55.671 
L 83.654375 55.671 
" style="fill:none;stroke:#beaed4;stroke-linecap:square;stroke-width:1.5;"/>
    </g>
    <g id="line2d_25"/>
    <g id="text_20">
     <!-- LSA -->
     <g style="fill:#333333;" transform="translate(93.254375 59.871)scale(0.12 -0.12)">
      <defs>
       <path d="M -9 0 
L 1750 4581 
L 2403 4581 
L 4278 0 
L 3588 0 
L 3053 1388 
L 1138 1388 
L 634 0 
L -9 0 
z
M 1313 1881 
L 2866 1881 
L 2388 3150 
Q 2169 3728 2063 4100 
Q 1975 3659 1816 3225 
L 1313 1881 
z
" id="ArialMT-41" transform="scale(0.015625)"/>
      </defs>
      <use xlink:href="#ArialMT-4c"/>
      <use x="55.615234" xlink:href="#ArialMT-53"/>
      <use x="122.314453" xlink:href="#ArialMT-41"/>
     </g>
    </g>
    <g id="line2d_26">
     <path d="M 59.654375 72.645375 
L 83.654375 72.645375 
" style="fill:none;stroke:#386cb0;stroke-linecap:square;stroke-width:1.5;"/>
    </g>
    <g id="line2d_27"/>
    <g id="text_21">
     <!-- LSA-5 -->
     <g style="fill:#333333;" transform="translate(93.254375 76.845375)scale(0.12 -0.12)">
      <defs>
       <path d="M 203 1375 
L 203 1941 
L 1931 1941 
L 1931 1375 
L 203 1375 
z
" id="ArialMT-2d" transform="scale(0.015625)"/>
      </defs>
      <use xlink:href="#ArialMT-4c"/>
      <use x="55.615234" xlink:href="#ArialMT-53"/>
      <use x="122.314453" xlink:href="#ArialMT-41"/>
      <use x="189.013672" xlink:href="#ArialMT-2d"/>
      <use x="222.314453" xlink:href="#ArialMT-35"/>
     </g>
    </g>
    <g id="line2d_28">
     <path d="M 59.654375 89.61975 
L 83.654375 89.61975 
" style="fill:none;stroke:#bf5b17;stroke-linecap:square;stroke-width:1.5;"/>
    </g>
    <g id="line2d_29"/>
    <g id="text_22">
     <!-- L* -->
     <g style="fill:#333333;" transform="translate(93.254375 93.81975)scale(0.12 -0.12)">
      <defs>
       <path d="M 200 3741 
L 344 4184 
Q 841 4009 1066 3881 
Q 1006 4447 1003 4659 
L 1456 4659 
Q 1447 4350 1384 3884 
Q 1706 4047 2122 4184 
L 2266 3741 
Q 1869 3609 1488 3566 
Q 1678 3400 2025 2975 
L 1650 2709 
Q 1469 2956 1222 3381 
Q 991 2941 816 2709 
L 447 2975 
Q 809 3422 966 3566 
Q 563 3644 200 3741 
z
" id="ArialMT-2a" transform="scale(0.015625)"/>
      </defs>
      <use xlink:href="#ArialMT-4c"/>
      <use x="55.615234" xlink:href="#ArialMT-2a"/>
     </g>
    </g>
    <g id="line2d_30">
     <path d="M 59.654375 106.594125 
L 83.654375 106.594125 
" style="fill:none;stroke:#fdc086;stroke-linecap:square;stroke-width:1.5;"/>
    </g>
    <g id="line2d_31"/>
    <g id="text_23">
     <!-- MCM -->
     <g style="fill:#333333;" transform="translate(93.254375 110.794125)scale(0.12 -0.12)">
      <defs>
       <path d="M 3763 1606 
L 4369 1453 
Q 4178 706 3683 314 
Q 3188 -78 2472 -78 
Q 1731 -78 1267 223 
Q 803 525 561 1097 
Q 319 1669 319 2325 
Q 319 3041 592 3573 
Q 866 4106 1370 4382 
Q 1875 4659 2481 4659 
Q 3169 4659 3637 4309 
Q 4106 3959 4291 3325 
L 3694 3184 
Q 3534 3684 3231 3912 
Q 2928 4141 2469 4141 
Q 1941 4141 1586 3887 
Q 1231 3634 1087 3207 
Q 944 2781 944 2328 
Q 944 1744 1114 1308 
Q 1284 872 1643 656 
Q 2003 441 2422 441 
Q 2931 441 3284 734 
Q 3638 1028 3763 1606 
z
" id="ArialMT-43" transform="scale(0.015625)"/>
      </defs>
      <use xlink:href="#ArialMT-4d"/>
      <use x="83.300781" xlink:href="#ArialMT-43"/>
      <use x="155.517578" xlink:href="#ArialMT-4d"/>
     </g>
    </g>
    <g id="line2d_32">
     <path d="M 59.654375 123.5685 
L 83.654375 123.5685 
" style="fill:none;stroke:#f0027f;stroke-linecap:square;stroke-width:1.5;"/>
    </g>
    <g id="line2d_33"/>
    <g id="text_24">
     <!-- Q -->
     <g style="fill:#333333;" transform="translate(93.254375 127.7685)scale(0.12 -0.12)">
      <defs>
       <path d="M 3966 491 
Q 4388 200 4744 66 
L 4566 -356 
Q 4072 -178 3581 206 
Q 3072 -78 2456 -78 
Q 1834 -78 1328 222 
Q 822 522 548 1065 
Q 275 1609 275 2291 
Q 275 2969 550 3525 
Q 825 4081 1333 4372 
Q 1841 4663 2469 4663 
Q 3103 4663 3612 4361 
Q 4122 4059 4389 3517 
Q 4656 2975 4656 2294 
Q 4656 1728 4484 1276 
Q 4313 825 3966 491 
z
M 2631 1266 
Q 3156 1119 3497 828 
Q 4031 1316 4031 2294 
Q 4031 2850 3842 3265 
Q 3653 3681 3289 3911 
Q 2925 4141 2472 4141 
Q 1794 4141 1347 3677 
Q 900 3213 900 2291 
Q 900 1397 1342 919 
Q 1784 441 2472 441 
Q 2797 441 3084 563 
Q 2800 747 2484 825 
L 2631 1266 
z
" id="ArialMT-51" transform="scale(0.015625)"/>
      </defs>
      <use xlink:href="#ArialMT-51"/>
     </g>
    </g>
   </g>
  </g>
 </g>
 <defs>
  <clipPath id="p008c6ab4d9">
   <rect height="332.64" width="446.4" x="48.854375" y="23.50725"/>
  </clipPath>
 </defs>
</svg>
