<?xml version="1.0" encoding="utf-8" standalone="no"?>
<!DOCTYPE svg PUBLIC "-//W3C//DTD SVG 1.1//EN"
  "http://www.w3.org/Graphics/SVG/1.1/DTD/svg11.dtd">
<svg height="300.115625pt" version="1.1" viewBox="0 0 397.863125 300.115625" width="397.863125pt" xmlns="http://www.w3.org/2000/svg" xmlns:xlink="http://www.w3.org/1999/xlink">
 <metadata>
  <rdf:RDF xmlns:cc="http://creativecommons.org/ns#" xmlns:dc="http://purl.org/dc/elements/1.1/" xmlns:rdf="http://www.w3.org/1999/02/22-rdf-syntax-ns#">
   <cc:Work>
    <dc:type rdf:resource="http://purl.org/dc/dcmitype/StillImage"/>
    <dc:date>2021-05-07T14:59:50.566735</dc:date>
    <dc:format>image/svg+xml</dc:format>
    <dc:creator>
     <cc:Agent>
      <dc:title>Matplotlib v3.4.1, https://matplotlib.org/</dc:title>
     </cc:Agent>
    </dc:creator>
   </cc:Work>
  </rdf:RDF>
 </metadata>
 <defs>
  <style type="text/css">*{stroke-linecap:butt;stroke-linejoin:round;}</style>
 </defs>
 <g id="figure_1">
  <g id="patch_1">
   <path d="M -0 300.115625 
L 397.863125 300.115625 
L 397.863125 0 
L -0 0 
z
" style="fill:#ffffff;"/>
  </g>
  <g id="axes_1">
   <g id="patch_2">
    <path d="M 55.863125 256.68 
L 390.663125 256.68 
L 390.663125 7.2 
L 55.863125 7.2 
z
" style="fill:#ffffff;"/>
   </g>
   <g id="PolyCollection_1">
    <defs>
     <path d="M 55.863125 -214.536432 
L 55.863125 -208.142452 
L 59.387336 -199.118084 
L 62.911546 -192.149594 
L 66.435757 -189.856352 
L 69.959967 -189.425998 
L 73.484178 -187.467576 
L 77.008388 -188.008587 
L 80.532599 -185.272251 
L 84.056809 -183.380622 
L 87.58102 -184.082668 
L 91.10523 -183.660073 
L 94.629441 -183.120946 
L 98.153651 -182.663685 
L 101.677862 -182.371314 
L 105.202072 -181.893162 
L 108.726283 -181.709157 
L 112.250493 -182.371074 
L 115.774704 -182.740541 
L 119.298914 -181.047118 
L 122.823125 -181.653627 
L 126.347336 -181.252071 
L 129.871546 -181.973063 
L 133.395757 -180.929001 
L 136.919967 -180.895751 
L 140.444178 -180.9072 
L 143.968388 -181.014304 
L 147.492599 -180.6939 
L 151.016809 -180.801154 
L 154.54102 -180.758517 
L 158.06523 -180.944843 
L 161.589441 -180.973671 
L 165.113651 -180.737733 
L 168.637862 -180.534962 
L 172.162072 -180.739487 
L 175.686283 -180.303615 
L 179.210493 -180.383052 
L 182.734704 -180.526944 
L 186.258914 -180.250383 
L 189.783125 -180.664593 
L 193.307336 -180.24737 
L 196.831546 -180.215009 
L 200.355757 -180.206215 
L 203.879967 -180.449787 
L 207.404178 -180.230129 
L 210.928388 -180.366649 
L 214.452599 -180.145226 
L 217.976809 -179.919872 
L 221.50102 -180.251504 
L 225.02523 -180.262357 
L 228.549441 -180.125546 
L 232.073651 -180.32493 
L 235.597862 -180.094736 
L 239.122072 -179.847114 
L 242.646283 -179.970365 
L 246.170493 -180.493708 
L 249.694704 -179.926691 
L 253.218914 -179.992382 
L 256.743125 -180.015304 
L 260.267336 -179.77263 
L 263.791546 -180.147711 
L 267.315757 -179.866512 
L 270.839967 -180.105216 
L 274.364178 -179.8194 
L 277.888388 -179.774508 
L 281.412599 -179.880117 
L 284.936809 -179.968166 
L 288.46102 -179.76759 
L 291.98523 -179.977273 
L 295.509441 -179.922003 
L 299.033651 -179.954291 
L 302.557862 -180.086194 
L 306.082072 -179.73904 
L 309.606283 -179.956761 
L 313.130493 -179.931002 
L 316.654704 -179.765195 
L 320.178914 -179.696892 
L 323.703125 -179.677906 
L 327.227336 -179.788985 
L 330.751546 -179.889559 
L 334.275757 -179.711529 
L 337.799967 -179.789622 
L 341.324178 -179.601583 
L 344.848388 -179.579505 
L 348.372599 -179.657409 
L 351.896809 -179.770578 
L 355.42102 -179.797659 
L 358.94523 -179.830463 
L 362.469441 -179.801957 
L 365.993651 -179.769142 
L 369.517862 -179.856787 
L 373.042072 -179.546618 
L 376.566283 -179.518032 
L 380.090493 -179.623282 
L 383.614704 -179.65897 
L 387.138914 -179.675957 
L 390.663125 -179.607825 
L 390.663125 -180.679712 
L 390.663125 -180.679712 
L 387.138914 -180.772631 
L 383.614704 -180.765144 
L 380.090493 -180.722657 
L 376.566283 -180.631254 
L 373.042072 -180.666704 
L 369.517862 -180.98759 
L 365.993651 -180.90651 
L 362.469441 -180.938534 
L 358.94523 -180.967686 
L 355.42102 -180.960605 
L 351.896809 -180.9287 
L 348.372599 -180.839084 
L 344.848388 -180.759706 
L 341.324178 -180.79408 
L 337.799967 -180.977206 
L 334.275757 -180.910693 
L 330.751546 -181.097891 
L 327.227336 -181.019815 
L 323.703125 -180.891119 
L 320.178914 -180.943139 
L 316.654704 -181.030157 
L 313.130493 -181.200625 
L 309.606283 -181.21498 
L 306.082072 -181.002113 
L 302.557862 -181.393954 
L 299.033651 -181.245624 
L 295.509441 -181.238613 
L 291.98523 -181.298835 
L 288.46102 -181.106449 
L 284.936809 -181.309975 
L 281.412599 -181.236744 
L 277.888388 -181.137259 
L 274.364178 -181.192133 
L 270.839967 -181.494219 
L 267.315757 -181.27147 
L 263.791546 -181.597951 
L 260.267336 -181.207171 
L 256.743125 -181.47434 
L 253.218914 -181.44842 
L 249.694704 -181.413234 
L 246.170493 -181.986391 
L 242.646283 -181.484014 
L 239.122072 -181.405213 
L 235.597862 -181.647672 
L 232.073651 -181.888739 
L 228.549441 -181.730995 
L 225.02523 -181.900917 
L 221.50102 -181.858333 
L 217.976809 -181.598315 
L 214.452599 -181.839648 
L 210.928388 -182.044849 
L 207.404178 -181.952482 
L 203.879967 -182.21041 
L 200.355757 -181.988569 
L 196.831546 -182.004719 
L 193.307336 -182.078665 
L 189.783125 -182.545879 
L 186.258914 -182.168365 
L 182.734704 -182.45362 
L 179.210493 -182.34554 
L 175.686283 -182.298893 
L 172.162072 -182.784788 
L 168.637862 -182.621174 
L 165.113651 -182.849506 
L 161.589441 -183.115985 
L 158.06523 -183.135691 
L 154.54102 -182.999245 
L 151.016809 -183.086648 
L 147.492599 -183.006055 
L 143.968388 -183.341656 
L 140.444178 -183.340626 
L 136.919967 -183.395123 
L 133.395757 -183.468193 
L 129.871546 -184.618379 
L 126.347336 -183.91344 
L 122.823125 -184.417575 
L 119.298914 -183.859559 
L 115.774704 -185.671645 
L 112.250493 -185.357331 
L 108.726283 -184.762974 
L 105.202072 -184.996258 
L 101.677862 -185.598193 
L 98.153651 -185.993668 
L 94.629441 -186.590999 
L 91.10523 -187.240168 
L 87.58102 -187.764321 
L 84.056809 -187.184884 
L 80.532599 -189.258304 
L 77.008388 -192.21314 
L 73.484178 -191.936449 
L 69.959967 -194.01179 
L 66.435757 -194.691736 
L 62.911546 -197.32055 
L 59.387336 -204.779133 
L 55.863125 -214.536432 
z
" id="mdf0ed89bda"/>
    </defs>
    <g clip-path="url(#pf8d8051c1c)">
     <use style="fill:#7fc97f;fill-opacity:0.1;" x="0" xlink:href="#mdf0ed89bda" y="300.115625"/>
    </g>
   </g>
   <g id="PolyCollection_2">
    <defs>
     <path d="M 55.863125 -254.264298 
L 55.863125 -242.039404 
L 59.387336 -221.586366 
L 62.911546 -211.626582 
L 66.435757 -207.044168 
L 69.959967 -204.466054 
L 73.484178 -200.459713 
L 77.008388 -204.427162 
L 80.532599 -197.700562 
L 84.056809 -193.262047 
L 87.58102 -193.423282 
L 91.10523 -195.870436 
L 94.629441 -192.195752 
L 98.153651 -190.582964 
L 101.677862 -190.962003 
L 105.202072 -191.320392 
L 108.726283 -190.361856 
L 112.250493 -190.333651 
L 115.774704 -193.844932 
L 119.298914 -188.832473 
L 122.823125 -187.822757 
L 126.347336 -188.833932 
L 129.871546 -190.341606 
L 133.395757 -188.091627 
L 136.919967 -188.147939 
L 140.444178 -188.710176 
L 143.968388 -187.874013 
L 147.492599 -187.324072 
L 151.016809 -187.834821 
L 154.54102 -188.248611 
L 158.06523 -187.55304 
L 161.589441 -188.441086 
L 165.113651 -187.169025 
L 168.637862 -187.255415 
L 172.162072 -187.403885 
L 175.686283 -185.316149 
L 179.210493 -184.534724 
L 182.734704 -185.787656 
L 186.258914 -185.37855 
L 189.783125 -186.748532 
L 193.307336 -186.107374 
L 196.831546 -184.96418 
L 200.355757 -185.489577 
L 203.879967 -186.0945 
L 207.404178 -186.417096 
L 210.928388 -186.73054 
L 214.452599 -184.449367 
L 217.976809 -184.771579 
L 221.50102 -185.585434 
L 225.02523 -186.035644 
L 228.549441 -185.600973 
L 232.073651 -186.700507 
L 235.597862 -184.679198 
L 239.122072 -184.698996 
L 242.646283 -185.715116 
L 246.170493 -187.009594 
L 249.694704 -184.584335 
L 253.218914 -184.542496 
L 256.743125 -184.085953 
L 260.267336 -184.410924 
L 263.791546 -186.177103 
L 267.315757 -184.611942 
L 270.839967 -186.439633 
L 274.364178 -183.379263 
L 277.888388 -183.010645 
L 281.412599 -184.92553 
L 284.936809 -183.774213 
L 288.46102 -183.298762 
L 291.98523 -184.900875 
L 295.509441 -185.171818 
L 299.033651 -185.715942 
L 302.557862 -185.626642 
L 306.082072 -184.669835 
L 309.606283 -184.929187 
L 313.130493 -185.155397 
L 316.654704 -184.339337 
L 320.178914 -183.522453 
L 323.703125 -183.756644 
L 327.227336 -184.673714 
L 330.751546 -184.032253 
L 334.275757 -184.370296 
L 337.799967 -183.98443 
L 341.324178 -182.654052 
L 344.848388 -182.705846 
L 348.372599 -182.730157 
L 351.896809 -183.330872 
L 355.42102 -185.148447 
L 358.94523 -184.81934 
L 362.469441 -184.762859 
L 365.993651 -185.391196 
L 369.517862 -184.939267 
L 373.042072 -182.213528 
L 376.566283 -182.875771 
L 380.090493 -182.665886 
L 383.614704 -184.234682 
L 387.138914 -183.413263 
L 390.663125 -183.315207 
L 390.663125 -193.609925 
L 390.663125 -193.609925 
L 387.138914 -193.668599 
L 383.614704 -194.523006 
L 380.090493 -193.051012 
L 376.566283 -193.140035 
L 373.042072 -192.529375 
L 369.517862 -195.195128 
L 365.993651 -195.73215 
L 362.469441 -194.967006 
L 358.94523 -195.000707 
L 355.42102 -195.469645 
L 351.896809 -193.573311 
L 348.372599 -192.992848 
L 344.848388 -193.005974 
L 341.324178 -192.886557 
L 337.799967 -194.303414 
L 334.275757 -194.755045 
L 330.751546 -194.145262 
L 327.227336 -195.06162 
L 323.703125 -193.927144 
L 320.178914 -193.819642 
L 316.654704 -194.706272 
L 313.130493 -195.532839 
L 309.606283 -195.199674 
L 306.082072 -194.841806 
L 302.557862 -195.972686 
L 299.033651 -196.049969 
L 295.509441 -195.511872 
L 291.98523 -195.255186 
L 288.46102 -193.690315 
L 284.936809 -194.015563 
L 281.412599 -195.242252 
L 277.888388 -193.304461 
L 274.364178 -193.572469 
L 270.839967 -196.751705 
L 267.315757 -194.933132 
L 263.791546 -196.535086 
L 260.267336 -194.732614 
L 256.743125 -194.433292 
L 253.218914 -194.837429 
L 249.694704 -194.89712 
L 246.170493 -197.305467 
L 242.646283 -195.976249 
L 239.122072 -195.093979 
L 235.597862 -194.976552 
L 232.073651 -196.957354 
L 228.549441 -196.032377 
L 225.02523 -196.558203 
L 221.50102 -195.853444 
L 217.976809 -195.068723 
L 214.452599 -194.774324 
L 210.928388 -197.00766 
L 207.404178 -196.738571 
L 203.879967 -196.523786 
L 200.355757 -195.833459 
L 196.831546 -195.403721 
L 193.307336 -196.481186 
L 189.783125 -197.2196 
L 186.258914 -195.805783 
L 182.734704 -196.261215 
L 179.210493 -194.885737 
L 175.686283 -195.758521 
L 172.162072 -197.863202 
L 168.637862 -197.829001 
L 165.113651 -197.640169 
L 161.589441 -198.980072 
L 158.06523 -198.025192 
L 154.54102 -198.688482 
L 151.016809 -198.384888 
L 147.492599 -197.905379 
L 143.968388 -198.387798 
L 140.444178 -199.333292 
L 136.919967 -198.847033 
L 133.395757 -198.721912 
L 129.871546 -200.96288 
L 126.347336 -199.460328 
L 122.823125 -198.462318 
L 119.298914 -199.425574 
L 115.774704 -204.618268 
L 112.250493 -201.019832 
L 108.726283 -201.222926 
L 105.202072 -202.145164 
L 101.677862 -201.818423 
L 98.153651 -201.279161 
L 94.629441 -203.079965 
L 91.10523 -206.959468 
L 87.58102 -204.275501 
L 84.056809 -204.217998 
L 80.532599 -208.771922 
L 77.008388 -215.807346 
L 73.484178 -211.795778 
L 69.959967 -215.86776 
L 66.435757 -218.557056 
L 62.911546 -223.408299 
L 59.387336 -233.497002 
L 55.863125 -254.264298 
z
" id="m8a9e00df28"/>
    </defs>
    <g clip-path="url(#pf8d8051c1c)">
     <use style="fill:#beaed4;fill-opacity:0.1;" x="0" xlink:href="#m8a9e00df28" y="300.115625"/>
    </g>
   </g>
   <g id="PolyCollection_3">
    <defs>
     <path d="M 62.911546 -216.983499 
L 62.911546 -202.699205 
L 66.435757 -190.334985 
L 69.959967 -185.07027 
L 73.484178 -183.919259 
L 77.008388 -195.049847 
L 80.532599 -188.244783 
L 84.056809 -189.587521 
L 87.58102 -192.525695 
L 91.10523 -192.479391 
L 94.629441 -189.504888 
L 98.153651 -187.605399 
L 101.677862 -188.77165 
L 105.202072 -189.285208 
L 108.726283 -189.737598 
L 112.250493 -188.586742 
L 115.774704 -190.024455 
L 119.298914 -185.442103 
L 122.823125 -186.152017 
L 126.347336 -186.053072 
L 129.871546 -188.897654 
L 133.395757 -186.315084 
L 136.919967 -187.185463 
L 140.444178 -186.272225 
L 143.968388 -185.092904 
L 147.492599 -186.244586 
L 151.016809 -186.38956 
L 154.54102 -186.699094 
L 158.06523 -184.935768 
L 161.589441 -186.89822 
L 165.113651 -186.324479 
L 168.637862 -186.890504 
L 172.162072 -185.472921 
L 175.686283 -186.248956 
L 179.210493 -187.56924 
L 182.734704 -184.81158 
L 186.258914 -184.570549 
L 189.783125 -183.940294 
L 193.307336 -184.580478 
L 196.831546 -184.916784 
L 200.355757 -184.958088 
L 203.879967 -185.600301 
L 207.404178 -184.964266 
L 210.928388 -184.166986 
L 214.452599 -189.860006 
L 217.976809 -184.480377 
L 221.50102 -185.853555 
L 225.02523 -185.202888 
L 228.549441 -183.379489 
L 232.073651 -185.061109 
L 235.597862 -184.886323 
L 239.122072 -188.181242 
L 242.646283 -184.214071 
L 246.170493 -185.849583 
L 249.694704 -185.332092 
L 253.218914 -184.41993 
L 256.743125 -185.131074 
L 260.267336 -183.321498 
L 263.791546 -185.220844 
L 267.315757 -185.210927 
L 270.839967 -184.287637 
L 274.364178 -186.287729 
L 277.888388 -184.078705 
L 281.412599 -183.550593 
L 284.936809 -185.701797 
L 288.46102 -186.151657 
L 291.98523 -185.159062 
L 295.509441 -185.303181 
L 299.033651 -184.258563 
L 302.557862 -185.007175 
L 306.082072 -183.436067 
L 309.606283 -184.486272 
L 313.130493 -183.692881 
L 316.654704 -183.942326 
L 320.178914 -186.221861 
L 323.703125 -183.070501 
L 327.227336 -183.452466 
L 330.751546 -184.517681 
L 334.275757 -184.642986 
L 337.799967 -183.481171 
L 341.324178 -185.973338 
L 344.848388 -185.02456 
L 348.372599 -184.729859 
L 351.896809 -186.238795 
L 355.42102 -184.091254 
L 358.94523 -185.397191 
L 362.469441 -185.686312 
L 365.993651 -185.118877 
L 369.517862 -184.20574 
L 373.042072 -183.908232 
L 376.566283 -183.173462 
L 380.090493 -185.393506 
L 383.614704 -183.779107 
L 387.138914 -182.433274 
L 390.663125 -184.212793 
L 390.663125 -194.451951 
L 390.663125 -194.451951 
L 387.138914 -192.606706 
L 383.614704 -194.034679 
L 380.090493 -195.750281 
L 376.566283 -193.42505 
L 373.042072 -194.232477 
L 369.517862 -194.506139 
L 365.993651 -195.365183 
L 362.469441 -196.015276 
L 358.94523 -195.623101 
L 355.42102 -194.46445 
L 351.896809 -196.500909 
L 348.372599 -194.942572 
L 344.848388 -195.356077 
L 341.324178 -196.345159 
L 337.799967 -193.798598 
L 334.275757 -194.939449 
L 330.751546 -194.917343 
L 327.227336 -193.75628 
L 323.703125 -193.242628 
L 320.178914 -196.525106 
L 316.654704 -194.251627 
L 313.130493 -194.082996 
L 309.606283 -194.808419 
L 306.082072 -193.790009 
L 302.557862 -195.406963 
L 299.033651 -194.569042 
L 295.509441 -195.583418 
L 291.98523 -195.54838 
L 288.46102 -196.48542 
L 284.936809 -196.067348 
L 281.412599 -193.895098 
L 277.888388 -194.35493 
L 274.364178 -196.684423 
L 270.839967 -194.663617 
L 267.315757 -195.667545 
L 263.791546 -195.666443 
L 260.267336 -193.715039 
L 256.743125 -195.497613 
L 253.218914 -194.706825 
L 249.694704 -195.79128 
L 246.170493 -196.219793 
L 242.646283 -194.644965 
L 239.122072 -198.516244 
L 235.597862 -195.277668 
L 232.073651 -195.517257 
L 228.549441 -193.724611 
L 225.02523 -195.578018 
L 221.50102 -196.252812 
L 217.976809 -194.874571 
L 214.452599 -200.280228 
L 210.928388 -194.553078 
L 207.404178 -195.365228 
L 203.879967 -195.956465 
L 200.355757 -195.397077 
L 196.831546 -195.313557 
L 193.307336 -195.005098 
L 189.783125 -194.391459 
L 186.258914 -195.140763 
L 182.734704 -195.312513 
L 179.210493 -198.04887 
L 175.686283 -196.73876 
L 172.162072 -195.964336 
L 168.637862 -197.22471 
L 165.113651 -196.908445 
L 161.589441 -197.477892 
L 158.06523 -195.443594 
L 154.54102 -197.257415 
L 151.016809 -196.971103 
L 147.492599 -196.809677 
L 143.968388 -195.699877 
L 140.444178 -196.876725 
L 136.919967 -197.872294 
L 133.395757 -196.908687 
L 129.871546 -199.605005 
L 126.347336 -196.672636 
L 122.823125 -196.798028 
L 119.298914 -196.0228 
L 115.774704 -200.789938 
L 112.250493 -199.323539 
L 108.726283 -200.634097 
L 105.202072 -200.175031 
L 101.677862 -199.58454 
L 98.153651 -198.424088 
L 94.629441 -200.473013 
L 91.10523 -203.590092 
L 87.58102 -203.678195 
L 84.056809 -200.632346 
L 80.532599 -199.51126 
L 77.008388 -206.449266 
L 73.484178 -195.293868 
L 69.959967 -196.794435 
L 66.435757 -202.870715 
L 62.911546 -216.983499 
z
" id="m591c8dc14c"/>
    </defs>
    <g clip-path="url(#pf8d8051c1c)">
     <use style="fill:#386cb0;fill-opacity:0.1;" x="0" xlink:href="#m591c8dc14c" y="300.115625"/>
    </g>
   </g>
   <g id="PolyCollection_4">
    <defs>
     <path d="M 55.863125 -269.339661 
L 55.863125 -264.776508 
L 59.387336 -251.264798 
L 62.911546 -242.226823 
L 66.435757 -236.718952 
L 69.959967 -233.966417 
L 73.484178 -231.298268 
L 77.008388 -229.778455 
L 80.532599 -226.593954 
L 84.056809 -224.278906 
L 87.58102 -224.107933 
L 91.10523 -223.161653 
L 94.629441 -221.994286 
L 98.153651 -220.995663 
L 101.677862 -220.600894 
L 105.202072 -220.145942 
L 108.726283 -219.480251 
L 112.250493 -219.791985 
L 115.774704 -220.096457 
L 119.298914 -218.530768 
L 122.823125 -219.123011 
L 126.347336 -218.533609 
L 129.871546 -218.946356 
L 133.395757 -217.979362 
L 136.919967 -218.081164 
L 140.444178 -217.835752 
L 143.968388 -217.860957 
L 147.492599 -217.647104 
L 151.016809 -217.548838 
L 154.54102 -217.610683 
L 158.06523 -217.669742 
L 161.589441 -217.673462 
L 165.113651 -217.519802 
L 168.637862 -217.24604 
L 172.162072 -217.391502 
L 175.686283 -217.106343 
L 179.210493 -217.009228 
L 182.734704 -217.09523 
L 186.258914 -217.045123 
L 189.783125 -217.452935 
L 193.307336 -217.027341 
L 196.831546 -217.131284 
L 200.355757 -217.061639 
L 203.879967 -217.163787 
L 207.404178 -217.059005 
L 210.928388 -217.145158 
L 214.452599 -217.076682 
L 217.976809 -216.891289 
L 221.50102 -216.817187 
L 225.02523 -217.06768 
L 228.549441 -217.019318 
L 232.073651 -217.051342 
L 235.597862 -216.967066 
L 239.122072 -216.939373 
L 242.646283 -216.740828 
L 246.170493 -217.121694 
L 249.694704 -216.738996 
L 253.218914 -216.790842 
L 256.743125 -216.787048 
L 260.267336 -216.635197 
L 263.791546 -217.053563 
L 267.315757 -216.705509 
L 270.839967 -216.936828 
L 274.364178 -216.585974 
L 277.888388 -216.647872 
L 281.412599 -216.657918 
L 284.936809 -216.72102 
L 288.46102 -216.535767 
L 291.98523 -216.764437 
L 295.509441 -216.767627 
L 299.033651 -216.769408 
L 302.557862 -216.808427 
L 306.082072 -216.500796 
L 309.606283 -216.706126 
L 313.130493 -216.680828 
L 316.654704 -216.766573 
L 320.178914 -216.638062 
L 323.703125 -216.597828 
L 327.227336 -216.658249 
L 330.751546 -216.700905 
L 334.275757 -216.600075 
L 337.799967 -216.676359 
L 341.324178 -216.422828 
L 344.848388 -216.496791 
L 348.372599 -216.535408 
L 351.896809 -216.520521 
L 355.42102 -216.696766 
L 358.94523 -216.862187 
L 362.469441 -216.693704 
L 365.993651 -216.647751 
L 369.517862 -216.794188 
L 373.042072 -216.407665 
L 376.566283 -216.427523 
L 380.090493 -216.485251 
L 383.614704 -216.528471 
L 387.138914 -216.502032 
L 390.663125 -216.487092 
L 390.663125 -217.478702 
L 390.663125 -217.478702 
L 387.138914 -217.498121 
L 383.614704 -217.531208 
L 380.090493 -217.503743 
L 376.566283 -217.43421 
L 373.042072 -217.434101 
L 369.517862 -217.821383 
L 365.993651 -217.682176 
L 362.469441 -217.723686 
L 358.94523 -217.896237 
L 355.42102 -217.747478 
L 351.896809 -217.577275 
L 348.372599 -217.607655 
L 344.848388 -217.572044 
L 341.324178 -217.494093 
L 337.799967 -217.756054 
L 334.275757 -217.700563 
L 330.751546 -217.801463 
L 327.227336 -217.762211 
L 323.703125 -217.713349 
L 320.178914 -217.770457 
L 316.654704 -217.906928 
L 313.130493 -217.831393 
L 309.606283 -217.848094 
L 306.082072 -217.668129 
L 302.557862 -217.993174 
L 299.033651 -217.947575 
L 295.509441 -217.955028 
L 291.98523 -217.960351 
L 288.46102 -217.730461 
L 284.936809 -217.938502 
L 281.412599 -217.884284 
L 277.888388 -217.890558 
L 274.364178 -217.844588 
L 270.839967 -218.187053 
L 267.315757 -217.968333 
L 263.791546 -218.354306 
L 260.267336 -217.935085 
L 256.743125 -218.115749 
L 253.218914 -218.101251 
L 249.694704 -218.085926 
L 246.170493 -218.466579 
L 242.646283 -218.085991 
L 239.122072 -218.325091 
L 235.597862 -218.363562 
L 232.073651 -218.453288 
L 228.549441 -218.453841 
L 225.02523 -218.528096 
L 221.50102 -218.261551 
L 217.976809 -218.368813 
L 214.452599 -218.581486 
L 210.928388 -218.654783 
L 207.404178 -218.586011 
L 203.879967 -218.73241 
L 200.355757 -218.644665 
L 196.831546 -218.722614 
L 193.307336 -218.640612 
L 189.783125 -219.124786 
L 186.258914 -218.71801 
L 182.734704 -218.80161 
L 179.210493 -218.742174 
L 175.686283 -218.883649 
L 172.162072 -219.185741 
L 168.637862 -219.050002 
L 165.113651 -219.36543 
L 161.589441 -219.552396 
L 158.06523 -219.58837 
L 154.54102 -219.57978 
L 151.016809 -219.541908 
L 147.492599 -219.658091 
L 143.968388 -219.938545 
L 140.444178 -219.940999 
L 136.919967 -220.238311 
L 133.395757 -220.167988 
L 129.871546 -221.228598 
L 126.347336 -220.826011 
L 122.823125 -221.494193 
L 119.298914 -220.895356 
L 115.774704 -222.594051 
L 112.250493 -222.335214 
L 108.726283 -222.069533 
L 105.202072 -222.798349 
L 101.677862 -223.323009 
L 98.153651 -223.793059 
L 94.629441 -224.894791 
L 91.10523 -226.128594 
L 87.58102 -227.168949 
L 84.056809 -227.399447 
L 80.532599 -229.859671 
L 77.008388 -233.193071 
L 73.484178 -234.863475 
L 69.959967 -237.627362 
L 66.435757 -240.477464 
L 62.911546 -246.222388 
L 59.387336 -255.509331 
L 55.863125 -269.339661 
z
" id="m25c0db693b"/>
    </defs>
    <g clip-path="url(#pf8d8051c1c)">
     <use style="fill:#bf5b17;fill-opacity:0.1;" x="0" xlink:href="#m25c0db693b" y="300.115625"/>
    </g>
   </g>
   <g id="PolyCollection_5">
    <defs>
     <path d="M 55.863125 -155.560489 
L 55.863125 -145.537073 
L 59.387336 -112.569926 
L 62.911546 -91.66788 
L 66.435757 -83.174953 
L 69.959967 -75.379645 
L 73.484178 -70.082112 
L 77.008388 -71.419227 
L 80.532599 -67.542354 
L 84.056809 -65.02667 
L 87.58102 -66.486522 
L 91.10523 -67.64342 
L 94.629441 -67.510553 
L 98.153651 -67.506754 
L 101.677862 -69.898576 
L 105.202072 -71.475868 
L 108.726283 -72.763597 
L 112.250493 -75.543801 
L 115.774704 -81.086265 
L 119.298914 -80.008775 
L 122.823125 -82.203832 
L 126.347336 -83.78238 
L 129.871546 -87.667997 
L 133.395757 -88.609131 
L 136.919967 -91.340232 
L 140.444178 -93.041726 
L 143.968388 -95.715292 
L 147.492599 -97.593834 
L 151.016809 -98.475191 
L 154.54102 -102.354355 
L 158.06523 -102.706071 
L 161.589441 -105.77982 
L 165.113651 -106.609423 
L 168.637862 -107.852731 
L 172.162072 -110.379727 
L 175.686283 -110.536011 
L 179.210493 -112.536326 
L 182.734704 -114.010453 
L 186.258914 -115.349188 
L 189.783125 -118.140731 
L 193.307336 -118.876236 
L 196.831546 -120.181017 
L 200.355757 -120.6998 
L 203.879967 -122.597314 
L 207.404178 -124.921819 
L 210.928388 -127.389009 
L 214.452599 -126.410378 
L 217.976809 -127.02905 
L 221.50102 -128.587401 
L 225.02523 -129.96408 
L 228.549441 -130.332622 
L 232.073651 -133.18544 
L 235.597862 -131.966511 
L 239.122072 -133.191208 
L 242.646283 -135.322553 
L 246.170493 -137.007005 
L 249.694704 -135.691717 
L 253.218914 -136.650433 
L 256.743125 -136.69058 
L 260.267336 -137.764959 
L 263.791546 -139.316461 
L 267.315757 -139.836194 
L 270.839967 -141.556223 
L 274.364178 -140.708017 
L 277.888388 -141.28342 
L 281.412599 -142.379341 
L 284.936809 -142.927946 
L 288.46102 -142.200169 
L 291.98523 -144.134629 
L 295.509441 -144.626086 
L 299.033651 -145.754591 
L 302.557862 -146.623868 
L 306.082072 -146.630508 
L 309.606283 -147.44902 
L 313.130493 -147.330608 
L 316.654704 -147.60439 
L 320.178914 -147.750266 
L 323.703125 -148.946021 
L 327.227336 -148.885326 
L 330.751546 -149.551422 
L 334.275757 -149.659491 
L 337.799967 -151.05253 
L 341.324178 -150.254744 
L 344.848388 -150.656659 
L 348.372599 -150.932071 
L 351.896809 -151.595183 
L 355.42102 -152.566865 
L 358.94523 -153.568302 
L 362.469441 -153.556433 
L 365.993651 -152.979361 
L 369.517862 -153.773594 
L 373.042072 -153.397136 
L 376.566283 -153.676296 
L 380.090493 -154.187467 
L 383.614704 -154.822181 
L 387.138914 -154.910467 
L 390.663125 -155.384693 
L 390.663125 -159.937802 
L 390.663125 -159.937802 
L 387.138914 -159.519754 
L 383.614704 -159.466372 
L 380.090493 -158.835133 
L 376.566283 -158.350912 
L 373.042072 -158.098621 
L 369.517862 -158.55029 
L 365.993651 -157.758476 
L 362.469441 -158.346183 
L 358.94523 -158.360154 
L 355.42102 -157.448234 
L 351.896809 -156.45684 
L 348.372599 -155.869695 
L 344.848388 -155.602941 
L 341.324178 -155.24908 
L 337.799967 -156.033271 
L 334.275757 -154.694336 
L 330.751546 -154.636793 
L 327.227336 -154.007606 
L 323.703125 -154.076145 
L 320.178914 -152.973869 
L 316.654704 -152.84828 
L 313.130493 -152.608775 
L 309.606283 -152.74603 
L 306.082072 -151.959163 
L 302.557862 -151.999409 
L 299.033651 -151.205173 
L 295.509441 -150.110222 
L 291.98523 -149.661574 
L 288.46102 -147.776261 
L 284.936809 -148.50283 
L 281.412599 -148.010301 
L 277.888388 -146.942183 
L 274.364178 -146.412877 
L 270.839967 -147.303037 
L 267.315757 -145.63395 
L 263.791546 -145.195537 
L 260.267336 -143.686479 
L 256.743125 -142.645474 
L 253.218914 -142.63036 
L 249.694704 -141.743733 
L 246.170493 -143.053914 
L 242.646283 -141.418412 
L 239.122072 -139.388505 
L 235.597862 -138.195388 
L 232.073651 -139.452886 
L 228.549441 -136.691107 
L 225.02523 -136.347746 
L 221.50102 -135.013294 
L 217.976809 -133.540062 
L 214.452599 -132.96978 
L 210.928388 -133.954562 
L 207.404178 -131.573482 
L 203.879967 -129.310381 
L 200.355757 -127.476862 
L 196.831546 -126.984744 
L 193.307336 -125.749872 
L 189.783125 -125.072619 
L 186.258914 -122.340925 
L 182.734704 -121.067409 
L 179.210493 -119.619741 
L 175.686283 -117.676544 
L 172.162072 -117.621595 
L 168.637862 -115.117654 
L 165.113651 -113.943116 
L 161.589441 -113.173442 
L 158.06523 -110.169658 
L 154.54102 -109.830796 
L 151.016809 -106.032555 
L 147.492599 -105.18446 
L 143.968388 -103.369913 
L 140.444178 -100.772291 
L 136.919967 -99.077454 
L 133.395757 -96.436807 
L 129.871546 -95.580255 
L 126.347336 -91.706408 
L 122.823125 -90.14448 
L 119.298914 -88.021798 
L 115.774704 -89.211286 
L 112.250493 -83.655667 
L 108.726283 -80.897712 
L 105.202072 -79.672103 
L 101.677862 -78.149905 
L 98.153651 -75.776672 
L 94.629441 -75.864729 
L 91.10523 -76.095179 
L 87.58102 -74.949184 
L 84.056809 -73.559661 
L 80.532599 -76.198388 
L 77.008388 -80.224928 
L 73.484178 -78.905004 
L 69.959967 -84.377893 
L 66.435757 -92.363502 
L 62.911546 -101.071814 
L 59.387336 -122.271866 
L 55.863125 -155.560489 
z
" id="m7380e6a82e"/>
    </defs>
    <g clip-path="url(#pf8d8051c1c)">
     <use style="fill:#fdc086;fill-opacity:0.1;" x="0" xlink:href="#m7380e6a82e" y="300.115625"/>
    </g>
   </g>
   <g id="matplotlib.axis_1">
    <g id="xtick_1">
     <g id="line2d_1"/>
     <g id="text_1">
      <!-- 5 -->
      <g style="fill:#666666;" transform="translate(52.526563 275.269375)scale(0.12 -0.12)">
       <defs>
        <path d="M 266 1200 
L 856 1250 
Q 922 819 1161 601 
Q 1400 384 1738 384 
Q 2144 384 2425 690 
Q 2706 997 2706 1503 
Q 2706 1984 2436 2262 
Q 2166 2541 1728 2541 
Q 1456 2541 1237 2417 
Q 1019 2294 894 2097 
L 366 2166 
L 809 4519 
L 3088 4519 
L 3088 3981 
L 1259 3981 
L 1013 2750 
Q 1425 3038 1878 3038 
Q 2478 3038 2890 2622 
Q 3303 2206 3303 1553 
Q 3303 931 2941 478 
Q 2500 -78 1738 -78 
Q 1113 -78 717 272 
Q 322 622 266 1200 
z
" id="ArialMT-35" transform="scale(0.015625)"/>
       </defs>
       <use xlink:href="#ArialMT-35"/>
      </g>
     </g>
    </g>
    <g id="xtick_2">
     <g id="line2d_2"/>
     <g id="text_2">
      <!-- 15 -->
      <g style="fill:#666666;" transform="translate(84.432105 275.269375)scale(0.12 -0.12)">
       <defs>
        <path d="M 2384 0 
L 1822 0 
L 1822 3584 
Q 1619 3391 1289 3197 
Q 959 3003 697 2906 
L 697 3450 
Q 1169 3672 1522 3987 
Q 1875 4303 2022 4600 
L 2384 4600 
L 2384 0 
z
" id="ArialMT-31" transform="scale(0.015625)"/>
       </defs>
       <use xlink:href="#ArialMT-31"/>
       <use x="55.615234" xlink:href="#ArialMT-35"/>
      </g>
     </g>
    </g>
    <g id="xtick_3">
     <g id="line2d_3"/>
     <g id="text_3">
      <!-- 25 -->
      <g style="fill:#666666;" transform="translate(119.674211 275.269375)scale(0.12 -0.12)">
       <defs>
        <path d="M 3222 541 
L 3222 0 
L 194 0 
Q 188 203 259 391 
Q 375 700 629 1000 
Q 884 1300 1366 1694 
Q 2113 2306 2375 2664 
Q 2638 3022 2638 3341 
Q 2638 3675 2398 3904 
Q 2159 4134 1775 4134 
Q 1369 4134 1125 3890 
Q 881 3647 878 3216 
L 300 3275 
Q 359 3922 746 4261 
Q 1134 4600 1788 4600 
Q 2447 4600 2831 4234 
Q 3216 3869 3216 3328 
Q 3216 3053 3103 2787 
Q 2991 2522 2730 2228 
Q 2469 1934 1863 1422 
Q 1356 997 1212 845 
Q 1069 694 975 541 
L 3222 541 
z
" id="ArialMT-32" transform="scale(0.015625)"/>
       </defs>
       <use xlink:href="#ArialMT-32"/>
       <use x="55.615234" xlink:href="#ArialMT-35"/>
      </g>
     </g>
    </g>
    <g id="xtick_4">
     <g id="line2d_4"/>
     <g id="text_4">
      <!-- 35 -->
      <g style="fill:#666666;" transform="translate(154.916316 275.269375)scale(0.12 -0.12)">
       <defs>
        <path d="M 269 1209 
L 831 1284 
Q 928 806 1161 595 
Q 1394 384 1728 384 
Q 2125 384 2398 659 
Q 2672 934 2672 1341 
Q 2672 1728 2419 1979 
Q 2166 2231 1775 2231 
Q 1616 2231 1378 2169 
L 1441 2663 
Q 1497 2656 1531 2656 
Q 1891 2656 2178 2843 
Q 2466 3031 2466 3422 
Q 2466 3731 2256 3934 
Q 2047 4138 1716 4138 
Q 1388 4138 1169 3931 
Q 950 3725 888 3313 
L 325 3413 
Q 428 3978 793 4289 
Q 1159 4600 1703 4600 
Q 2078 4600 2393 4439 
Q 2709 4278 2876 4000 
Q 3044 3722 3044 3409 
Q 3044 3113 2884 2869 
Q 2725 2625 2413 2481 
Q 2819 2388 3044 2092 
Q 3269 1797 3269 1353 
Q 3269 753 2831 336 
Q 2394 -81 1725 -81 
Q 1122 -81 723 278 
Q 325 638 269 1209 
z
" id="ArialMT-33" transform="scale(0.015625)"/>
       </defs>
       <use xlink:href="#ArialMT-33"/>
       <use x="55.615234" xlink:href="#ArialMT-35"/>
      </g>
     </g>
    </g>
    <g id="xtick_5">
     <g id="line2d_5"/>
     <g id="text_5">
      <!-- 45 -->
      <g style="fill:#666666;" transform="translate(190.158421 275.269375)scale(0.12 -0.12)">
       <defs>
        <path d="M 2069 0 
L 2069 1097 
L 81 1097 
L 81 1613 
L 2172 4581 
L 2631 4581 
L 2631 1613 
L 3250 1613 
L 3250 1097 
L 2631 1097 
L 2631 0 
L 2069 0 
z
M 2069 1613 
L 2069 3678 
L 634 1613 
L 2069 1613 
z
" id="ArialMT-34" transform="scale(0.015625)"/>
       </defs>
       <use xlink:href="#ArialMT-34"/>
       <use x="55.615234" xlink:href="#ArialMT-35"/>
      </g>
     </g>
    </g>
    <g id="xtick_6">
     <g id="line2d_6"/>
     <g id="text_6">
      <!-- 55 -->
      <g style="fill:#666666;" transform="translate(225.400526 275.269375)scale(0.12 -0.12)">
       <use xlink:href="#ArialMT-35"/>
       <use x="55.615234" xlink:href="#ArialMT-35"/>
      </g>
     </g>
    </g>
    <g id="xtick_7">
     <g id="line2d_7"/>
     <g id="text_7">
      <!-- 65 -->
      <g style="fill:#666666;" transform="translate(260.642632 275.269375)scale(0.12 -0.12)">
       <defs>
        <path d="M 3184 3459 
L 2625 3416 
Q 2550 3747 2413 3897 
Q 2184 4138 1850 4138 
Q 1581 4138 1378 3988 
Q 1113 3794 959 3422 
Q 806 3050 800 2363 
Q 1003 2672 1297 2822 
Q 1591 2972 1913 2972 
Q 2475 2972 2870 2558 
Q 3266 2144 3266 1488 
Q 3266 1056 3080 686 
Q 2894 316 2569 119 
Q 2244 -78 1831 -78 
Q 1128 -78 684 439 
Q 241 956 241 2144 
Q 241 3472 731 4075 
Q 1159 4600 1884 4600 
Q 2425 4600 2770 4297 
Q 3116 3994 3184 3459 
z
M 888 1484 
Q 888 1194 1011 928 
Q 1134 663 1356 523 
Q 1578 384 1822 384 
Q 2178 384 2434 671 
Q 2691 959 2691 1453 
Q 2691 1928 2437 2201 
Q 2184 2475 1800 2475 
Q 1419 2475 1153 2201 
Q 888 1928 888 1484 
z
" id="ArialMT-36" transform="scale(0.015625)"/>
       </defs>
       <use xlink:href="#ArialMT-36"/>
       <use x="55.615234" xlink:href="#ArialMT-35"/>
      </g>
     </g>
    </g>
    <g id="xtick_8">
     <g id="line2d_8"/>
     <g id="text_8">
      <!-- 75 -->
      <g style="fill:#666666;" transform="translate(295.884737 275.269375)scale(0.12 -0.12)">
       <defs>
        <path d="M 303 3981 
L 303 4522 
L 3269 4522 
L 3269 4084 
Q 2831 3619 2401 2847 
Q 1972 2075 1738 1259 
Q 1569 684 1522 0 
L 944 0 
Q 953 541 1156 1306 
Q 1359 2072 1739 2783 
Q 2119 3494 2547 3981 
L 303 3981 
z
" id="ArialMT-37" transform="scale(0.015625)"/>
       </defs>
       <use xlink:href="#ArialMT-37"/>
       <use x="55.615234" xlink:href="#ArialMT-35"/>
      </g>
     </g>
    </g>
    <g id="xtick_9">
     <g id="line2d_9"/>
     <g id="text_9">
      <!-- 85 -->
      <g style="fill:#666666;" transform="translate(331.126842 275.269375)scale(0.12 -0.12)">
       <defs>
        <path d="M 1131 2484 
Q 781 2613 612 2850 
Q 444 3088 444 3419 
Q 444 3919 803 4259 
Q 1163 4600 1759 4600 
Q 2359 4600 2725 4251 
Q 3091 3903 3091 3403 
Q 3091 3084 2923 2848 
Q 2756 2613 2416 2484 
Q 2838 2347 3058 2040 
Q 3278 1734 3278 1309 
Q 3278 722 2862 322 
Q 2447 -78 1769 -78 
Q 1091 -78 675 323 
Q 259 725 259 1325 
Q 259 1772 486 2073 
Q 713 2375 1131 2484 
z
M 1019 3438 
Q 1019 3113 1228 2906 
Q 1438 2700 1772 2700 
Q 2097 2700 2305 2904 
Q 2513 3109 2513 3406 
Q 2513 3716 2298 3927 
Q 2084 4138 1766 4138 
Q 1444 4138 1231 3931 
Q 1019 3725 1019 3438 
z
M 838 1322 
Q 838 1081 952 856 
Q 1066 631 1291 507 
Q 1516 384 1775 384 
Q 2178 384 2440 643 
Q 2703 903 2703 1303 
Q 2703 1709 2433 1975 
Q 2163 2241 1756 2241 
Q 1359 2241 1098 1978 
Q 838 1716 838 1322 
z
" id="ArialMT-38" transform="scale(0.015625)"/>
       </defs>
       <use xlink:href="#ArialMT-38"/>
       <use x="55.615234" xlink:href="#ArialMT-35"/>
      </g>
     </g>
    </g>
    <g id="xtick_10">
     <g id="line2d_10"/>
     <g id="text_10">
      <!-- 95 -->
      <g style="fill:#666666;" transform="translate(366.368947 275.269375)scale(0.12 -0.12)">
       <defs>
        <path d="M 350 1059 
L 891 1109 
Q 959 728 1153 556 
Q 1347 384 1650 384 
Q 1909 384 2104 503 
Q 2300 622 2425 820 
Q 2550 1019 2634 1356 
Q 2719 1694 2719 2044 
Q 2719 2081 2716 2156 
Q 2547 1888 2255 1720 
Q 1963 1553 1622 1553 
Q 1053 1553 659 1965 
Q 266 2378 266 3053 
Q 266 3750 677 4175 
Q 1088 4600 1706 4600 
Q 2153 4600 2523 4359 
Q 2894 4119 3086 3673 
Q 3278 3228 3278 2384 
Q 3278 1506 3087 986 
Q 2897 466 2520 194 
Q 2144 -78 1638 -78 
Q 1100 -78 759 220 
Q 419 519 350 1059 
z
M 2653 3081 
Q 2653 3566 2395 3850 
Q 2138 4134 1775 4134 
Q 1400 4134 1122 3828 
Q 844 3522 844 3034 
Q 844 2597 1108 2323 
Q 1372 2050 1759 2050 
Q 2150 2050 2401 2323 
Q 2653 2597 2653 3081 
z
" id="ArialMT-39" transform="scale(0.015625)"/>
       </defs>
       <use xlink:href="#ArialMT-39"/>
       <use x="55.615234" xlink:href="#ArialMT-35"/>
      </g>
     </g>
    </g>
    <g id="text_11">
     <!-- Sequence length -->
     <g style="fill:#333333;" transform="translate(178.228438 290.39)scale(0.12 -0.12)">
      <defs>
       <path d="M 288 1472 
L 859 1522 
Q 900 1178 1048 958 
Q 1197 738 1509 602 
Q 1822 466 2213 466 
Q 2559 466 2825 569 
Q 3091 672 3220 851 
Q 3350 1031 3350 1244 
Q 3350 1459 3225 1620 
Q 3100 1781 2813 1891 
Q 2628 1963 1997 2114 
Q 1366 2266 1113 2400 
Q 784 2572 623 2826 
Q 463 3081 463 3397 
Q 463 3744 659 4045 
Q 856 4347 1234 4503 
Q 1613 4659 2075 4659 
Q 2584 4659 2973 4495 
Q 3363 4331 3572 4012 
Q 3781 3694 3797 3291 
L 3216 3247 
Q 3169 3681 2898 3903 
Q 2628 4125 2100 4125 
Q 1550 4125 1298 3923 
Q 1047 3722 1047 3438 
Q 1047 3191 1225 3031 
Q 1400 2872 2139 2705 
Q 2878 2538 3153 2413 
Q 3553 2228 3743 1945 
Q 3934 1663 3934 1294 
Q 3934 928 3725 604 
Q 3516 281 3123 101 
Q 2731 -78 2241 -78 
Q 1619 -78 1198 103 
Q 778 284 539 648 
Q 300 1013 288 1472 
z
" id="ArialMT-53" transform="scale(0.015625)"/>
       <path d="M 2694 1069 
L 3275 997 
Q 3138 488 2766 206 
Q 2394 -75 1816 -75 
Q 1088 -75 661 373 
Q 234 822 234 1631 
Q 234 2469 665 2931 
Q 1097 3394 1784 3394 
Q 2450 3394 2872 2941 
Q 3294 2488 3294 1666 
Q 3294 1616 3291 1516 
L 816 1516 
Q 847 969 1125 678 
Q 1403 388 1819 388 
Q 2128 388 2347 550 
Q 2566 713 2694 1069 
z
M 847 1978 
L 2700 1978 
Q 2663 2397 2488 2606 
Q 2219 2931 1791 2931 
Q 1403 2931 1139 2672 
Q 875 2413 847 1978 
z
" id="ArialMT-65" transform="scale(0.015625)"/>
       <path d="M 2538 -1272 
L 2538 353 
Q 2406 169 2170 47 
Q 1934 -75 1669 -75 
Q 1078 -75 651 397 
Q 225 869 225 1691 
Q 225 2191 398 2587 
Q 572 2984 901 3189 
Q 1231 3394 1625 3394 
Q 2241 3394 2594 2875 
L 2594 3319 
L 3100 3319 
L 3100 -1272 
L 2538 -1272 
z
M 803 1669 
Q 803 1028 1072 708 
Q 1341 388 1716 388 
Q 2075 388 2334 692 
Q 2594 997 2594 1619 
Q 2594 2281 2320 2615 
Q 2047 2950 1678 2950 
Q 1313 2950 1058 2639 
Q 803 2328 803 1669 
z
" id="ArialMT-71" transform="scale(0.015625)"/>
       <path d="M 2597 0 
L 2597 488 
Q 2209 -75 1544 -75 
Q 1250 -75 995 37 
Q 741 150 617 320 
Q 494 491 444 738 
Q 409 903 409 1263 
L 409 3319 
L 972 3319 
L 972 1478 
Q 972 1038 1006 884 
Q 1059 663 1231 536 
Q 1403 409 1656 409 
Q 1909 409 2131 539 
Q 2353 669 2445 892 
Q 2538 1116 2538 1541 
L 2538 3319 
L 3100 3319 
L 3100 0 
L 2597 0 
z
" id="ArialMT-75" transform="scale(0.015625)"/>
       <path d="M 422 0 
L 422 3319 
L 928 3319 
L 928 2847 
Q 1294 3394 1984 3394 
Q 2284 3394 2536 3286 
Q 2788 3178 2913 3003 
Q 3038 2828 3088 2588 
Q 3119 2431 3119 2041 
L 3119 0 
L 2556 0 
L 2556 2019 
Q 2556 2363 2490 2533 
Q 2425 2703 2258 2804 
Q 2091 2906 1866 2906 
Q 1506 2906 1245 2678 
Q 984 2450 984 1813 
L 984 0 
L 422 0 
z
" id="ArialMT-6e" transform="scale(0.015625)"/>
       <path d="M 2588 1216 
L 3141 1144 
Q 3050 572 2676 248 
Q 2303 -75 1759 -75 
Q 1078 -75 664 370 
Q 250 816 250 1647 
Q 250 2184 428 2587 
Q 606 2991 970 3192 
Q 1334 3394 1763 3394 
Q 2303 3394 2647 3120 
Q 2991 2847 3088 2344 
L 2541 2259 
Q 2463 2594 2264 2762 
Q 2066 2931 1784 2931 
Q 1359 2931 1093 2626 
Q 828 2322 828 1663 
Q 828 994 1084 691 
Q 1341 388 1753 388 
Q 2084 388 2306 591 
Q 2528 794 2588 1216 
z
" id="ArialMT-63" transform="scale(0.015625)"/>
       <path id="ArialMT-20" transform="scale(0.015625)"/>
       <path d="M 409 0 
L 409 4581 
L 972 4581 
L 972 0 
L 409 0 
z
" id="ArialMT-6c" transform="scale(0.015625)"/>
       <path d="M 319 -275 
L 866 -356 
Q 900 -609 1056 -725 
Q 1266 -881 1628 -881 
Q 2019 -881 2231 -725 
Q 2444 -569 2519 -288 
Q 2563 -116 2559 434 
Q 2191 0 1641 0 
Q 956 0 581 494 
Q 206 988 206 1678 
Q 206 2153 378 2554 
Q 550 2956 876 3175 
Q 1203 3394 1644 3394 
Q 2231 3394 2613 2919 
L 2613 3319 
L 3131 3319 
L 3131 450 
Q 3131 -325 2973 -648 
Q 2816 -972 2473 -1159 
Q 2131 -1347 1631 -1347 
Q 1038 -1347 672 -1080 
Q 306 -813 319 -275 
z
M 784 1719 
Q 784 1066 1043 766 
Q 1303 466 1694 466 
Q 2081 466 2343 764 
Q 2606 1063 2606 1700 
Q 2606 2309 2336 2618 
Q 2066 2928 1684 2928 
Q 1309 2928 1046 2623 
Q 784 2319 784 1719 
z
" id="ArialMT-67" transform="scale(0.015625)"/>
       <path d="M 1650 503 
L 1731 6 
Q 1494 -44 1306 -44 
Q 1000 -44 831 53 
Q 663 150 594 308 
Q 525 466 525 972 
L 525 2881 
L 113 2881 
L 113 3319 
L 525 3319 
L 525 4141 
L 1084 4478 
L 1084 3319 
L 1650 3319 
L 1650 2881 
L 1084 2881 
L 1084 941 
Q 1084 700 1114 631 
Q 1144 563 1211 522 
Q 1278 481 1403 481 
Q 1497 481 1650 503 
z
" id="ArialMT-74" transform="scale(0.015625)"/>
       <path d="M 422 0 
L 422 4581 
L 984 4581 
L 984 2938 
Q 1378 3394 1978 3394 
Q 2347 3394 2619 3248 
Q 2891 3103 3008 2847 
Q 3125 2591 3125 2103 
L 3125 0 
L 2563 0 
L 2563 2103 
Q 2563 2525 2380 2717 
Q 2197 2909 1863 2909 
Q 1613 2909 1392 2779 
Q 1172 2650 1078 2428 
Q 984 2206 984 1816 
L 984 0 
L 422 0 
z
" id="ArialMT-68" transform="scale(0.015625)"/>
      </defs>
      <use xlink:href="#ArialMT-53"/>
      <use x="66.699219" xlink:href="#ArialMT-65"/>
      <use x="122.314453" xlink:href="#ArialMT-71"/>
      <use x="177.929688" xlink:href="#ArialMT-75"/>
      <use x="233.544922" xlink:href="#ArialMT-65"/>
      <use x="289.160156" xlink:href="#ArialMT-6e"/>
      <use x="344.775391" xlink:href="#ArialMT-63"/>
      <use x="394.775391" xlink:href="#ArialMT-65"/>
      <use x="450.390625" xlink:href="#ArialMT-20"/>
      <use x="478.173828" xlink:href="#ArialMT-6c"/>
      <use x="500.390625" xlink:href="#ArialMT-65"/>
      <use x="556.005859" xlink:href="#ArialMT-6e"/>
      <use x="611.621094" xlink:href="#ArialMT-67"/>
      <use x="667.236328" xlink:href="#ArialMT-74"/>
      <use x="695.019531" xlink:href="#ArialMT-68"/>
     </g>
    </g>
   </g>
   <g id="matplotlib.axis_2">
    <g id="ytick_1">
     <g id="line2d_11"/>
     <g id="text_12">
      <!-- −0.4 -->
      <g style="fill:#666666;" transform="translate(22.174375 228.635487)scale(0.12 -0.12)">
       <defs>
        <path d="M 3381 1997 
L 356 1997 
L 356 2522 
L 3381 2522 
L 3381 1997 
z
" id="ArialMT-2212" transform="scale(0.015625)"/>
        <path d="M 266 2259 
Q 266 3072 433 3567 
Q 600 4063 929 4331 
Q 1259 4600 1759 4600 
Q 2128 4600 2406 4451 
Q 2684 4303 2865 4023 
Q 3047 3744 3150 3342 
Q 3253 2941 3253 2259 
Q 3253 1453 3087 958 
Q 2922 463 2592 192 
Q 2263 -78 1759 -78 
Q 1097 -78 719 397 
Q 266 969 266 2259 
z
M 844 2259 
Q 844 1131 1108 757 
Q 1372 384 1759 384 
Q 2147 384 2411 759 
Q 2675 1134 2675 2259 
Q 2675 3391 2411 3762 
Q 2147 4134 1753 4134 
Q 1366 4134 1134 3806 
Q 844 3388 844 2259 
z
" id="ArialMT-30" transform="scale(0.015625)"/>
        <path d="M 581 0 
L 581 641 
L 1222 641 
L 1222 0 
L 581 0 
z
" id="ArialMT-2e" transform="scale(0.015625)"/>
       </defs>
       <use xlink:href="#ArialMT-2212"/>
       <use x="58.398438" xlink:href="#ArialMT-30"/>
       <use x="114.013672" xlink:href="#ArialMT-2e"/>
       <use x="141.796875" xlink:href="#ArialMT-34"/>
      </g>
     </g>
    </g>
    <g id="ytick_2">
     <g id="line2d_12"/>
     <g id="text_13">
      <!-- −0.2 -->
      <g style="fill:#666666;" transform="translate(22.174375 176.920405)scale(0.12 -0.12)">
       <use xlink:href="#ArialMT-2212"/>
       <use x="58.398438" xlink:href="#ArialMT-30"/>
       <use x="114.013672" xlink:href="#ArialMT-2e"/>
       <use x="141.796875" xlink:href="#ArialMT-32"/>
      </g>
     </g>
    </g>
    <g id="ytick_3">
     <g id="line2d_13"/>
     <g id="text_14">
      <!-- 0.0 -->
      <g style="fill:#666666;" transform="translate(29.183125 125.205324)scale(0.12 -0.12)">
       <use xlink:href="#ArialMT-30"/>
       <use x="55.615234" xlink:href="#ArialMT-2e"/>
       <use x="83.398438" xlink:href="#ArialMT-30"/>
      </g>
     </g>
    </g>
    <g id="ytick_4">
     <g id="line2d_14"/>
     <g id="text_15">
      <!-- 0.2 -->
      <g style="fill:#666666;" transform="translate(29.183125 73.490242)scale(0.12 -0.12)">
       <use xlink:href="#ArialMT-30"/>
       <use x="55.615234" xlink:href="#ArialMT-2e"/>
       <use x="83.398438" xlink:href="#ArialMT-32"/>
      </g>
     </g>
    </g>
    <g id="ytick_5">
     <g id="line2d_15"/>
     <g id="text_16">
      <!-- 0.4 -->
      <g style="fill:#666666;" transform="translate(29.183125 21.775161)scale(0.12 -0.12)">
       <use xlink:href="#ArialMT-30"/>
       <use x="55.615234" xlink:href="#ArialMT-2e"/>
       <use x="83.398438" xlink:href="#ArialMT-34"/>
      </g>
     </g>
    </g>
    <g id="text_17">
     <!-- Values of transition metrics -->
     <g style="fill:#333333;" transform="translate(15.789375 203.522812)rotate(-90)scale(0.12 -0.12)">
      <defs>
       <path d="M 1803 0 
L 28 4581 
L 684 4581 
L 1875 1253 
Q 2019 853 2116 503 
Q 2222 878 2363 1253 
L 3600 4581 
L 4219 4581 
L 2425 0 
L 1803 0 
z
" id="ArialMT-56" transform="scale(0.015625)"/>
       <path d="M 2588 409 
Q 2275 144 1986 34 
Q 1697 -75 1366 -75 
Q 819 -75 525 192 
Q 231 459 231 875 
Q 231 1119 342 1320 
Q 453 1522 633 1644 
Q 813 1766 1038 1828 
Q 1203 1872 1538 1913 
Q 2219 1994 2541 2106 
Q 2544 2222 2544 2253 
Q 2544 2597 2384 2738 
Q 2169 2928 1744 2928 
Q 1347 2928 1158 2789 
Q 969 2650 878 2297 
L 328 2372 
Q 403 2725 575 2942 
Q 747 3159 1072 3276 
Q 1397 3394 1825 3394 
Q 2250 3394 2515 3294 
Q 2781 3194 2906 3042 
Q 3031 2891 3081 2659 
Q 3109 2516 3109 2141 
L 3109 1391 
Q 3109 606 3145 398 
Q 3181 191 3288 0 
L 2700 0 
Q 2613 175 2588 409 
z
M 2541 1666 
Q 2234 1541 1622 1453 
Q 1275 1403 1131 1340 
Q 988 1278 909 1158 
Q 831 1038 831 891 
Q 831 666 1001 516 
Q 1172 366 1500 366 
Q 1825 366 2078 508 
Q 2331 650 2450 897 
Q 2541 1088 2541 1459 
L 2541 1666 
z
" id="ArialMT-61" transform="scale(0.015625)"/>
       <path d="M 197 991 
L 753 1078 
Q 800 744 1014 566 
Q 1228 388 1613 388 
Q 2000 388 2187 545 
Q 2375 703 2375 916 
Q 2375 1106 2209 1216 
Q 2094 1291 1634 1406 
Q 1016 1563 777 1677 
Q 538 1791 414 1992 
Q 291 2194 291 2438 
Q 291 2659 392 2848 
Q 494 3038 669 3163 
Q 800 3259 1026 3326 
Q 1253 3394 1513 3394 
Q 1903 3394 2198 3281 
Q 2494 3169 2634 2976 
Q 2775 2784 2828 2463 
L 2278 2388 
Q 2241 2644 2061 2787 
Q 1881 2931 1553 2931 
Q 1166 2931 1000 2803 
Q 834 2675 834 2503 
Q 834 2394 903 2306 
Q 972 2216 1119 2156 
Q 1203 2125 1616 2013 
Q 2213 1853 2448 1751 
Q 2684 1650 2818 1456 
Q 2953 1263 2953 975 
Q 2953 694 2789 445 
Q 2625 197 2315 61 
Q 2006 -75 1616 -75 
Q 969 -75 630 194 
Q 291 463 197 991 
z
" id="ArialMT-73" transform="scale(0.015625)"/>
       <path d="M 213 1659 
Q 213 2581 725 3025 
Q 1153 3394 1769 3394 
Q 2453 3394 2887 2945 
Q 3322 2497 3322 1706 
Q 3322 1066 3130 698 
Q 2938 331 2570 128 
Q 2203 -75 1769 -75 
Q 1072 -75 642 372 
Q 213 819 213 1659 
z
M 791 1659 
Q 791 1022 1069 705 
Q 1347 388 1769 388 
Q 2188 388 2466 706 
Q 2744 1025 2744 1678 
Q 2744 2294 2464 2611 
Q 2184 2928 1769 2928 
Q 1347 2928 1069 2612 
Q 791 2297 791 1659 
z
" id="ArialMT-6f" transform="scale(0.015625)"/>
       <path d="M 556 0 
L 556 2881 
L 59 2881 
L 59 3319 
L 556 3319 
L 556 3672 
Q 556 4006 616 4169 
Q 697 4388 901 4523 
Q 1106 4659 1475 4659 
Q 1713 4659 2000 4603 
L 1916 4113 
Q 1741 4144 1584 4144 
Q 1328 4144 1222 4034 
Q 1116 3925 1116 3625 
L 1116 3319 
L 1763 3319 
L 1763 2881 
L 1116 2881 
L 1116 0 
L 556 0 
z
" id="ArialMT-66" transform="scale(0.015625)"/>
       <path d="M 416 0 
L 416 3319 
L 922 3319 
L 922 2816 
Q 1116 3169 1280 3281 
Q 1444 3394 1641 3394 
Q 1925 3394 2219 3213 
L 2025 2691 
Q 1819 2813 1613 2813 
Q 1428 2813 1281 2702 
Q 1134 2591 1072 2394 
Q 978 2094 978 1738 
L 978 0 
L 416 0 
z
" id="ArialMT-72" transform="scale(0.015625)"/>
       <path d="M 425 3934 
L 425 4581 
L 988 4581 
L 988 3934 
L 425 3934 
z
M 425 0 
L 425 3319 
L 988 3319 
L 988 0 
L 425 0 
z
" id="ArialMT-69" transform="scale(0.015625)"/>
       <path d="M 422 0 
L 422 3319 
L 925 3319 
L 925 2853 
Q 1081 3097 1340 3245 
Q 1600 3394 1931 3394 
Q 2300 3394 2536 3241 
Q 2772 3088 2869 2813 
Q 3263 3394 3894 3394 
Q 4388 3394 4653 3120 
Q 4919 2847 4919 2278 
L 4919 0 
L 4359 0 
L 4359 2091 
Q 4359 2428 4304 2576 
Q 4250 2725 4106 2815 
Q 3963 2906 3769 2906 
Q 3419 2906 3187 2673 
Q 2956 2441 2956 1928 
L 2956 0 
L 2394 0 
L 2394 2156 
Q 2394 2531 2256 2718 
Q 2119 2906 1806 2906 
Q 1569 2906 1367 2781 
Q 1166 2656 1075 2415 
Q 984 2175 984 1722 
L 984 0 
L 422 0 
z
" id="ArialMT-6d" transform="scale(0.015625)"/>
      </defs>
      <use xlink:href="#ArialMT-56"/>
      <use x="59.324219" xlink:href="#ArialMT-61"/>
      <use x="114.939453" xlink:href="#ArialMT-6c"/>
      <use x="137.15625" xlink:href="#ArialMT-75"/>
      <use x="192.771484" xlink:href="#ArialMT-65"/>
      <use x="248.386719" xlink:href="#ArialMT-73"/>
      <use x="298.386719" xlink:href="#ArialMT-20"/>
      <use x="326.169922" xlink:href="#ArialMT-6f"/>
      <use x="381.785156" xlink:href="#ArialMT-66"/>
      <use x="409.568359" xlink:href="#ArialMT-20"/>
      <use x="437.351562" xlink:href="#ArialMT-74"/>
      <use x="465.134766" xlink:href="#ArialMT-72"/>
      <use x="498.435547" xlink:href="#ArialMT-61"/>
      <use x="554.050781" xlink:href="#ArialMT-6e"/>
      <use x="609.666016" xlink:href="#ArialMT-73"/>
      <use x="659.666016" xlink:href="#ArialMT-69"/>
      <use x="681.882812" xlink:href="#ArialMT-74"/>
      <use x="709.666016" xlink:href="#ArialMT-69"/>
      <use x="731.882812" xlink:href="#ArialMT-6f"/>
      <use x="787.498047" xlink:href="#ArialMT-6e"/>
      <use x="843.113281" xlink:href="#ArialMT-20"/>
      <use x="870.896484" xlink:href="#ArialMT-6d"/>
      <use x="954.197266" xlink:href="#ArialMT-65"/>
      <use x="1009.8125" xlink:href="#ArialMT-74"/>
      <use x="1037.595703" xlink:href="#ArialMT-72"/>
      <use x="1070.896484" xlink:href="#ArialMT-69"/>
      <use x="1093.113281" xlink:href="#ArialMT-63"/>
      <use x="1143.113281" xlink:href="#ArialMT-73"/>
     </g>
    </g>
   </g>
   <g id="line2d_16">
    <path clip-path="url(#pf8d8051c1c)" d="M 55.863125 88.776183 
L 59.387336 98.167016 
L 62.911546 105.380553 
L 66.435757 107.841581 
L 69.959967 108.396731 
L 73.484178 110.413612 
L 77.008388 110.004761 
L 80.532599 112.850347 
L 84.056809 114.832872 
L 87.58102 114.192131 
L 91.10523 114.665504 
L 94.629441 115.259652 
L 98.153651 115.786949 
L 101.677862 116.130871 
L 105.202072 116.670915 
L 108.726283 116.879559 
L 112.250493 116.251422 
L 115.774704 115.909532 
L 119.298914 117.662286 
L 122.823125 117.080024 
L 126.347336 117.53287 
L 129.871546 116.819904 
L 133.395757 117.917028 
L 136.919967 117.970188 
L 140.444178 117.991712 
L 143.968388 117.937645 
L 147.492599 118.265647 
L 151.016809 118.171724 
L 154.54102 118.236744 
L 158.06523 118.075358 
L 161.589441 118.070797 
L 165.113651 118.322005 
L 168.637862 118.537557 
L 172.162072 118.353488 
L 175.686283 118.814371 
L 179.210493 118.751329 
L 182.734704 118.625343 
L 186.258914 118.906251 
L 189.783125 118.510389 
L 193.307336 118.952608 
L 196.831546 119.005761 
L 200.355757 119.018233 
L 203.879967 118.785527 
L 207.404178 119.02432 
L 210.928388 118.909876 
L 214.452599 119.123188 
L 217.976809 119.356532 
L 221.50102 119.060706 
L 225.02523 119.033988 
L 228.549441 119.187354 
L 232.073651 119.008791 
L 235.597862 119.244421 
L 239.122072 119.489462 
L 242.646283 119.388435 
L 246.170493 118.875575 
L 249.694704 119.445662 
L 253.218914 119.395224 
L 256.743125 119.370803 
L 260.267336 119.625725 
L 263.791546 119.242794 
L 267.315757 119.546634 
L 270.839967 119.315907 
L 274.364178 119.609858 
L 277.888388 119.659741 
L 281.412599 119.557194 
L 284.936809 119.476554 
L 288.46102 119.678605 
L 291.98523 119.477571 
L 295.509441 119.535317 
L 299.033651 119.515667 
L 302.557862 119.375551 
L 306.082072 119.745049 
L 309.606283 119.529754 
L 313.130493 119.549812 
L 316.654704 119.717949 
L 320.178914 119.795609 
L 323.703125 119.831112 
L 327.227336 119.711225 
L 330.751546 119.6219 
L 334.275757 119.804514 
L 337.799967 119.732211 
L 341.324178 119.917794 
L 344.848388 119.94602 
L 348.372599 119.867378 
L 351.896809 119.765986 
L 355.42102 119.736493 
L 358.94523 119.716551 
L 362.469441 119.74538 
L 365.993651 119.777799 
L 369.517862 119.693437 
L 373.042072 120.008964 
L 376.566283 120.040982 
L 380.090493 119.942655 
L 383.614704 119.903568 
L 387.138914 119.891331 
L 390.663125 119.971857 
" style="fill:none;stroke:#7fc97f;stroke-linecap:square;stroke-width:1.5;"/>
   </g>
   <g id="line2d_17">
    <path clip-path="url(#pf8d8051c1c)" d="M 55.863125 51.963774 
L 59.387336 72.573941 
L 62.911546 82.598185 
L 66.435757 87.315013 
L 69.959967 89.948718 
L 73.484178 93.987879 
L 77.008388 89.998371 
L 80.532599 96.879383 
L 84.056809 101.375603 
L 87.58102 101.266233 
L 91.10523 98.700673 
L 94.629441 102.477767 
L 98.153651 104.184563 
L 101.677862 103.725412 
L 105.202072 103.382847 
L 108.726283 104.323234 
L 112.250493 104.438883 
L 115.774704 100.884025 
L 119.298914 105.986601 
L 122.823125 106.973087 
L 126.347336 105.968495 
L 129.871546 104.463382 
L 133.395757 106.708855 
L 136.919967 106.618139 
L 140.444178 106.093891 
L 143.968388 106.98472 
L 147.492599 107.500899 
L 151.016809 107.005771 
L 154.54102 106.647078 
L 158.06523 107.326509 
L 161.589441 106.405046 
L 165.113651 107.711028 
L 168.637862 107.573417 
L 172.162072 107.482081 
L 175.686283 109.57829 
L 179.210493 110.405394 
L 182.734704 109.09119 
L 186.258914 109.523459 
L 189.783125 108.131559 
L 193.307336 108.821345 
L 196.831546 109.931675 
L 200.355757 109.454107 
L 203.879967 108.806482 
L 207.404178 108.537791 
L 210.928388 108.246525 
L 214.452599 110.503779 
L 217.976809 110.195474 
L 221.50102 109.396186 
L 225.02523 108.818701 
L 228.549441 109.29895 
L 232.073651 108.286695 
L 235.597862 110.28775 
L 239.122072 110.219137 
L 242.646283 109.269943 
L 246.170493 107.958095 
L 249.694704 110.374897 
L 253.218914 110.425662 
L 256.743125 110.856002 
L 260.267336 110.543856 
L 263.791546 108.759531 
L 267.315757 110.343088 
L 270.839967 108.519956 
L 274.364178 111.639759 
L 277.888388 111.958072 
L 281.412599 110.031734 
L 284.936809 111.220737 
L 288.46102 111.621086 
L 291.98523 110.037594 
L 295.509441 109.77378 
L 299.033651 109.232669 
L 302.557862 109.315961 
L 306.082072 110.359805 
L 309.606283 110.051194 
L 313.130493 109.771507 
L 316.654704 110.592821 
L 320.178914 111.444578 
L 323.703125 111.273731 
L 327.227336 110.247958 
L 330.751546 111.026867 
L 334.275757 110.552955 
L 337.799967 110.971703 
L 341.324178 112.34532 
L 344.848388 112.259715 
L 348.372599 112.254123 
L 351.896809 111.663534 
L 355.42102 109.806579 
L 358.94523 110.205602 
L 362.469441 110.250692 
L 365.993651 109.553952 
L 369.517862 110.048427 
L 373.042072 112.744174 
L 376.566283 112.107722 
L 380.090493 112.257176 
L 383.614704 110.736781 
L 387.138914 111.574694 
L 390.663125 111.653059 
" style="fill:none;stroke:#beaed4;stroke-linecap:square;stroke-width:1.5;"/>
   </g>
   <g id="line2d_18">
    <path clip-path="url(#pf8d8051c1c)" d="M 62.911546 90.274273 
L 66.435757 103.512775 
L 69.959967 109.183272 
L 73.484178 110.509061 
L 77.008388 99.366068 
L 80.532599 106.237604 
L 84.056809 105.005692 
L 87.58102 102.01368 
L 91.10523 102.080884 
L 94.629441 105.126675 
L 98.153651 107.100882 
L 101.677862 105.93753 
L 105.202072 105.385505 
L 108.726283 104.929778 
L 112.250493 106.160484 
L 115.774704 104.708429 
L 119.298914 109.383173 
L 122.823125 108.640602 
L 126.347336 108.752771 
L 129.871546 105.864296 
L 133.395757 108.50374 
L 136.919967 107.586747 
L 140.444178 108.54115 
L 143.968388 109.719234 
L 147.492599 108.588494 
L 151.016809 108.435293 
L 154.54102 108.13737 
L 158.06523 109.925944 
L 161.589441 107.927569 
L 165.113651 108.499163 
L 168.637862 108.058018 
L 172.162072 109.396996 
L 175.686283 108.621767 
L 179.210493 107.30657 
L 182.734704 110.053578 
L 186.258914 110.259969 
L 189.783125 110.949749 
L 193.307336 110.322837 
L 196.831546 110.000454 
L 200.355757 109.938043 
L 203.879967 109.337242 
L 207.404178 109.950878 
L 210.928388 110.755593 
L 214.452599 105.045508 
L 217.976809 110.438151 
L 221.50102 109.062441 
L 225.02523 109.725172 
L 228.549441 111.563575 
L 232.073651 109.826442 
L 235.597862 110.03363 
L 239.122072 106.766882 
L 242.646283 110.686107 
L 246.170493 109.080937 
L 249.694704 109.553939 
L 253.218914 110.552247 
L 256.743125 109.801281 
L 260.267336 111.597356 
L 263.791546 109.671981 
L 267.315757 109.676389 
L 270.839967 110.639998 
L 274.364178 108.629549 
L 277.888388 110.898808 
L 281.412599 111.392779 
L 284.936809 109.231052 
L 288.46102 108.797086 
L 291.98523 109.761904 
L 295.509441 109.672326 
L 299.033651 110.701822 
L 302.557862 109.908556 
L 306.082072 111.502587 
L 309.606283 110.468279 
L 313.130493 111.227686 
L 316.654704 111.018648 
L 320.178914 108.742142 
L 323.703125 111.959061 
L 327.227336 111.511252 
L 330.751546 110.398113 
L 334.275757 110.324408 
L 337.799967 111.47574 
L 341.324178 108.956376 
L 344.848388 109.925306 
L 348.372599 110.279409 
L 351.896809 108.745773 
L 355.42102 110.837773 
L 358.94523 109.605479 
L 362.469441 109.264831 
L 365.993651 109.873595 
L 369.517862 110.759686 
L 373.042072 111.045271 
L 376.566283 111.816369 
L 380.090493 109.543732 
L 383.614704 111.208732 
L 387.138914 112.595635 
L 390.663125 110.783253 
" style="fill:none;stroke:#386cb0;stroke-linecap:square;stroke-width:1.5;"/>
   </g>
   <g id="line2d_19">
    <path clip-path="url(#pf8d8051c1c)" d="M 55.863125 33.057541 
L 59.387336 46.728561 
L 62.911546 55.89102 
L 66.435757 61.517417 
L 69.959967 64.318735 
L 73.484178 67.034753 
L 77.008388 68.629862 
L 80.532599 71.888812 
L 84.056809 74.276448 
L 87.58102 74.477184 
L 91.10523 75.470502 
L 94.629441 76.671086 
L 98.153651 77.721264 
L 101.677862 78.153674 
L 105.202072 78.643479 
L 108.726283 79.340733 
L 112.250493 79.052026 
L 115.774704 78.770371 
L 119.298914 80.402563 
L 122.823125 79.807023 
L 126.347336 80.435815 
L 129.871546 80.028148 
L 133.395757 81.04195 
L 136.919967 80.955887 
L 140.444178 81.22725 
L 143.968388 81.215874 
L 147.492599 81.463027 
L 151.016809 81.570252 
L 154.54102 81.520393 
L 158.06523 81.486569 
L 161.589441 81.502696 
L 165.113651 81.673009 
L 168.637862 81.967604 
L 172.162072 81.827003 
L 175.686283 82.120629 
L 179.210493 82.239924 
L 182.734704 82.167205 
L 186.258914 82.234058 
L 189.783125 81.826765 
L 193.307336 82.281649 
L 196.831546 82.188676 
L 200.355757 82.262473 
L 203.879967 82.167527 
L 207.404178 82.293117 
L 210.928388 82.215654 
L 214.452599 82.286541 
L 217.976809 82.485574 
L 221.50102 82.576256 
L 225.02523 82.317737 
L 228.549441 82.379045 
L 232.073651 82.36331 
L 235.597862 82.450311 
L 239.122072 82.483393 
L 242.646283 82.702216 
L 246.170493 82.321488 
L 249.694704 82.703164 
L 253.218914 82.669578 
L 256.743125 82.664226 
L 260.267336 82.830484 
L 263.791546 82.411691 
L 267.315757 82.778704 
L 270.839967 82.553684 
L 274.364178 82.900344 
L 277.888388 82.84641 
L 281.412599 82.844524 
L 284.936809 82.785864 
L 288.46102 82.982511 
L 291.98523 82.753231 
L 295.509441 82.754297 
L 299.033651 82.757133 
L 302.557862 82.714824 
L 306.082072 83.031162 
L 309.606283 82.838515 
L 313.130493 82.859514 
L 316.654704 82.778874 
L 320.178914 82.911366 
L 323.703125 82.960036 
L 327.227336 82.905395 
L 330.751546 82.864441 
L 334.275757 82.965306 
L 337.799967 82.899418 
L 341.324178 83.157165 
L 344.848388 83.081208 
L 348.372599 83.044093 
L 351.896809 83.066727 
L 355.42102 82.893503 
L 358.94523 82.736413 
L 362.469441 82.90693 
L 365.993651 82.950662 
L 369.517862 82.807839 
L 373.042072 83.194742 
L 376.566283 83.184759 
L 380.090493 83.121128 
L 383.614704 83.085786 
L 387.138914 83.115549 
L 390.663125 83.132728 
" style="fill:none;stroke:#bf5b17;stroke-linecap:square;stroke-width:1.5;"/>
   </g>
   <g id="line2d_20">
    <path clip-path="url(#pf8d8051c1c)" d="M 55.863125 149.566844 
L 59.387336 182.694729 
L 62.911546 203.745778 
L 66.435757 212.346398 
L 69.959967 220.236856 
L 73.484178 225.622067 
L 77.008388 224.293547 
L 80.532599 228.245254 
L 84.056809 230.822459 
L 87.58102 229.397772 
L 91.10523 228.246326 
L 94.629441 228.427984 
L 98.153651 228.473912 
L 101.677862 226.091385 
L 105.202072 224.54164 
L 108.726283 223.284971 
L 112.250493 220.515891 
L 115.774704 214.966849 
L 119.298914 216.100339 
L 122.823125 213.941469 
L 126.347336 212.371231 
L 129.871546 208.491499 
L 133.395757 207.592656 
L 136.919967 204.906782 
L 140.444178 203.208617 
L 143.968388 200.573022 
L 147.492599 198.726478 
L 151.016809 197.861752 
L 154.54102 194.02305 
L 158.06523 193.67776 
L 161.589441 190.638994 
L 165.113651 189.839355 
L 168.637862 188.630433 
L 172.162072 186.114964 
L 175.686283 186.009348 
L 179.210493 184.037592 
L 182.734704 182.576694 
L 186.258914 181.270569 
L 189.783125 178.50895 
L 193.307336 177.802571 
L 196.831546 176.532745 
L 200.355757 176.027294 
L 203.879967 174.161778 
L 207.404178 171.867975 
L 210.928388 169.44384 
L 214.452599 170.425546 
L 217.976809 169.831069 
L 221.50102 168.315278 
L 225.02523 166.959712 
L 228.549441 166.60376 
L 232.073651 163.796462 
L 235.597862 165.034676 
L 239.122072 163.825768 
L 242.646283 161.745143 
L 246.170493 160.085165 
L 249.694704 161.3979 
L 253.218914 160.475229 
L 256.743125 160.447598 
L 260.267336 159.389906 
L 263.791546 157.859626 
L 267.315757 157.380553 
L 270.839967 155.685995 
L 274.364178 156.555178 
L 277.888388 156.002823 
L 281.412599 154.920804 
L 284.936809 154.400237 
L 288.46102 155.12741 
L 291.98523 153.217523 
L 295.509441 152.747471 
L 299.033651 151.635743 
L 302.557862 150.803987 
L 306.082072 150.82079 
L 309.606283 150.0181 
L 313.130493 150.145934 
L 316.654704 149.88929 
L 320.178914 149.753557 
L 323.703125 148.604542 
L 327.227336 148.669159 
L 330.751546 148.021517 
L 334.275757 147.938712 
L 337.799967 146.572724 
L 341.324178 147.363713 
L 344.848388 146.985825 
L 348.372599 146.714742 
L 351.896809 146.089614 
L 355.42102 145.108076 
L 358.94523 144.151397 
L 362.469441 144.164317 
L 365.993651 144.746707 
L 369.517862 143.953683 
L 373.042072 144.367746 
L 376.566283 144.102021 
L 380.090493 143.604325 
L 383.614704 142.971349 
L 387.138914 142.900514 
L 390.663125 142.454378 
" style="fill:none;stroke:#fdc086;stroke-linecap:square;stroke-width:1.5;"/>
   </g>
   <g id="line2d_21">
    <path clip-path="url(#pf8d8051c1c)" d="M 55.863125 120.910636 
L 59.387336 120.910636 
L 62.911546 120.910636 
L 66.435757 120.910636 
L 69.959967 120.910636 
L 73.484178 120.910636 
L 77.008388 120.910636 
L 80.532599 120.910636 
L 84.056809 120.910636 
L 87.58102 120.910636 
L 91.10523 120.910636 
L 94.629441 120.910636 
L 98.153651 120.910636 
L 101.677862 120.910636 
L 105.202072 120.910636 
L 108.726283 120.910636 
L 112.250493 120.910636 
L 115.774704 120.910636 
L 119.298914 120.910636 
L 122.823125 120.910636 
L 126.347336 120.910636 
L 129.871546 120.910636 
L 133.395757 120.910636 
L 136.919967 120.910636 
L 140.444178 120.910636 
L 143.968388 120.910636 
L 147.492599 120.910636 
L 151.016809 120.910636 
L 154.54102 120.910636 
L 158.06523 120.910636 
L 161.589441 120.910636 
L 165.113651 120.910636 
L 168.637862 120.910636 
L 172.162072 120.910636 
L 175.686283 120.910636 
L 179.210493 120.910636 
L 182.734704 120.910636 
L 186.258914 120.910636 
L 189.783125 120.910636 
L 193.307336 120.910636 
L 196.831546 120.910636 
L 200.355757 120.910636 
L 203.879967 120.910636 
L 207.404178 120.910636 
L 210.928388 120.910636 
L 214.452599 120.910636 
L 217.976809 120.910636 
L 221.50102 120.910636 
L 225.02523 120.910636 
L 228.549441 120.910636 
L 232.073651 120.910636 
L 235.597862 120.910636 
L 239.122072 120.910636 
L 242.646283 120.910636 
L 246.170493 120.910636 
L 249.694704 120.910636 
L 253.218914 120.910636 
L 256.743125 120.910636 
L 260.267336 120.910636 
L 263.791546 120.910636 
L 267.315757 120.910636 
L 270.839967 120.910636 
L 274.364178 120.910636 
L 277.888388 120.910636 
L 281.412599 120.910636 
L 284.936809 120.910636 
L 288.46102 120.910636 
L 291.98523 120.910636 
L 295.509441 120.910636 
L 299.033651 120.910636 
L 302.557862 120.910636 
L 306.082072 120.910636 
L 309.606283 120.910636 
L 313.130493 120.910636 
L 316.654704 120.910636 
L 320.178914 120.910636 
L 323.703125 120.910636 
L 327.227336 120.910636 
L 330.751546 120.910636 
L 334.275757 120.910636 
L 337.799967 120.910636 
L 341.324178 120.910636 
L 344.848388 120.910636 
L 348.372599 120.910636 
L 351.896809 120.910636 
L 355.42102 120.910636 
L 358.94523 120.910636 
L 362.469441 120.910636 
L 365.993651 120.910636 
L 369.517862 120.910636 
L 373.042072 120.910636 
L 376.566283 120.910636 
L 380.090493 120.910636 
L 383.614704 120.910636 
L 387.138914 120.910636 
L 390.663125 120.910636 
" style="fill:none;stroke:#000000;stroke-dasharray:5.55,2.4;stroke-dashoffset:0;stroke-opacity:0.4;stroke-width:1.5;"/>
   </g>
   <g id="patch_3">
    <path d="M 55.863125 256.68 
L 55.863125 7.2 
" style="fill:none;stroke:#cccccc;stroke-linecap:square;stroke-linejoin:miter;stroke-width:0.75;"/>
   </g>
   <g id="patch_4">
    <path d="M 55.863125 256.68 
L 390.663125 256.68 
" style="fill:none;stroke:#cccccc;stroke-linecap:square;stroke-linejoin:miter;stroke-width:0.75;"/>
   </g>
   <g id="legend_1">
    <g id="patch_5">
     <path d="M 308.1125 101.671875 
L 384.663125 101.671875 
L 384.663125 13.2 
L 308.1125 13.2 
z
" style="fill:#ffffff;opacity:0.6;"/>
    </g>
    <g id="line2d_22">
     <path d="M 312.9125 22.389375 
L 336.9125 22.389375 
" style="fill:none;stroke:#7fc97f;stroke-linecap:square;stroke-width:1.5;"/>
    </g>
    <g id="line2d_23"/>
    <g id="text_18">
     <!-- L -->
     <g style="fill:#333333;" transform="translate(346.5125 26.589375)scale(0.12 -0.12)">
      <defs>
       <path d="M 469 0 
L 469 4581 
L 1075 4581 
L 1075 541 
L 3331 541 
L 3331 0 
L 469 0 
z
" id="ArialMT-4c" transform="scale(0.015625)"/>
      </defs>
      <use xlink:href="#ArialMT-4c"/>
     </g>
    </g>
    <g id="line2d_24">
     <path d="M 312.9125 39.36375 
L 336.9125 39.36375 
" style="fill:none;stroke:#beaed4;stroke-linecap:square;stroke-width:1.5;"/>
    </g>
    <g id="line2d_25"/>
    <g id="text_19">
     <!-- LSA -->
     <g style="fill:#333333;" transform="translate(346.5125 43.56375)scale(0.12 -0.12)">
      <defs>
       <path d="M -9 0 
L 1750 4581 
L 2403 4581 
L 4278 0 
L 3588 0 
L 3053 1388 
L 1138 1388 
L 634 0 
L -9 0 
z
M 1313 1881 
L 2866 1881 
L 2388 3150 
Q 2169 3728 2063 4100 
Q 1975 3659 1816 3225 
L 1313 1881 
z
" id="ArialMT-41" transform="scale(0.015625)"/>
      </defs>
      <use xlink:href="#ArialMT-4c"/>
      <use x="55.615234" xlink:href="#ArialMT-53"/>
      <use x="122.314453" xlink:href="#ArialMT-41"/>
     </g>
    </g>
    <g id="line2d_26">
     <path d="M 312.9125 56.338125 
L 336.9125 56.338125 
" style="fill:none;stroke:#386cb0;stroke-linecap:square;stroke-width:1.5;"/>
    </g>
    <g id="line2d_27"/>
    <g id="text_20">
     <!-- LSA-5 -->
     <g style="fill:#333333;" transform="translate(346.5125 60.538125)scale(0.12 -0.12)">
      <defs>
       <path d="M 203 1375 
L 203 1941 
L 1931 1941 
L 1931 1375 
L 203 1375 
z
" id="ArialMT-2d" transform="scale(0.015625)"/>
      </defs>
      <use xlink:href="#ArialMT-4c"/>
      <use x="55.615234" xlink:href="#ArialMT-53"/>
      <use x="122.314453" xlink:href="#ArialMT-41"/>
      <use x="189.013672" xlink:href="#ArialMT-2d"/>
      <use x="222.314453" xlink:href="#ArialMT-35"/>
     </g>
    </g>
    <g id="line2d_28">
     <path d="M 312.9125 73.3125 
L 336.9125 73.3125 
" style="fill:none;stroke:#bf5b17;stroke-linecap:square;stroke-width:1.5;"/>
    </g>
    <g id="line2d_29"/>
    <g id="text_21">
     <!-- MCM -->
     <g style="fill:#333333;" transform="translate(346.5125 77.5125)scale(0.12 -0.12)">
      <defs>
       <path d="M 475 0 
L 475 4581 
L 1388 4581 
L 2472 1338 
Q 2622 884 2691 659 
Q 2769 909 2934 1394 
L 4031 4581 
L 4847 4581 
L 4847 0 
L 4263 0 
L 4263 3834 
L 2931 0 
L 2384 0 
L 1059 3900 
L 1059 0 
L 475 0 
z
" id="ArialMT-4d" transform="scale(0.015625)"/>
       <path d="M 3763 1606 
L 4369 1453 
Q 4178 706 3683 314 
Q 3188 -78 2472 -78 
Q 1731 -78 1267 223 
Q 803 525 561 1097 
Q 319 1669 319 2325 
Q 319 3041 592 3573 
Q 866 4106 1370 4382 
Q 1875 4659 2481 4659 
Q 3169 4659 3637 4309 
Q 4106 3959 4291 3325 
L 3694 3184 
Q 3534 3684 3231 3912 
Q 2928 4141 2469 4141 
Q 1941 4141 1586 3887 
Q 1231 3634 1087 3207 
Q 944 2781 944 2328 
Q 944 1744 1114 1308 
Q 1284 872 1643 656 
Q 2003 441 2422 441 
Q 2931 441 3284 734 
Q 3638 1028 3763 1606 
z
" id="ArialMT-43" transform="scale(0.015625)"/>
      </defs>
      <use xlink:href="#ArialMT-4d"/>
      <use x="83.300781" xlink:href="#ArialMT-43"/>
      <use x="155.517578" xlink:href="#ArialMT-4d"/>
     </g>
    </g>
    <g id="line2d_30">
     <path d="M 312.9125 90.286875 
L 336.9125 90.286875 
" style="fill:none;stroke:#fdc086;stroke-linecap:square;stroke-width:1.5;"/>
    </g>
    <g id="line2d_31"/>
    <g id="text_22">
     <!-- Q -->
     <g style="fill:#333333;" transform="translate(346.5125 94.486875)scale(0.12 -0.12)">
      <defs>
       <path d="M 3966 491 
Q 4388 200 4744 66 
L 4566 -356 
Q 4072 -178 3581 206 
Q 3072 -78 2456 -78 
Q 1834 -78 1328 222 
Q 822 522 548 1065 
Q 275 1609 275 2291 
Q 275 2969 550 3525 
Q 825 4081 1333 4372 
Q 1841 4663 2469 4663 
Q 3103 4663 3612 4361 
Q 4122 4059 4389 3517 
Q 4656 2975 4656 2294 
Q 4656 1728 4484 1276 
Q 4313 825 3966 491 
z
M 2631 1266 
Q 3156 1119 3497 828 
Q 4031 1316 4031 2294 
Q 4031 2850 3842 3265 
Q 3653 3681 3289 3911 
Q 2925 4141 2472 4141 
Q 1794 4141 1347 3677 
Q 900 3213 900 2291 
Q 900 1397 1342 919 
Q 1784 441 2472 441 
Q 2797 441 3084 563 
Q 2800 747 2484 825 
L 2631 1266 
z
" id="ArialMT-51" transform="scale(0.015625)"/>
      </defs>
      <use xlink:href="#ArialMT-51"/>
     </g>
    </g>
   </g>
  </g>
 </g>
 <defs>
  <clipPath id="pf8d8051c1c">
   <rect height="249.48" width="334.8" x="55.863125" y="7.2"/>
  </clipPath>
 </defs>
</svg>
