<?xml version="1.0" encoding="utf-8" standalone="no"?>
<!DOCTYPE svg PUBLIC "-//W3C//DTD SVG 1.1//EN"
  "http://www.w3.org/Graphics/SVG/1.1/DTD/svg11.dtd">
<svg height="300.115625pt" version="1.1" viewBox="0 0 390.854375 300.115625" width="390.854375pt" xmlns="http://www.w3.org/2000/svg" xmlns:xlink="http://www.w3.org/1999/xlink">
 <metadata>
  <rdf:RDF xmlns:cc="http://creativecommons.org/ns#" xmlns:dc="http://purl.org/dc/elements/1.1/" xmlns:rdf="http://www.w3.org/1999/02/22-rdf-syntax-ns#">
   <cc:Work>
    <dc:type rdf:resource="http://purl.org/dc/dcmitype/StillImage"/>
    <dc:date>2021-05-05T15:05:31.426175</dc:date>
    <dc:format>image/svg+xml</dc:format>
    <dc:creator>
     <cc:Agent>
      <dc:title>Matplotlib v3.4.1, https://matplotlib.org/</dc:title>
     </cc:Agent>
    </dc:creator>
   </cc:Work>
  </rdf:RDF>
 </metadata>
 <defs>
  <style type="text/css">*{stroke-linecap:butt;stroke-linejoin:round;}</style>
 </defs>
 <g id="figure_1">
  <g id="patch_1">
   <path d="M 0 300.115625 
L 390.854375 300.115625 
L 390.854375 0 
L 0 0 
z
" style="fill:#ffffff;"/>
  </g>
  <g id="axes_1">
   <g id="patch_2">
    <path d="M 48.854375 256.68 
L 383.654375 256.68 
L 383.654375 7.2 
L 48.854375 7.2 
z
" style="fill:#ffffff;"/>
   </g>
   <g id="PolyCollection_1">
    <defs>
     <path d="M 48.854375 -178.385263 
L 48.854375 -171.178323 
L 52.378586 -152.212312 
L 55.902796 -139.658519 
L 59.427007 -130.448973 
L 62.951217 -120.801402 
L 66.475428 -113.287783 
L 69.999638 -110.326314 
L 73.523849 -102.862609 
L 77.048059 -102.265283 
L 80.57227 -98.294915 
L 84.09648 -96.005596 
L 87.620691 -92.977636 
L 91.144901 -92.864906 
L 94.669112 -90.322284 
L 98.193322 -90.417616 
L 101.717533 -88.500025 
L 105.241743 -88.873953 
L 108.765954 -86.785899 
L 112.290164 -85.120474 
L 115.814375 -85.015995 
L 119.338586 -84.311321 
L 122.862796 -84.25432 
L 126.387007 -84.195595 
L 129.911217 -82.488371 
L 133.435428 -82.53506 
L 136.959638 -82.37653 
L 140.483849 -81.529405 
L 144.008059 -80.252743 
L 147.53227 -80.797959 
L 151.05648 -82.071333 
L 154.580691 -80.433415 
L 158.104901 -81.203642 
L 161.629112 -80.240648 
L 165.153322 -79.865679 
L 168.677533 -79.078193 
L 172.201743 -79.922444 
L 175.725954 -78.606684 
L 179.250164 -78.505787 
L 182.774375 -78.168802 
L 186.298586 -78.103423 
L 189.822796 -77.801933 
L 193.347007 -77.303526 
L 196.871217 -78.523417 
L 200.395428 -78.166836 
L 203.919638 -77.372602 
L 207.443849 -77.569092 
L 210.968059 -77.743306 
L 214.49227 -77.015271 
L 218.01648 -76.500776 
L 221.540691 -77.633227 
L 225.064901 -76.679327 
L 228.589112 -76.785275 
L 232.113322 -76.098491 
L 235.637533 -76.609403 
L 239.161743 -76.627405 
L 242.685954 -76.770006 
L 246.210164 -75.965872 
L 249.734375 -75.124426 
L 253.258586 -76.493334 
L 256.782796 -75.662626 
L 260.307007 -75.737209 
L 263.831217 -75.459942 
L 267.355428 -76.074709 
L 270.879638 -76.11692 
L 274.403849 -75.067484 
L 277.928059 -75.67593 
L 281.45227 -75.345133 
L 284.97648 -75.841639 
L 288.500691 -74.907762 
L 292.024901 -75.291809 
L 295.549112 -74.874803 
L 299.073322 -75.080098 
L 302.597533 -75.234298 
L 306.121743 -74.386412 
L 309.645954 -74.309608 
L 313.170164 -75.310116 
L 316.694375 -75.471242 
L 320.218586 -75.066128 
L 323.742796 -74.841662 
L 327.267007 -75.246536 
L 330.791217 -74.647745 
L 334.315428 -74.870269 
L 337.839638 -74.267188 
L 341.363849 -74.439977 
L 344.888059 -74.513083 
L 348.41227 -74.242591 
L 351.93648 -74.635044 
L 355.460691 -74.961143 
L 358.984901 -74.80393 
L 362.509112 -74.241052 
L 366.033322 -74.788232 
L 369.557533 -74.252139 
L 373.081743 -74.477025 
L 376.605954 -74.211163 
L 380.130164 -74.851497 
L 383.654375 -73.664482 
L 383.654375 -74.924333 
L 383.654375 -74.924333 
L 380.130164 -76.127476 
L 376.605954 -75.500476 
L 373.081743 -75.766211 
L 369.557533 -75.544404 
L 366.033322 -76.094578 
L 362.509112 -75.55978 
L 358.984901 -76.116142 
L 355.460691 -76.279416 
L 351.93648 -75.953636 
L 348.41227 -75.585364 
L 344.888059 -75.86205 
L 341.363849 -75.794608 
L 337.839638 -75.633361 
L 334.315428 -76.275443 
L 330.791217 -76.022212 
L 327.267007 -76.648103 
L 323.742796 -76.239791 
L 320.218586 -76.471064 
L 316.694375 -76.908001 
L 313.170164 -76.730093 
L 309.645954 -75.766996 
L 306.121743 -75.847511 
L 302.597533 -76.685726 
L 299.073322 -76.556897 
L 295.549112 -76.358043 
L 292.024901 -76.791347 
L 288.500691 -76.424054 
L 284.97648 -77.360387 
L 281.45227 -76.880564 
L 277.928059 -77.205441 
L 274.403849 -76.631026 
L 270.879638 -77.689085 
L 267.355428 -77.667594 
L 263.831217 -77.044217 
L 260.307007 -77.336391 
L 256.782796 -77.28493 
L 253.258586 -78.120016 
L 249.734375 -76.792208 
L 246.210164 -77.642327 
L 242.685954 -78.459704 
L 239.161743 -78.343424 
L 235.637533 -78.326088 
L 232.113322 -77.870222 
L 228.589112 -78.538158 
L 225.064901 -78.463113 
L 221.540691 -79.426978 
L 218.01648 -78.333132 
L 214.49227 -78.870022 
L 210.968059 -79.606323 
L 207.443849 -79.444236 
L 203.919638 -79.264076 
L 200.395428 -80.114448 
L 196.871217 -80.472863 
L 193.347007 -79.293705 
L 189.822796 -79.783641 
L 186.298586 -80.131702 
L 182.774375 -80.232084 
L 179.250164 -80.614618 
L 175.725954 -80.720248 
L 172.201743 -82.076152 
L 168.677533 -81.291728 
L 165.153322 -82.094202 
L 161.629112 -82.503363 
L 158.104901 -83.526477 
L 154.580691 -82.738868 
L 151.05648 -84.462113 
L 147.53227 -83.212339 
L 144.008059 -82.800987 
L 140.483849 -84.045521 
L 136.959638 -84.981554 
L 133.435428 -85.211879 
L 129.911217 -85.197663 
L 126.387007 -86.967907 
L 122.862796 -87.156801 
L 119.338586 -87.310359 
L 115.814375 -88.063841 
L 112.290164 -88.216496 
L 108.765954 -89.970293 
L 105.241743 -92.270253 
L 101.717533 -92.093806 
L 98.193322 -94.106685 
L 94.669112 -94.062959 
L 91.144901 -96.888567 
L 87.620691 -97.129554 
L 84.09648 -100.236886 
L 80.57227 -102.864695 
L 77.048059 -107.244981 
L 73.523849 -108.163932 
L 69.999638 -116.034095 
L 66.475428 -119.270568 
L 62.951217 -127.020012 
L 59.427007 -136.973854 
L 55.902796 -146.57274 
L 52.378586 -159.244294 
L 48.854375 -178.385263 
z
" id="m3cbeaba98e"/>
    </defs>
    <g clip-path="url(#p79021f769d)">
     <use style="fill:#7fc97f;fill-opacity:0.1;" x="0" xlink:href="#m3cbeaba98e" y="300.115625"/>
    </g>
   </g>
   <g id="PolyCollection_2">
    <defs>
     <path d="M 48.854375 -245.963273 
L 48.854375 -235.182798 
L 52.378586 -207.78508 
L 55.902796 -194.312775 
L 59.427007 -186.675317 
L 62.951217 -176.538684 
L 66.475428 -166.865226 
L 69.999638 -167.206133 
L 73.523849 -156.014705 
L 77.048059 -160.945449 
L 80.57227 -152.722364 
L 84.09648 -148.41895 
L 87.620691 -141.446974 
L 91.144901 -144.609733 
L 94.669112 -138.606261 
L 98.193322 -138.869826 
L 101.717533 -137.91517 
L 105.241743 -140.485579 
L 108.765954 -134.167829 
L 112.290164 -129.614889 
L 115.814375 -129.403526 
L 119.338586 -127.384294 
L 122.862796 -130.655369 
L 126.387007 -129.394755 
L 129.911217 -122.381754 
L 133.435428 -124.912256 
L 136.959638 -125.548874 
L 140.483849 -122.031298 
L 144.008059 -115.25665 
L 147.53227 -120.335626 
L 151.05648 -125.796153 
L 154.580691 -120.296415 
L 158.104901 -125.110054 
L 161.629112 -119.727438 
L 165.153322 -117.978646 
L 168.677533 -115.398236 
L 172.201743 -119.402904 
L 175.725954 -113.813509 
L 179.250164 -112.609909 
L 182.774375 -112.193252 
L 186.298586 -111.082581 
L 189.822796 -110.445547 
L 193.347007 -108.170244 
L 196.871217 -115.421636 
L 200.395428 -113.602378 
L 203.919638 -108.948194 
L 207.443849 -110.518961 
L 210.968059 -112.547769 
L 214.49227 -107.469145 
L 218.01648 -105.328458 
L 221.540691 -112.841547 
L 225.064901 -107.160723 
L 228.589112 -108.228013 
L 232.113322 -103.651137 
L 235.637533 -107.896503 
L 239.161743 -107.329438 
L 242.685954 -109.26195 
L 246.210164 -103.917393 
L 249.734375 -98.248063 
L 253.258586 -108.830292 
L 256.782796 -101.964646 
L 260.307007 -102.213366 
L 263.831217 -101.301598 
L 267.355428 -105.393017 
L 270.879638 -106.923486 
L 274.403849 -98.917354 
L 277.928059 -103.633165 
L 281.45227 -101.642362 
L 284.97648 -105.643793 
L 288.500691 -98.274219 
L 292.024901 -102.168401 
L 295.549112 -98.404137 
L 299.073322 -100.697647 
L 302.597533 -102.153766 
L 306.121743 -95.324019 
L 309.645954 -94.302088 
L 313.170164 -103.4316 
L 316.694375 -104.12304 
L 320.218586 -100.886892 
L 323.742796 -99.276663 
L 327.267007 -102.58771 
L 330.791217 -98.35725 
L 334.315428 -100.340254 
L 337.839638 -95.214739 
L 341.363849 -97.280975 
L 344.888059 -97.997784 
L 348.41227 -94.779906 
L 351.93648 -99.528145 
L 355.460691 -102.375306 
L 358.984901 -101.251415 
L 362.509112 -95.997219 
L 366.033322 -101.718934 
L 369.557533 -95.901443 
L 373.081743 -98.779526 
L 376.605954 -96.580494 
L 380.130164 -101.655294 
L 383.654375 -91.57735 
L 383.654375 -103.61965 
L 383.654375 -103.61965 
L 380.130164 -113.769331 
L 376.605954 -108.72051 
L 373.081743 -110.908635 
L 369.557533 -107.966308 
L 366.033322 -113.85798 
L 362.509112 -108.124671 
L 358.984901 -113.35382 
L 355.460691 -114.405984 
L 351.93648 -111.504294 
L 348.41227 -106.865903 
L 344.888059 -110.089615 
L 341.363849 -109.250461 
L 337.839638 -107.280799 
L 334.315428 -112.630874 
L 330.791217 -110.332703 
L 327.267007 -114.744207 
L 323.742796 -111.265948 
L 320.218586 -112.91108 
L 316.694375 -116.311362 
L 313.170164 -115.410079 
L 309.645954 -106.524182 
L 306.121743 -107.52727 
L 302.597533 -114.202227 
L 299.073322 -112.785303 
L 295.549112 -110.380778 
L 292.024901 -114.25375 
L 288.500691 -110.41987 
L 284.97648 -117.784784 
L 281.45227 -113.776383 
L 277.928059 -115.601201 
L 274.403849 -111.046602 
L 270.879638 -118.984139 
L 267.355428 -117.541674 
L 263.831217 -113.338033 
L 260.307007 -114.25811 
L 256.782796 -113.941047 
L 253.258586 -120.833581 
L 249.734375 -110.333675 
L 246.210164 -115.968157 
L 242.685954 -121.337108 
L 239.161743 -119.421614 
L 235.637533 -119.949781 
L 232.113322 -115.940107 
L 228.589112 -120.296534 
L 225.064901 -119.301201 
L 221.540691 -124.990608 
L 218.01648 -117.443905 
L 214.49227 -119.571665 
L 210.968059 -124.612807 
L 207.443849 -122.627931 
L 203.919638 -120.97544 
L 200.395428 -125.725534 
L 196.871217 -127.59636 
L 193.347007 -120.235694 
L 189.822796 -122.487871 
L 186.298586 -123.04839 
L 182.774375 -124.289527 
L 179.250164 -124.797448 
L 175.725954 -125.788454 
L 172.201743 -131.599826 
L 168.677533 -127.576265 
L 165.153322 -130.025534 
L 161.629112 -131.737878 
L 158.104901 -137.182356 
L 154.580691 -132.271127 
L 151.05648 -137.786335 
L 147.53227 -132.321157 
L 144.008059 -127.438214 
L 140.483849 -134.064546 
L 136.959638 -137.487119 
L 133.435428 -136.8976 
L 129.911217 -134.453145 
L 126.387007 -141.360107 
L 122.862796 -142.670856 
L 119.338586 -139.438606 
L 115.814375 -141.395949 
L 112.290164 -141.530691 
L 108.765954 -146.208807 
L 105.241743 -152.512131 
L 101.717533 -149.922086 
L 98.193322 -150.917963 
L 94.669112 -150.535125 
L 91.144901 -156.714401 
L 87.620691 -153.536971 
L 84.09648 -160.249417 
L 80.57227 -164.628177 
L 77.048059 -172.871401 
L 73.523849 -167.810587 
L 69.999638 -179.020902 
L 66.475428 -178.630809 
L 62.951217 -188.037726 
L 59.427007 -198.103241 
L 55.902796 -205.535163 
L 52.378586 -218.716899 
L 48.854375 -245.963273 
z
" id="m447f2b63a2"/>
    </defs>
    <g clip-path="url(#p79021f769d)">
     <use style="fill:#beaed4;fill-opacity:0.1;" x="0" xlink:href="#m447f2b63a2" y="300.115625"/>
    </g>
   </g>
   <g id="PolyCollection_3">
    <defs>
     <path d="M 55.902796 -90.753824 
L 55.902796 -73.651602 
L 59.427007 -70.832977 
L 62.951217 -68.642869 
L 66.475428 -66.38186 
L 69.999638 -96.6355 
L 73.523849 -105.812647 
L 77.048059 -113.921502 
L 80.57227 -115.039297 
L 84.09648 -118.882859 
L 87.620691 -119.80412 
L 91.144901 -121.047354 
L 94.669112 -124.732158 
L 98.193322 -117.164133 
L 101.717533 -121.830139 
L 105.241743 -122.322856 
L 108.765954 -118.701039 
L 112.290164 -117.128383 
L 115.814375 -119.096861 
L 119.338586 -118.995043 
L 122.862796 -119.653818 
L 126.387007 -118.00116 
L 129.911217 -118.241775 
L 133.435428 -119.685795 
L 136.959638 -121.109253 
L 140.483849 -118.242309 
L 144.008059 -111.23401 
L 147.53227 -115.56935 
L 151.05648 -114.292232 
L 154.580691 -110.038316 
L 158.104901 -120.515465 
L 161.629112 -112.917832 
L 165.153322 -116.701656 
L 168.677533 -103.251045 
L 172.201743 -113.25445 
L 175.725954 -107.074473 
L 179.250164 -109.572076 
L 182.774375 -113.449329 
L 186.298586 -109.609319 
L 189.822796 -113.225021 
L 193.347007 -109.196329 
L 196.871217 -107.462507 
L 200.395428 -114.380457 
L 203.919638 -111.394314 
L 207.443849 -105.226927 
L 210.968059 -108.474408 
L 214.49227 -112.008702 
L 218.01648 -105.539871 
L 221.540691 -108.372414 
L 225.064901 -110.155001 
L 228.589112 -103.022409 
L 232.113322 -107.922889 
L 235.637533 -106.895629 
L 239.161743 -108.203696 
L 242.685954 -104.565975 
L 246.210164 -105.663207 
L 249.734375 -102.614607 
L 253.258586 -107.204288 
L 256.782796 -104.744323 
L 260.307007 -105.16737 
L 263.831217 -105.553031 
L 267.355428 -104.612826 
L 270.879638 -100.068515 
L 274.403849 -101.186056 
L 277.928059 -102.518101 
L 281.45227 -105.926332 
L 284.97648 -98.575406 
L 288.500691 -106.566062 
L 292.024901 -100.771035 
L 295.549112 -97.709673 
L 299.073322 -100.43401 
L 302.597533 -98.627427 
L 306.121743 -97.083628 
L 309.645954 -100.307951 
L 313.170164 -97.445536 
L 316.694375 -100.839822 
L 320.218586 -95.581513 
L 323.742796 -95.818663 
L 327.267007 -98.40164 
L 330.791217 -97.456049 
L 334.315428 -98.386402 
L 337.839638 -100.772163 
L 341.363849 -99.101365 
L 344.888059 -97.008461 
L 348.41227 -100.079495 
L 351.93648 -98.540744 
L 355.460691 -95.519509 
L 358.984901 -97.529242 
L 362.509112 -98.969788 
L 366.033322 -98.763303 
L 369.557533 -97.386239 
L 373.081743 -97.675183 
L 376.605954 -98.205117 
L 380.130164 -98.271699 
L 383.654375 -102.90521 
L 383.654375 -115.032901 
L 383.654375 -115.032901 
L 380.130164 -110.360277 
L 376.605954 -110.27127 
L 373.081743 -109.731072 
L 369.557533 -109.496656 
L 366.033322 -110.902732 
L 362.509112 -111.154748 
L 358.984901 -109.939032 
L 355.460691 -107.788589 
L 351.93648 -110.625813 
L 348.41227 -112.087707 
L 344.888059 -109.097331 
L 341.363849 -111.222408 
L 337.839638 -112.851688 
L 334.315428 -110.376998 
L 330.791217 -109.436063 
L 327.267007 -110.53958 
L 323.742796 -107.984579 
L 320.218586 -107.700381 
L 316.694375 -112.872377 
L 313.170164 -109.64157 
L 309.645954 -112.458818 
L 306.121743 -109.193681 
L 302.597533 -110.679645 
L 299.073322 -112.724996 
L 295.549112 -109.889206 
L 292.024901 -112.745996 
L 288.500691 -118.675613 
L 284.97648 -110.626045 
L 281.45227 -118.020431 
L 277.928059 -114.675521 
L 274.403849 -113.350945 
L 270.879638 -112.107138 
L 267.355428 -116.710852 
L 263.831217 -117.586852 
L 260.307007 -117.210139 
L 256.782796 -116.82801 
L 253.258586 -119.362546 
L 249.734375 -114.666395 
L 246.210164 -117.619077 
L 242.685954 -116.741607 
L 239.161743 -120.159594 
L 235.637533 -119.010611 
L 232.113322 -119.959342 
L 228.589112 -115.115442 
L 225.064901 -122.187007 
L 221.540691 -120.582705 
L 218.01648 -117.612074 
L 214.49227 -123.945292 
L 210.968059 -120.713389 
L 207.443849 -117.372878 
L 203.919638 -123.64793 
L 200.395428 -126.550787 
L 196.871217 -119.683577 
L 193.347007 -121.182068 
L 189.822796 -125.150051 
L 186.298586 -121.704679 
L 182.774375 -125.515311 
L 179.250164 -121.781795 
L 175.725954 -119.250404 
L 172.201743 -125.315671 
L 168.677533 -115.291165 
L 165.153322 -128.787312 
L 161.629112 -125.039288 
L 158.104901 -132.65748 
L 154.580691 -122.191918 
L 151.05648 -126.492651 
L 147.53227 -127.682613 
L 144.008059 -123.448917 
L 140.483849 -130.315795 
L 136.959638 -133.295916 
L 133.435428 -131.869142 
L 129.911217 -130.51483 
L 126.387007 -130.141881 
L 122.862796 -131.953196 
L 119.338586 -131.084257 
L 115.814375 -131.38982 
L 112.290164 -129.341956 
L 108.765954 -130.997188 
L 105.241743 -134.447782 
L 101.717533 -134.174386 
L 98.193322 -129.446837 
L 94.669112 -137.225446 
L 91.144901 -133.588395 
L 87.620691 -132.388187 
L 84.09648 -131.671015 
L 80.57227 -127.771325 
L 77.048059 -126.685332 
L 73.523849 -118.79149 
L 69.999638 -109.813563 
L 66.475428 -79.877799 
L 62.951217 -82.725804 
L 59.427007 -85.708916 
L 55.902796 -90.753824 
z
" id="m1fcf3d6c25"/>
    </defs>
    <g clip-path="url(#p79021f769d)">
     <use style="fill:#386cb0;fill-opacity:0.1;" x="0" xlink:href="#m1fcf3d6c25" y="300.115625"/>
    </g>
   </g>
   <g id="PolyCollection_4">
    <defs>
     <path d="M 48.854375 -264.137332 
L 48.854375 -259.976353 
L 52.378586 -252.979292 
L 55.902796 -249.115884 
L 59.427007 -246.909362 
L 62.951217 -243.918841 
L 66.475428 -242.029619 
L 69.999638 -241.788983 
L 73.523849 -238.549204 
L 77.048059 -238.509227 
L 80.57227 -237.255201 
L 84.09648 -236.035987 
L 87.620691 -234.579081 
L 91.144901 -235.564887 
L 94.669112 -233.761911 
L 98.193322 -234.282001 
L 101.717533 -234.160677 
L 105.241743 -233.560554 
L 108.765954 -232.857342 
L 112.290164 -232.102179 
L 115.814375 -232.176844 
L 119.338586 -232.233274 
L 122.862796 -231.824489 
L 126.387007 -231.679605 
L 129.911217 -230.596064 
L 133.435428 -230.939 
L 136.959638 -230.734733 
L 140.483849 -230.344194 
L 144.008059 -230.088078 
L 147.53227 -230.225935 
L 151.05648 -230.925063 
L 154.580691 -230.2576 
L 158.104901 -230.343335 
L 161.629112 -229.734334 
L 165.153322 -229.584601 
L 168.677533 -229.341944 
L 172.201743 -229.968274 
L 175.725954 -229.217793 
L 179.250164 -228.950812 
L 182.774375 -229.055736 
L 186.298586 -228.974054 
L 189.822796 -228.767588 
L 193.347007 -228.618553 
L 196.871217 -229.072771 
L 200.395428 -228.865476 
L 203.919638 -228.60955 
L 207.443849 -228.665164 
L 210.968059 -228.934636 
L 214.49227 -228.545049 
L 218.01648 -228.257309 
L 221.540691 -228.603186 
L 225.064901 -228.301352 
L 228.589112 -228.490745 
L 232.113322 -227.946263 
L 235.637533 -228.254339 
L 239.161743 -228.414434 
L 242.685954 -228.572521 
L 246.210164 -228.058421 
L 249.734375 -227.675044 
L 253.258586 -228.229951 
L 256.782796 -227.708512 
L 260.307007 -227.889058 
L 263.831217 -227.989908 
L 267.355428 -227.960628 
L 270.879638 -227.966694 
L 274.403849 -227.432625 
L 277.928059 -227.795758 
L 281.45227 -227.693194 
L 284.97648 -228.080889 
L 288.500691 -227.436428 
L 292.024901 -227.812587 
L 295.549112 -227.674263 
L 299.073322 -227.69094 
L 302.597533 -227.619303 
L 306.121743 -227.500054 
L 309.645954 -227.216995 
L 313.170164 -227.689399 
L 316.694375 -227.651419 
L 320.218586 -227.417654 
L 323.742796 -227.630797 
L 327.267007 -227.548451 
L 330.791217 -227.352783 
L 334.315428 -227.49534 
L 337.839638 -227.270387 
L 341.363849 -227.465262 
L 344.888059 -227.251999 
L 348.41227 -227.04092 
L 351.93648 -227.296779 
L 355.460691 -227.484977 
L 358.984901 -227.470602 
L 362.509112 -227.126699 
L 366.033322 -227.357909 
L 369.557533 -227.26546 
L 373.081743 -227.214328 
L 376.605954 -227.185132 
L 380.130164 -227.554131 
L 383.654375 -226.975312 
L 383.654375 -227.840524 
L 383.654375 -227.840524 
L 380.130164 -228.433511 
L 376.605954 -228.062719 
L 373.081743 -228.093052 
L 369.557533 -228.151694 
L 366.033322 -228.246659 
L 362.509112 -228.023014 
L 358.984901 -228.36778 
L 355.460691 -228.384225 
L 351.93648 -228.199977 
L 348.41227 -227.946722 
L 344.888059 -228.164842 
L 341.363849 -228.38688 
L 337.839638 -228.198618 
L 334.315428 -228.442633 
L 330.791217 -228.290512 
L 327.267007 -228.504433 
L 323.742796 -228.587852 
L 320.218586 -228.373416 
L 316.694375 -228.615617 
L 313.170164 -228.666143 
L 309.645954 -228.198942 
L 306.121743 -228.48301 
L 302.597533 -228.610182 
L 299.073322 -228.686971 
L 295.549112 -228.680552 
L 292.024901 -228.821441 
L 288.500691 -228.461164 
L 284.97648 -229.108154 
L 281.45227 -228.727261 
L 277.928059 -228.826584 
L 274.403849 -228.482453 
L 270.879638 -229.026271 
L 267.355428 -229.021906 
L 263.831217 -229.056428 
L 260.307007 -228.973788 
L 256.782796 -228.802515 
L 253.258586 -229.326584 
L 249.734375 -228.790406 
L 246.210164 -229.179886 
L 242.685954 -229.697288 
L 239.161743 -229.543427 
L 235.637533 -229.396247 
L 232.113322 -229.103599 
L 228.589112 -229.656123 
L 225.064901 -229.490611 
L 221.540691 -229.797596 
L 218.01648 -229.458445 
L 214.49227 -229.777648 
L 210.968059 -230.177631 
L 207.443849 -229.903564 
L 203.919638 -229.870465 
L 200.395428 -230.122216 
L 196.871217 -230.348096 
L 193.347007 -229.912747 
L 189.822796 -230.070897 
L 186.298586 -230.303401 
L 182.774375 -230.399854 
L 179.250164 -230.322823 
L 175.725954 -230.59832 
L 172.201743 -231.369828 
L 168.677533 -230.757346 
L 165.153322 -231.010269 
L 161.629112 -231.197143 
L 158.104901 -231.820469 
L 154.580691 -231.750086 
L 151.05648 -232.456499 
L 147.53227 -231.767301 
L 144.008059 -231.682833 
L 140.483849 -231.933538 
L 136.959638 -232.358672 
L 133.435428 -232.599881 
L 129.911217 -232.2918 
L 126.387007 -233.413964 
L 122.862796 -233.579288 
L 119.338586 -234.037074 
L 115.814375 -234.026461 
L 112.290164 -233.961719 
L 108.765954 -234.769815 
L 105.241743 -235.542067 
L 101.717533 -236.206005 
L 98.193322 -236.39986 
L 94.669112 -235.909102 
L 91.144901 -237.808488 
L 87.620691 -236.890979 
L 84.09648 -238.42632 
L 80.57227 -239.743258 
L 77.048059 -241.09047 
L 73.523849 -241.267026 
L 69.999638 -244.666046 
L 66.475428 -245.040937 
L 62.951217 -247.075961 
L 59.427007 -250.27543 
L 55.902796 -252.72759 
L 52.378586 -256.819328 
L 48.854375 -264.137332 
z
" id="ma283e9ff5a"/>
    </defs>
    <g clip-path="url(#p79021f769d)">
     <use style="fill:#bf5b17;fill-opacity:0.1;" x="0" xlink:href="#ma283e9ff5a" y="300.115625"/>
    </g>
   </g>
   <g id="PolyCollection_5">
    <defs>
     <path d="M 48.854375 -243.677453 
L 48.854375 -234.620026 
L 52.378586 -212.246115 
L 55.902796 -194.045132 
L 59.427007 -177.857069 
L 62.951217 -163.658304 
L 66.475428 -149.634629 
L 69.999638 -144.570885 
L 73.523849 -132.563186 
L 77.048059 -130.805259 
L 80.57227 -122.941591 
L 84.09648 -118.053757 
L 87.620691 -112.637103 
L 91.144901 -111.51781 
L 94.669112 -107.36124 
L 98.193322 -105.810877 
L 101.717533 -104.08363 
L 105.241743 -104.485197 
L 108.765954 -100.397185 
L 112.290164 -97.600702 
L 115.814375 -97.053665 
L 119.338586 -95.482449 
L 122.862796 -96.113806 
L 126.387007 -95.119499 
L 129.911217 -92.014624 
L 133.435428 -92.406119 
L 136.959638 -92.206484 
L 140.483849 -90.413618 
L 144.008059 -87.934322 
L 147.53227 -89.389464 
L 151.05648 -90.888732 
L 154.580691 -88.69708 
L 158.104901 -89.999848 
L 161.629112 -87.948667 
L 165.153322 -87.152778 
L 168.677533 -86.028926 
L 172.201743 -87.177485 
L 175.725954 -85.259335 
L 179.250164 -84.72198 
L 182.774375 -84.369097 
L 186.298586 -84.033312 
L 189.822796 -83.449499 
L 193.347007 -82.670682 
L 196.871217 -84.60196 
L 200.395428 -83.961264 
L 203.919638 -82.634925 
L 207.443849 -82.999688 
L 210.968059 -83.323018 
L 214.49227 -81.865206 
L 218.01648 -81.192631 
L 221.540691 -83.030112 
L 225.064901 -81.427927 
L 228.589112 -81.622647 
L 232.113322 -80.303075 
L 235.637533 -81.381298 
L 239.161743 -81.125548 
L 242.685954 -81.522653 
L 246.210164 -80.127792 
L 249.734375 -78.588828 
L 253.258586 -81.12914 
L 256.782796 -79.377487 
L 260.307007 -79.377016 
L 263.831217 -79.127508 
L 267.355428 -80.032283 
L 270.879638 -80.292073 
L 274.403849 -78.351358 
L 277.928059 -79.445202 
L 281.45227 -78.873733 
L 284.97648 -79.76412 
L 288.500691 -77.976848 
L 292.024901 -78.807457 
L 295.549112 -77.928047 
L 299.073322 -78.448802 
L 302.597533 -78.710232 
L 306.121743 -77.091192 
L 309.645954 -76.839757 
L 313.170164 -78.863041 
L 316.694375 -78.9546 
L 320.218586 -78.158763 
L 323.742796 -77.789438 
L 327.267007 -78.495708 
L 330.791217 -77.515799 
L 334.315428 -77.894586 
L 337.839638 -76.793424 
L 341.363849 -77.207777 
L 344.888059 -77.305967 
L 348.41227 -76.607925 
L 351.93648 -77.558847 
L 355.460691 -78.100486 
L 358.984901 -77.808886 
L 362.509112 -76.731342 
L 366.033322 -77.830414 
L 369.557533 -76.643493 
L 373.081743 -77.194501 
L 376.605954 -76.740912 
L 380.130164 -77.735487 
L 383.654375 -75.692395 
L 383.654375 -78.069376 
L 383.654375 -78.069376 
L 380.130164 -80.138191 
L 376.605954 -79.160577 
L 373.081743 -79.622528 
L 369.557533 -79.073791 
L 366.033322 -80.284358 
L 362.509112 -79.197702 
L 358.984901 -80.28044 
L 355.460691 -80.573842 
L 351.93648 -80.036767 
L 348.41227 -79.117306 
L 344.888059 -79.832888 
L 341.363849 -79.724184 
L 337.839638 -79.342761 
L 334.315428 -80.501355 
L 330.791217 -80.077085 
L 327.267007 -81.10691 
L 323.742796 -80.380119 
L 320.218586 -80.772204 
L 316.694375 -81.617391 
L 313.170164 -81.503387 
L 309.645954 -79.544373 
L 306.121743 -79.805044 
L 302.597533 -81.411297 
L 299.073322 -81.176851 
L 295.549112 -80.651168 
L 292.024901 -81.567035 
L 288.500691 -80.769603 
L 284.97648 -82.572442 
L 281.45227 -81.701985 
L 277.928059 -82.260398 
L 274.403849 -81.218659 
L 270.879638 -83.168012 
L 267.355428 -82.947686 
L 263.831217 -82.03563 
L 260.307007 -82.309251 
L 256.782796 -82.315369 
L 253.258586 -84.096576 
L 249.734375 -81.602257 
L 246.210164 -83.156875 
L 242.685954 -84.576572 
L 239.161743 -84.208465 
L 235.637533 -84.482691 
L 232.113322 -83.492579 
L 228.589112 -84.779457 
L 225.064901 -84.634669 
L 221.540691 -86.266721 
L 218.01648 -84.447445 
L 214.49227 -85.149174 
L 210.968059 -86.63753 
L 207.443849 -86.353265 
L 203.919638 -85.995574 
L 200.395428 -87.380129 
L 196.871217 -88.069926 
L 193.347007 -86.144379 
L 189.822796 -86.949545 
L 186.298586 -87.560633 
L 182.774375 -87.965645 
L 179.250164 -88.384675 
L 175.725954 -88.916652 
L 172.201743 -90.934101 
L 168.677533 -89.813288 
L 165.153322 -90.952494 
L 161.629112 -91.794171 
L 158.104901 -93.915623 
L 154.580691 -92.645161 
L 151.05648 -94.898062 
L 147.53227 -93.452147 
L 144.008059 -92.124146 
L 140.483849 -94.616334 
L 136.959638 -96.446413 
L 133.435428 -96.728736 
L 129.911217 -96.447721 
L 126.387007 -99.6 
L 122.862796 -100.696091 
L 119.338586 -100.177213 
L 115.814375 -101.828807 
L 112.290164 -102.427482 
L 108.765954 -105.399712 
L 105.241743 -109.618777 
L 101.717533 -109.345957 
L 98.193322 -111.229449 
L 94.669112 -112.882271 
L 91.144901 -117.280835 
L 87.620691 -118.615608 
L 84.09648 -124.138103 
L 80.57227 -129.266711 
L 77.048059 -137.378307 
L 73.523849 -139.409528 
L 69.999638 -151.720182 
L 66.475428 -157.100613 
L 62.951217 -171.364681 
L 59.427007 -185.87131 
L 55.902796 -202.337373 
L 52.378586 -220.813774 
L 48.854375 -243.677453 
z
" id="m948a805873"/>
    </defs>
    <g clip-path="url(#p79021f769d)">
     <use style="fill:#fdc086;fill-opacity:0.1;" x="0" xlink:href="#m948a805873" y="300.115625"/>
    </g>
   </g>
   <g id="matplotlib.axis_1">
    <g id="xtick_1">
     <g id="line2d_1"/>
     <g id="text_1">
      <!-- 5 -->
      <g style="fill:#666666;" transform="translate(45.517813 275.269375)scale(0.12 -0.12)">
       <defs>
        <path d="M 266 1200 
L 856 1250 
Q 922 819 1161 601 
Q 1400 384 1738 384 
Q 2144 384 2425 690 
Q 2706 997 2706 1503 
Q 2706 1984 2436 2262 
Q 2166 2541 1728 2541 
Q 1456 2541 1237 2417 
Q 1019 2294 894 2097 
L 366 2166 
L 809 4519 
L 3088 4519 
L 3088 3981 
L 1259 3981 
L 1013 2750 
Q 1425 3038 1878 3038 
Q 2478 3038 2890 2622 
Q 3303 2206 3303 1553 
Q 3303 931 2941 478 
Q 2500 -78 1738 -78 
Q 1113 -78 717 272 
Q 322 622 266 1200 
z
" id="ArialMT-35" transform="scale(0.015625)"/>
       </defs>
       <use xlink:href="#ArialMT-35"/>
      </g>
     </g>
    </g>
    <g id="xtick_2">
     <g id="line2d_2"/>
     <g id="text_2">
      <!-- 15 -->
      <g style="fill:#666666;" transform="translate(77.423355 275.269375)scale(0.12 -0.12)">
       <defs>
        <path d="M 2384 0 
L 1822 0 
L 1822 3584 
Q 1619 3391 1289 3197 
Q 959 3003 697 2906 
L 697 3450 
Q 1169 3672 1522 3987 
Q 1875 4303 2022 4600 
L 2384 4600 
L 2384 0 
z
" id="ArialMT-31" transform="scale(0.015625)"/>
       </defs>
       <use xlink:href="#ArialMT-31"/>
       <use x="55.615234" xlink:href="#ArialMT-35"/>
      </g>
     </g>
    </g>
    <g id="xtick_3">
     <g id="line2d_3"/>
     <g id="text_3">
      <!-- 25 -->
      <g style="fill:#666666;" transform="translate(112.665461 275.269375)scale(0.12 -0.12)">
       <defs>
        <path d="M 3222 541 
L 3222 0 
L 194 0 
Q 188 203 259 391 
Q 375 700 629 1000 
Q 884 1300 1366 1694 
Q 2113 2306 2375 2664 
Q 2638 3022 2638 3341 
Q 2638 3675 2398 3904 
Q 2159 4134 1775 4134 
Q 1369 4134 1125 3890 
Q 881 3647 878 3216 
L 300 3275 
Q 359 3922 746 4261 
Q 1134 4600 1788 4600 
Q 2447 4600 2831 4234 
Q 3216 3869 3216 3328 
Q 3216 3053 3103 2787 
Q 2991 2522 2730 2228 
Q 2469 1934 1863 1422 
Q 1356 997 1212 845 
Q 1069 694 975 541 
L 3222 541 
z
" id="ArialMT-32" transform="scale(0.015625)"/>
       </defs>
       <use xlink:href="#ArialMT-32"/>
       <use x="55.615234" xlink:href="#ArialMT-35"/>
      </g>
     </g>
    </g>
    <g id="xtick_4">
     <g id="line2d_4"/>
     <g id="text_4">
      <!-- 35 -->
      <g style="fill:#666666;" transform="translate(147.907566 275.269375)scale(0.12 -0.12)">
       <defs>
        <path d="M 269 1209 
L 831 1284 
Q 928 806 1161 595 
Q 1394 384 1728 384 
Q 2125 384 2398 659 
Q 2672 934 2672 1341 
Q 2672 1728 2419 1979 
Q 2166 2231 1775 2231 
Q 1616 2231 1378 2169 
L 1441 2663 
Q 1497 2656 1531 2656 
Q 1891 2656 2178 2843 
Q 2466 3031 2466 3422 
Q 2466 3731 2256 3934 
Q 2047 4138 1716 4138 
Q 1388 4138 1169 3931 
Q 950 3725 888 3313 
L 325 3413 
Q 428 3978 793 4289 
Q 1159 4600 1703 4600 
Q 2078 4600 2393 4439 
Q 2709 4278 2876 4000 
Q 3044 3722 3044 3409 
Q 3044 3113 2884 2869 
Q 2725 2625 2413 2481 
Q 2819 2388 3044 2092 
Q 3269 1797 3269 1353 
Q 3269 753 2831 336 
Q 2394 -81 1725 -81 
Q 1122 -81 723 278 
Q 325 638 269 1209 
z
" id="ArialMT-33" transform="scale(0.015625)"/>
       </defs>
       <use xlink:href="#ArialMT-33"/>
       <use x="55.615234" xlink:href="#ArialMT-35"/>
      </g>
     </g>
    </g>
    <g id="xtick_5">
     <g id="line2d_5"/>
     <g id="text_5">
      <!-- 45 -->
      <g style="fill:#666666;" transform="translate(183.149671 275.269375)scale(0.12 -0.12)">
       <defs>
        <path d="M 2069 0 
L 2069 1097 
L 81 1097 
L 81 1613 
L 2172 4581 
L 2631 4581 
L 2631 1613 
L 3250 1613 
L 3250 1097 
L 2631 1097 
L 2631 0 
L 2069 0 
z
M 2069 1613 
L 2069 3678 
L 634 1613 
L 2069 1613 
z
" id="ArialMT-34" transform="scale(0.015625)"/>
       </defs>
       <use xlink:href="#ArialMT-34"/>
       <use x="55.615234" xlink:href="#ArialMT-35"/>
      </g>
     </g>
    </g>
    <g id="xtick_6">
     <g id="line2d_6"/>
     <g id="text_6">
      <!-- 55 -->
      <g style="fill:#666666;" transform="translate(218.391776 275.269375)scale(0.12 -0.12)">
       <use xlink:href="#ArialMT-35"/>
       <use x="55.615234" xlink:href="#ArialMT-35"/>
      </g>
     </g>
    </g>
    <g id="xtick_7">
     <g id="line2d_7"/>
     <g id="text_7">
      <!-- 65 -->
      <g style="fill:#666666;" transform="translate(253.633882 275.269375)scale(0.12 -0.12)">
       <defs>
        <path d="M 3184 3459 
L 2625 3416 
Q 2550 3747 2413 3897 
Q 2184 4138 1850 4138 
Q 1581 4138 1378 3988 
Q 1113 3794 959 3422 
Q 806 3050 800 2363 
Q 1003 2672 1297 2822 
Q 1591 2972 1913 2972 
Q 2475 2972 2870 2558 
Q 3266 2144 3266 1488 
Q 3266 1056 3080 686 
Q 2894 316 2569 119 
Q 2244 -78 1831 -78 
Q 1128 -78 684 439 
Q 241 956 241 2144 
Q 241 3472 731 4075 
Q 1159 4600 1884 4600 
Q 2425 4600 2770 4297 
Q 3116 3994 3184 3459 
z
M 888 1484 
Q 888 1194 1011 928 
Q 1134 663 1356 523 
Q 1578 384 1822 384 
Q 2178 384 2434 671 
Q 2691 959 2691 1453 
Q 2691 1928 2437 2201 
Q 2184 2475 1800 2475 
Q 1419 2475 1153 2201 
Q 888 1928 888 1484 
z
" id="ArialMT-36" transform="scale(0.015625)"/>
       </defs>
       <use xlink:href="#ArialMT-36"/>
       <use x="55.615234" xlink:href="#ArialMT-35"/>
      </g>
     </g>
    </g>
    <g id="xtick_8">
     <g id="line2d_8"/>
     <g id="text_8">
      <!-- 75 -->
      <g style="fill:#666666;" transform="translate(288.875987 275.269375)scale(0.12 -0.12)">
       <defs>
        <path d="M 303 3981 
L 303 4522 
L 3269 4522 
L 3269 4084 
Q 2831 3619 2401 2847 
Q 1972 2075 1738 1259 
Q 1569 684 1522 0 
L 944 0 
Q 953 541 1156 1306 
Q 1359 2072 1739 2783 
Q 2119 3494 2547 3981 
L 303 3981 
z
" id="ArialMT-37" transform="scale(0.015625)"/>
       </defs>
       <use xlink:href="#ArialMT-37"/>
       <use x="55.615234" xlink:href="#ArialMT-35"/>
      </g>
     </g>
    </g>
    <g id="xtick_9">
     <g id="line2d_9"/>
     <g id="text_9">
      <!-- 85 -->
      <g style="fill:#666666;" transform="translate(324.118092 275.269375)scale(0.12 -0.12)">
       <defs>
        <path d="M 1131 2484 
Q 781 2613 612 2850 
Q 444 3088 444 3419 
Q 444 3919 803 4259 
Q 1163 4600 1759 4600 
Q 2359 4600 2725 4251 
Q 3091 3903 3091 3403 
Q 3091 3084 2923 2848 
Q 2756 2613 2416 2484 
Q 2838 2347 3058 2040 
Q 3278 1734 3278 1309 
Q 3278 722 2862 322 
Q 2447 -78 1769 -78 
Q 1091 -78 675 323 
Q 259 725 259 1325 
Q 259 1772 486 2073 
Q 713 2375 1131 2484 
z
M 1019 3438 
Q 1019 3113 1228 2906 
Q 1438 2700 1772 2700 
Q 2097 2700 2305 2904 
Q 2513 3109 2513 3406 
Q 2513 3716 2298 3927 
Q 2084 4138 1766 4138 
Q 1444 4138 1231 3931 
Q 1019 3725 1019 3438 
z
M 838 1322 
Q 838 1081 952 856 
Q 1066 631 1291 507 
Q 1516 384 1775 384 
Q 2178 384 2440 643 
Q 2703 903 2703 1303 
Q 2703 1709 2433 1975 
Q 2163 2241 1756 2241 
Q 1359 2241 1098 1978 
Q 838 1716 838 1322 
z
" id="ArialMT-38" transform="scale(0.015625)"/>
       </defs>
       <use xlink:href="#ArialMT-38"/>
       <use x="55.615234" xlink:href="#ArialMT-35"/>
      </g>
     </g>
    </g>
    <g id="xtick_10">
     <g id="line2d_10"/>
     <g id="text_10">
      <!-- 95 -->
      <g style="fill:#666666;" transform="translate(359.360197 275.269375)scale(0.12 -0.12)">
       <defs>
        <path d="M 350 1059 
L 891 1109 
Q 959 728 1153 556 
Q 1347 384 1650 384 
Q 1909 384 2104 503 
Q 2300 622 2425 820 
Q 2550 1019 2634 1356 
Q 2719 1694 2719 2044 
Q 2719 2081 2716 2156 
Q 2547 1888 2255 1720 
Q 1963 1553 1622 1553 
Q 1053 1553 659 1965 
Q 266 2378 266 3053 
Q 266 3750 677 4175 
Q 1088 4600 1706 4600 
Q 2153 4600 2523 4359 
Q 2894 4119 3086 3673 
Q 3278 3228 3278 2384 
Q 3278 1506 3087 986 
Q 2897 466 2520 194 
Q 2144 -78 1638 -78 
Q 1100 -78 759 220 
Q 419 519 350 1059 
z
M 2653 3081 
Q 2653 3566 2395 3850 
Q 2138 4134 1775 4134 
Q 1400 4134 1122 3828 
Q 844 3522 844 3034 
Q 844 2597 1108 2323 
Q 1372 2050 1759 2050 
Q 2150 2050 2401 2323 
Q 2653 2597 2653 3081 
z
" id="ArialMT-39" transform="scale(0.015625)"/>
       </defs>
       <use xlink:href="#ArialMT-39"/>
       <use x="55.615234" xlink:href="#ArialMT-35"/>
      </g>
     </g>
    </g>
    <g id="text_11">
     <!-- Sequence length -->
     <g style="fill:#333333;" transform="translate(171.219688 290.39)scale(0.12 -0.12)">
      <defs>
       <path d="M 288 1472 
L 859 1522 
Q 900 1178 1048 958 
Q 1197 738 1509 602 
Q 1822 466 2213 466 
Q 2559 466 2825 569 
Q 3091 672 3220 851 
Q 3350 1031 3350 1244 
Q 3350 1459 3225 1620 
Q 3100 1781 2813 1891 
Q 2628 1963 1997 2114 
Q 1366 2266 1113 2400 
Q 784 2572 623 2826 
Q 463 3081 463 3397 
Q 463 3744 659 4045 
Q 856 4347 1234 4503 
Q 1613 4659 2075 4659 
Q 2584 4659 2973 4495 
Q 3363 4331 3572 4012 
Q 3781 3694 3797 3291 
L 3216 3247 
Q 3169 3681 2898 3903 
Q 2628 4125 2100 4125 
Q 1550 4125 1298 3923 
Q 1047 3722 1047 3438 
Q 1047 3191 1225 3031 
Q 1400 2872 2139 2705 
Q 2878 2538 3153 2413 
Q 3553 2228 3743 1945 
Q 3934 1663 3934 1294 
Q 3934 928 3725 604 
Q 3516 281 3123 101 
Q 2731 -78 2241 -78 
Q 1619 -78 1198 103 
Q 778 284 539 648 
Q 300 1013 288 1472 
z
" id="ArialMT-53" transform="scale(0.015625)"/>
       <path d="M 2694 1069 
L 3275 997 
Q 3138 488 2766 206 
Q 2394 -75 1816 -75 
Q 1088 -75 661 373 
Q 234 822 234 1631 
Q 234 2469 665 2931 
Q 1097 3394 1784 3394 
Q 2450 3394 2872 2941 
Q 3294 2488 3294 1666 
Q 3294 1616 3291 1516 
L 816 1516 
Q 847 969 1125 678 
Q 1403 388 1819 388 
Q 2128 388 2347 550 
Q 2566 713 2694 1069 
z
M 847 1978 
L 2700 1978 
Q 2663 2397 2488 2606 
Q 2219 2931 1791 2931 
Q 1403 2931 1139 2672 
Q 875 2413 847 1978 
z
" id="ArialMT-65" transform="scale(0.015625)"/>
       <path d="M 2538 -1272 
L 2538 353 
Q 2406 169 2170 47 
Q 1934 -75 1669 -75 
Q 1078 -75 651 397 
Q 225 869 225 1691 
Q 225 2191 398 2587 
Q 572 2984 901 3189 
Q 1231 3394 1625 3394 
Q 2241 3394 2594 2875 
L 2594 3319 
L 3100 3319 
L 3100 -1272 
L 2538 -1272 
z
M 803 1669 
Q 803 1028 1072 708 
Q 1341 388 1716 388 
Q 2075 388 2334 692 
Q 2594 997 2594 1619 
Q 2594 2281 2320 2615 
Q 2047 2950 1678 2950 
Q 1313 2950 1058 2639 
Q 803 2328 803 1669 
z
" id="ArialMT-71" transform="scale(0.015625)"/>
       <path d="M 2597 0 
L 2597 488 
Q 2209 -75 1544 -75 
Q 1250 -75 995 37 
Q 741 150 617 320 
Q 494 491 444 738 
Q 409 903 409 1263 
L 409 3319 
L 972 3319 
L 972 1478 
Q 972 1038 1006 884 
Q 1059 663 1231 536 
Q 1403 409 1656 409 
Q 1909 409 2131 539 
Q 2353 669 2445 892 
Q 2538 1116 2538 1541 
L 2538 3319 
L 3100 3319 
L 3100 0 
L 2597 0 
z
" id="ArialMT-75" transform="scale(0.015625)"/>
       <path d="M 422 0 
L 422 3319 
L 928 3319 
L 928 2847 
Q 1294 3394 1984 3394 
Q 2284 3394 2536 3286 
Q 2788 3178 2913 3003 
Q 3038 2828 3088 2588 
Q 3119 2431 3119 2041 
L 3119 0 
L 2556 0 
L 2556 2019 
Q 2556 2363 2490 2533 
Q 2425 2703 2258 2804 
Q 2091 2906 1866 2906 
Q 1506 2906 1245 2678 
Q 984 2450 984 1813 
L 984 0 
L 422 0 
z
" id="ArialMT-6e" transform="scale(0.015625)"/>
       <path d="M 2588 1216 
L 3141 1144 
Q 3050 572 2676 248 
Q 2303 -75 1759 -75 
Q 1078 -75 664 370 
Q 250 816 250 1647 
Q 250 2184 428 2587 
Q 606 2991 970 3192 
Q 1334 3394 1763 3394 
Q 2303 3394 2647 3120 
Q 2991 2847 3088 2344 
L 2541 2259 
Q 2463 2594 2264 2762 
Q 2066 2931 1784 2931 
Q 1359 2931 1093 2626 
Q 828 2322 828 1663 
Q 828 994 1084 691 
Q 1341 388 1753 388 
Q 2084 388 2306 591 
Q 2528 794 2588 1216 
z
" id="ArialMT-63" transform="scale(0.015625)"/>
       <path id="ArialMT-20" transform="scale(0.015625)"/>
       <path d="M 409 0 
L 409 4581 
L 972 4581 
L 972 0 
L 409 0 
z
" id="ArialMT-6c" transform="scale(0.015625)"/>
       <path d="M 319 -275 
L 866 -356 
Q 900 -609 1056 -725 
Q 1266 -881 1628 -881 
Q 2019 -881 2231 -725 
Q 2444 -569 2519 -288 
Q 2563 -116 2559 434 
Q 2191 0 1641 0 
Q 956 0 581 494 
Q 206 988 206 1678 
Q 206 2153 378 2554 
Q 550 2956 876 3175 
Q 1203 3394 1644 3394 
Q 2231 3394 2613 2919 
L 2613 3319 
L 3131 3319 
L 3131 450 
Q 3131 -325 2973 -648 
Q 2816 -972 2473 -1159 
Q 2131 -1347 1631 -1347 
Q 1038 -1347 672 -1080 
Q 306 -813 319 -275 
z
M 784 1719 
Q 784 1066 1043 766 
Q 1303 466 1694 466 
Q 2081 466 2343 764 
Q 2606 1063 2606 1700 
Q 2606 2309 2336 2618 
Q 2066 2928 1684 2928 
Q 1309 2928 1046 2623 
Q 784 2319 784 1719 
z
" id="ArialMT-67" transform="scale(0.015625)"/>
       <path d="M 1650 503 
L 1731 6 
Q 1494 -44 1306 -44 
Q 1000 -44 831 53 
Q 663 150 594 308 
Q 525 466 525 972 
L 525 2881 
L 113 2881 
L 113 3319 
L 525 3319 
L 525 4141 
L 1084 4478 
L 1084 3319 
L 1650 3319 
L 1650 2881 
L 1084 2881 
L 1084 941 
Q 1084 700 1114 631 
Q 1144 563 1211 522 
Q 1278 481 1403 481 
Q 1497 481 1650 503 
z
" id="ArialMT-74" transform="scale(0.015625)"/>
       <path d="M 422 0 
L 422 4581 
L 984 4581 
L 984 2938 
Q 1378 3394 1978 3394 
Q 2347 3394 2619 3248 
Q 2891 3103 3008 2847 
Q 3125 2591 3125 2103 
L 3125 0 
L 2563 0 
L 2563 2103 
Q 2563 2525 2380 2717 
Q 2197 2909 1863 2909 
Q 1613 2909 1392 2779 
Q 1172 2650 1078 2428 
Q 984 2206 984 1816 
L 984 0 
L 422 0 
z
" id="ArialMT-68" transform="scale(0.015625)"/>
      </defs>
      <use xlink:href="#ArialMT-53"/>
      <use x="66.699219" xlink:href="#ArialMT-65"/>
      <use x="122.314453" xlink:href="#ArialMT-71"/>
      <use x="177.929688" xlink:href="#ArialMT-75"/>
      <use x="233.544922" xlink:href="#ArialMT-65"/>
      <use x="289.160156" xlink:href="#ArialMT-6e"/>
      <use x="344.775391" xlink:href="#ArialMT-63"/>
      <use x="394.775391" xlink:href="#ArialMT-65"/>
      <use x="450.390625" xlink:href="#ArialMT-20"/>
      <use x="478.173828" xlink:href="#ArialMT-6c"/>
      <use x="500.390625" xlink:href="#ArialMT-65"/>
      <use x="556.005859" xlink:href="#ArialMT-6e"/>
      <use x="611.621094" xlink:href="#ArialMT-67"/>
      <use x="667.236328" xlink:href="#ArialMT-74"/>
      <use x="695.019531" xlink:href="#ArialMT-68"/>
     </g>
    </g>
   </g>
   <g id="matplotlib.axis_2">
    <g id="ytick_1">
     <g id="line2d_11"/>
     <g id="text_12">
      <!-- 0.0 -->
      <g style="fill:#666666;" transform="translate(22.174375 232.773104)scale(0.12 -0.12)">
       <defs>
        <path d="M 266 2259 
Q 266 3072 433 3567 
Q 600 4063 929 4331 
Q 1259 4600 1759 4600 
Q 2128 4600 2406 4451 
Q 2684 4303 2865 4023 
Q 3047 3744 3150 3342 
Q 3253 2941 3253 2259 
Q 3253 1453 3087 958 
Q 2922 463 2592 192 
Q 2263 -78 1759 -78 
Q 1097 -78 719 397 
Q 266 969 266 2259 
z
M 844 2259 
Q 844 1131 1108 757 
Q 1372 384 1759 384 
Q 2147 384 2411 759 
Q 2675 1134 2675 2259 
Q 2675 3391 2411 3762 
Q 2147 4134 1753 4134 
Q 1366 4134 1134 3806 
Q 844 3388 844 2259 
z
" id="ArialMT-30" transform="scale(0.015625)"/>
        <path d="M 581 0 
L 581 641 
L 1222 641 
L 1222 0 
L 581 0 
z
" id="ArialMT-2e" transform="scale(0.015625)"/>
       </defs>
       <use xlink:href="#ArialMT-30"/>
       <use x="55.615234" xlink:href="#ArialMT-2e"/>
       <use x="83.398438" xlink:href="#ArialMT-30"/>
      </g>
     </g>
    </g>
    <g id="ytick_2">
     <g id="line2d_12"/>
     <g id="text_13">
      <!-- 0.1 -->
      <g style="fill:#666666;" transform="translate(22.174375 201.914322)scale(0.12 -0.12)">
       <use xlink:href="#ArialMT-30"/>
       <use x="55.615234" xlink:href="#ArialMT-2e"/>
       <use x="83.398438" xlink:href="#ArialMT-31"/>
      </g>
     </g>
    </g>
    <g id="ytick_3">
     <g id="line2d_13"/>
     <g id="text_14">
      <!-- 0.2 -->
      <g style="fill:#666666;" transform="translate(22.174375 171.055539)scale(0.12 -0.12)">
       <use xlink:href="#ArialMT-30"/>
       <use x="55.615234" xlink:href="#ArialMT-2e"/>
       <use x="83.398438" xlink:href="#ArialMT-32"/>
      </g>
     </g>
    </g>
    <g id="ytick_4">
     <g id="line2d_14"/>
     <g id="text_15">
      <!-- 0.3 -->
      <g style="fill:#666666;" transform="translate(22.174375 140.196756)scale(0.12 -0.12)">
       <use xlink:href="#ArialMT-30"/>
       <use x="55.615234" xlink:href="#ArialMT-2e"/>
       <use x="83.398438" xlink:href="#ArialMT-33"/>
      </g>
     </g>
    </g>
    <g id="ytick_5">
     <g id="line2d_15"/>
     <g id="text_16">
      <!-- 0.4 -->
      <g style="fill:#666666;" transform="translate(22.174375 109.337974)scale(0.12 -0.12)">
       <use xlink:href="#ArialMT-30"/>
       <use x="55.615234" xlink:href="#ArialMT-2e"/>
       <use x="83.398438" xlink:href="#ArialMT-34"/>
      </g>
     </g>
    </g>
    <g id="ytick_6">
     <g id="line2d_16"/>
     <g id="text_17">
      <!-- 0.5 -->
      <g style="fill:#666666;" transform="translate(22.174375 78.479191)scale(0.12 -0.12)">
       <use xlink:href="#ArialMT-30"/>
       <use x="55.615234" xlink:href="#ArialMT-2e"/>
       <use x="83.398438" xlink:href="#ArialMT-35"/>
      </g>
     </g>
    </g>
    <g id="ytick_7">
     <g id="line2d_17"/>
     <g id="text_18">
      <!-- 0.6 -->
      <g style="fill:#666666;" transform="translate(22.174375 47.620408)scale(0.12 -0.12)">
       <use xlink:href="#ArialMT-30"/>
       <use x="55.615234" xlink:href="#ArialMT-2e"/>
       <use x="83.398438" xlink:href="#ArialMT-36"/>
      </g>
     </g>
    </g>
    <g id="ytick_8">
     <g id="line2d_18"/>
     <g id="text_19">
      <!-- 0.7 -->
      <g style="fill:#666666;" transform="translate(22.174375 16.761626)scale(0.12 -0.12)">
       <use xlink:href="#ArialMT-30"/>
       <use x="55.615234" xlink:href="#ArialMT-2e"/>
       <use x="83.398438" xlink:href="#ArialMT-37"/>
      </g>
     </g>
    </g>
    <g id="text_20">
     <!-- Values of transition metrics -->
     <g style="fill:#333333;" transform="translate(15.789375 203.522813)rotate(-90)scale(0.12 -0.12)">
      <defs>
       <path d="M 1803 0 
L 28 4581 
L 684 4581 
L 1875 1253 
Q 2019 853 2116 503 
Q 2222 878 2363 1253 
L 3600 4581 
L 4219 4581 
L 2425 0 
L 1803 0 
z
" id="ArialMT-56" transform="scale(0.015625)"/>
       <path d="M 2588 409 
Q 2275 144 1986 34 
Q 1697 -75 1366 -75 
Q 819 -75 525 192 
Q 231 459 231 875 
Q 231 1119 342 1320 
Q 453 1522 633 1644 
Q 813 1766 1038 1828 
Q 1203 1872 1538 1913 
Q 2219 1994 2541 2106 
Q 2544 2222 2544 2253 
Q 2544 2597 2384 2738 
Q 2169 2928 1744 2928 
Q 1347 2928 1158 2789 
Q 969 2650 878 2297 
L 328 2372 
Q 403 2725 575 2942 
Q 747 3159 1072 3276 
Q 1397 3394 1825 3394 
Q 2250 3394 2515 3294 
Q 2781 3194 2906 3042 
Q 3031 2891 3081 2659 
Q 3109 2516 3109 2141 
L 3109 1391 
Q 3109 606 3145 398 
Q 3181 191 3288 0 
L 2700 0 
Q 2613 175 2588 409 
z
M 2541 1666 
Q 2234 1541 1622 1453 
Q 1275 1403 1131 1340 
Q 988 1278 909 1158 
Q 831 1038 831 891 
Q 831 666 1001 516 
Q 1172 366 1500 366 
Q 1825 366 2078 508 
Q 2331 650 2450 897 
Q 2541 1088 2541 1459 
L 2541 1666 
z
" id="ArialMT-61" transform="scale(0.015625)"/>
       <path d="M 197 991 
L 753 1078 
Q 800 744 1014 566 
Q 1228 388 1613 388 
Q 2000 388 2187 545 
Q 2375 703 2375 916 
Q 2375 1106 2209 1216 
Q 2094 1291 1634 1406 
Q 1016 1563 777 1677 
Q 538 1791 414 1992 
Q 291 2194 291 2438 
Q 291 2659 392 2848 
Q 494 3038 669 3163 
Q 800 3259 1026 3326 
Q 1253 3394 1513 3394 
Q 1903 3394 2198 3281 
Q 2494 3169 2634 2976 
Q 2775 2784 2828 2463 
L 2278 2388 
Q 2241 2644 2061 2787 
Q 1881 2931 1553 2931 
Q 1166 2931 1000 2803 
Q 834 2675 834 2503 
Q 834 2394 903 2306 
Q 972 2216 1119 2156 
Q 1203 2125 1616 2013 
Q 2213 1853 2448 1751 
Q 2684 1650 2818 1456 
Q 2953 1263 2953 975 
Q 2953 694 2789 445 
Q 2625 197 2315 61 
Q 2006 -75 1616 -75 
Q 969 -75 630 194 
Q 291 463 197 991 
z
" id="ArialMT-73" transform="scale(0.015625)"/>
       <path d="M 213 1659 
Q 213 2581 725 3025 
Q 1153 3394 1769 3394 
Q 2453 3394 2887 2945 
Q 3322 2497 3322 1706 
Q 3322 1066 3130 698 
Q 2938 331 2570 128 
Q 2203 -75 1769 -75 
Q 1072 -75 642 372 
Q 213 819 213 1659 
z
M 791 1659 
Q 791 1022 1069 705 
Q 1347 388 1769 388 
Q 2188 388 2466 706 
Q 2744 1025 2744 1678 
Q 2744 2294 2464 2611 
Q 2184 2928 1769 2928 
Q 1347 2928 1069 2612 
Q 791 2297 791 1659 
z
" id="ArialMT-6f" transform="scale(0.015625)"/>
       <path d="M 556 0 
L 556 2881 
L 59 2881 
L 59 3319 
L 556 3319 
L 556 3672 
Q 556 4006 616 4169 
Q 697 4388 901 4523 
Q 1106 4659 1475 4659 
Q 1713 4659 2000 4603 
L 1916 4113 
Q 1741 4144 1584 4144 
Q 1328 4144 1222 4034 
Q 1116 3925 1116 3625 
L 1116 3319 
L 1763 3319 
L 1763 2881 
L 1116 2881 
L 1116 0 
L 556 0 
z
" id="ArialMT-66" transform="scale(0.015625)"/>
       <path d="M 416 0 
L 416 3319 
L 922 3319 
L 922 2816 
Q 1116 3169 1280 3281 
Q 1444 3394 1641 3394 
Q 1925 3394 2219 3213 
L 2025 2691 
Q 1819 2813 1613 2813 
Q 1428 2813 1281 2702 
Q 1134 2591 1072 2394 
Q 978 2094 978 1738 
L 978 0 
L 416 0 
z
" id="ArialMT-72" transform="scale(0.015625)"/>
       <path d="M 425 3934 
L 425 4581 
L 988 4581 
L 988 3934 
L 425 3934 
z
M 425 0 
L 425 3319 
L 988 3319 
L 988 0 
L 425 0 
z
" id="ArialMT-69" transform="scale(0.015625)"/>
       <path d="M 422 0 
L 422 3319 
L 925 3319 
L 925 2853 
Q 1081 3097 1340 3245 
Q 1600 3394 1931 3394 
Q 2300 3394 2536 3241 
Q 2772 3088 2869 2813 
Q 3263 3394 3894 3394 
Q 4388 3394 4653 3120 
Q 4919 2847 4919 2278 
L 4919 0 
L 4359 0 
L 4359 2091 
Q 4359 2428 4304 2576 
Q 4250 2725 4106 2815 
Q 3963 2906 3769 2906 
Q 3419 2906 3187 2673 
Q 2956 2441 2956 1928 
L 2956 0 
L 2394 0 
L 2394 2156 
Q 2394 2531 2256 2718 
Q 2119 2906 1806 2906 
Q 1569 2906 1367 2781 
Q 1166 2656 1075 2415 
Q 984 2175 984 1722 
L 984 0 
L 422 0 
z
" id="ArialMT-6d" transform="scale(0.015625)"/>
      </defs>
      <use xlink:href="#ArialMT-56"/>
      <use x="59.324219" xlink:href="#ArialMT-61"/>
      <use x="114.939453" xlink:href="#ArialMT-6c"/>
      <use x="137.15625" xlink:href="#ArialMT-75"/>
      <use x="192.771484" xlink:href="#ArialMT-65"/>
      <use x="248.386719" xlink:href="#ArialMT-73"/>
      <use x="298.386719" xlink:href="#ArialMT-20"/>
      <use x="326.169922" xlink:href="#ArialMT-6f"/>
      <use x="381.785156" xlink:href="#ArialMT-66"/>
      <use x="409.568359" xlink:href="#ArialMT-20"/>
      <use x="437.351562" xlink:href="#ArialMT-74"/>
      <use x="465.134766" xlink:href="#ArialMT-72"/>
      <use x="498.435547" xlink:href="#ArialMT-61"/>
      <use x="554.050781" xlink:href="#ArialMT-6e"/>
      <use x="609.666016" xlink:href="#ArialMT-73"/>
      <use x="659.666016" xlink:href="#ArialMT-69"/>
      <use x="681.882812" xlink:href="#ArialMT-74"/>
      <use x="709.666016" xlink:href="#ArialMT-69"/>
      <use x="731.882812" xlink:href="#ArialMT-6f"/>
      <use x="787.498047" xlink:href="#ArialMT-6e"/>
      <use x="843.113281" xlink:href="#ArialMT-20"/>
      <use x="870.896484" xlink:href="#ArialMT-6d"/>
      <use x="954.197266" xlink:href="#ArialMT-65"/>
      <use x="1009.8125" xlink:href="#ArialMT-74"/>
      <use x="1037.595703" xlink:href="#ArialMT-72"/>
      <use x="1070.896484" xlink:href="#ArialMT-69"/>
      <use x="1093.113281" xlink:href="#ArialMT-63"/>
      <use x="1143.113281" xlink:href="#ArialMT-73"/>
     </g>
    </g>
   </g>
   <g id="line2d_19">
    <path clip-path="url(#p79021f769d)" d="M 48.854375 125.333832 
L 52.378586 144.387322 
L 55.902796 156.999995 
L 59.427007 166.404211 
L 62.951217 176.204918 
L 66.475428 183.83645 
L 69.999638 186.935421 
L 73.523849 194.602354 
L 77.048059 195.360493 
L 80.57227 199.53582 
L 84.09648 201.994384 
L 87.620691 205.06203 
L 91.144901 205.238889 
L 94.669112 207.923004 
L 98.193322 207.853475 
L 101.717533 209.818709 
L 105.241743 209.543522 
L 108.765954 211.737529 
L 112.290164 213.44714 
L 115.814375 213.575707 
L 119.338586 214.304785 
L 122.862796 214.410064 
L 126.387007 214.533874 
L 129.911217 216.272608 
L 133.435428 216.242156 
L 136.959638 216.436583 
L 140.483849 217.328162 
L 144.008059 218.58876 
L 147.53227 218.110476 
L 151.05648 216.848902 
L 154.580691 218.529484 
L 158.104901 217.750565 
L 161.629112 218.743619 
L 165.153322 219.135685 
L 168.677533 219.930665 
L 172.201743 219.116327 
L 175.725954 220.452159 
L 179.250164 220.555423 
L 182.774375 220.915182 
L 186.298586 220.998062 
L 189.822796 221.322838 
L 193.347007 221.817009 
L 196.871217 220.617485 
L 200.395428 220.974983 
L 203.919638 221.797286 
L 207.443849 221.608961 
L 210.968059 221.440811 
L 214.49227 222.172979 
L 218.01648 222.698671 
L 221.540691 221.585523 
L 225.064901 222.544405 
L 228.589112 222.453908 
L 232.113322 223.131268 
L 235.637533 222.647879 
L 239.161743 222.63021 
L 242.685954 222.50077 
L 246.210164 223.311525 
L 249.734375 224.157308 
L 253.258586 222.80895 
L 256.782796 223.641847 
L 260.307007 223.578825 
L 263.831217 223.863546 
L 267.355428 223.244474 
L 270.879638 223.212623 
L 274.403849 224.26637 
L 277.928059 223.67494 
L 281.45227 224.002776 
L 284.97648 223.514612 
L 288.500691 224.449717 
L 292.024901 224.074047 
L 295.549112 224.499202 
L 299.073322 224.297127 
L 302.597533 224.155613 
L 306.121743 224.998663 
L 309.645954 225.077323 
L 313.170164 224.09552 
L 316.694375 223.926003 
L 320.218586 224.347029 
L 323.742796 224.574899 
L 327.267007 224.168306 
L 330.791217 224.780646 
L 334.315428 224.542769 
L 337.839638 225.165351 
L 341.363849 224.998333 
L 344.888059 224.928058 
L 348.41227 225.201647 
L 351.93648 224.821285 
L 355.460691 224.495345 
L 358.984901 224.655589 
L 362.509112 225.215209 
L 366.033322 224.67422 
L 369.557533 225.217354 
L 373.081743 224.994007 
L 376.605954 225.259805 
L 380.130164 224.626139 
L 383.654375 225.821217 
" style="fill:none;stroke:#7fc97f;stroke-linecap:square;stroke-width:1.5;"/>
   </g>
   <g id="line2d_20">
    <path clip-path="url(#p79021f769d)" d="M 48.854375 59.54259 
L 52.378586 86.864636 
L 55.902796 100.191656 
L 59.427007 107.726346 
L 62.951217 117.82742 
L 66.475428 127.367608 
L 69.999638 127.002107 
L 73.523849 138.202979 
L 77.048059 133.2072 
L 80.57227 141.440355 
L 84.09648 145.781442 
L 87.620691 152.623652 
L 91.144901 149.453558 
L 94.669112 155.544932 
L 98.193322 155.221731 
L 101.717533 156.196997 
L 105.241743 153.61677 
L 108.765954 159.927307 
L 112.290164 164.542835 
L 115.814375 164.715888 
L 119.338586 166.704175 
L 122.862796 163.452512 
L 126.387007 164.738194 
L 129.911217 171.698175 
L 133.435428 169.210697 
L 136.959638 168.597629 
L 140.483849 172.067703 
L 144.008059 178.768193 
L 147.53227 173.787233 
L 151.05648 168.324381 
L 154.580691 173.831854 
L 158.104901 168.96942 
L 161.629112 174.382967 
L 165.153322 176.113535 
L 168.677533 178.628375 
L 172.201743 174.61426 
L 175.725954 180.314644 
L 179.250164 181.411946 
L 182.774375 181.874236 
L 186.298586 183.050139 
L 189.822796 183.648916 
L 193.347007 185.912656 
L 196.871217 178.606627 
L 200.395428 180.451669 
L 203.919638 185.153808 
L 207.443849 183.542179 
L 210.968059 181.535337 
L 214.49227 186.59522 
L 218.01648 188.729443 
L 221.540691 181.199548 
L 225.064901 186.884663 
L 228.589112 185.853352 
L 232.113322 190.320003 
L 235.637533 186.192483 
L 239.161743 186.740099 
L 242.685954 184.816096 
L 246.210164 190.17285 
L 249.734375 195.824756 
L 253.258586 185.283689 
L 256.782796 192.162778 
L 260.307007 191.879887 
L 263.831217 192.79581 
L 267.355428 188.648279 
L 270.879638 187.161813 
L 274.403849 195.133647 
L 277.928059 190.498442 
L 281.45227 192.406252 
L 284.97648 188.401337 
L 288.500691 195.76858 
L 292.024901 191.90455 
L 295.549112 195.723168 
L 299.073322 193.37415 
L 302.597533 191.937628 
L 306.121743 198.689981 
L 309.645954 199.70249 
L 313.170164 190.694786 
L 316.694375 189.898424 
L 320.218586 193.216639 
L 323.742796 194.84432 
L 327.267007 191.449667 
L 330.791217 195.770649 
L 334.315428 193.630061 
L 337.839638 198.867856 
L 341.363849 196.849907 
L 344.888059 196.071926 
L 348.41227 199.292721 
L 351.93648 194.599406 
L 355.460691 191.72498 
L 358.984901 192.813007 
L 362.509112 198.05468 
L 366.033322 192.327168 
L 369.557533 198.181749 
L 373.081743 195.271544 
L 376.605954 197.465123 
L 380.130164 192.403313 
L 383.654375 202.517125 
" style="fill:none;stroke:#beaed4;stroke-linecap:square;stroke-width:1.5;"/>
   </g>
   <g id="line2d_21">
    <path clip-path="url(#p79021f769d)" d="M 55.902796 217.912912 
L 59.427007 221.844678 
L 62.951217 224.431289 
L 66.475428 226.985796 
L 69.999638 196.891093 
L 73.523849 187.813556 
L 77.048059 179.812208 
L 80.57227 178.710314 
L 84.09648 174.838688 
L 87.620691 174.019471 
L 91.144901 172.797751 
L 94.669112 169.136823 
L 98.193322 176.81014 
L 101.717533 172.113363 
L 105.241743 171.730306 
L 108.765954 175.266512 
L 112.290164 176.880456 
L 115.814375 174.872284 
L 119.338586 175.075975 
L 122.862796 174.312118 
L 126.387007 176.044105 
L 129.911217 175.737322 
L 133.435428 174.338157 
L 136.959638 172.91304 
L 140.483849 175.836573 
L 144.008059 182.774161 
L 147.53227 178.489644 
L 151.05648 179.723183 
L 154.580691 184.000508 
L 158.104901 173.529152 
L 161.629112 181.137065 
L 165.153322 177.371141 
L 168.677533 190.84452 
L 172.201743 180.830565 
L 175.725954 186.953187 
L 179.250164 184.43869 
L 182.774375 180.633305 
L 186.298586 184.458626 
L 189.822796 180.928089 
L 193.347007 184.926426 
L 196.871217 186.542583 
L 200.395428 179.650003 
L 203.919638 182.594503 
L 207.443849 188.815722 
L 210.968059 185.521726 
L 214.49227 182.138628 
L 218.01648 188.539653 
L 221.540691 185.638066 
L 225.064901 183.944621 
L 228.589112 191.0467 
L 232.113322 186.17451 
L 235.637533 187.162505 
L 239.161743 185.93398 
L 242.685954 189.461834 
L 246.210164 188.474483 
L 249.734375 191.475124 
L 253.258586 186.832208 
L 256.782796 189.329458 
L 260.307007 188.92687 
L 263.831217 188.545683 
L 267.355428 189.453786 
L 270.879638 194.027799 
L 274.403849 192.847125 
L 277.928059 191.518814 
L 281.45227 188.142244 
L 284.97648 195.514899 
L 288.500691 187.494788 
L 292.024901 193.357109 
L 295.549112 196.316186 
L 299.073322 193.536122 
L 302.597533 195.462089 
L 306.121743 196.97697 
L 309.645954 193.732241 
L 313.170164 196.572072 
L 316.694375 193.259525 
L 320.218586 198.474678 
L 323.742796 198.214004 
L 327.267007 195.645015 
L 330.791217 196.669569 
L 334.315428 195.733925 
L 337.839638 193.303699 
L 341.363849 194.953738 
L 344.888059 197.062729 
L 348.41227 194.032024 
L 351.93648 195.532347 
L 355.460691 198.461576 
L 358.984901 196.381488 
L 362.509112 195.053357 
L 366.033322 195.282608 
L 369.557533 196.674177 
L 373.081743 196.412497 
L 376.605954 195.877432 
L 380.130164 195.799637 
L 383.654375 191.146569 
" style="fill:none;stroke:#386cb0;stroke-linecap:square;stroke-width:1.5;"/>
   </g>
   <g id="line2d_22">
    <path clip-path="url(#p79021f769d)" d="M 48.854375 38.058783 
L 52.378586 45.216315 
L 55.902796 49.193888 
L 59.427007 51.523229 
L 62.951217 54.618224 
L 66.475428 56.580347 
L 69.999638 56.888111 
L 73.523849 60.20751 
L 77.048059 60.315777 
L 80.57227 61.616396 
L 84.09648 62.884472 
L 87.620691 64.380595 
L 91.144901 63.428937 
L 94.669112 65.280118 
L 98.193322 64.774695 
L 101.717533 64.932284 
L 105.241743 65.564314 
L 108.765954 66.302047 
L 112.290164 67.083676 
L 115.814375 67.013972 
L 119.338586 66.980451 
L 122.862796 67.413737 
L 126.387007 67.568841 
L 129.911217 68.671693 
L 133.435428 68.346185 
L 136.959638 68.568922 
L 140.483849 68.976759 
L 144.008059 69.230169 
L 147.53227 69.119007 
L 151.05648 68.424844 
L 154.580691 69.111782 
L 158.104901 69.033723 
L 161.629112 69.649887 
L 165.153322 69.81819 
L 168.677533 70.06598 
L 172.201743 69.446574 
L 175.725954 70.207569 
L 179.250164 70.478808 
L 182.774375 70.38783 
L 186.298586 70.476897 
L 189.822796 70.696383 
L 193.347007 70.849975 
L 196.871217 70.405191 
L 200.395428 70.621779 
L 203.919638 70.875617 
L 207.443849 70.831261 
L 210.968059 70.559491 
L 214.49227 70.954276 
L 218.01648 71.257748 
L 221.540691 70.915234 
L 225.064901 71.219644 
L 228.589112 71.042191 
L 232.113322 71.590694 
L 235.637533 71.290332 
L 239.161743 71.136694 
L 242.685954 70.980721 
L 246.210164 71.496471 
L 249.734375 71.8829 
L 253.258586 71.337357 
L 256.782796 71.860111 
L 260.307007 71.684202 
L 263.831217 71.592457 
L 267.355428 71.624358 
L 270.879638 71.619142 
L 274.403849 72.158086 
L 277.928059 71.804454 
L 281.45227 71.905398 
L 284.97648 71.521103 
L 288.500691 72.166829 
L 292.024901 71.798611 
L 295.549112 71.938217 
L 299.073322 71.92667 
L 302.597533 72.000883 
L 306.121743 72.124093 
L 309.645954 72.407657 
L 313.170164 71.937854 
L 316.694375 71.982107 
L 320.218586 72.22009 
L 323.742796 72.006301 
L 327.267007 72.089183 
L 330.791217 72.293978 
L 334.315428 72.146638 
L 337.839638 72.381122 
L 341.363849 72.189554 
L 344.888059 72.407205 
L 348.41227 72.621804 
L 351.93648 72.367247 
L 355.460691 72.181024 
L 358.984901 72.196434 
L 362.509112 72.540768 
L 366.033322 72.313341 
L 369.557533 72.407048 
L 373.081743 72.461935 
L 376.605954 72.491699 
L 380.130164 72.121804 
L 383.654375 72.707707 
" style="fill:none;stroke:#bf5b17;stroke-linecap:square;stroke-width:1.5;"/>
   </g>
   <g id="line2d_23">
    <path clip-path="url(#p79021f769d)" d="M 48.854375 60.966885 
L 52.378586 83.585681 
L 55.902796 101.924373 
L 59.427007 118.251436 
L 62.951217 132.604133 
L 66.475428 146.748004 
L 69.999638 151.970091 
L 73.523849 164.129268 
L 77.048059 166.023842 
L 80.57227 174.011474 
L 84.09648 179.019695 
L 87.620691 184.489269 
L 91.144901 185.716302 
L 94.669112 189.99387 
L 98.193322 191.595462 
L 101.717533 193.400832 
L 105.241743 193.063638 
L 108.765954 197.217177 
L 112.290164 200.101533 
L 115.814375 200.674389 
L 119.338586 202.285794 
L 122.862796 201.710677 
L 126.387007 202.755876 
L 129.911217 205.884453 
L 133.435428 205.548198 
L 136.959638 205.789177 
L 140.483849 207.600649 
L 144.008059 210.086391 
L 147.53227 208.69482 
L 151.05648 207.222228 
L 154.580691 209.444504 
L 158.104901 208.15789 
L 161.629112 210.244206 
L 165.153322 211.062989 
L 168.677533 212.194518 
L 172.201743 211.059832 
L 175.725954 213.027631 
L 179.250164 213.562298 
L 182.774375 213.948254 
L 186.298586 214.318653 
L 189.822796 214.916103 
L 193.347007 215.708095 
L 196.871217 213.779682 
L 200.395428 214.444928 
L 203.919638 215.800375 
L 207.443849 215.439148 
L 210.968059 215.135351 
L 214.49227 216.608435 
L 218.01648 217.295587 
L 221.540691 215.467208 
L 225.064901 217.084327 
L 228.589112 216.914573 
L 232.113322 218.217798 
L 235.637533 217.183631 
L 239.161743 217.448618 
L 242.685954 217.066012 
L 246.210164 218.473291 
L 249.734375 220.020083 
L 253.258586 217.502767 
L 256.782796 219.269197 
L 260.307007 219.272492 
L 263.831217 219.534056 
L 267.355428 218.625641 
L 270.879638 218.385583 
L 274.403849 220.330617 
L 277.928059 219.262825 
L 281.45227 219.827766 
L 284.97648 218.947344 
L 288.500691 220.742399 
L 292.024901 219.928379 
L 295.549112 220.826017 
L 299.073322 220.302798 
L 302.597533 220.05486 
L 306.121743 221.667507 
L 309.645954 221.92356 
L 313.170164 219.932411 
L 316.694375 219.829629 
L 320.218586 220.650142 
L 323.742796 221.030846 
L 327.267007 220.314316 
L 330.791217 221.319183 
L 334.315428 220.917655 
L 337.839638 222.047532 
L 341.363849 221.649645 
L 344.888059 221.546198 
L 348.41227 222.253009 
L 351.93648 221.317818 
L 355.460691 220.778461 
L 358.984901 221.070962 
L 362.509112 222.151103 
L 366.033322 221.058239 
L 369.557533 222.256983 
L 373.081743 221.70711 
L 376.605954 222.164881 
L 380.130164 221.178786 
L 383.654375 223.234739 
" style="fill:none;stroke:#fdc086;stroke-linecap:square;stroke-width:1.5;"/>
   </g>
   <g id="line2d_24">
    <path clip-path="url(#p79021f769d)" d="M 48.854375 228.478417 
L 52.378586 228.478417 
L 55.902796 228.478417 
L 59.427007 228.478417 
L 62.951217 228.478417 
L 66.475428 228.478417 
L 69.999638 228.478417 
L 73.523849 228.478417 
L 77.048059 228.478417 
L 80.57227 228.478417 
L 84.09648 228.478417 
L 87.620691 228.478417 
L 91.144901 228.478417 
L 94.669112 228.478417 
L 98.193322 228.478417 
L 101.717533 228.478417 
L 105.241743 228.478417 
L 108.765954 228.478417 
L 112.290164 228.478417 
L 115.814375 228.478417 
L 119.338586 228.478417 
L 122.862796 228.478417 
L 126.387007 228.478417 
L 129.911217 228.478417 
L 133.435428 228.478417 
L 136.959638 228.478417 
L 140.483849 228.478417 
L 144.008059 228.478417 
L 147.53227 228.478417 
L 151.05648 228.478417 
L 154.580691 228.478417 
L 158.104901 228.478417 
L 161.629112 228.478417 
L 165.153322 228.478417 
L 168.677533 228.478417 
L 172.201743 228.478417 
L 175.725954 228.478417 
L 179.250164 228.478417 
L 182.774375 228.478417 
L 186.298586 228.478417 
L 189.822796 228.478417 
L 193.347007 228.478417 
L 196.871217 228.478417 
L 200.395428 228.478417 
L 203.919638 228.478417 
L 207.443849 228.478417 
L 210.968059 228.478417 
L 214.49227 228.478417 
L 218.01648 228.478417 
L 221.540691 228.478417 
L 225.064901 228.478417 
L 228.589112 228.478417 
L 232.113322 228.478417 
L 235.637533 228.478417 
L 239.161743 228.478417 
L 242.685954 228.478417 
L 246.210164 228.478417 
L 249.734375 228.478417 
L 253.258586 228.478417 
L 256.782796 228.478417 
L 260.307007 228.478417 
L 263.831217 228.478417 
L 267.355428 228.478417 
L 270.879638 228.478417 
L 274.403849 228.478417 
L 277.928059 228.478417 
L 281.45227 228.478417 
L 284.97648 228.478417 
L 288.500691 228.478417 
L 292.024901 228.478417 
L 295.549112 228.478417 
L 299.073322 228.478417 
L 302.597533 228.478417 
L 306.121743 228.478417 
L 309.645954 228.478417 
L 313.170164 228.478417 
L 316.694375 228.478417 
L 320.218586 228.478417 
L 323.742796 228.478417 
L 327.267007 228.478417 
L 330.791217 228.478417 
L 334.315428 228.478417 
L 337.839638 228.478417 
L 341.363849 228.478417 
L 344.888059 228.478417 
L 348.41227 228.478417 
L 351.93648 228.478417 
L 355.460691 228.478417 
L 358.984901 228.478417 
L 362.509112 228.478417 
L 366.033322 228.478417 
L 369.557533 228.478417 
L 373.081743 228.478417 
L 376.605954 228.478417 
L 380.130164 228.478417 
L 383.654375 228.478417 
" style="fill:none;stroke:#000000;stroke-dasharray:5.55,2.4;stroke-dashoffset:0;stroke-opacity:0.4;stroke-width:1.5;"/>
   </g>
   <g id="patch_3">
    <path d="M 48.854375 256.68 
L 48.854375 7.2 
" style="fill:none;stroke:#cccccc;stroke-linecap:square;stroke-linejoin:miter;stroke-width:0.75;"/>
   </g>
   <g id="patch_4">
    <path d="M 48.854375 256.68 
L 383.654375 256.68 
" style="fill:none;stroke:#cccccc;stroke-linecap:square;stroke-linejoin:miter;stroke-width:0.75;"/>
   </g>
   <g id="legend_1">
    <g id="patch_5">
     <path d="M 301.10375 101.671875 
L 377.654375 101.671875 
L 377.654375 13.2 
L 301.10375 13.2 
z
" style="fill:#ffffff;opacity:0.6;"/>
    </g>
    <g id="line2d_25">
     <path d="M 305.90375 22.389375 
L 329.90375 22.389375 
" style="fill:none;stroke:#7fc97f;stroke-linecap:square;stroke-width:1.5;"/>
    </g>
    <g id="line2d_26"/>
    <g id="text_21">
     <!-- L -->
     <g style="fill:#333333;" transform="translate(339.50375 26.589375)scale(0.12 -0.12)">
      <defs>
       <path d="M 469 0 
L 469 4581 
L 1075 4581 
L 1075 541 
L 3331 541 
L 3331 0 
L 469 0 
z
" id="ArialMT-4c" transform="scale(0.015625)"/>
      </defs>
      <use xlink:href="#ArialMT-4c"/>
     </g>
    </g>
    <g id="line2d_27">
     <path d="M 305.90375 39.36375 
L 329.90375 39.36375 
" style="fill:none;stroke:#beaed4;stroke-linecap:square;stroke-width:1.5;"/>
    </g>
    <g id="line2d_28"/>
    <g id="text_22">
     <!-- LSA -->
     <g style="fill:#333333;" transform="translate(339.50375 43.56375)scale(0.12 -0.12)">
      <defs>
       <path d="M -9 0 
L 1750 4581 
L 2403 4581 
L 4278 0 
L 3588 0 
L 3053 1388 
L 1138 1388 
L 634 0 
L -9 0 
z
M 1313 1881 
L 2866 1881 
L 2388 3150 
Q 2169 3728 2063 4100 
Q 1975 3659 1816 3225 
L 1313 1881 
z
" id="ArialMT-41" transform="scale(0.015625)"/>
      </defs>
      <use xlink:href="#ArialMT-4c"/>
      <use x="55.615234" xlink:href="#ArialMT-53"/>
      <use x="122.314453" xlink:href="#ArialMT-41"/>
     </g>
    </g>
    <g id="line2d_29">
     <path d="M 305.90375 56.338125 
L 329.90375 56.338125 
" style="fill:none;stroke:#386cb0;stroke-linecap:square;stroke-width:1.5;"/>
    </g>
    <g id="line2d_30"/>
    <g id="text_23">
     <!-- LSA-5 -->
     <g style="fill:#333333;" transform="translate(339.50375 60.538125)scale(0.12 -0.12)">
      <defs>
       <path d="M 203 1375 
L 203 1941 
L 1931 1941 
L 1931 1375 
L 203 1375 
z
" id="ArialMT-2d" transform="scale(0.015625)"/>
      </defs>
      <use xlink:href="#ArialMT-4c"/>
      <use x="55.615234" xlink:href="#ArialMT-53"/>
      <use x="122.314453" xlink:href="#ArialMT-41"/>
      <use x="189.013672" xlink:href="#ArialMT-2d"/>
      <use x="222.314453" xlink:href="#ArialMT-35"/>
     </g>
    </g>
    <g id="line2d_31">
     <path d="M 305.90375 73.3125 
L 329.90375 73.3125 
" style="fill:none;stroke:#bf5b17;stroke-linecap:square;stroke-width:1.5;"/>
    </g>
    <g id="line2d_32"/>
    <g id="text_24">
     <!-- MCM -->
     <g style="fill:#333333;" transform="translate(339.50375 77.5125)scale(0.12 -0.12)">
      <defs>
       <path d="M 475 0 
L 475 4581 
L 1388 4581 
L 2472 1338 
Q 2622 884 2691 659 
Q 2769 909 2934 1394 
L 4031 4581 
L 4847 4581 
L 4847 0 
L 4263 0 
L 4263 3834 
L 2931 0 
L 2384 0 
L 1059 3900 
L 1059 0 
L 475 0 
z
" id="ArialMT-4d" transform="scale(0.015625)"/>
       <path d="M 3763 1606 
L 4369 1453 
Q 4178 706 3683 314 
Q 3188 -78 2472 -78 
Q 1731 -78 1267 223 
Q 803 525 561 1097 
Q 319 1669 319 2325 
Q 319 3041 592 3573 
Q 866 4106 1370 4382 
Q 1875 4659 2481 4659 
Q 3169 4659 3637 4309 
Q 4106 3959 4291 3325 
L 3694 3184 
Q 3534 3684 3231 3912 
Q 2928 4141 2469 4141 
Q 1941 4141 1586 3887 
Q 1231 3634 1087 3207 
Q 944 2781 944 2328 
Q 944 1744 1114 1308 
Q 1284 872 1643 656 
Q 2003 441 2422 441 
Q 2931 441 3284 734 
Q 3638 1028 3763 1606 
z
" id="ArialMT-43" transform="scale(0.015625)"/>
      </defs>
      <use xlink:href="#ArialMT-4d"/>
      <use x="83.300781" xlink:href="#ArialMT-43"/>
      <use x="155.517578" xlink:href="#ArialMT-4d"/>
     </g>
    </g>
    <g id="line2d_33">
     <path d="M 305.90375 90.286875 
L 329.90375 90.286875 
" style="fill:none;stroke:#fdc086;stroke-linecap:square;stroke-width:1.5;"/>
    </g>
    <g id="line2d_34"/>
    <g id="text_25">
     <!-- Q -->
     <g style="fill:#333333;" transform="translate(339.50375 94.486875)scale(0.12 -0.12)">
      <defs>
       <path d="M 3966 491 
Q 4388 200 4744 66 
L 4566 -356 
Q 4072 -178 3581 206 
Q 3072 -78 2456 -78 
Q 1834 -78 1328 222 
Q 822 522 548 1065 
Q 275 1609 275 2291 
Q 275 2969 550 3525 
Q 825 4081 1333 4372 
Q 1841 4663 2469 4663 
Q 3103 4663 3612 4361 
Q 4122 4059 4389 3517 
Q 4656 2975 4656 2294 
Q 4656 1728 4484 1276 
Q 4313 825 3966 491 
z
M 2631 1266 
Q 3156 1119 3497 828 
Q 4031 1316 4031 2294 
Q 4031 2850 3842 3265 
Q 3653 3681 3289 3911 
Q 2925 4141 2472 4141 
Q 1794 4141 1347 3677 
Q 900 3213 900 2291 
Q 900 1397 1342 919 
Q 1784 441 2472 441 
Q 2797 441 3084 563 
Q 2800 747 2484 825 
L 2631 1266 
z
" id="ArialMT-51" transform="scale(0.015625)"/>
      </defs>
      <use xlink:href="#ArialMT-51"/>
     </g>
    </g>
   </g>
  </g>
 </g>
 <defs>
  <clipPath id="p79021f769d">
   <rect height="249.48" width="334.8" x="48.854375" y="7.2"/>
  </clipPath>
 </defs>
</svg>
