<?xml version="1.0" encoding="utf-8" standalone="no"?>
<!DOCTYPE svg PUBLIC "-//W3C//DTD SVG 1.1//EN"
  "http://www.w3.org/Graphics/SVG/1.1/DTD/svg11.dtd">
<!-- Created with matplotlib (http://matplotlib.org/) -->
<svg height="302pt" version="1.1" viewBox="0 0 399 302" width="399pt" xmlns="http://www.w3.org/2000/svg" xmlns:xlink="http://www.w3.org/1999/xlink">
 <defs>
  <style type="text/css">
*{stroke-linecap:butt;stroke-linejoin:round;}
  </style>
 </defs>
 <g id="figure_1">
  <g id="patch_1">
   <path d="M -0 302.115625 
L 399.863125 302.115625 
L 399.863125 0 
L -0 0 
z
" style="fill:#ffffff;"/>
  </g>
  <g id="axes_1">
   <g id="patch_2">
    <path d="M 55.863125 258.68 
L 390.663125 258.68 
L 390.663125 9.2 
L 55.863125 9.2 
z
" style="fill:#ffffff;"/>
   </g>
   <g id="PolyCollection_1">
    <defs>
     <path d="M 55.863125 -161.572356 
L 55.863125 -154.931216 
L 59.387336 -145.357061 
L 62.911546 -140.47551 
L 66.435757 -136.556009 
L 69.959967 -134.110741 
L 73.484178 -133.22295 
L 77.008388 -132.350698 
L 80.532599 -131.24089 
L 84.056809 -131.377669 
L 87.58102 -129.076846 
L 91.10523 -128.609282 
L 94.629441 -128.979701 
L 98.153651 -128.724337 
L 101.677862 -127.751105 
L 105.202072 -127.548209 
L 108.726283 -127.53071 
L 112.250493 -127.160775 
L 115.774704 -126.666429 
L 119.298914 -127.294876 
L 122.823125 -126.963724 
L 126.347336 -126.927903 
L 129.871546 -126.71129 
L 133.395757 -126.145421 
L 136.919967 -126.144549 
L 140.444178 -126.218686 
L 143.968388 -125.833195 
L 147.492599 -125.663417 
L 151.016809 -125.59199 
L 154.54102 -125.28259 
L 158.06523 -125.388982 
L 161.589441 -125.649418 
L 165.113651 -125.344394 
L 168.637862 -125.730259 
L 172.162072 -125.468124 
L 175.686283 -124.993164 
L 179.210493 -125.022584 
L 182.734704 -125.25875 
L 186.258914 -124.887074 
L 189.783125 -124.631753 
L 193.307336 -124.782625 
L 196.831546 -124.679597 
L 200.355757 -124.563032 
L 203.879967 -124.82087 
L 207.404178 -124.916024 
L 210.928388 -124.277624 
L 214.452599 -124.288325 
L 217.976809 -124.404202 
L 221.50102 -124.597654 
L 225.02523 -125.390023 
L 228.549441 -124.395329 
L 232.073651 -124.586571 
L 235.597862 -124.156149 
L 239.122072 -124.198559 
L 242.646283 -124.524738 
L 246.170493 -124.053484 
L 249.694704 -124.368007 
L 253.218914 -123.878637 
L 256.743125 -124.249835 
L 260.267336 -123.857372 
L 263.791546 -124.017225 
L 267.315757 -123.593528 
L 270.839967 -123.828718 
L 274.364178 -123.91861 
L 277.888388 -123.999338 
L 281.412599 -124.20223 
L 284.936809 -124.250167 
L 288.46102 -123.90953 
L 291.98523 -123.802011 
L 295.509441 -124.057401 
L 299.033651 -123.768872 
L 302.557862 -123.814703 
L 306.082072 -123.574924 
L 309.606283 -124.102997 
L 313.130493 -124.035149 
L 316.654704 -124.335383 
L 320.178914 -124.006654 
L 323.703125 -123.649114 
L 327.227336 -124.099604 
L 330.751546 -123.609494 
L 334.275757 -123.758914 
L 337.799967 -124.007902 
L 341.324178 -123.892619 
L 344.848388 -123.736527 
L 348.372599 -123.335391 
L 351.896809 -123.507661 
L 355.42102 -123.72815 
L 358.94523 -123.949922 
L 362.469441 -123.589437 
L 365.993651 -123.748603 
L 369.517862 -123.625875 
L 373.042072 -123.490103 
L 376.566283 -123.783534 
L 380.090493 -123.929437 
L 383.614704 -123.544923 
L 387.138914 -123.389869 
L 390.663125 -123.462894 
L 390.663125 -124.827314 
L 390.663125 -124.827314 
L 387.138914 -124.751902 
L 383.614704 -124.906193 
L 380.090493 -125.306013 
L 376.566283 -125.178811 
L 373.042072 -124.884364 
L 369.517862 -125.031396 
L 365.993651 -125.155341 
L 362.469441 -125.026493 
L 358.94523 -125.365966 
L 355.42102 -125.161507 
L 351.896809 -124.954103 
L 348.372599 -124.78837 
L 344.848388 -125.196469 
L 341.324178 -125.343253 
L 337.799967 -125.482381 
L 334.275757 -125.230432 
L 330.751546 -125.108445 
L 327.227336 -125.611836 
L 323.703125 -125.148193 
L 320.178914 -125.538847 
L 316.654704 -125.864205 
L 313.130493 -125.571948 
L 309.606283 -125.636826 
L 306.082072 -125.133413 
L 302.557862 -125.389015 
L 299.033651 -125.351832 
L 295.509441 -125.684272 
L 291.98523 -125.395927 
L 288.46102 -125.512373 
L 284.936809 -125.884425 
L 281.412599 -125.832747 
L 277.888388 -125.633077 
L 274.364178 -125.582879 
L 270.839967 -125.511778 
L 267.315757 -125.256075 
L 263.791546 -125.726205 
L 260.267336 -125.568263 
L 256.743125 -125.969195 
L 253.218914 -125.596664 
L 249.694704 -126.117129 
L 246.170493 -125.803792 
L 242.646283 -126.297286 
L 239.122072 -126.003627 
L 235.597862 -125.964959 
L 232.073651 -126.419834 
L 228.549441 -126.226502 
L 225.02523 -127.240223 
L 221.50102 -126.480421 
L 217.976809 -126.300183 
L 214.452599 -126.202094 
L 210.928388 -126.198509 
L 207.404178 -126.856634 
L 203.879967 -126.80024 
L 200.355757 -126.556255 
L 196.831546 -126.677618 
L 193.307336 -126.812344 
L 189.783125 -126.700233 
L 186.258914 -126.95515 
L 182.734704 -127.388975 
L 179.210493 -127.155924 
L 175.686283 -127.140618 
L 172.162072 -127.640599 
L 168.637862 -127.927431 
L 165.113651 -127.605253 
L 161.589441 -127.921557 
L 158.06523 -127.693034 
L 154.54102 -127.627216 
L 151.016809 -127.947774 
L 147.492599 -128.097008 
L 143.968388 -128.280455 
L 140.444178 -128.720132 
L 136.919967 -128.707867 
L 133.395757 -128.723051 
L 129.871546 -129.343657 
L 126.347336 -129.61323 
L 122.823125 -129.710608 
L 119.298914 -130.10596 
L 115.774704 -129.534355 
L 112.250493 -130.059814 
L 108.726283 -130.500203 
L 105.202072 -130.61426 
L 101.677862 -130.902532 
L 98.153651 -131.959275 
L 94.629441 -132.302152 
L 91.10523 -132.025496 
L 87.58102 -132.669189 
L 84.056809 -135.133592 
L 80.532599 -135.14586 
L 77.008388 -136.429881 
L 73.484178 -137.514638 
L 69.959967 -138.714157 
L 66.435757 -141.443048 
L 62.911546 -145.748436 
L 59.387336 -151.260462 
L 55.863125 -161.572356 
z
" id="m95276643bb"/>
    </defs>
    <g clip-path="url(#p81f565262e)">
     <use style="fill:#7fc97f;fill-opacity:0.1;" x="0" xlink:href="#m95276643bb" y="302.115625"/>
    </g>
   </g>
   <g id="PolyCollection_2">
    <defs>
     <path d="M 55.863125 -177.92119 
L 55.863125 -169.142122 
L 59.387336 -154.224888 
L 62.911546 -148.396037 
L 66.435757 -142.120445 
L 69.959967 -139.196142 
L 73.484178 -136.812035 
L 77.008388 -135.642827 
L 80.532599 -134.2907 
L 84.056809 -133.268645 
L 87.58102 -130.691089 
L 91.10523 -130.367839 
L 94.629441 -130.692825 
L 98.153651 -129.983054 
L 101.677862 -129.286361 
L 105.202072 -128.533099 
L 108.726283 -128.698772 
L 112.250493 -127.772809 
L 115.774704 -127.459014 
L 119.298914 -128.870013 
L 122.823125 -127.990742 
L 126.347336 -127.315952 
L 129.871546 -127.391914 
L 133.395757 -127.156266 
L 136.919967 -127.060021 
L 140.444178 -127.00385 
L 143.968388 -125.972328 
L 147.492599 -125.744371 
L 151.016809 -125.776713 
L 154.54102 -125.701794 
L 158.06523 -125.801612 
L 161.589441 -125.994773 
L 165.113651 -126.046672 
L 168.637862 -126.085881 
L 172.162072 -125.906512 
L 175.686283 -125.37694 
L 179.210493 -125.407634 
L 182.734704 -125.311278 
L 186.258914 -125.048304 
L 189.783125 -124.726727 
L 193.307336 -124.930493 
L 196.831546 -124.620169 
L 200.355757 -124.626281 
L 203.879967 -125.031469 
L 207.404178 -125.304024 
L 210.928388 -124.489352 
L 214.452599 -124.547064 
L 217.976809 -124.683741 
L 221.50102 -124.896875 
L 225.02523 -125.604215 
L 228.549441 -124.646094 
L 232.073651 -124.791027 
L 235.597862 -124.13505 
L 239.122072 -124.461347 
L 242.646283 -124.640478 
L 246.170493 -124.457642 
L 249.694704 -124.400903 
L 253.218914 -124.039443 
L 256.743125 -124.194356 
L 260.267336 -124.029111 
L 263.791546 -124.090068 
L 267.315757 -123.577832 
L 270.839967 -123.793586 
L 274.364178 -123.991953 
L 277.888388 -123.870047 
L 281.412599 -124.332075 
L 284.936809 -124.296425 
L 288.46102 -124.007647 
L 291.98523 -123.840666 
L 295.509441 -124.119625 
L 299.033651 -123.887302 
L 302.557862 -123.653175 
L 306.082072 -123.606702 
L 309.606283 -124.202658 
L 313.130493 -123.979933 
L 316.654704 -124.325845 
L 320.178914 -124.138487 
L 323.703125 -123.761346 
L 327.227336 -124.088215 
L 330.751546 -123.658802 
L 334.275757 -123.923919 
L 337.799967 -124.059662 
L 341.324178 -123.970931 
L 344.848388 -123.85383 
L 348.372599 -123.465499 
L 351.896809 -123.373869 
L 355.42102 -123.796768 
L 358.94523 -124.004954 
L 362.469441 -123.530089 
L 365.993651 -123.916546 
L 369.517862 -123.734692 
L 373.042072 -123.548183 
L 376.566283 -123.885018 
L 380.090493 -124.042331 
L 383.614704 -123.602877 
L 387.138914 -123.289731 
L 390.663125 -123.439764 
L 390.663125 -124.885708 
L 390.663125 -124.885708 
L 387.138914 -124.726723 
L 383.614704 -125.042823 
L 380.090493 -125.5023 
L 376.566283 -125.361651 
L 373.042072 -125.025688 
L 369.517862 -125.232339 
L 365.993651 -125.413164 
L 362.469441 -125.058532 
L 358.94523 -125.520274 
L 355.42102 -125.330259 
L 351.896809 -124.905881 
L 348.372599 -125.00759 
L 344.848388 -125.398306 
L 341.324178 -125.522084 
L 337.799967 -125.633856 
L 334.275757 -125.496642 
L 330.751546 -125.26445 
L 327.227336 -125.702445 
L 323.703125 -125.371495 
L 320.178914 -125.784547 
L 316.654704 -125.982263 
L 313.130493 -125.638182 
L 309.606283 -125.858338 
L 306.082072 -125.279733 
L 302.557862 -125.342417 
L 299.033651 -125.595682 
L 295.509441 -125.877949 
L 291.98523 -125.564737 
L 288.46102 -125.754573 
L 284.936809 -126.06234 
L 281.412599 -126.094071 
L 277.888388 -125.635991 
L 274.364178 -125.801852 
L 270.839967 -125.608934 
L 267.315757 -125.395472 
L 263.791546 -125.961863 
L 260.267336 -125.871049 
L 256.743125 -126.083587 
L 253.218914 -125.933415 
L 249.694704 -126.34254 
L 246.170493 -126.392771 
L 242.646283 -126.598014 
L 239.122072 -126.453864 
L 235.597862 -126.133229 
L 232.073651 -126.792138 
L 228.549441 -126.686587 
L 225.02523 -127.654923 
L 221.50102 -126.977953 
L 217.976809 -126.819631 
L 214.452599 -126.72337 
L 210.928388 -126.651586 
L 207.404178 -127.498635 
L 203.879967 -127.237605 
L 200.355757 -126.878479 
L 196.831546 -126.905127 
L 193.307336 -127.246366 
L 189.783125 -127.072076 
L 186.258914 -127.442708 
L 182.734704 -127.785664 
L 179.210493 -127.882396 
L 175.686283 -127.866252 
L 172.162072 -128.464134 
L 168.637862 -128.670337 
L 165.113651 -128.73592 
L 161.589441 -128.693911 
L 158.06523 -128.538343 
L 154.54102 -128.500345 
L 151.016809 -128.664189 
L 147.492599 -128.693125 
L 143.968388 -129.002573 
L 140.444178 -130.097845 
L 136.919967 -130.246738 
L 133.395757 -130.433587 
L 129.871546 -130.765561 
L 126.347336 -130.767519 
L 122.823125 -131.513122 
L 119.298914 -132.596404 
L 115.774704 -131.238019 
L 112.250493 -131.655574 
L 108.726283 -132.85449 
L 105.202072 -132.734058 
L 101.677862 -133.717175 
L 98.153651 -134.537056 
L 94.629441 -135.403154 
L 91.10523 -135.322172 
L 87.58102 -136.023277 
L 84.056809 -138.74149 
L 80.532599 -140.094637 
L 77.008388 -141.663084 
L 73.484178 -143.249265 
L 69.959967 -145.991547 
L 66.435757 -149.352623 
L 62.911546 -156.110686 
L 59.387336 -162.401366 
L 55.863125 -177.92119 
z
" id="m1265ab2b09"/>
    </defs>
    <g clip-path="url(#p81f565262e)">
     <use style="fill:#beaed4;fill-opacity:0.1;" x="0" xlink:href="#m1265ab2b09" y="302.115625"/>
    </g>
   </g>
   <g id="PolyCollection_3">
    <defs>
     <path d="M 55.863125 -230.34516 
L 55.863125 -214.616143 
L 59.387336 -190.322417 
L 62.911546 -179.974933 
L 66.435757 -168.254485 
L 69.959967 -161.983622 
L 73.484178 -159.851673 
L 77.008388 -158.804928 
L 80.532599 -156.287703 
L 84.056809 -157.659393 
L 87.58102 -149.538884 
L 91.10523 -149.309584 
L 94.629441 -150.840634 
L 98.153651 -149.808532 
L 101.677862 -146.615647 
L 105.202072 -145.763307 
L 108.726283 -146.008817 
L 112.250493 -145.592033 
L 115.774704 -142.908401 
L 119.298914 -147.175614 
L 122.823125 -146.192218 
L 126.347336 -145.136216 
L 129.871546 -144.645311 
L 133.395757 -142.350114 
L 136.919967 -142.648088 
L 140.444178 -143.575877 
L 143.968388 -141.318955 
L 147.492599 -140.799465 
L 151.016809 -140.607612 
L 154.54102 -139.485577 
L 158.06523 -140.039657 
L 161.589441 -142.245411 
L 165.113651 -139.774504 
L 168.637862 -142.940667 
L 172.162072 -141.593078 
L 175.686283 -138.698053 
L 179.210493 -139.441289 
L 182.734704 -140.678691 
L 186.258914 -138.673002 
L 189.783125 -136.901961 
L 193.307336 -137.915654 
L 196.831546 -137.772876 
L 200.355757 -137.170003 
L 203.879967 -139.202738 
L 207.404178 -139.947691 
L 210.928388 -135.65652 
L 214.452599 -135.623926 
L 217.976809 -136.961012 
L 221.50102 -138.192876 
L 225.02523 -144.28014 
L 228.549441 -136.838474 
L 232.073651 -138.292943 
L 235.597862 -135.157172 
L 239.122072 -135.739294 
L 242.646283 -138.31413 
L 246.170493 -134.654896 
L 249.694704 -137.225366 
L 253.218914 -133.682143 
L 256.743125 -136.443829 
L 260.267336 -133.716992 
L 263.791546 -135.024017 
L 267.315757 -131.551249 
L 270.839967 -133.785997 
L 274.364178 -134.596494 
L 277.888388 -134.902765 
L 281.412599 -136.903373 
L 284.936809 -137.274013 
L 288.46102 -134.585933 
L 291.98523 -133.905791 
L 295.509441 -136.253657 
L 299.033651 -133.990719 
L 302.557862 -134.023493 
L 306.082072 -132.336085 
L 309.606283 -136.95679 
L 313.130493 -136.299784 
L 316.654704 -139.23946 
L 320.178914 -136.170136 
L 323.703125 -133.096462 
L 327.227336 -137.146255 
L 330.751546 -133.086332 
L 334.275757 -134.470994 
L 337.799967 -136.725405 
L 341.324178 -135.721178 
L 344.848388 -134.32854 
L 348.372599 -130.704499 
L 351.896809 -132.267989 
L 355.42102 -134.46715 
L 358.94523 -136.59285 
L 362.469441 -133.161704 
L 365.993651 -134.945548 
L 369.517862 -133.702699 
L 373.042072 -132.434805 
L 376.566283 -135.3282 
L 380.090493 -136.930733 
L 383.614704 -133.171203 
L 387.138914 -131.461275 
L 390.663125 -132.237455 
L 390.663125 -146.050768 
L 390.663125 -146.050768 
L 387.138914 -145.173527 
L 383.614704 -146.813398 
L 380.090493 -150.670371 
L 376.566283 -149.179946 
L 373.042072 -146.203457 
L 369.517862 -147.520205 
L 365.993651 -148.699152 
L 362.469441 -147.142059 
L 358.94523 -150.29977 
L 355.42102 -148.264853 
L 351.896809 -146.108351 
L 348.372599 -144.524503 
L 344.848388 -148.134735 
L 341.324178 -149.390194 
L 337.799967 -150.524235 
L 334.275757 -148.156749 
L 330.751546 -146.953791 
L 327.227336 -151.052372 
L 323.703125 -146.802209 
L 320.178914 -150.095268 
L 316.654704 -153.059063 
L 313.130493 -150.092848 
L 309.606283 -150.642375 
L 306.082072 -146.14162 
L 302.557862 -147.877381 
L 299.033651 -147.845118 
L 295.509441 -150.388164 
L 291.98523 -147.679267 
L 288.46102 -148.326841 
L 284.936809 -151.190688 
L 281.412599 -150.695688 
L 277.888388 -148.629077 
L 274.364178 -148.484631 
L 270.839967 -147.72875 
L 267.315757 -145.223034 
L 263.791546 -148.973671 
L 260.267336 -147.555762 
L 256.743125 -150.282114 
L 253.218914 -147.386236 
L 249.694704 -151.059416 
L 246.170493 -148.391251 
L 242.646283 -152.097849 
L 239.122072 -149.658005 
L 235.597862 -149.001984 
L 232.073651 -152.188784 
L 228.549441 -150.60794 
L 225.02523 -158.072552 
L 221.50102 -152.105958 
L 217.976809 -150.590245 
L 214.452599 -149.498942 
L 210.928388 -149.452254 
L 207.404178 -153.763706 
L 203.879967 -153.153508 
L 200.355757 -151.055187 
L 196.831546 -151.559321 
L 193.307336 -151.783565 
L 189.783125 -150.857233 
L 186.258914 -152.489563 
L 182.734704 -154.733035 
L 179.210493 -153.375074 
L 175.686283 -152.54016 
L 172.162072 -155.456221 
L 168.637862 -156.758265 
L 165.113651 -153.815324 
L 161.589441 -156.170291 
L 158.06523 -153.9498 
L 154.54102 -153.361486 
L 151.016809 -154.463489 
L 147.492599 -154.912051 
L 143.968388 -155.290902 
L 140.444178 -157.649141 
L 136.919967 -156.796301 
L 133.395757 -156.384315 
L 129.871546 -158.711893 
L 126.347336 -159.249593 
L 122.823125 -160.324046 
L 119.298914 -161.396701 
L 115.774704 -157.107435 
L 112.250493 -159.67504 
L 108.726283 -160.106942 
L 105.202072 -159.96952 
L 101.677862 -160.993276 
L 98.153651 -164.097201 
L 94.629441 -165.0857 
L 91.10523 -163.51631 
L 87.58102 -163.867788 
L 84.056809 -172.245565 
L 80.532599 -170.903388 
L 77.008388 -173.462962 
L 73.484178 -174.55856 
L 69.959967 -176.897496 
L 66.435757 -183.289293 
L 62.911546 -195.007918 
L 59.387336 -205.835824 
L 55.863125 -230.34516 
z
" id="m6f2633f481"/>
    </defs>
    <g clip-path="url(#p81f565262e)">
     <use style="fill:#386cb0;fill-opacity:0.1;" x="0" xlink:href="#m6f2633f481" y="302.115625"/>
    </g>
   </g>
   <g id="PolyCollection_4">
    <defs>
     <path d="M 55.863125 -261.024099 
L 55.863125 -255.103234 
L 59.387336 -240.723264 
L 62.911546 -234.301632 
L 66.435757 -228.320661 
L 69.959967 -224.429979 
L 73.484178 -221.739564 
L 77.008388 -220.886818 
L 80.532599 -218.962648 
L 84.056809 -217.835617 
L 87.58102 -216.608898 
L 91.10523 -215.871535 
L 94.629441 -215.863611 
L 98.153651 -215.392987 
L 101.677862 -214.567791 
L 105.202072 -214.296961 
L 108.726283 -214.537309 
L 112.250493 -213.527185 
L 115.774704 -213.640617 
L 119.298914 -214.140715 
L 122.823125 -213.466214 
L 126.347336 -213.271142 
L 129.871546 -213.095997 
L 133.395757 -212.988689 
L 136.919967 -212.565418 
L 140.444178 -212.594219 
L 143.968388 -212.251593 
L 147.492599 -211.919928 
L 151.016809 -212.248702 
L 154.54102 -212.120163 
L 158.06523 -212.070307 
L 161.589441 -212.155255 
L 165.113651 -212.044282 
L 168.637862 -212.346565 
L 172.162072 -211.969859 
L 175.686283 -211.569706 
L 179.210493 -211.616417 
L 182.734704 -211.73887 
L 186.258914 -211.53961 
L 189.783125 -211.345138 
L 193.307336 -211.452332 
L 196.831546 -211.093864 
L 200.355757 -210.959717 
L 203.879967 -211.499654 
L 207.404178 -211.509969 
L 210.928388 -211.155863 
L 214.452599 -211.017236 
L 217.976809 -211.457877 
L 221.50102 -211.483703 
L 225.02523 -211.534381 
L 228.549441 -210.940411 
L 232.073651 -211.427207 
L 235.597862 -210.983468 
L 239.122072 -211.067998 
L 242.646283 -211.096708 
L 246.170493 -210.826262 
L 249.694704 -211.004767 
L 253.218914 -210.578434 
L 256.743125 -210.842336 
L 260.267336 -211.094617 
L 263.791546 -210.794018 
L 267.315757 -210.493942 
L 270.839967 -210.648652 
L 274.364178 -210.878217 
L 277.888388 -210.480175 
L 281.412599 -210.705503 
L 284.936809 -210.981344 
L 288.46102 -210.74727 
L 291.98523 -210.480558 
L 295.509441 -210.671196 
L 299.033651 -210.629179 
L 302.557862 -210.52151 
L 306.082072 -210.746177 
L 309.606283 -210.878589 
L 313.130493 -210.612563 
L 316.654704 -211.196244 
L 320.178914 -210.732198 
L 323.703125 -210.61207 
L 327.227336 -210.850665 
L 330.751546 -210.499969 
L 334.275757 -210.583027 
L 337.799967 -210.808211 
L 341.324178 -210.723059 
L 344.848388 -210.325326 
L 348.372599 -210.58531 
L 351.896809 -210.31713 
L 355.42102 -210.482513 
L 358.94523 -210.937415 
L 362.469441 -210.345092 
L 365.993651 -210.794931 
L 369.517862 -210.481906 
L 373.042072 -210.344175 
L 376.566283 -210.497686 
L 380.090493 -210.512922 
L 383.614704 -210.413027 
L 387.138914 -210.155843 
L 390.663125 -210.326011 
L 390.663125 -211.546848 
L 390.663125 -211.546848 
L 387.138914 -211.374503 
L 383.614704 -211.654747 
L 380.090493 -211.758494 
L 376.566283 -211.755349 
L 373.042072 -211.602131 
L 369.517862 -211.7448 
L 365.993651 -212.068028 
L 362.469441 -211.607083 
L 358.94523 -212.217628 
L 355.42102 -211.767378 
L 351.896809 -211.621357 
L 348.372599 -211.892014 
L 344.848388 -211.631127 
L 341.324178 -212.033635 
L 337.799967 -212.136471 
L 334.275757 -211.92335 
L 330.751546 -211.854811 
L 327.227336 -212.212194 
L 323.703125 -211.979238 
L 320.178914 -212.123653 
L 316.654704 -212.585959 
L 313.130493 -212.005629 
L 309.606283 -212.277647 
L 306.082072 -212.151698 
L 302.557862 -211.950648 
L 299.033651 -212.053519 
L 295.509441 -212.134175 
L 291.98523 -211.931873 
L 288.46102 -212.197411 
L 284.936809 -212.464942 
L 281.412599 -212.194472 
L 277.888388 -211.958753 
L 274.364178 -212.386403 
L 270.839967 -212.178019 
L 267.315757 -212.006213 
L 263.791546 -212.355822 
L 260.267336 -212.651435 
L 256.743125 -212.406356 
L 253.218914 -212.166101 
L 249.694704 -212.628491 
L 246.170493 -212.460424 
L 242.646283 -212.723714 
L 239.122072 -212.730688 
L 235.597862 -212.653433 
L 232.073651 -213.13169 
L 228.549441 -212.643845 
L 225.02523 -213.249147 
L 221.50102 -213.227763 
L 217.976809 -213.203987 
L 214.452599 -212.812661 
L 210.928388 -212.957594 
L 207.404178 -213.33949 
L 203.879967 -213.362555 
L 200.355757 -212.81744 
L 196.831546 -212.992014 
L 193.307336 -213.37423 
L 189.783125 -213.276666 
L 186.258914 -213.498073 
L 182.734704 -213.758193 
L 179.210493 -213.654679 
L 175.686283 -213.608986 
L 172.162072 -214.056623 
L 168.637862 -214.457144 
L 165.113651 -214.236152 
L 161.589441 -214.341267 
L 158.06523 -214.320779 
L 154.54102 -214.396845 
L 151.016809 -214.582381 
L 147.492599 -214.278623 
L 143.968388 -214.64605 
L 140.444178 -215.063637 
L 136.919967 -215.113197 
L 133.395757 -215.603941 
L 129.871546 -215.774291 
L 126.347336 -215.977823 
L 122.823125 -216.251208 
L 119.298914 -217.05642 
L 115.774704 -216.590096 
L 112.250493 -216.531952 
L 108.726283 -217.737772 
L 105.202072 -217.517349 
L 101.677862 -217.925921 
L 98.153651 -218.85493 
L 94.629441 -219.472541 
L 91.10523 -219.580413 
L 87.58102 -220.522013 
L 84.056809 -221.871699 
L 80.532599 -223.211203 
L 77.008388 -225.307484 
L 73.484178 -226.353598 
L 69.959967 -229.271366 
L 66.435757 -233.328152 
L 62.911546 -239.609395 
L 59.387336 -246.31513 
L 55.863125 -261.024099 
z
" id="m11a53676c1"/>
    </defs>
    <g clip-path="url(#p81f565262e)">
     <use style="fill:#bf5b17;fill-opacity:0.1;" x="0" xlink:href="#m11a53676c1" y="302.115625"/>
    </g>
   </g>
   <g id="PolyCollection_5">
    <defs>
     <path d="M 55.863125 -176.414437 
L 55.863125 -168.549928 
L 59.387336 -152.822104 
L 62.911546 -145.954406 
L 66.435757 -139.783439 
L 69.959967 -136.449041 
L 73.484178 -134.9397 
L 77.008388 -133.96949 
L 80.532599 -132.676 
L 84.056809 -132.638058 
L 87.58102 -129.987468 
L 91.10523 -129.653229 
L 94.629441 -129.805439 
L 98.153651 -129.314919 
L 101.677862 -128.336567 
L 105.202072 -127.970767 
L 108.726283 -127.880743 
L 112.250493 -127.650891 
L 115.774704 -126.940746 
L 119.298914 -127.748045 
L 122.823125 -127.427279 
L 126.347336 -127.107637 
L 129.871546 -126.916033 
L 133.395757 -126.379836 
L 136.919967 -126.36435 
L 140.444178 -126.469758 
L 143.968388 -125.981331 
L 147.492599 -125.827697 
L 151.016809 -125.738862 
L 154.54102 -125.489247 
L 158.06523 -125.539811 
L 161.589441 -125.872817 
L 165.113651 -125.406391 
L 168.637862 -125.893206 
L 172.162072 -125.625274 
L 175.686283 -125.114027 
L 179.210493 -125.199099 
L 182.734704 -125.360593 
L 186.258914 -125.012056 
L 189.783125 -124.708498 
L 193.307336 -124.837063 
L 196.831546 -124.788642 
L 200.355757 -124.673017 
L 203.879967 -124.9488 
L 207.404178 -125.031097 
L 210.928388 -124.385045 
L 214.452599 -124.360887 
L 217.976809 -124.531113 
L 221.50102 -124.683437 
L 225.02523 -125.506334 
L 228.549441 -124.455492 
L 232.073651 -124.635078 
L 235.597862 -124.192603 
L 239.122072 -124.255066 
L 242.646283 -124.580504 
L 246.170493 -124.081869 
L 249.694704 -124.402914 
L 253.218914 -123.929425 
L 256.743125 -124.271124 
L 260.267336 -123.910342 
L 263.791546 -124.063644 
L 267.315757 -123.617156 
L 270.839967 -123.88559 
L 274.364178 -123.974694 
L 277.888388 -124.000943 
L 281.412599 -124.232355 
L 284.936809 -124.264257 
L 288.46102 -123.930206 
L 291.98523 -123.839265 
L 295.509441 -124.106517 
L 299.033651 -123.830507 
L 302.557862 -123.825186 
L 306.082072 -123.621368 
L 309.606283 -124.14389 
L 313.130493 -124.058201 
L 316.654704 -124.380929 
L 320.178914 -124.023557 
L 323.703125 -123.670255 
L 327.227336 -124.112885 
L 330.751546 -123.654577 
L 334.275757 -123.799489 
L 337.799967 -124.03761 
L 341.324178 -123.919519 
L 344.848388 -123.760975 
L 348.372599 -123.365075 
L 351.896809 -123.526721 
L 355.42102 -123.753956 
L 358.94523 -123.970948 
L 362.469441 -123.603072 
L 365.993651 -123.78295 
L 369.517862 -123.647069 
L 373.042072 -123.510091 
L 376.566283 -123.801531 
L 380.090493 -123.958207 
L 383.614704 -123.568864 
L 387.138914 -123.390585 
L 390.663125 -123.464002 
L 390.663125 -124.852292 
L 390.663125 -124.852292 
L 387.138914 -124.775731 
L 383.614704 -124.954019 
L 380.090493 -125.360503 
L 376.566283 -125.22269 
L 373.042072 -124.930219 
L 369.517862 -125.079877 
L 365.993651 -125.216862 
L 362.469441 -125.068611 
L 358.94523 -125.415784 
L 355.42102 -125.216509 
L 351.896809 -125.002109 
L 348.372599 -124.846735 
L 344.848388 -125.249735 
L 341.324178 -125.402132 
L 337.799967 -125.543186 
L 334.275757 -125.301696 
L 330.751546 -125.185982 
L 327.227336 -125.658009 
L 323.703125 -125.202604 
L 320.178914 -125.590257 
L 316.654704 -125.945691 
L 313.130493 -125.630067 
L 309.606283 -125.713734 
L 306.082072 -125.215494 
L 302.557862 -125.435668 
L 299.033651 -125.452042 
L 295.509441 -125.772285 
L 291.98523 -125.473876 
L 288.46102 -125.572559 
L 284.936809 -125.939628 
L 281.412599 -125.904918 
L 277.888388 -125.677879 
L 274.364178 -125.684206 
L 270.839967 -125.614975 
L 267.315757 -125.326129 
L 263.791546 -125.821135 
L 260.267336 -125.667867 
L 256.743125 -126.042935 
L 253.218914 -125.698616 
L 249.694704 -126.203954 
L 246.170493 -125.88554 
L 242.646283 -126.406202 
L 239.122072 -126.115032 
L 235.597862 -126.059437 
L 232.073651 -126.526062 
L 228.549441 -126.346874 
L 225.02523 -127.418998 
L 221.50102 -126.631658 
L 217.976809 -126.458578 
L 214.452599 -126.343032 
L 210.928388 -126.376288 
L 207.404178 -127.04637 
L 203.879967 -127.005729 
L 200.355757 -126.742898 
L 196.831546 -126.867027 
L 193.307336 -126.951899 
L 189.783125 -126.861843 
L 186.258914 -127.16984 
L 182.734704 -127.582779 
L 179.210493 -127.43029 
L 175.686283 -127.359514 
L 172.162072 -127.904361 
L 168.637862 -128.196139 
L 165.113651 -127.779723 
L 161.589441 -128.260914 
L 158.06523 -127.961257 
L 154.54102 -127.942185 
L 151.016809 -128.227451 
L 147.492599 -128.404291 
L 143.968388 -128.575856 
L 140.444178 -129.129355 
L 136.919967 -129.087175 
L 133.395757 -129.132169 
L 129.871546 -129.72935 
L 126.347336 -129.988518 
L 122.823125 -130.373969 
L 119.298914 -130.779991 
L 115.774704 -130.03923 
L 112.250493 -130.799947 
L 108.726283 -131.115074 
L 105.202072 -131.319203 
L 101.677862 -131.823655 
L 98.153651 -132.887086 
L 94.629441 -133.4835 
L 91.10523 -133.450137 
L 87.58102 -133.961591 
L 84.056809 -136.848723 
L 80.532599 -137.082795 
L 77.008388 -138.604768 
L 73.484178 -139.841996 
L 69.959967 -141.721891 
L 66.435757 -145.466063 
L 62.911546 -152.091596 
L 59.387336 -159.759911 
L 55.863125 -176.414437 
z
" id="mc0ea44cd12"/>
    </defs>
    <g clip-path="url(#p81f565262e)">
     <use style="fill:#fdc086;fill-opacity:0.1;" x="0" xlink:href="#mc0ea44cd12" y="302.115625"/>
    </g>
   </g>
   <g id="PolyCollection_6">
    <defs>
     <path d="M 55.863125 -147.16489 
L 55.863125 -133.86715 
L 59.387336 -102.305609 
L 62.911546 -89.980461 
L 66.435757 -77.884951 
L 69.959967 -74.091763 
L 73.484178 -72.425644 
L 77.008388 -74.036822 
L 80.532599 -73.90981 
L 84.056809 -78.189574 
L 87.58102 -77.323521 
L 91.10523 -80.890626 
L 94.629441 -84.245262 
L 98.153651 -87.583254 
L 101.677862 -87.597624 
L 105.202072 -89.929268 
L 108.726283 -92.781007 
L 112.250493 -94.220787 
L 115.774704 -94.816227 
L 119.298914 -98.807315 
L 122.823125 -99.974188 
L 126.347336 -101.187653 
L 129.871546 -102.399022 
L 133.395757 -102.039012 
L 136.919967 -103.290976 
L 140.444178 -104.866743 
L 143.968388 -105.23736 
L 147.492599 -105.594206 
L 151.016809 -106.677006 
L 154.54102 -106.836573 
L 158.06523 -107.573316 
L 161.589441 -110.200846 
L 165.113651 -109.140787 
L 168.637862 -111.737732 
L 172.162072 -111.481245 
L 175.686283 -110.250423 
L 179.210493 -111.044375 
L 182.734704 -111.693507 
L 186.258914 -111.972769 
L 189.783125 -111.329707 
L 193.307336 -111.935686 
L 196.831546 -112.98865 
L 200.355757 -112.736613 
L 203.879967 -113.512832 
L 207.404178 -114.505207 
L 210.928388 -113.116327 
L 214.452599 -113.42328 
L 217.976809 -114.669973 
L 221.50102 -115.175352 
L 225.02523 -117.279099 
L 228.549441 -114.943452 
L 232.073651 -115.259315 
L 235.597862 -114.530486 
L 239.122072 -114.990231 
L 242.646283 -116.192702 
L 246.170493 -115.082716 
L 249.694704 -115.915248 
L 253.218914 -115.061848 
L 256.743125 -116.04482 
L 260.267336 -115.583635 
L 263.791546 -115.818774 
L 267.315757 -115.39969 
L 270.839967 -115.61111 
L 274.364178 -116.570533 
L 277.888388 -116.623246 
L 281.412599 -117.306982 
L 284.936809 -117.479951 
L 288.46102 -116.923138 
L 291.98523 -116.706482 
L 295.509441 -117.355152 
L 299.033651 -117.013283 
L 302.557862 -117.028434 
L 306.082072 -116.780463 
L 309.606283 -118.321798 
L 313.130493 -117.89966 
L 316.654704 -119.060823 
L 320.178914 -118.01445 
L 323.703125 -117.399118 
L 327.227336 -118.418356 
L 330.751546 -117.467873 
L 334.275757 -118.038882 
L 337.799967 -118.937757 
L 341.324178 -118.905866 
L 344.848388 -118.376587 
L 348.372599 -117.387704 
L 351.896809 -117.954825 
L 355.42102 -118.465198 
L 358.94523 -119.348401 
L 362.469441 -118.070169 
L 365.993651 -118.961983 
L 369.517862 -118.493761 
L 373.042072 -118.280013 
L 376.566283 -119.025513 
L 380.090493 -119.62351 
L 383.614704 -118.776639 
L 387.138914 -118.228865 
L 390.663125 -118.524468 
L 390.663125 -122.218519 
L 390.663125 -122.218519 
L 387.138914 -121.899132 
L 383.614704 -122.479723 
L 380.090493 -123.352107 
L 376.566283 -122.805877 
L 373.042072 -122.063749 
L 369.517862 -122.308748 
L 365.993651 -122.774009 
L 362.469441 -121.963922 
L 358.94523 -123.196186 
L 355.42102 -122.353992 
L 351.896809 -121.875443 
L 348.372599 -121.329327 
L 344.848388 -122.324609 
L 341.324178 -122.842992 
L 337.799967 -122.912405 
L 334.275757 -122.05514 
L 330.751546 -121.536375 
L 327.227336 -122.542828 
L 323.703125 -121.497681 
L 320.178914 -122.183664 
L 316.654704 -123.232697 
L 313.130493 -122.082969 
L 309.606283 -122.514791 
L 306.082072 -121.02179 
L 302.557862 -121.300857 
L 299.033651 -121.332765 
L 295.509441 -121.776399 
L 291.98523 -121.059257 
L 288.46102 -121.296714 
L 284.936809 -121.917647 
L 281.412599 -121.775917 
L 277.888388 -121.108201 
L 274.364178 -121.128458 
L 270.839967 -120.237968 
L 267.315757 -119.962168 
L 263.791546 -120.519113 
L 260.267336 -120.245053 
L 256.743125 -120.778735 
L 253.218914 -119.810216 
L 249.694704 -120.726349 
L 246.170493 -119.905576 
L 242.646283 -121.068064 
L 239.122072 -119.952845 
L 235.597862 -119.538072 
L 232.073651 -120.3221 
L 228.549441 -120.018956 
L 225.02523 -122.414506 
L 221.50102 -120.377503 
L 217.976809 -119.83214 
L 214.452599 -118.778064 
L 210.928388 -118.473211 
L 207.404178 -119.939226 
L 203.879967 -119.073102 
L 200.355757 -118.309809 
L 196.831546 -118.606528 
L 193.307336 -117.669577 
L 189.783125 -117.098536 
L 186.258914 -117.809854 
L 182.734704 -117.696508 
L 179.210493 -117.078807 
L 175.686283 -116.349673 
L 172.162072 -117.651436 
L 168.637862 -117.973544 
L 165.113651 -115.520821 
L 161.589441 -116.66963 
L 158.06523 -114.178068 
L 154.54102 -113.52173 
L 151.016809 -113.522192 
L 147.492599 -112.62642 
L 143.968388 -112.352057 
L 140.444178 -112.162031 
L 136.919967 -110.762018 
L 133.395757 -109.620547 
L 129.871546 -110.113804 
L 126.347336 -109.096822 
L 122.823125 -108.052173 
L 119.298914 -107.130825 
L 115.774704 -103.316714 
L 112.250493 -102.903839 
L 108.726283 -101.675249 
L 105.202072 -99.080128 
L 101.677862 -96.987323 
L 98.153651 -97.220593 
L 94.629441 -94.153385 
L 91.10523 -91.080658 
L 87.58102 -87.723298 
L 84.056809 -89.027615 
L 80.532599 -85.041587 
L 77.008388 -85.440834 
L 73.484178 -84.149522 
L 69.959967 -86.088922 
L 66.435757 -90.191581 
L 62.911546 -102.667391 
L 59.387336 -115.363501 
L 55.863125 -147.16489 
z
" id="m0ffcb5d22c"/>
    </defs>
    <g clip-path="url(#p81f565262e)">
     <use style="fill:#f0027f;fill-opacity:0.1;" x="0" xlink:href="#m0ffcb5d22c" y="302.115625"/>
    </g>
   </g>
   <g id="matplotlib.axis_1">
    <g id="xtick_1">
     <g id="line2d_1"/>
     <g id="text_1">
      <!-- 5 -->
      <defs>
       <path d="M 4.15625 18.75 
L 13.375 19.53125 
Q 14.40625 12.796875 18.140625 9.390625 
Q 21.875 6 27.15625 6 
Q 33.5 6 37.890625 10.78125 
Q 42.28125 15.578125 42.28125 23.484375 
Q 42.28125 31 38.0625 35.34375 
Q 33.84375 39.703125 27 39.703125 
Q 22.75 39.703125 19.328125 37.765625 
Q 15.921875 35.84375 13.96875 32.765625 
L 5.71875 33.84375 
L 12.640625 70.609375 
L 48.25 70.609375 
L 48.25 62.203125 
L 19.671875 62.203125 
L 15.828125 42.96875 
Q 22.265625 47.46875 29.34375 47.46875 
Q 38.71875 47.46875 45.15625 40.96875 
Q 51.609375 34.46875 51.609375 24.265625 
Q 51.609375 14.546875 45.953125 7.46875 
Q 39.0625 -1.21875 27.15625 -1.21875 
Q 17.390625 -1.21875 11.203125 4.25 
Q 5.03125 9.71875 4.15625 18.75 
z
" id="ArialMT-35"/>
      </defs>
      <g style="fill:#666666;" transform="translate(52.526563 277.269375)scale(0.12 -0.12)">
       <use xlink:href="#ArialMT-35"/>
      </g>
     </g>
    </g>
    <g id="xtick_2">
     <g id="line2d_2"/>
     <g id="text_2">
      <!-- 15 -->
      <defs>
       <path d="M 37.25 0 
L 28.46875 0 
L 28.46875 56 
Q 25.296875 52.984375 20.140625 49.953125 
Q 14.984375 46.921875 10.890625 45.40625 
L 10.890625 53.90625 
Q 18.265625 57.375 23.78125 62.296875 
Q 29.296875 67.234375 31.59375 71.875 
L 37.25 71.875 
z
" id="ArialMT-31"/>
      </defs>
      <g style="fill:#666666;" transform="translate(84.432105 277.269375)scale(0.12 -0.12)">
       <use xlink:href="#ArialMT-31"/>
       <use x="55.615234" xlink:href="#ArialMT-35"/>
      </g>
     </g>
    </g>
    <g id="xtick_3">
     <g id="line2d_3"/>
     <g id="text_3">
      <!-- 25 -->
      <defs>
       <path d="M 50.34375 8.453125 
L 50.34375 0 
L 3.03125 0 
Q 2.9375 3.171875 4.046875 6.109375 
Q 5.859375 10.9375 9.828125 15.625 
Q 13.8125 20.3125 21.34375 26.46875 
Q 33.015625 36.03125 37.109375 41.625 
Q 41.21875 47.21875 41.21875 52.203125 
Q 41.21875 57.421875 37.46875 61 
Q 33.734375 64.59375 27.734375 64.59375 
Q 21.390625 64.59375 17.578125 60.78125 
Q 13.765625 56.984375 13.71875 50.25 
L 4.6875 51.171875 
Q 5.609375 61.28125 11.65625 66.578125 
Q 17.71875 71.875 27.9375 71.875 
Q 38.234375 71.875 44.234375 66.15625 
Q 50.25 60.453125 50.25 52 
Q 50.25 47.703125 48.484375 43.546875 
Q 46.734375 39.40625 42.65625 34.8125 
Q 38.578125 30.21875 29.109375 22.21875 
Q 21.1875 15.578125 18.9375 13.203125 
Q 16.703125 10.84375 15.234375 8.453125 
z
" id="ArialMT-32"/>
      </defs>
      <g style="fill:#666666;" transform="translate(119.674211 277.269375)scale(0.12 -0.12)">
       <use xlink:href="#ArialMT-32"/>
       <use x="55.615234" xlink:href="#ArialMT-35"/>
      </g>
     </g>
    </g>
    <g id="xtick_4">
     <g id="line2d_4"/>
     <g id="text_4">
      <!-- 35 -->
      <defs>
       <path d="M 4.203125 18.890625 
L 12.984375 20.0625 
Q 14.5 12.59375 18.140625 9.296875 
Q 21.78125 6 27 6 
Q 33.203125 6 37.46875 10.296875 
Q 41.75 14.59375 41.75 20.953125 
Q 41.75 27 37.796875 30.921875 
Q 33.84375 34.859375 27.734375 34.859375 
Q 25.25 34.859375 21.53125 33.890625 
L 22.515625 41.609375 
Q 23.390625 41.5 23.921875 41.5 
Q 29.546875 41.5 34.03125 44.421875 
Q 38.53125 47.359375 38.53125 53.46875 
Q 38.53125 58.296875 35.25 61.46875 
Q 31.984375 64.65625 26.8125 64.65625 
Q 21.6875 64.65625 18.265625 61.421875 
Q 14.84375 58.203125 13.875 51.765625 
L 5.078125 53.328125 
Q 6.6875 62.15625 12.390625 67.015625 
Q 18.109375 71.875 26.609375 71.875 
Q 32.46875 71.875 37.390625 69.359375 
Q 42.328125 66.84375 44.9375 62.5 
Q 47.5625 58.15625 47.5625 53.265625 
Q 47.5625 48.640625 45.0625 44.828125 
Q 42.578125 41.015625 37.703125 38.765625 
Q 44.046875 37.3125 47.5625 32.6875 
Q 51.078125 28.078125 51.078125 21.140625 
Q 51.078125 11.765625 44.234375 5.25 
Q 37.40625 -1.265625 26.953125 -1.265625 
Q 17.53125 -1.265625 11.296875 4.34375 
Q 5.078125 9.96875 4.203125 18.890625 
z
" id="ArialMT-33"/>
      </defs>
      <g style="fill:#666666;" transform="translate(154.916316 277.269375)scale(0.12 -0.12)">
       <use xlink:href="#ArialMT-33"/>
       <use x="55.615234" xlink:href="#ArialMT-35"/>
      </g>
     </g>
    </g>
    <g id="xtick_5">
     <g id="line2d_5"/>
     <g id="text_5">
      <!-- 45 -->
      <defs>
       <path d="M 32.328125 0 
L 32.328125 17.140625 
L 1.265625 17.140625 
L 1.265625 25.203125 
L 33.9375 71.578125 
L 41.109375 71.578125 
L 41.109375 25.203125 
L 50.78125 25.203125 
L 50.78125 17.140625 
L 41.109375 17.140625 
L 41.109375 0 
z
M 32.328125 25.203125 
L 32.328125 57.46875 
L 9.90625 25.203125 
z
" id="ArialMT-34"/>
      </defs>
      <g style="fill:#666666;" transform="translate(190.158421 277.269375)scale(0.12 -0.12)">
       <use xlink:href="#ArialMT-34"/>
       <use x="55.615234" xlink:href="#ArialMT-35"/>
      </g>
     </g>
    </g>
    <g id="xtick_6">
     <g id="line2d_6"/>
     <g id="text_6">
      <!-- 55 -->
      <g style="fill:#666666;" transform="translate(225.400526 277.269375)scale(0.12 -0.12)">
       <use xlink:href="#ArialMT-35"/>
       <use x="55.615234" xlink:href="#ArialMT-35"/>
      </g>
     </g>
    </g>
    <g id="xtick_7">
     <g id="line2d_7"/>
     <g id="text_7">
      <!-- 65 -->
      <defs>
       <path d="M 49.75 54.046875 
L 41.015625 53.375 
Q 39.84375 58.546875 37.703125 60.890625 
Q 34.125 64.65625 28.90625 64.65625 
Q 24.703125 64.65625 21.53125 62.3125 
Q 17.390625 59.28125 14.984375 53.46875 
Q 12.59375 47.65625 12.5 36.921875 
Q 15.671875 41.75 20.265625 44.09375 
Q 24.859375 46.4375 29.890625 46.4375 
Q 38.671875 46.4375 44.84375 39.96875 
Q 51.03125 33.5 51.03125 23.25 
Q 51.03125 16.5 48.125 10.71875 
Q 45.21875 4.9375 40.140625 1.859375 
Q 35.0625 -1.21875 28.609375 -1.21875 
Q 17.625 -1.21875 10.6875 6.859375 
Q 3.765625 14.9375 3.765625 33.5 
Q 3.765625 54.25 11.421875 63.671875 
Q 18.109375 71.875 29.4375 71.875 
Q 37.890625 71.875 43.28125 67.140625 
Q 48.6875 62.40625 49.75 54.046875 
z
M 13.875 23.1875 
Q 13.875 18.65625 15.796875 14.5 
Q 17.71875 10.359375 21.1875 8.171875 
Q 24.65625 6 28.46875 6 
Q 34.03125 6 38.03125 10.484375 
Q 42.046875 14.984375 42.046875 22.703125 
Q 42.046875 30.125 38.078125 34.390625 
Q 34.125 38.671875 28.125 38.671875 
Q 22.171875 38.671875 18.015625 34.390625 
Q 13.875 30.125 13.875 23.1875 
z
" id="ArialMT-36"/>
      </defs>
      <g style="fill:#666666;" transform="translate(260.642632 277.269375)scale(0.12 -0.12)">
       <use xlink:href="#ArialMT-36"/>
       <use x="55.615234" xlink:href="#ArialMT-35"/>
      </g>
     </g>
    </g>
    <g id="xtick_8">
     <g id="line2d_8"/>
     <g id="text_8">
      <!-- 75 -->
      <defs>
       <path d="M 4.734375 62.203125 
L 4.734375 70.65625 
L 51.078125 70.65625 
L 51.078125 63.8125 
Q 44.234375 56.546875 37.515625 44.484375 
Q 30.8125 32.421875 27.15625 19.671875 
Q 24.515625 10.6875 23.78125 0 
L 14.75 0 
Q 14.890625 8.453125 18.0625 20.40625 
Q 21.234375 32.375 27.171875 43.484375 
Q 33.109375 54.59375 39.796875 62.203125 
z
" id="ArialMT-37"/>
      </defs>
      <g style="fill:#666666;" transform="translate(295.884737 277.269375)scale(0.12 -0.12)">
       <use xlink:href="#ArialMT-37"/>
       <use x="55.615234" xlink:href="#ArialMT-35"/>
      </g>
     </g>
    </g>
    <g id="xtick_9">
     <g id="line2d_9"/>
     <g id="text_9">
      <!-- 85 -->
      <defs>
       <path d="M 17.671875 38.8125 
Q 12.203125 40.828125 9.5625 44.53125 
Q 6.9375 48.25 6.9375 53.421875 
Q 6.9375 61.234375 12.546875 66.546875 
Q 18.171875 71.875 27.484375 71.875 
Q 36.859375 71.875 42.578125 66.421875 
Q 48.296875 60.984375 48.296875 53.171875 
Q 48.296875 48.1875 45.671875 44.5 
Q 43.0625 40.828125 37.75 38.8125 
Q 44.34375 36.671875 47.78125 31.875 
Q 51.21875 27.09375 51.21875 20.453125 
Q 51.21875 11.28125 44.71875 5.03125 
Q 38.234375 -1.21875 27.640625 -1.21875 
Q 17.046875 -1.21875 10.546875 5.046875 
Q 4.046875 11.328125 4.046875 20.703125 
Q 4.046875 27.6875 7.59375 32.390625 
Q 11.140625 37.109375 17.671875 38.8125 
z
M 15.921875 53.71875 
Q 15.921875 48.640625 19.1875 45.40625 
Q 22.46875 42.1875 27.6875 42.1875 
Q 32.765625 42.1875 36.015625 45.375 
Q 39.265625 48.578125 39.265625 53.21875 
Q 39.265625 58.0625 35.90625 61.359375 
Q 32.5625 64.65625 27.59375 64.65625 
Q 22.5625 64.65625 19.234375 61.421875 
Q 15.921875 58.203125 15.921875 53.71875 
z
M 13.09375 20.65625 
Q 13.09375 16.890625 14.875 13.375 
Q 16.65625 9.859375 20.171875 7.921875 
Q 23.6875 6 27.734375 6 
Q 34.03125 6 38.125 10.046875 
Q 42.234375 14.109375 42.234375 20.359375 
Q 42.234375 26.703125 38.015625 30.859375 
Q 33.796875 35.015625 27.4375 35.015625 
Q 21.234375 35.015625 17.15625 30.90625 
Q 13.09375 26.8125 13.09375 20.65625 
z
" id="ArialMT-38"/>
      </defs>
      <g style="fill:#666666;" transform="translate(331.126842 277.269375)scale(0.12 -0.12)">
       <use xlink:href="#ArialMT-38"/>
       <use x="55.615234" xlink:href="#ArialMT-35"/>
      </g>
     </g>
    </g>
    <g id="xtick_10">
     <g id="line2d_10"/>
     <g id="text_10">
      <!-- 95 -->
      <defs>
       <path d="M 5.46875 16.546875 
L 13.921875 17.328125 
Q 14.984375 11.375 18.015625 8.6875 
Q 21.046875 6 25.78125 6 
Q 29.828125 6 32.875 7.859375 
Q 35.9375 9.71875 37.890625 12.8125 
Q 39.84375 15.921875 41.15625 21.1875 
Q 42.484375 26.46875 42.484375 31.9375 
Q 42.484375 32.515625 42.4375 33.6875 
Q 39.796875 29.5 35.234375 26.875 
Q 30.671875 24.265625 25.34375 24.265625 
Q 16.453125 24.265625 10.296875 30.703125 
Q 4.15625 37.15625 4.15625 47.703125 
Q 4.15625 58.59375 10.578125 65.234375 
Q 17 71.875 26.65625 71.875 
Q 33.640625 71.875 39.421875 68.109375 
Q 45.21875 64.359375 48.21875 57.390625 
Q 51.21875 50.4375 51.21875 37.25 
Q 51.21875 23.53125 48.234375 15.40625 
Q 45.265625 7.28125 39.375 3.03125 
Q 33.5 -1.21875 25.59375 -1.21875 
Q 17.1875 -1.21875 11.859375 3.4375 
Q 6.546875 8.109375 5.46875 16.546875 
z
M 41.453125 48.140625 
Q 41.453125 55.71875 37.421875 60.15625 
Q 33.40625 64.59375 27.734375 64.59375 
Q 21.875 64.59375 17.53125 59.8125 
Q 13.1875 55.03125 13.1875 47.40625 
Q 13.1875 40.578125 17.3125 36.296875 
Q 21.4375 32.03125 27.484375 32.03125 
Q 33.59375 32.03125 37.515625 36.296875 
Q 41.453125 40.578125 41.453125 48.140625 
z
" id="ArialMT-39"/>
      </defs>
      <g style="fill:#666666;" transform="translate(366.368947 277.269375)scale(0.12 -0.12)">
       <use xlink:href="#ArialMT-39"/>
       <use x="55.615234" xlink:href="#ArialMT-35"/>
      </g>
     </g>
    </g>
    <g id="text_11">
     <!-- Sequence length -->
     <defs>
      <path d="M 4.5 23 
L 13.421875 23.78125 
Q 14.0625 18.40625 16.375 14.96875 
Q 18.703125 11.53125 23.578125 9.40625 
Q 28.46875 7.28125 34.578125 7.28125 
Q 39.984375 7.28125 44.140625 8.890625 
Q 48.296875 10.5 50.3125 13.296875 
Q 52.34375 16.109375 52.34375 19.4375 
Q 52.34375 22.796875 50.390625 25.3125 
Q 48.4375 27.828125 43.953125 29.546875 
Q 41.0625 30.671875 31.203125 33.03125 
Q 21.34375 35.40625 17.390625 37.5 
Q 12.25 40.1875 9.734375 44.15625 
Q 7.234375 48.140625 7.234375 53.078125 
Q 7.234375 58.5 10.296875 63.203125 
Q 13.375 67.921875 19.28125 70.359375 
Q 25.203125 72.796875 32.421875 72.796875 
Q 40.375 72.796875 46.453125 70.234375 
Q 52.546875 67.671875 55.8125 62.6875 
Q 59.078125 57.71875 59.328125 51.421875 
L 50.25 50.734375 
Q 49.515625 57.515625 45.28125 60.984375 
Q 41.0625 64.453125 32.8125 64.453125 
Q 24.21875 64.453125 20.28125 61.296875 
Q 16.359375 58.15625 16.359375 53.71875 
Q 16.359375 49.859375 19.140625 47.359375 
Q 21.875 44.875 33.421875 42.265625 
Q 44.96875 39.65625 49.265625 37.703125 
Q 55.515625 34.8125 58.484375 30.390625 
Q 61.46875 25.984375 61.46875 20.21875 
Q 61.46875 14.5 58.203125 9.4375 
Q 54.9375 4.390625 48.796875 1.578125 
Q 42.671875 -1.21875 35.015625 -1.21875 
Q 25.296875 -1.21875 18.71875 1.609375 
Q 12.15625 4.4375 8.421875 10.125 
Q 4.6875 15.828125 4.5 23 
z
" id="ArialMT-53"/>
      <path d="M 42.09375 16.703125 
L 51.171875 15.578125 
Q 49.03125 7.625 43.21875 3.21875 
Q 37.40625 -1.171875 28.375 -1.171875 
Q 17 -1.171875 10.328125 5.828125 
Q 3.65625 12.84375 3.65625 25.484375 
Q 3.65625 38.578125 10.390625 45.796875 
Q 17.140625 53.03125 27.875 53.03125 
Q 38.28125 53.03125 44.875 45.953125 
Q 51.46875 38.875 51.46875 26.03125 
Q 51.46875 25.25 51.421875 23.6875 
L 12.75 23.6875 
Q 13.234375 15.140625 17.578125 10.59375 
Q 21.921875 6.0625 28.421875 6.0625 
Q 33.25 6.0625 36.671875 8.59375 
Q 40.09375 11.140625 42.09375 16.703125 
z
M 13.234375 30.90625 
L 42.1875 30.90625 
Q 41.609375 37.453125 38.875 40.71875 
Q 34.671875 45.796875 27.984375 45.796875 
Q 21.921875 45.796875 17.796875 41.75 
Q 13.671875 37.703125 13.234375 30.90625 
z
" id="ArialMT-65"/>
      <path d="M 39.65625 -19.875 
L 39.65625 5.515625 
Q 37.59375 2.640625 33.90625 0.734375 
Q 30.21875 -1.171875 26.078125 -1.171875 
Q 16.84375 -1.171875 10.171875 6.203125 
Q 3.515625 13.578125 3.515625 26.421875 
Q 3.515625 34.234375 6.21875 40.421875 
Q 8.9375 46.625 14.078125 49.828125 
Q 19.234375 53.03125 25.390625 53.03125 
Q 35.015625 53.03125 40.53125 44.921875 
L 40.53125 51.859375 
L 48.4375 51.859375 
L 48.4375 -19.875 
z
M 12.546875 26.078125 
Q 12.546875 16.0625 16.75 11.0625 
Q 20.953125 6.0625 26.8125 6.0625 
Q 32.421875 6.0625 36.46875 10.8125 
Q 40.53125 15.578125 40.53125 25.296875 
Q 40.53125 35.640625 36.25 40.859375 
Q 31.984375 46.09375 26.21875 46.09375 
Q 20.515625 46.09375 16.53125 41.234375 
Q 12.546875 36.375 12.546875 26.078125 
z
" id="ArialMT-71"/>
      <path d="M 40.578125 0 
L 40.578125 7.625 
Q 34.515625 -1.171875 24.125 -1.171875 
Q 19.53125 -1.171875 15.546875 0.578125 
Q 11.578125 2.34375 9.640625 5 
Q 7.71875 7.671875 6.9375 11.53125 
Q 6.390625 14.109375 6.390625 19.734375 
L 6.390625 51.859375 
L 15.1875 51.859375 
L 15.1875 23.09375 
Q 15.1875 16.21875 15.71875 13.8125 
Q 16.546875 10.359375 19.234375 8.375 
Q 21.921875 6.390625 25.875 6.390625 
Q 29.828125 6.390625 33.296875 8.421875 
Q 36.765625 10.453125 38.203125 13.9375 
Q 39.65625 17.4375 39.65625 24.078125 
L 39.65625 51.859375 
L 48.4375 51.859375 
L 48.4375 0 
z
" id="ArialMT-75"/>
      <path d="M 6.59375 0 
L 6.59375 51.859375 
L 14.5 51.859375 
L 14.5 44.484375 
Q 20.21875 53.03125 31 53.03125 
Q 35.6875 53.03125 39.625 51.34375 
Q 43.5625 49.65625 45.515625 46.921875 
Q 47.46875 44.1875 48.25 40.4375 
Q 48.734375 37.984375 48.734375 31.890625 
L 48.734375 0 
L 39.9375 0 
L 39.9375 31.546875 
Q 39.9375 36.921875 38.90625 39.578125 
Q 37.890625 42.234375 35.28125 43.8125 
Q 32.671875 45.40625 29.15625 45.40625 
Q 23.53125 45.40625 19.453125 41.84375 
Q 15.375 38.28125 15.375 28.328125 
L 15.375 0 
z
" id="ArialMT-6e"/>
      <path d="M 40.4375 19 
L 49.078125 17.875 
Q 47.65625 8.9375 41.8125 3.875 
Q 35.984375 -1.171875 27.484375 -1.171875 
Q 16.84375 -1.171875 10.375 5.78125 
Q 3.90625 12.75 3.90625 25.734375 
Q 3.90625 34.125 6.6875 40.421875 
Q 9.46875 46.734375 15.15625 49.875 
Q 20.84375 53.03125 27.546875 53.03125 
Q 35.984375 53.03125 41.359375 48.75 
Q 46.734375 44.484375 48.25 36.625 
L 39.703125 35.296875 
Q 38.484375 40.53125 35.375 43.15625 
Q 32.28125 45.796875 27.875 45.796875 
Q 21.234375 45.796875 17.078125 41.03125 
Q 12.9375 36.28125 12.9375 25.984375 
Q 12.9375 15.53125 16.9375 10.796875 
Q 20.953125 6.0625 27.390625 6.0625 
Q 32.5625 6.0625 36.03125 9.234375 
Q 39.5 12.40625 40.4375 19 
z
" id="ArialMT-63"/>
      <path id="ArialMT-20"/>
      <path d="M 6.390625 0 
L 6.390625 71.578125 
L 15.1875 71.578125 
L 15.1875 0 
z
" id="ArialMT-6c"/>
      <path d="M 4.984375 -4.296875 
L 13.53125 -5.5625 
Q 14.0625 -9.515625 16.5 -11.328125 
Q 19.78125 -13.765625 25.4375 -13.765625 
Q 31.546875 -13.765625 34.859375 -11.328125 
Q 38.1875 -8.890625 39.359375 -4.5 
Q 40.046875 -1.8125 39.984375 6.78125 
Q 34.234375 0 25.640625 0 
Q 14.9375 0 9.078125 7.71875 
Q 3.21875 15.4375 3.21875 26.21875 
Q 3.21875 33.640625 5.90625 39.90625 
Q 8.59375 46.1875 13.6875 49.609375 
Q 18.796875 53.03125 25.6875 53.03125 
Q 34.859375 53.03125 40.828125 45.609375 
L 40.828125 51.859375 
L 48.921875 51.859375 
L 48.921875 7.03125 
Q 48.921875 -5.078125 46.453125 -10.125 
Q 44 -15.1875 38.640625 -18.109375 
Q 33.296875 -21.046875 25.484375 -21.046875 
Q 16.21875 -21.046875 10.5 -16.875 
Q 4.78125 -12.703125 4.984375 -4.296875 
z
M 12.25 26.859375 
Q 12.25 16.65625 16.296875 11.96875 
Q 20.359375 7.28125 26.46875 7.28125 
Q 32.515625 7.28125 36.609375 11.9375 
Q 40.71875 16.609375 40.71875 26.5625 
Q 40.71875 36.078125 36.5 40.90625 
Q 32.28125 45.75 26.3125 45.75 
Q 20.453125 45.75 16.34375 40.984375 
Q 12.25 36.234375 12.25 26.859375 
z
" id="ArialMT-67"/>
      <path d="M 25.78125 7.859375 
L 27.046875 0.09375 
Q 23.34375 -0.6875 20.40625 -0.6875 
Q 15.625 -0.6875 12.984375 0.828125 
Q 10.359375 2.34375 9.28125 4.8125 
Q 8.203125 7.28125 8.203125 15.1875 
L 8.203125 45.015625 
L 1.765625 45.015625 
L 1.765625 51.859375 
L 8.203125 51.859375 
L 8.203125 64.703125 
L 16.9375 69.96875 
L 16.9375 51.859375 
L 25.78125 51.859375 
L 25.78125 45.015625 
L 16.9375 45.015625 
L 16.9375 14.703125 
Q 16.9375 10.9375 17.40625 9.859375 
Q 17.875 8.796875 18.921875 8.15625 
Q 19.96875 7.515625 21.921875 7.515625 
Q 23.390625 7.515625 25.78125 7.859375 
z
" id="ArialMT-74"/>
      <path d="M 6.59375 0 
L 6.59375 71.578125 
L 15.375 71.578125 
L 15.375 45.90625 
Q 21.53125 53.03125 30.90625 53.03125 
Q 36.671875 53.03125 40.921875 50.75 
Q 45.171875 48.484375 47 44.484375 
Q 48.828125 40.484375 48.828125 32.859375 
L 48.828125 0 
L 40.046875 0 
L 40.046875 32.859375 
Q 40.046875 39.453125 37.1875 42.453125 
Q 34.328125 45.453125 29.109375 45.453125 
Q 25.203125 45.453125 21.75 43.421875 
Q 18.3125 41.40625 16.84375 37.9375 
Q 15.375 34.46875 15.375 28.375 
L 15.375 0 
z
" id="ArialMT-68"/>
     </defs>
     <g style="fill:#333333;" transform="translate(178.228438 292.39)scale(0.12 -0.12)">
      <use xlink:href="#ArialMT-53"/>
      <use x="66.699219" xlink:href="#ArialMT-65"/>
      <use x="122.314453" xlink:href="#ArialMT-71"/>
      <use x="177.929688" xlink:href="#ArialMT-75"/>
      <use x="233.544922" xlink:href="#ArialMT-65"/>
      <use x="289.160156" xlink:href="#ArialMT-6e"/>
      <use x="344.775391" xlink:href="#ArialMT-63"/>
      <use x="394.775391" xlink:href="#ArialMT-65"/>
      <use x="450.390625" xlink:href="#ArialMT-20"/>
      <use x="478.173828" xlink:href="#ArialMT-6c"/>
      <use x="500.390625" xlink:href="#ArialMT-65"/>
      <use x="556.005859" xlink:href="#ArialMT-6e"/>
      <use x="611.621094" xlink:href="#ArialMT-67"/>
      <use x="667.236328" xlink:href="#ArialMT-74"/>
      <use x="695.019531" xlink:href="#ArialMT-68"/>
     </g>
    </g>
   </g>
   <g id="matplotlib.axis_2">
    <g id="ytick_1">
     <g id="line2d_11"/>
     <g id="text_12">
      <!-- 0.2 -->
      <defs>
       <path d="M 52.828125 31.203125 
L 5.5625 31.203125 
L 5.5625 39.40625 
L 52.828125 39.40625 
z
" id="ArialMT-2212"/>
       <path d="M 4.15625 35.296875 
Q 4.15625 48 6.765625 55.734375 
Q 9.375 63.484375 14.515625 67.671875 
Q 19.671875 71.875 27.484375 71.875 
Q 33.25 71.875 37.59375 69.546875 
Q 41.9375 67.234375 44.765625 62.859375 
Q 47.609375 58.5 49.21875 52.21875 
Q 50.828125 45.953125 50.828125 35.296875 
Q 50.828125 22.703125 48.234375 14.96875 
Q 45.65625 7.234375 40.5 3 
Q 35.359375 -1.21875 27.484375 -1.21875 
Q 17.140625 -1.21875 11.234375 6.203125 
Q 4.15625 15.140625 4.15625 35.296875 
z
M 13.1875 35.296875 
Q 13.1875 17.671875 17.3125 11.828125 
Q 21.4375 6 27.484375 6 
Q 33.546875 6 37.671875 11.859375 
Q 41.796875 17.71875 41.796875 35.296875 
Q 41.796875 52.984375 37.671875 58.78125 
Q 33.546875 64.59375 27.390625 64.59375 
Q 21.34375 64.59375 17.71875 59.46875 
Q 13.1875 52.9375 13.1875 35.296875 
z
" id="ArialMT-30"/>
       <path d="M 9.078125 0 
L 9.078125 10.015625 
L 19.09375 10.015625 
L 19.09375 0 
z
" id="ArialMT-2e"/>
      </defs>
      <g style="fill:#666666;" transform="translate(22.174375 253.630515)scale(0.12 -0.12)">
       <use xlink:href="#ArialMT-2212"/>
       <use x="58.398438" xlink:href="#ArialMT-30"/>
       <use x="114.013672" xlink:href="#ArialMT-2e"/>
       <use x="141.796875" xlink:href="#ArialMT-32"/>
      </g>
     </g>
    </g>
    <g id="ytick_2">
     <g id="line2d_12"/>
     <g id="text_13">
      <!-- 0.1 -->
      <g style="fill:#666666;" transform="translate(22.174375 218.778557)scale(0.12 -0.12)">
       <use xlink:href="#ArialMT-2212"/>
       <use x="58.398438" xlink:href="#ArialMT-30"/>
       <use x="114.013672" xlink:href="#ArialMT-2e"/>
       <use x="141.796875" xlink:href="#ArialMT-31"/>
      </g>
     </g>
    </g>
    <g id="ytick_3">
     <g id="line2d_13"/>
     <g id="text_14">
      <!-- 0.0 -->
      <g style="fill:#666666;" transform="translate(29.183125 183.926598)scale(0.12 -0.12)">
       <use xlink:href="#ArialMT-30"/>
       <use x="55.615234" xlink:href="#ArialMT-2e"/>
       <use x="83.398438" xlink:href="#ArialMT-30"/>
      </g>
     </g>
    </g>
    <g id="ytick_4">
     <g id="line2d_14"/>
     <g id="text_15">
      <!-- 0.1 -->
      <g style="fill:#666666;" transform="translate(29.183125 149.07464)scale(0.12 -0.12)">
       <use xlink:href="#ArialMT-30"/>
       <use x="55.615234" xlink:href="#ArialMT-2e"/>
       <use x="83.398438" xlink:href="#ArialMT-31"/>
      </g>
     </g>
    </g>
    <g id="ytick_5">
     <g id="line2d_15"/>
     <g id="text_16">
      <!-- 0.2 -->
      <g style="fill:#666666;" transform="translate(29.183125 114.222682)scale(0.12 -0.12)">
       <use xlink:href="#ArialMT-30"/>
       <use x="55.615234" xlink:href="#ArialMT-2e"/>
       <use x="83.398438" xlink:href="#ArialMT-32"/>
      </g>
     </g>
    </g>
    <g id="ytick_6">
     <g id="line2d_16"/>
     <g id="text_17">
      <!-- 0.3 -->
      <g style="fill:#666666;" transform="translate(29.183125 79.370724)scale(0.12 -0.12)">
       <use xlink:href="#ArialMT-30"/>
       <use x="55.615234" xlink:href="#ArialMT-2e"/>
       <use x="83.398438" xlink:href="#ArialMT-33"/>
      </g>
     </g>
    </g>
    <g id="ytick_7">
     <g id="line2d_17"/>
     <g id="text_18">
      <!-- 0.4 -->
      <g style="fill:#666666;" transform="translate(29.183125 44.518766)scale(0.12 -0.12)">
       <use xlink:href="#ArialMT-30"/>
       <use x="55.615234" xlink:href="#ArialMT-2e"/>
       <use x="83.398438" xlink:href="#ArialMT-34"/>
      </g>
     </g>
    </g>
    <g id="text_19">
     <!-- Values of transition metrics -->
     <defs>
      <path d="M 28.171875 0 
L 0.4375 71.578125 
L 10.6875 71.578125 
L 29.296875 19.578125 
Q 31.546875 13.328125 33.0625 7.859375 
Q 34.71875 13.71875 36.921875 19.578125 
L 56.25 71.578125 
L 65.921875 71.578125 
L 37.890625 0 
z
" id="ArialMT-56"/>
      <path d="M 40.4375 6.390625 
Q 35.546875 2.25 31.03125 0.53125 
Q 26.515625 -1.171875 21.34375 -1.171875 
Q 12.796875 -1.171875 8.203125 3 
Q 3.609375 7.171875 3.609375 13.671875 
Q 3.609375 17.484375 5.34375 20.625 
Q 7.078125 23.78125 9.890625 25.6875 
Q 12.703125 27.59375 16.21875 28.5625 
Q 18.796875 29.25 24.03125 29.890625 
Q 34.671875 31.15625 39.703125 32.90625 
Q 39.75 34.71875 39.75 35.203125 
Q 39.75 40.578125 37.25 42.78125 
Q 33.890625 45.75 27.25 45.75 
Q 21.046875 45.75 18.09375 43.578125 
Q 15.140625 41.40625 13.71875 35.890625 
L 5.125 37.0625 
Q 6.296875 42.578125 8.984375 45.96875 
Q 11.671875 49.359375 16.75 51.1875 
Q 21.828125 53.03125 28.515625 53.03125 
Q 35.15625 53.03125 39.296875 51.46875 
Q 43.453125 49.90625 45.40625 47.53125 
Q 47.359375 45.171875 48.140625 41.546875 
Q 48.578125 39.3125 48.578125 33.453125 
L 48.578125 21.734375 
Q 48.578125 9.46875 49.140625 6.21875 
Q 49.703125 2.984375 51.375 0 
L 42.1875 0 
Q 40.828125 2.734375 40.4375 6.390625 
z
M 39.703125 26.03125 
Q 34.90625 24.078125 25.34375 22.703125 
Q 19.921875 21.921875 17.671875 20.9375 
Q 15.4375 19.96875 14.203125 18.09375 
Q 12.984375 16.21875 12.984375 13.921875 
Q 12.984375 10.40625 15.640625 8.0625 
Q 18.3125 5.71875 23.4375 5.71875 
Q 28.515625 5.71875 32.46875 7.9375 
Q 36.421875 10.15625 38.28125 14.015625 
Q 39.703125 17 39.703125 22.796875 
z
" id="ArialMT-61"/>
      <path d="M 3.078125 15.484375 
L 11.765625 16.84375 
Q 12.5 11.625 15.84375 8.84375 
Q 19.1875 6.0625 25.203125 6.0625 
Q 31.25 6.0625 34.171875 8.515625 
Q 37.109375 10.984375 37.109375 14.3125 
Q 37.109375 17.28125 34.515625 19 
Q 32.71875 20.171875 25.53125 21.96875 
Q 15.875 24.421875 12.140625 26.203125 
Q 8.40625 27.984375 6.46875 31.125 
Q 4.546875 34.28125 4.546875 38.09375 
Q 4.546875 41.546875 6.125 44.5 
Q 7.71875 47.46875 10.453125 49.421875 
Q 12.5 50.921875 16.03125 51.96875 
Q 19.578125 53.03125 23.640625 53.03125 
Q 29.734375 53.03125 34.34375 51.265625 
Q 38.96875 49.515625 41.15625 46.5 
Q 43.359375 43.5 44.1875 38.484375 
L 35.59375 37.3125 
Q 35.015625 41.3125 32.203125 43.546875 
Q 29.390625 45.796875 24.265625 45.796875 
Q 18.21875 45.796875 15.625 43.796875 
Q 13.03125 41.796875 13.03125 39.109375 
Q 13.03125 37.40625 14.109375 36.03125 
Q 15.1875 34.625 17.484375 33.6875 
Q 18.796875 33.203125 25.25 31.453125 
Q 34.578125 28.953125 38.25 27.359375 
Q 41.9375 25.78125 44.03125 22.75 
Q 46.140625 19.734375 46.140625 15.234375 
Q 46.140625 10.84375 43.578125 6.953125 
Q 41.015625 3.078125 36.171875 0.953125 
Q 31.34375 -1.171875 25.25 -1.171875 
Q 15.140625 -1.171875 9.84375 3.03125 
Q 4.546875 7.234375 3.078125 15.484375 
z
" id="ArialMT-73"/>
      <path d="M 3.328125 25.921875 
Q 3.328125 40.328125 11.328125 47.265625 
Q 18.015625 53.03125 27.640625 53.03125 
Q 38.328125 53.03125 45.109375 46.015625 
Q 51.90625 39.015625 51.90625 26.65625 
Q 51.90625 16.65625 48.90625 10.90625 
Q 45.90625 5.171875 40.15625 2 
Q 34.421875 -1.171875 27.640625 -1.171875 
Q 16.75 -1.171875 10.03125 5.8125 
Q 3.328125 12.796875 3.328125 25.921875 
z
M 12.359375 25.921875 
Q 12.359375 15.96875 16.703125 11.015625 
Q 21.046875 6.0625 27.640625 6.0625 
Q 34.1875 6.0625 38.53125 11.03125 
Q 42.875 16.015625 42.875 26.21875 
Q 42.875 35.84375 38.5 40.796875 
Q 34.125 45.75 27.640625 45.75 
Q 21.046875 45.75 16.703125 40.8125 
Q 12.359375 35.890625 12.359375 25.921875 
z
" id="ArialMT-6f"/>
      <path d="M 8.6875 0 
L 8.6875 45.015625 
L 0.921875 45.015625 
L 0.921875 51.859375 
L 8.6875 51.859375 
L 8.6875 57.375 
Q 8.6875 62.59375 9.625 65.140625 
Q 10.890625 68.5625 14.078125 70.671875 
Q 17.28125 72.796875 23.046875 72.796875 
Q 26.765625 72.796875 31.25 71.921875 
L 29.9375 64.265625 
Q 27.203125 64.75 24.75 64.75 
Q 20.75 64.75 19.09375 63.03125 
Q 17.4375 61.328125 17.4375 56.640625 
L 17.4375 51.859375 
L 27.546875 51.859375 
L 27.546875 45.015625 
L 17.4375 45.015625 
L 17.4375 0 
z
" id="ArialMT-66"/>
      <path d="M 6.5 0 
L 6.5 51.859375 
L 14.40625 51.859375 
L 14.40625 44 
Q 17.4375 49.515625 20 51.265625 
Q 22.5625 53.03125 25.640625 53.03125 
Q 30.078125 53.03125 34.671875 50.203125 
L 31.640625 42.046875 
Q 28.421875 43.953125 25.203125 43.953125 
Q 22.3125 43.953125 20.015625 42.21875 
Q 17.71875 40.484375 16.75 37.40625 
Q 15.28125 32.71875 15.28125 27.15625 
L 15.28125 0 
z
" id="ArialMT-72"/>
      <path d="M 6.640625 61.46875 
L 6.640625 71.578125 
L 15.4375 71.578125 
L 15.4375 61.46875 
z
M 6.640625 0 
L 6.640625 51.859375 
L 15.4375 51.859375 
L 15.4375 0 
z
" id="ArialMT-69"/>
      <path d="M 6.59375 0 
L 6.59375 51.859375 
L 14.453125 51.859375 
L 14.453125 44.578125 
Q 16.890625 48.390625 20.9375 50.703125 
Q 25 53.03125 30.171875 53.03125 
Q 35.9375 53.03125 39.625 50.640625 
Q 43.3125 48.25 44.828125 43.953125 
Q 50.984375 53.03125 60.84375 53.03125 
Q 68.5625 53.03125 72.703125 48.75 
Q 76.859375 44.484375 76.859375 35.59375 
L 76.859375 0 
L 68.109375 0 
L 68.109375 32.671875 
Q 68.109375 37.9375 67.25 40.25 
Q 66.40625 42.578125 64.15625 43.984375 
Q 61.921875 45.40625 58.890625 45.40625 
Q 53.421875 45.40625 49.796875 41.765625 
Q 46.1875 38.140625 46.1875 30.125 
L 46.1875 0 
L 37.40625 0 
L 37.40625 33.6875 
Q 37.40625 39.546875 35.25 42.46875 
Q 33.109375 45.40625 28.21875 45.40625 
Q 24.515625 45.40625 21.359375 43.453125 
Q 18.21875 41.5 16.796875 37.734375 
Q 15.375 33.984375 15.375 26.90625 
L 15.375 0 
z
" id="ArialMT-6d"/>
     </defs>
     <g style="fill:#333333;" transform="translate(15.789375 205.95875)rotate(-90)scale(0.12 -0.12)">
      <use xlink:href="#ArialMT-56"/>
      <use x="66.589844" xlink:href="#ArialMT-61"/>
      <use x="122.205078" xlink:href="#ArialMT-6c"/>
      <use x="144.421875" xlink:href="#ArialMT-75"/>
      <use x="200.037109" xlink:href="#ArialMT-65"/>
      <use x="255.652344" xlink:href="#ArialMT-73"/>
      <use x="305.652344" xlink:href="#ArialMT-20"/>
      <use x="333.435547" xlink:href="#ArialMT-6f"/>
      <use x="389.050781" xlink:href="#ArialMT-66"/>
      <use x="416.833984" xlink:href="#ArialMT-20"/>
      <use x="444.617188" xlink:href="#ArialMT-74"/>
      <use x="472.400391" xlink:href="#ArialMT-72"/>
      <use x="505.701172" xlink:href="#ArialMT-61"/>
      <use x="561.316406" xlink:href="#ArialMT-6e"/>
      <use x="616.931641" xlink:href="#ArialMT-73"/>
      <use x="666.931641" xlink:href="#ArialMT-69"/>
      <use x="689.148438" xlink:href="#ArialMT-74"/>
      <use x="716.931641" xlink:href="#ArialMT-69"/>
      <use x="739.148438" xlink:href="#ArialMT-6f"/>
      <use x="794.763672" xlink:href="#ArialMT-6e"/>
      <use x="850.378906" xlink:href="#ArialMT-20"/>
      <use x="878.162109" xlink:href="#ArialMT-6d"/>
      <use x="961.462891" xlink:href="#ArialMT-65"/>
      <use x="1017.078125" xlink:href="#ArialMT-74"/>
      <use x="1044.861328" xlink:href="#ArialMT-72"/>
      <use x="1078.162109" xlink:href="#ArialMT-69"/>
      <use x="1100.378906" xlink:href="#ArialMT-63"/>
      <use x="1150.378906" xlink:href="#ArialMT-73"/>
     </g>
    </g>
   </g>
   <g id="line2d_18">
    <path clip-path="url(#p81f565262e)" d="M 55.863125 143.863839 
L 59.387336 153.806864 
L 62.911546 159.003652 
L 66.435757 163.116096 
L 69.959967 165.703176 
L 73.484178 166.746831 
L 77.008388 167.725335 
L 80.532599 168.92225 
L 84.056809 168.859995 
L 87.58102 171.242608 
L 91.10523 171.798236 
L 94.629441 171.474699 
L 98.153651 171.773819 
L 101.677862 172.788807 
L 105.202072 173.034391 
L 108.726283 173.100169 
L 112.250493 173.50533 
L 115.774704 174.015233 
L 119.298914 173.415207 
L 122.823125 173.778459 
L 126.347336 173.845059 
L 129.871546 174.088151 
L 133.395757 174.681389 
L 136.919967 174.689417 
L 140.444178 174.646216 
L 143.968388 175.0588 
L 147.492599 175.235412 
L 151.016809 175.345743 
L 154.54102 175.660722 
L 158.06523 175.574617 
L 161.589441 175.330138 
L 165.113651 175.640801 
L 168.637862 175.28678 
L 172.162072 175.561263 
L 175.686283 176.048734 
L 179.210493 176.026371 
L 182.734704 175.791763 
L 186.258914 176.194513 
L 189.783125 176.449632 
L 193.307336 176.31814 
L 196.831546 176.437018 
L 200.355757 176.555982 
L 203.879967 176.30507 
L 207.404178 176.229296 
L 210.928388 176.877559 
L 214.452599 176.870416 
L 217.976809 176.763433 
L 221.50102 176.576587 
L 225.02523 175.800502 
L 228.549441 176.804709 
L 232.073651 176.612423 
L 235.597862 177.055071 
L 239.122072 177.014532 
L 242.646283 176.704613 
L 246.170493 177.186987 
L 249.694704 176.873057 
L 253.218914 177.377975 
L 256.743125 177.00611 
L 260.267336 177.402808 
L 263.791546 177.24391 
L 267.315757 177.690823 
L 270.839967 177.445377 
L 274.364178 177.36488 
L 277.888388 177.299417 
L 281.412599 177.098137 
L 284.936809 177.048329 
L 288.46102 177.404674 
L 291.98523 177.516656 
L 295.509441 177.244789 
L 299.033651 177.555273 
L 302.557862 177.513766 
L 306.082072 177.761456 
L 309.606283 177.245713 
L 313.130493 177.312076 
L 316.654704 177.015831 
L 320.178914 177.342875 
L 323.703125 177.716971 
L 327.227336 177.259905 
L 330.751546 177.756656 
L 334.275757 177.620952 
L 337.799967 177.370483 
L 341.324178 177.497689 
L 344.848388 177.649127 
L 348.372599 178.053744 
L 351.896809 177.884743 
L 355.42102 177.670797 
L 358.94523 177.457681 
L 362.469441 177.80766 
L 365.993651 177.663653 
L 369.517862 177.78699 
L 373.042072 177.928391 
L 376.566283 177.634452 
L 380.090493 177.4979 
L 383.614704 177.890067 
L 387.138914 178.04474 
L 390.663125 177.970521 
" style="fill:none;stroke:#7fc97f;stroke-linecap:square;stroke-width:1.5;"/>
   </g>
   <g id="line2d_19">
    <path clip-path="url(#p81f565262e)" d="M 55.863125 128.583969 
L 59.387336 143.802498 
L 62.911546 149.862264 
L 66.435757 156.379091 
L 69.959967 159.52178 
L 73.484178 162.084975 
L 77.008388 163.46267 
L 80.532599 164.922956 
L 84.056809 166.110558 
L 87.58102 168.758442 
L 91.10523 169.270619 
L 94.629441 169.067635 
L 98.153651 169.85557 
L 101.677862 170.613857 
L 105.202072 171.482046 
L 108.726283 171.338994 
L 112.250493 172.401433 
L 115.774704 172.767109 
L 119.298914 171.382416 
L 122.823125 172.363693 
L 126.347336 173.07389 
L 129.871546 173.036887 
L 133.395757 173.320699 
L 136.919967 173.462245 
L 140.444178 173.564778 
L 143.968388 174.628175 
L 147.492599 174.896877 
L 151.016809 174.895174 
L 154.54102 175.014556 
L 158.06523 174.945647 
L 161.589441 174.771283 
L 165.113651 174.724329 
L 168.637862 174.737516 
L 172.162072 174.930302 
L 175.686283 175.494029 
L 179.210493 175.47061 
L 182.734704 175.567154 
L 186.258914 175.870119 
L 189.783125 176.216223 
L 193.307336 176.027195 
L 196.831546 176.352977 
L 200.355757 176.363245 
L 203.879967 175.981088 
L 207.404178 175.714295 
L 210.928388 176.545156 
L 214.452599 176.480408 
L 217.976809 176.363939 
L 221.50102 176.178211 
L 225.02523 175.486056 
L 228.549441 176.449285 
L 232.073651 176.324043 
L 235.597862 176.981486 
L 239.122072 176.658019 
L 242.646283 176.496379 
L 246.170493 176.690418 
L 249.694704 176.743904 
L 253.218914 177.129196 
L 256.743125 176.976653 
L 260.267336 177.165545 
L 263.791546 177.08966 
L 267.315757 177.628973 
L 270.839967 177.414365 
L 274.364178 177.218722 
L 277.888388 177.362606 
L 281.412599 176.902552 
L 284.936809 176.936242 
L 288.46102 177.234515 
L 291.98523 177.412924 
L 295.509441 177.116838 
L 299.033651 177.374133 
L 302.557862 177.617829 
L 306.082072 177.672408 
L 309.606283 177.085127 
L 313.130493 177.306567 
L 316.654704 176.961571 
L 320.178914 177.154108 
L 323.703125 177.549204 
L 327.227336 177.220295 
L 330.751546 177.653999 
L 334.275757 177.405345 
L 337.799967 177.268866 
L 341.324178 177.369117 
L 344.848388 177.489557 
L 348.372599 177.87908 
L 351.896809 177.97575 
L 355.42102 177.552111 
L 358.94523 177.353011 
L 362.469441 177.821315 
L 365.993651 177.45077 
L 369.517862 177.632109 
L 373.042072 177.82869 
L 376.566283 177.492291 
L 380.090493 177.343309 
L 383.614704 177.792775 
L 387.138914 178.107398 
L 390.663125 177.952889 
" style="fill:none;stroke:#beaed4;stroke-linecap:square;stroke-width:1.5;"/>
   </g>
   <g id="line2d_20">
    <path clip-path="url(#p81f565262e)" d="M 55.863125 79.634974 
L 59.387336 104.036505 
L 62.911546 114.6242 
L 66.435757 126.343736 
L 69.959967 132.675066 
L 73.484178 134.910508 
L 77.008388 135.98168 
L 80.532599 138.520079 
L 84.056809 137.163146 
L 87.58102 145.412289 
L 91.10523 145.702678 
L 94.629441 144.152458 
L 98.153651 145.162758 
L 101.677862 148.311164 
L 105.202072 149.249211 
L 108.726283 149.057746 
L 112.250493 149.482088 
L 115.774704 152.107707 
L 119.298914 147.829468 
L 122.823125 148.857493 
L 126.347336 149.922721 
L 129.871546 150.437023 
L 133.395757 152.748411 
L 136.919967 152.39343 
L 140.444178 151.503116 
L 143.968388 153.810697 
L 147.492599 154.259867 
L 151.016809 154.580074 
L 154.54102 155.692094 
L 158.06523 155.120897 
L 161.589441 152.907774 
L 165.113651 155.320711 
L 168.637862 152.266159 
L 172.162072 153.590976 
L 175.686283 156.496518 
L 179.210493 155.707444 
L 182.734704 154.409762 
L 186.258914 156.534342 
L 189.783125 158.236028 
L 193.307336 157.266015 
L 196.831546 157.449526 
L 200.355757 158.00303 
L 203.879967 155.937502 
L 207.404178 155.259926 
L 210.928388 159.561238 
L 214.452599 159.554191 
L 217.976809 158.339997 
L 221.50102 156.966208 
L 225.02523 150.939279 
L 228.549441 158.392418 
L 232.073651 156.874762 
L 235.597862 160.036047 
L 239.122072 159.416975 
L 242.646283 156.909635 
L 246.170493 160.592551 
L 249.694704 157.973234 
L 253.218914 161.581436 
L 256.743125 158.752653 
L 260.267336 161.479248 
L 263.791546 160.116781 
L 267.315757 163.728484 
L 270.839967 161.358251 
L 274.364178 160.575062 
L 277.888388 160.349704 
L 281.412599 158.316094 
L 284.936809 157.883275 
L 288.46102 160.659238 
L 291.98523 161.323096 
L 295.509441 158.794714 
L 299.033651 161.197706 
L 302.557862 161.165188 
L 306.082072 162.876772 
L 309.606283 158.316043 
L 313.130493 158.919309 
L 316.654704 155.966364 
L 320.178914 158.982923 
L 323.703125 162.16629 
L 327.227336 158.016312 
L 330.751546 162.095564 
L 334.275757 160.801754 
L 337.799967 158.490805 
L 341.324178 159.559939 
L 344.848388 160.883987 
L 348.372599 164.501124 
L 351.896809 162.927455 
L 355.42102 160.749623 
L 358.94523 158.669315 
L 362.469441 161.963743 
L 365.993651 160.293275 
L 369.517862 161.504173 
L 373.042072 162.796494 
L 376.566283 159.861552 
L 380.090493 158.315073 
L 383.614704 162.123325 
L 387.138914 163.798224 
L 390.663125 162.971513 
" style="fill:none;stroke:#386cb0;stroke-linecap:square;stroke-width:1.5;"/>
   </g>
   <g id="line2d_21">
    <path clip-path="url(#p81f565262e)" d="M 55.863125 44.051958 
L 59.387336 58.596428 
L 62.911546 65.160111 
L 66.435757 71.291219 
L 69.959967 75.264952 
L 73.484178 78.069044 
L 77.008388 79.018474 
L 80.532599 81.0287 
L 84.056809 82.261967 
L 87.58102 83.550169 
L 91.10523 84.389651 
L 94.629441 84.447549 
L 98.153651 84.991666 
L 101.677862 85.868769 
L 105.202072 86.20847 
L 108.726283 85.978084 
L 112.250493 87.086056 
L 115.774704 87.000269 
L 119.298914 86.517058 
L 122.823125 87.256914 
L 126.347336 87.491143 
L 129.871546 87.680481 
L 133.395757 87.81931 
L 136.919967 88.276318 
L 140.444178 88.286697 
L 143.968388 88.666803 
L 147.492599 89.01635 
L 151.016809 88.700084 
L 154.54102 88.857121 
L 158.06523 88.920082 
L 161.589441 88.867364 
L 165.113651 88.975408 
L 168.637862 88.713771 
L 172.162072 89.102384 
L 175.686283 89.526279 
L 179.210493 89.480077 
L 182.734704 89.367094 
L 186.258914 89.596783 
L 189.783125 89.804723 
L 193.307336 89.702344 
L 196.831546 90.072686 
L 200.355757 90.227046 
L 203.879967 89.684521 
L 207.404178 89.690896 
L 210.928388 90.058896 
L 214.452599 90.200676 
L 217.976809 89.784693 
L 221.50102 89.759892 
L 225.02523 89.723861 
L 228.549441 90.323497 
L 232.073651 89.836176 
L 235.597862 90.297175 
L 239.122072 90.216282 
L 242.646283 90.205414 
L 246.170493 90.472282 
L 249.694704 90.298996 
L 253.218914 90.743358 
L 256.743125 90.491279 
L 260.267336 90.242599 
L 263.791546 90.540705 
L 267.315757 90.865547 
L 270.839967 90.70229 
L 274.364178 90.483315 
L 277.888388 90.896161 
L 281.412599 90.665638 
L 284.936809 90.392482 
L 288.46102 90.643285 
L 291.98523 90.90941 
L 295.509441 90.712939 
L 299.033651 90.774276 
L 302.557862 90.879546 
L 306.082072 90.666688 
L 309.606283 90.537507 
L 313.130493 90.806529 
L 316.654704 90.224523 
L 320.178914 90.687699 
L 323.703125 90.819971 
L 327.227336 90.584195 
L 330.751546 90.938235 
L 334.275757 90.862437 
L 337.799967 90.643284 
L 341.324178 90.737278 
L 344.848388 91.137398 
L 348.372599 90.876963 
L 351.896809 91.146382 
L 355.42102 90.99068 
L 358.94523 90.538103 
L 362.469441 91.139537 
L 365.993651 90.684145 
L 369.517862 91.002272 
L 373.042072 91.142472 
L 376.566283 90.989108 
L 380.090493 90.979917 
L 383.614704 91.081738 
L 387.138914 91.350452 
L 390.663125 91.179196 
" style="fill:none;stroke:#bf5b17;stroke-linecap:square;stroke-width:1.5;"/>
   </g>
   <g id="line2d_22">
    <path clip-path="url(#p81f565262e)" d="M 55.863125 129.633442 
L 59.387336 145.824617 
L 62.911546 153.092624 
L 66.435757 159.490874 
L 69.959967 163.030159 
L 73.484178 164.724777 
L 77.008388 165.828496 
L 80.532599 167.236227 
L 84.056809 167.372234 
L 87.58102 170.141095 
L 91.10523 170.563942 
L 94.629441 170.471156 
L 98.153651 171.014623 
L 101.677862 172.035514 
L 105.202072 172.47064 
L 108.726283 172.617716 
L 112.250493 172.890206 
L 115.774704 173.625637 
L 119.298914 172.851607 
L 122.823125 173.215001 
L 126.347336 173.567548 
L 129.871546 173.792933 
L 133.395757 174.359623 
L 136.919967 174.389863 
L 140.444178 174.316068 
L 143.968388 174.837032 
L 147.492599 174.999631 
L 151.016809 175.132468 
L 154.54102 175.399909 
L 158.06523 175.365091 
L 161.589441 175.048759 
L 165.113651 175.522568 
L 168.637862 175.070952 
L 172.162072 175.350808 
L 175.686283 175.878855 
L 179.210493 175.80093 
L 182.734704 175.643939 
L 186.258914 176.024677 
L 189.783125 176.330454 
L 193.307336 176.221144 
L 196.831546 176.287791 
L 200.355757 176.407668 
L 203.879967 176.138361 
L 207.404178 176.076892 
L 210.928388 176.734959 
L 214.452599 176.763665 
L 217.976809 176.620779 
L 221.50102 176.458078 
L 225.02523 175.652959 
L 228.549441 176.714442 
L 232.073651 176.535055 
L 235.597862 176.989605 
L 239.122072 176.930576 
L 242.646283 176.622272 
L 246.170493 177.131921 
L 249.694704 176.812191 
L 253.218914 177.301605 
L 256.743125 176.958596 
L 260.267336 177.32652 
L 263.791546 177.173236 
L 267.315757 177.643982 
L 270.839967 177.365342 
L 274.364178 177.286175 
L 277.888388 177.276214 
L 281.412599 177.046988 
L 284.936809 177.013683 
L 288.46102 177.364243 
L 291.98523 177.459054 
L 295.509441 177.176224 
L 299.033651 177.47435 
L 302.557862 177.485198 
L 306.082072 177.697194 
L 309.606283 177.186813 
L 313.130493 177.271491 
L 316.654704 176.952315 
L 320.178914 177.308718 
L 323.703125 177.679195 
L 327.227336 177.230178 
L 330.751546 177.695345 
L 334.275757 177.565033 
L 337.799967 177.325227 
L 341.324178 177.4548 
L 344.848388 177.61027 
L 348.372599 178.00972 
L 351.896809 177.85121 
L 355.42102 177.630392 
L 358.94523 177.422259 
L 362.469441 177.779784 
L 365.993651 177.615719 
L 369.517862 177.752152 
L 373.042072 177.89547 
L 376.566283 177.603515 
L 380.090493 177.45627 
L 383.614704 177.854183 
L 387.138914 178.032467 
L 390.663125 177.957478 
" style="fill:none;stroke:#fdc086;stroke-linecap:square;stroke-width:1.5;"/>
   </g>
   <g id="line2d_23">
    <path clip-path="url(#p81f565262e)" d="M 55.863125 161.599605 
L 59.387336 193.28107 
L 62.911546 205.791699 
L 66.435757 218.077359 
L 69.959967 222.025283 
L 73.484178 223.828042 
L 77.008388 222.376797 
L 80.532599 222.639927 
L 84.056809 218.507031 
L 87.58102 219.592216 
L 91.10523 216.129983 
L 94.629441 212.916302 
L 98.153651 209.713701 
L 101.677862 209.823152 
L 105.202072 207.610927 
L 108.726283 204.887497 
L 112.250493 203.553312 
L 115.774704 203.049154 
L 119.298914 199.146555 
L 122.823125 198.102445 
L 126.347336 196.973387 
L 129.871546 195.859212 
L 133.395757 196.285845 
L 136.919967 195.089128 
L 140.444178 193.601238 
L 143.968388 193.320917 
L 147.492599 193.005312 
L 151.016809 192.016026 
L 154.54102 191.936473 
L 158.06523 191.239933 
L 161.589441 188.680387 
L 165.113651 189.784821 
L 168.637862 187.259987 
L 172.162072 187.549285 
L 175.686283 188.815577 
L 179.210493 188.054034 
L 182.734704 187.420617 
L 186.258914 187.224313 
L 189.783125 187.901503 
L 193.307336 187.312993 
L 196.831546 186.318036 
L 200.355757 186.592414 
L 203.879967 185.822658 
L 207.404178 184.893409 
L 210.928388 186.320856 
L 214.452599 186.014953 
L 217.976809 184.864568 
L 221.50102 184.339197 
L 225.02523 182.268822 
L 228.549441 184.634421 
L 232.073651 184.324917 
L 235.597862 185.081346 
L 239.122072 184.644087 
L 242.646283 183.485242 
L 246.170493 184.621479 
L 249.694704 183.794826 
L 253.218914 184.679593 
L 256.743125 183.703847 
L 260.267336 184.201281 
L 263.791546 183.946682 
L 267.315757 184.434696 
L 270.839967 184.191086 
L 274.364178 183.266129 
L 277.888388 183.249901 
L 281.412599 182.574176 
L 284.936809 182.416826 
L 288.46102 183.005699 
L 291.98523 183.232756 
L 295.509441 182.549849 
L 299.033651 182.942601 
L 302.557862 182.95098 
L 306.082072 183.214499 
L 309.606283 181.697331 
L 313.130493 182.12431 
L 316.654704 180.968865 
L 320.178914 182.016568 
L 323.703125 182.667226 
L 327.227336 181.635033 
L 330.751546 182.613501 
L 334.275757 182.068614 
L 337.799967 181.190544 
L 341.324178 181.241196 
L 344.848388 181.765027 
L 348.372599 182.75711 
L 351.896809 182.200491 
L 355.42102 181.70603 
L 358.94523 180.843332 
L 362.469441 182.09858 
L 365.993651 181.247629 
L 369.517862 181.714371 
L 373.042072 181.943744 
L 376.566283 181.19993 
L 380.090493 180.627817 
L 383.614704 181.487444 
L 387.138914 182.051627 
L 390.663125 181.744131 
" style="fill:none;stroke:#f0027f;stroke-linecap:square;stroke-width:1.5;"/>
   </g>
   <g id="line2d_24">
    <path clip-path="url(#p81f565262e)" d="M 55.863125 179.631911 
L 59.387336 179.631911 
L 62.911546 179.631911 
L 66.435757 179.631911 
L 69.959967 179.631911 
L 73.484178 179.631911 
L 77.008388 179.631911 
L 80.532599 179.631911 
L 84.056809 179.631911 
L 87.58102 179.631911 
L 91.10523 179.631911 
L 94.629441 179.631911 
L 98.153651 179.631911 
L 101.677862 179.631911 
L 105.202072 179.631911 
L 108.726283 179.631911 
L 112.250493 179.631911 
L 115.774704 179.631911 
L 119.298914 179.631911 
L 122.823125 179.631911 
L 126.347336 179.631911 
L 129.871546 179.631911 
L 133.395757 179.631911 
L 136.919967 179.631911 
L 140.444178 179.631911 
L 143.968388 179.631911 
L 147.492599 179.631911 
L 151.016809 179.631911 
L 154.54102 179.631911 
L 158.06523 179.631911 
L 161.589441 179.631911 
L 165.113651 179.631911 
L 168.637862 179.631911 
L 172.162072 179.631911 
L 175.686283 179.631911 
L 179.210493 179.631911 
L 182.734704 179.631911 
L 186.258914 179.631911 
L 189.783125 179.631911 
L 193.307336 179.631911 
L 196.831546 179.631911 
L 200.355757 179.631911 
L 203.879967 179.631911 
L 207.404178 179.631911 
L 210.928388 179.631911 
L 214.452599 179.631911 
L 217.976809 179.631911 
L 221.50102 179.631911 
L 225.02523 179.631911 
L 228.549441 179.631911 
L 232.073651 179.631911 
L 235.597862 179.631911 
L 239.122072 179.631911 
L 242.646283 179.631911 
L 246.170493 179.631911 
L 249.694704 179.631911 
L 253.218914 179.631911 
L 256.743125 179.631911 
L 260.267336 179.631911 
L 263.791546 179.631911 
L 267.315757 179.631911 
L 270.839967 179.631911 
L 274.364178 179.631911 
L 277.888388 179.631911 
L 281.412599 179.631911 
L 284.936809 179.631911 
L 288.46102 179.631911 
L 291.98523 179.631911 
L 295.509441 179.631911 
L 299.033651 179.631911 
L 302.557862 179.631911 
L 306.082072 179.631911 
L 309.606283 179.631911 
L 313.130493 179.631911 
L 316.654704 179.631911 
L 320.178914 179.631911 
L 323.703125 179.631911 
L 327.227336 179.631911 
L 330.751546 179.631911 
L 334.275757 179.631911 
L 337.799967 179.631911 
L 341.324178 179.631911 
L 344.848388 179.631911 
L 348.372599 179.631911 
L 351.896809 179.631911 
L 355.42102 179.631911 
L 358.94523 179.631911 
L 362.469441 179.631911 
L 365.993651 179.631911 
L 369.517862 179.631911 
L 373.042072 179.631911 
L 376.566283 179.631911 
L 380.090493 179.631911 
L 383.614704 179.631911 
L 387.138914 179.631911 
L 390.663125 179.631911 
" style="fill:none;opacity:0.4;stroke:#000000;stroke-dasharray:5.55,2.4;stroke-dashoffset:0;stroke-width:1.5;"/>
   </g>
   <g id="patch_3">
    <path d="M 55.863125 258.68 
L 55.863125 9.2 
" style="fill:none;stroke:#cccccc;stroke-linecap:square;stroke-linejoin:miter;stroke-width:0.75;"/>
   </g>
   <g id="patch_4">
    <path d="M 55.863125 258.68 
L 390.663125 258.68 
" style="fill:none;stroke:#cccccc;stroke-linecap:square;stroke-linejoin:miter;stroke-width:0.75;"/>
   </g>
   <g id="legend_1">
    <g id="patch_5">
     <path d="M 306.76625 120.64625 
L 384.663125 120.64625 
L 384.663125 15.2 
L 306.76625 15.2 
z
" style="fill:#ffffff;opacity:0.6;"/>
    </g>
    <g id="line2d_25">
     <path d="M 311.56625 24.389375 
L 335.56625 24.389375 
" style="fill:none;stroke:#7fc97f;stroke-linecap:square;stroke-width:1.5;"/>
    </g>
    <g id="line2d_26"/>
    <g id="text_20">
     <!-- Kappa -->
     <defs>
      <path d="M 7.328125 0 
L 7.328125 71.578125 
L 16.796875 71.578125 
L 16.796875 36.078125 
L 52.34375 71.578125 
L 65.1875 71.578125 
L 35.15625 42.578125 
L 66.5 0 
L 54 0 
L 28.515625 36.234375 
L 16.796875 24.8125 
L 16.796875 0 
z
" id="ArialMT-4b"/>
      <path d="M 6.59375 -19.875 
L 6.59375 51.859375 
L 14.59375 51.859375 
L 14.59375 45.125 
Q 17.4375 49.078125 21 51.046875 
Q 24.5625 53.03125 29.640625 53.03125 
Q 36.28125 53.03125 41.359375 49.609375 
Q 46.4375 46.1875 49.015625 39.953125 
Q 51.609375 33.734375 51.609375 26.3125 
Q 51.609375 18.359375 48.75 11.984375 
Q 45.90625 5.609375 40.453125 2.21875 
Q 35.015625 -1.171875 29 -1.171875 
Q 24.609375 -1.171875 21.109375 0.6875 
Q 17.625 2.546875 15.375 5.375 
L 15.375 -19.875 
z
M 14.546875 25.640625 
Q 14.546875 15.625 18.59375 10.84375 
Q 22.65625 6.0625 28.421875 6.0625 
Q 34.28125 6.0625 38.453125 11.015625 
Q 42.625 15.96875 42.625 26.375 
Q 42.625 36.28125 38.546875 41.203125 
Q 34.46875 46.140625 28.8125 46.140625 
Q 23.1875 46.140625 18.859375 40.890625 
Q 14.546875 35.640625 14.546875 25.640625 
z
" id="ArialMT-70"/>
     </defs>
     <g style="fill:#333333;" transform="translate(345.16625 28.589375)scale(0.12 -0.12)">
      <use xlink:href="#ArialMT-4b"/>
      <use x="66.699219" xlink:href="#ArialMT-61"/>
      <use x="122.314453" xlink:href="#ArialMT-70"/>
      <use x="177.929688" xlink:href="#ArialMT-70"/>
      <use x="233.544922" xlink:href="#ArialMT-61"/>
     </g>
    </g>
    <g id="line2d_27">
     <path d="M 311.56625 41.36375 
L 335.56625 41.36375 
" style="fill:none;stroke:#beaed4;stroke-linecap:square;stroke-width:1.5;"/>
    </g>
    <g id="line2d_28"/>
    <g id="text_21">
     <!-- L -->
     <defs>
      <path d="M 7.328125 0 
L 7.328125 71.578125 
L 16.796875 71.578125 
L 16.796875 8.453125 
L 52.046875 8.453125 
L 52.046875 0 
z
" id="ArialMT-4c"/>
     </defs>
     <g style="fill:#333333;" transform="translate(345.16625 45.56375)scale(0.12 -0.12)">
      <use xlink:href="#ArialMT-4c"/>
     </g>
    </g>
    <g id="line2d_29">
     <path d="M 311.56625 58.338125 
L 335.56625 58.338125 
" style="fill:none;stroke:#386cb0;stroke-linecap:square;stroke-width:1.5;"/>
    </g>
    <g id="line2d_30"/>
    <g id="text_22">
     <!-- LSA -->
     <defs>
      <path d="M -0.140625 0 
L 27.34375 71.578125 
L 37.546875 71.578125 
L 66.84375 0 
L 56.0625 0 
L 47.703125 21.6875 
L 17.78125 21.6875 
L 9.90625 0 
z
M 20.515625 29.390625 
L 44.78125 29.390625 
L 37.3125 49.21875 
Q 33.890625 58.25 32.234375 64.0625 
Q 30.859375 57.171875 28.375 50.390625 
z
" id="ArialMT-41"/>
     </defs>
     <g style="fill:#333333;" transform="translate(345.16625 62.538125)scale(0.12 -0.12)">
      <use xlink:href="#ArialMT-4c"/>
      <use x="55.615234" xlink:href="#ArialMT-53"/>
      <use x="122.314453" xlink:href="#ArialMT-41"/>
     </g>
    </g>
    <g id="line2d_31">
     <path d="M 311.56625 75.3125 
L 335.56625 75.3125 
" style="fill:none;stroke:#bf5b17;stroke-linecap:square;stroke-width:1.5;"/>
    </g>
    <g id="line2d_32"/>
    <g id="text_23">
     <!-- MCM -->
     <defs>
      <path d="M 7.421875 0 
L 7.421875 71.578125 
L 21.6875 71.578125 
L 38.625 20.90625 
Q 40.96875 13.8125 42.046875 10.296875 
Q 43.265625 14.203125 45.84375 21.78125 
L 62.984375 71.578125 
L 75.734375 71.578125 
L 75.734375 0 
L 66.609375 0 
L 66.609375 59.90625 
L 45.796875 0 
L 37.25 0 
L 16.546875 60.9375 
L 16.546875 0 
z
" id="ArialMT-4d"/>
      <path d="M 58.796875 25.09375 
L 68.265625 22.703125 
Q 65.28125 11.03125 57.546875 4.90625 
Q 49.8125 -1.21875 38.625 -1.21875 
Q 27.046875 -1.21875 19.796875 3.484375 
Q 12.546875 8.203125 8.765625 17.140625 
Q 4.984375 26.078125 4.984375 36.328125 
Q 4.984375 47.515625 9.25 55.828125 
Q 13.53125 64.15625 21.40625 68.46875 
Q 29.296875 72.796875 38.765625 72.796875 
Q 49.515625 72.796875 56.828125 67.328125 
Q 64.15625 61.859375 67.046875 51.953125 
L 57.71875 49.75 
Q 55.21875 57.5625 50.484375 61.125 
Q 45.75 64.703125 38.578125 64.703125 
Q 30.328125 64.703125 24.78125 60.734375 
Q 19.234375 56.78125 16.984375 50.109375 
Q 14.75 43.453125 14.75 36.375 
Q 14.75 27.25 17.40625 20.4375 
Q 20.0625 13.625 25.671875 10.25 
Q 31.296875 6.890625 37.84375 6.890625 
Q 45.796875 6.890625 51.3125 11.46875 
Q 56.84375 16.0625 58.796875 25.09375 
z
" id="ArialMT-43"/>
     </defs>
     <g style="fill:#333333;" transform="translate(345.16625 79.5125)scale(0.12 -0.12)">
      <use xlink:href="#ArialMT-4d"/>
      <use x="83.300781" xlink:href="#ArialMT-43"/>
      <use x="155.517578" xlink:href="#ArialMT-4d"/>
     </g>
    </g>
    <g id="line2d_33">
     <path d="M 311.56625 92.286875 
L 335.56625 92.286875 
" style="fill:none;stroke:#fdc086;stroke-linecap:square;stroke-width:1.5;"/>
    </g>
    <g id="line2d_34"/>
    <g id="text_24">
     <!-- Phi -->
     <defs>
      <path d="M 7.71875 0 
L 7.71875 71.578125 
L 34.71875 71.578125 
Q 41.84375 71.578125 45.609375 70.90625 
Q 50.875 70.015625 54.4375 67.546875 
Q 58.015625 65.09375 60.1875 60.640625 
Q 62.359375 56.203125 62.359375 50.875 
Q 62.359375 41.75 56.546875 35.421875 
Q 50.734375 29.109375 35.546875 29.109375 
L 17.1875 29.109375 
L 17.1875 0 
z
M 17.1875 37.546875 
L 35.6875 37.546875 
Q 44.875 37.546875 48.734375 40.96875 
Q 52.59375 44.390625 52.59375 50.59375 
Q 52.59375 55.078125 50.3125 58.265625 
Q 48.046875 61.46875 44.34375 62.5 
Q 41.9375 63.140625 35.5 63.140625 
L 17.1875 63.140625 
z
" id="ArialMT-50"/>
     </defs>
     <g style="fill:#333333;" transform="translate(345.16625 96.486875)scale(0.12 -0.12)">
      <use xlink:href="#ArialMT-50"/>
      <use x="66.699219" xlink:href="#ArialMT-68"/>
      <use x="122.314453" xlink:href="#ArialMT-69"/>
     </g>
    </g>
    <g id="line2d_35">
     <path d="M 311.56625 109.26125 
L 335.56625 109.26125 
" style="fill:none;stroke:#f0027f;stroke-linecap:square;stroke-width:1.5;"/>
    </g>
    <g id="line2d_36"/>
    <g id="text_25">
     <!-- Q -->
     <defs>
      <path d="M 61.96875 7.671875 
Q 68.5625 3.125 74.125 1.03125 
L 71.34375 -5.5625 
Q 63.625 -2.78125 55.953125 3.21875 
Q 48 -1.21875 38.375 -1.21875 
Q 28.65625 -1.21875 20.75 3.46875 
Q 12.84375 8.15625 8.5625 16.640625 
Q 4.296875 25.140625 4.296875 35.796875 
Q 4.296875 46.390625 8.59375 55.078125 
Q 12.890625 63.765625 20.828125 68.3125 
Q 28.765625 72.859375 38.578125 72.859375 
Q 48.484375 72.859375 56.4375 68.140625 
Q 64.40625 63.421875 68.578125 54.953125 
Q 72.75 46.484375 72.75 35.84375 
Q 72.75 27 70.0625 19.9375 
Q 67.390625 12.890625 61.96875 7.671875 
z
M 41.109375 19.78125 
Q 49.3125 17.484375 54.640625 12.9375 
Q 62.984375 20.5625 62.984375 35.84375 
Q 62.984375 44.53125 60.03125 51.015625 
Q 57.078125 57.515625 51.390625 61.109375 
Q 45.703125 64.703125 38.625 64.703125 
Q 28.03125 64.703125 21.046875 57.453125 
Q 14.0625 50.203125 14.0625 35.796875 
Q 14.0625 21.828125 20.96875 14.359375 
Q 27.875 6.890625 38.625 6.890625 
Q 43.703125 6.890625 48.1875 8.796875 
Q 43.75 11.671875 38.8125 12.890625 
z
" id="ArialMT-51"/>
     </defs>
     <g style="fill:#333333;" transform="translate(345.16625 113.46125)scale(0.12 -0.12)">
      <use xlink:href="#ArialMT-51"/>
     </g>
    </g>
   </g>
  </g>
 </g>
 <defs>
  <clipPath id="p81f565262e">
   <rect height="249.48" width="334.8" x="55.863125" y="9.2"/>
  </clipPath>
 </defs>
</svg>
