<?xml version="1.0" encoding="utf-8" standalone="no"?>
<!DOCTYPE svg PUBLIC "-//W3C//DTD SVG 1.1//EN"
  "http://www.w3.org/Graphics/SVG/1.1/DTD/svg11.dtd">
<svg height="300.115625pt" version="1.1" viewBox="0 0 397.863125 300.115625" width="397.863125pt" xmlns="http://www.w3.org/2000/svg" xmlns:xlink="http://www.w3.org/1999/xlink">
 <metadata>
  <rdf:RDF xmlns:cc="http://creativecommons.org/ns#" xmlns:dc="http://purl.org/dc/elements/1.1/" xmlns:rdf="http://www.w3.org/1999/02/22-rdf-syntax-ns#">
   <cc:Work>
    <dc:type rdf:resource="http://purl.org/dc/dcmitype/StillImage"/>
    <dc:date>2021-05-06T00:36:03.136325</dc:date>
    <dc:format>image/svg+xml</dc:format>
    <dc:creator>
     <cc:Agent>
      <dc:title>Matplotlib v3.4.1, https://matplotlib.org/</dc:title>
     </cc:Agent>
    </dc:creator>
   </cc:Work>
  </rdf:RDF>
 </metadata>
 <defs>
  <style type="text/css">*{stroke-linecap:butt;stroke-linejoin:round;}</style>
 </defs>
 <g id="figure_1">
  <g id="patch_1">
   <path d="M -0 300.115625 
L 397.863125 300.115625 
L 397.863125 0 
L -0 0 
z
" style="fill:#ffffff;"/>
  </g>
  <g id="axes_1">
   <g id="patch_2">
    <path d="M 55.863125 256.68 
L 390.663125 256.68 
L 390.663125 7.2 
L 55.863125 7.2 
z
" style="fill:#ffffff;"/>
   </g>
   <g id="PolyCollection_1">
    <defs>
     <path d="M 55.863125 -177.92119 
L 55.863125 -169.142122 
L 59.387336 -154.224888 
L 62.911546 -148.396037 
L 66.435757 -142.120445 
L 69.959967 -139.196142 
L 73.484178 -136.812035 
L 77.008388 -135.642827 
L 80.532599 -134.2907 
L 84.056809 -133.268645 
L 87.58102 -130.691089 
L 91.10523 -130.367839 
L 94.629441 -130.692825 
L 98.153651 -129.983054 
L 101.677862 -129.286361 
L 105.202072 -128.533099 
L 108.726283 -128.698772 
L 112.250493 -127.772809 
L 115.774704 -127.459014 
L 119.298914 -128.870013 
L 122.823125 -127.990742 
L 126.347336 -127.315952 
L 129.871546 -127.391914 
L 133.395757 -127.156266 
L 136.919967 -127.060021 
L 140.444178 -127.00385 
L 143.968388 -125.972328 
L 147.492599 -125.744371 
L 151.016809 -125.776713 
L 154.54102 -125.701794 
L 158.06523 -125.801612 
L 161.589441 -125.994773 
L 165.113651 -126.046672 
L 168.637862 -126.085881 
L 172.162072 -125.906512 
L 175.686283 -125.37694 
L 179.210493 -125.407634 
L 182.734704 -125.311278 
L 186.258914 -125.048304 
L 189.783125 -124.726727 
L 193.307336 -124.930493 
L 196.831546 -124.620169 
L 200.355757 -124.626281 
L 203.879967 -125.031469 
L 207.404178 -125.304024 
L 210.928388 -124.489352 
L 214.452599 -124.547064 
L 217.976809 -124.683741 
L 221.50102 -124.896875 
L 225.02523 -125.604215 
L 228.549441 -124.646094 
L 232.073651 -124.791027 
L 235.597862 -124.13505 
L 239.122072 -124.461347 
L 242.646283 -124.640478 
L 246.170493 -124.457642 
L 249.694704 -124.400903 
L 253.218914 -124.039443 
L 256.743125 -124.194356 
L 260.267336 -124.029111 
L 263.791546 -124.090068 
L 267.315757 -123.577832 
L 270.839967 -123.793586 
L 274.364178 -123.991953 
L 277.888388 -123.870047 
L 281.412599 -124.332075 
L 284.936809 -124.296425 
L 288.46102 -124.007647 
L 291.98523 -123.840666 
L 295.509441 -124.119625 
L 299.033651 -123.887302 
L 302.557862 -123.653175 
L 306.082072 -123.606702 
L 309.606283 -124.202658 
L 313.130493 -123.979933 
L 316.654704 -124.325845 
L 320.178914 -124.138487 
L 323.703125 -123.761346 
L 327.227336 -124.088215 
L 330.751546 -123.658802 
L 334.275757 -123.923919 
L 337.799967 -124.059662 
L 341.324178 -123.970931 
L 344.848388 -123.85383 
L 348.372599 -123.465499 
L 351.896809 -123.373869 
L 355.42102 -123.796768 
L 358.94523 -124.004954 
L 362.469441 -123.530089 
L 365.993651 -123.916546 
L 369.517862 -123.734692 
L 373.042072 -123.548183 
L 376.566283 -123.885018 
L 380.090493 -124.042331 
L 383.614704 -123.602877 
L 387.138914 -123.289731 
L 390.663125 -123.439764 
L 390.663125 -124.885708 
L 390.663125 -124.885708 
L 387.138914 -124.726723 
L 383.614704 -125.042823 
L 380.090493 -125.5023 
L 376.566283 -125.361651 
L 373.042072 -125.025688 
L 369.517862 -125.232339 
L 365.993651 -125.413164 
L 362.469441 -125.058532 
L 358.94523 -125.520274 
L 355.42102 -125.330259 
L 351.896809 -124.905881 
L 348.372599 -125.00759 
L 344.848388 -125.398306 
L 341.324178 -125.522084 
L 337.799967 -125.633856 
L 334.275757 -125.496642 
L 330.751546 -125.26445 
L 327.227336 -125.702445 
L 323.703125 -125.371495 
L 320.178914 -125.784547 
L 316.654704 -125.982263 
L 313.130493 -125.638182 
L 309.606283 -125.858338 
L 306.082072 -125.279733 
L 302.557862 -125.342417 
L 299.033651 -125.595682 
L 295.509441 -125.877949 
L 291.98523 -125.564737 
L 288.46102 -125.754573 
L 284.936809 -126.06234 
L 281.412599 -126.094071 
L 277.888388 -125.635991 
L 274.364178 -125.801852 
L 270.839967 -125.608934 
L 267.315757 -125.395472 
L 263.791546 -125.961863 
L 260.267336 -125.871049 
L 256.743125 -126.083587 
L 253.218914 -125.933415 
L 249.694704 -126.34254 
L 246.170493 -126.392771 
L 242.646283 -126.598014 
L 239.122072 -126.453864 
L 235.597862 -126.133229 
L 232.073651 -126.792138 
L 228.549441 -126.686587 
L 225.02523 -127.654923 
L 221.50102 -126.977953 
L 217.976809 -126.819631 
L 214.452599 -126.72337 
L 210.928388 -126.651586 
L 207.404178 -127.498635 
L 203.879967 -127.237605 
L 200.355757 -126.878479 
L 196.831546 -126.905127 
L 193.307336 -127.246366 
L 189.783125 -127.072076 
L 186.258914 -127.442708 
L 182.734704 -127.785664 
L 179.210493 -127.882396 
L 175.686283 -127.866252 
L 172.162072 -128.464134 
L 168.637862 -128.670337 
L 165.113651 -128.73592 
L 161.589441 -128.693911 
L 158.06523 -128.538343 
L 154.54102 -128.500345 
L 151.016809 -128.664189 
L 147.492599 -128.693125 
L 143.968388 -129.002573 
L 140.444178 -130.097845 
L 136.919967 -130.246738 
L 133.395757 -130.433587 
L 129.871546 -130.765561 
L 126.347336 -130.767519 
L 122.823125 -131.513122 
L 119.298914 -132.596404 
L 115.774704 -131.238019 
L 112.250493 -131.655574 
L 108.726283 -132.85449 
L 105.202072 -132.734058 
L 101.677862 -133.717175 
L 98.153651 -134.537056 
L 94.629441 -135.403154 
L 91.10523 -135.322172 
L 87.58102 -136.023277 
L 84.056809 -138.74149 
L 80.532599 -140.094637 
L 77.008388 -141.663084 
L 73.484178 -143.249265 
L 69.959967 -145.991547 
L 66.435757 -149.352623 
L 62.911546 -156.110686 
L 59.387336 -162.401366 
L 55.863125 -177.92119 
z
" id="m68dc96abbc"/>
    </defs>
    <g clip-path="url(#p8757515350)">
     <use style="fill:#7fc97f;fill-opacity:0.1;" x="0" xlink:href="#m68dc96abbc" y="300.115625"/>
    </g>
   </g>
   <g id="PolyCollection_2">
    <defs>
     <path d="M 55.863125 -230.34516 
L 55.863125 -214.616143 
L 59.387336 -190.322417 
L 62.911546 -179.974933 
L 66.435757 -168.254485 
L 69.959967 -161.983622 
L 73.484178 -159.851673 
L 77.008388 -158.804928 
L 80.532599 -156.287703 
L 84.056809 -157.659393 
L 87.58102 -149.538884 
L 91.10523 -149.309584 
L 94.629441 -150.840634 
L 98.153651 -149.808532 
L 101.677862 -146.615647 
L 105.202072 -145.763307 
L 108.726283 -146.008817 
L 112.250493 -145.592033 
L 115.774704 -142.908401 
L 119.298914 -147.175614 
L 122.823125 -146.192218 
L 126.347336 -145.136216 
L 129.871546 -144.645311 
L 133.395757 -142.350114 
L 136.919967 -142.648088 
L 140.444178 -143.575877 
L 143.968388 -141.318955 
L 147.492599 -140.799465 
L 151.016809 -140.607612 
L 154.54102 -139.485577 
L 158.06523 -140.039657 
L 161.589441 -142.245411 
L 165.113651 -139.774504 
L 168.637862 -142.940667 
L 172.162072 -141.593078 
L 175.686283 -138.698053 
L 179.210493 -139.441289 
L 182.734704 -140.678691 
L 186.258914 -138.673002 
L 189.783125 -136.901961 
L 193.307336 -137.915654 
L 196.831546 -137.772876 
L 200.355757 -137.170003 
L 203.879967 -139.202738 
L 207.404178 -139.947691 
L 210.928388 -135.65652 
L 214.452599 -135.623926 
L 217.976809 -136.961012 
L 221.50102 -138.192876 
L 225.02523 -144.28014 
L 228.549441 -136.838474 
L 232.073651 -138.292943 
L 235.597862 -135.157172 
L 239.122072 -135.739294 
L 242.646283 -138.31413 
L 246.170493 -134.654896 
L 249.694704 -137.225366 
L 253.218914 -133.682143 
L 256.743125 -136.443829 
L 260.267336 -133.716992 
L 263.791546 -135.024017 
L 267.315757 -131.551249 
L 270.839967 -133.785997 
L 274.364178 -134.596494 
L 277.888388 -134.902765 
L 281.412599 -136.903373 
L 284.936809 -137.274013 
L 288.46102 -134.585933 
L 291.98523 -133.905791 
L 295.509441 -136.253657 
L 299.033651 -133.990719 
L 302.557862 -134.023493 
L 306.082072 -132.336085 
L 309.606283 -136.95679 
L 313.130493 -136.299784 
L 316.654704 -139.23946 
L 320.178914 -136.170136 
L 323.703125 -133.096462 
L 327.227336 -137.146255 
L 330.751546 -133.086332 
L 334.275757 -134.470994 
L 337.799967 -136.725405 
L 341.324178 -135.721178 
L 344.848388 -134.32854 
L 348.372599 -130.704499 
L 351.896809 -132.267989 
L 355.42102 -134.46715 
L 358.94523 -136.59285 
L 362.469441 -133.161704 
L 365.993651 -134.945548 
L 369.517862 -133.702699 
L 373.042072 -132.434805 
L 376.566283 -135.3282 
L 380.090493 -136.930733 
L 383.614704 -133.171203 
L 387.138914 -131.461275 
L 390.663125 -132.237455 
L 390.663125 -146.050768 
L 390.663125 -146.050768 
L 387.138914 -145.173527 
L 383.614704 -146.813398 
L 380.090493 -150.670371 
L 376.566283 -149.179946 
L 373.042072 -146.203457 
L 369.517862 -147.520205 
L 365.993651 -148.699152 
L 362.469441 -147.142059 
L 358.94523 -150.29977 
L 355.42102 -148.264853 
L 351.896809 -146.108351 
L 348.372599 -144.524503 
L 344.848388 -148.134735 
L 341.324178 -149.390194 
L 337.799967 -150.524235 
L 334.275757 -148.156749 
L 330.751546 -146.953791 
L 327.227336 -151.052372 
L 323.703125 -146.802209 
L 320.178914 -150.095268 
L 316.654704 -153.059063 
L 313.130493 -150.092848 
L 309.606283 -150.642375 
L 306.082072 -146.14162 
L 302.557862 -147.877381 
L 299.033651 -147.845118 
L 295.509441 -150.388164 
L 291.98523 -147.679267 
L 288.46102 -148.326841 
L 284.936809 -151.190688 
L 281.412599 -150.695688 
L 277.888388 -148.629077 
L 274.364178 -148.484631 
L 270.839967 -147.72875 
L 267.315757 -145.223034 
L 263.791546 -148.973671 
L 260.267336 -147.555762 
L 256.743125 -150.282114 
L 253.218914 -147.386236 
L 249.694704 -151.059416 
L 246.170493 -148.391251 
L 242.646283 -152.097849 
L 239.122072 -149.658005 
L 235.597862 -149.001984 
L 232.073651 -152.188784 
L 228.549441 -150.60794 
L 225.02523 -158.072552 
L 221.50102 -152.105958 
L 217.976809 -150.590245 
L 214.452599 -149.498942 
L 210.928388 -149.452254 
L 207.404178 -153.763706 
L 203.879967 -153.153508 
L 200.355757 -151.055187 
L 196.831546 -151.559321 
L 193.307336 -151.783565 
L 189.783125 -150.857233 
L 186.258914 -152.489563 
L 182.734704 -154.733035 
L 179.210493 -153.375074 
L 175.686283 -152.54016 
L 172.162072 -155.456221 
L 168.637862 -156.758265 
L 165.113651 -153.815324 
L 161.589441 -156.170291 
L 158.06523 -153.9498 
L 154.54102 -153.361486 
L 151.016809 -154.463489 
L 147.492599 -154.912051 
L 143.968388 -155.290902 
L 140.444178 -157.649141 
L 136.919967 -156.796301 
L 133.395757 -156.384315 
L 129.871546 -158.711893 
L 126.347336 -159.249593 
L 122.823125 -160.324046 
L 119.298914 -161.396701 
L 115.774704 -157.107435 
L 112.250493 -159.67504 
L 108.726283 -160.106942 
L 105.202072 -159.96952 
L 101.677862 -160.993276 
L 98.153651 -164.097201 
L 94.629441 -165.0857 
L 91.10523 -163.51631 
L 87.58102 -163.867788 
L 84.056809 -172.245565 
L 80.532599 -170.903388 
L 77.008388 -173.462962 
L 73.484178 -174.55856 
L 69.959967 -176.897496 
L 66.435757 -183.289293 
L 62.911546 -195.007918 
L 59.387336 -205.835824 
L 55.863125 -230.34516 
z
" id="mb0f453f2d9"/>
    </defs>
    <g clip-path="url(#p8757515350)">
     <use style="fill:#beaed4;fill-opacity:0.1;" x="0" xlink:href="#mb0f453f2d9" y="300.115625"/>
    </g>
   </g>
   <g id="PolyCollection_3">
    <defs>
     <path d="M 62.911546 -163.085869 
L 62.911546 -143.803086 
L 66.435757 -132.277671 
L 69.959967 -124.170443 
L 73.484178 -125.16255 
L 77.008388 -135.687924 
L 80.532599 -143.718261 
L 84.056809 -140.732829 
L 87.58102 -142.954509 
L 91.10523 -140.219603 
L 94.629441 -142.964819 
L 98.153651 -139.521169 
L 101.677862 -143.451546 
L 105.202072 -143.373003 
L 108.726283 -139.914234 
L 112.250493 -142.509842 
L 115.774704 -143.24496 
L 119.298914 -142.606795 
L 122.823125 -141.189011 
L 126.347336 -139.077967 
L 129.871546 -140.288772 
L 133.395757 -140.219701 
L 136.919967 -140.036986 
L 140.444178 -141.268106 
L 143.968388 -142.314302 
L 147.492599 -140.22025 
L 151.016809 -138.846339 
L 154.54102 -138.286338 
L 158.06523 -136.928238 
L 161.589441 -140.068535 
L 165.113651 -136.97698 
L 168.637862 -139.619257 
L 172.162072 -138.926633 
L 175.686283 -142.35181 
L 179.210493 -139.961492 
L 182.734704 -138.705557 
L 186.258914 -139.055094 
L 189.783125 -137.787697 
L 193.307336 -136.374075 
L 196.831546 -137.814116 
L 200.355757 -136.339332 
L 203.879967 -136.697284 
L 207.404178 -138.610008 
L 210.928388 -138.779978 
L 214.452599 -139.211217 
L 217.976809 -137.422105 
L 221.50102 -134.535202 
L 225.02523 -137.314036 
L 228.549441 -137.249274 
L 232.073651 -136.238858 
L 235.597862 -135.318581 
L 239.122072 -134.547702 
L 242.646283 -137.334974 
L 246.170493 -136.770693 
L 249.694704 -135.919266 
L 253.218914 -135.602491 
L 256.743125 -135.129605 
L 260.267336 -136.23348 
L 263.791546 -136.546909 
L 267.315757 -139.144101 
L 270.839967 -130.385977 
L 274.364178 -136.691886 
L 277.888388 -133.447625 
L 281.412599 -134.558568 
L 284.936809 -132.788132 
L 288.46102 -135.542418 
L 291.98523 -136.896243 
L 295.509441 -133.602423 
L 299.033651 -133.270674 
L 302.557862 -138.235673 
L 306.082072 -134.625305 
L 309.606283 -134.076202 
L 313.130493 -138.987999 
L 316.654704 -133.090384 
L 320.178914 -135.017388 
L 323.703125 -130.616742 
L 327.227336 -134.757947 
L 330.751546 -133.196973 
L 334.275757 -135.509599 
L 337.799967 -134.102248 
L 341.324178 -133.670556 
L 344.848388 -135.733891 
L 348.372599 -132.783093 
L 351.896809 -138.611693 
L 355.42102 -133.00373 
L 358.94523 -132.283437 
L 362.469441 -132.015745 
L 365.993651 -131.769195 
L 369.517862 -132.066121 
L 373.042072 -133.120824 
L 376.566283 -133.230766 
L 380.090493 -133.221315 
L 383.614704 -131.048401 
L 387.138914 -129.184789 
L 390.663125 -134.981436 
L 390.663125 -148.729367 
L 390.663125 -148.729367 
L 387.138914 -142.886975 
L 383.614704 -144.812887 
L 380.090493 -146.952763 
L 376.566283 -146.976355 
L 373.042072 -146.723536 
L 369.517862 -145.800834 
L 365.993651 -145.439561 
L 362.469441 -145.75266 
L 358.94523 -146.063696 
L 355.42102 -146.77767 
L 351.896809 -152.406463 
L 348.372599 -146.54822 
L 344.848388 -149.501288 
L 341.324178 -147.136662 
L 337.799967 -147.852267 
L 334.275757 -149.411973 
L 330.751546 -147.004457 
L 327.227336 -148.606143 
L 323.703125 -144.610604 
L 320.178914 -148.824546 
L 316.654704 -146.731823 
L 313.130493 -152.699286 
L 309.606283 -147.940465 
L 306.082072 -148.51777 
L 302.557862 -152.049213 
L 299.033651 -147.136678 
L 295.509441 -147.37727 
L 291.98523 -150.718082 
L 288.46102 -149.158756 
L 284.936809 -146.745094 
L 281.412599 -148.522894 
L 277.888388 -147.180128 
L 274.364178 -150.560673 
L 270.839967 -144.027259 
L 267.315757 -153.078586 
L 263.791546 -150.306128 
L 260.267336 -150.06903 
L 256.743125 -148.878956 
L 253.218914 -149.611615 
L 249.694704 -149.852421 
L 246.170493 -150.617686 
L 242.646283 -151.210536 
L 239.122072 -148.480249 
L 235.597862 -149.195924 
L 232.073651 -150.213791 
L 228.549441 -151.001439 
L 225.02523 -151.212122 
L 221.50102 -148.164584 
L 217.976809 -151.436588 
L 214.452599 -153.106956 
L 210.928388 -152.699404 
L 207.404178 -152.338867 
L 203.879967 -150.400937 
L 200.355757 -150.336308 
L 196.831546 -151.772923 
L 193.307336 -150.288619 
L 189.783125 -151.690443 
L 186.258914 -153.199247 
L 182.734704 -152.530033 
L 179.210493 -153.970609 
L 175.686283 -156.337319 
L 172.162072 -152.899686 
L 168.637862 -153.48274 
L 165.113651 -150.917559 
L 161.589441 -154.161208 
L 158.06523 -150.975709 
L 154.54102 -152.298827 
L 151.016809 -152.948966 
L 147.492599 -154.27548 
L 143.968388 -156.383455 
L 140.444178 -155.267254 
L 136.919967 -153.993275 
L 133.395757 -154.379537 
L 129.871546 -154.45537 
L 126.347336 -153.159531 
L 122.823125 -155.329886 
L 119.298914 -156.726101 
L 115.774704 -157.669777 
L 112.250493 -156.869722 
L 108.726283 -154.24162 
L 105.202072 -157.998638 
L 101.677862 -157.910734 
L 98.153651 -153.915285 
L 94.629441 -157.468925 
L 91.10523 -154.76526 
L 87.58102 -157.615252 
L 84.056809 -155.506801 
L 80.532599 -158.816713 
L 77.008388 -150.707344 
L 73.484178 -140.70811 
L 69.959967 -140.000399 
L 66.435757 -149.040456 
L 62.911546 -163.085869 
z
" id="m791e3adbe2"/>
    </defs>
    <g clip-path="url(#p8757515350)">
     <use style="fill:#386cb0;fill-opacity:0.1;" x="0" xlink:href="#m791e3adbe2" y="300.115625"/>
    </g>
   </g>
   <g id="PolyCollection_4">
    <defs>
     <path d="M 55.863125 -261.024099 
L 55.863125 -255.103234 
L 59.387336 -240.723264 
L 62.911546 -234.301632 
L 66.435757 -228.320661 
L 69.959967 -224.429979 
L 73.484178 -221.739564 
L 77.008388 -220.886818 
L 80.532599 -218.962648 
L 84.056809 -217.835617 
L 87.58102 -216.608898 
L 91.10523 -215.871535 
L 94.629441 -215.863611 
L 98.153651 -215.392987 
L 101.677862 -214.567791 
L 105.202072 -214.296961 
L 108.726283 -214.537309 
L 112.250493 -213.527185 
L 115.774704 -213.640617 
L 119.298914 -214.140715 
L 122.823125 -213.466214 
L 126.347336 -213.271142 
L 129.871546 -213.095997 
L 133.395757 -212.988689 
L 136.919967 -212.565418 
L 140.444178 -212.594219 
L 143.968388 -212.251593 
L 147.492599 -211.919928 
L 151.016809 -212.248702 
L 154.54102 -212.120163 
L 158.06523 -212.070307 
L 161.589441 -212.155255 
L 165.113651 -212.044282 
L 168.637862 -212.346565 
L 172.162072 -211.969859 
L 175.686283 -211.569706 
L 179.210493 -211.616417 
L 182.734704 -211.73887 
L 186.258914 -211.53961 
L 189.783125 -211.345138 
L 193.307336 -211.452332 
L 196.831546 -211.093864 
L 200.355757 -210.959717 
L 203.879967 -211.499654 
L 207.404178 -211.509969 
L 210.928388 -211.155863 
L 214.452599 -211.017236 
L 217.976809 -211.457877 
L 221.50102 -211.483703 
L 225.02523 -211.534381 
L 228.549441 -210.940411 
L 232.073651 -211.427207 
L 235.597862 -210.983468 
L 239.122072 -211.067998 
L 242.646283 -211.096708 
L 246.170493 -210.826262 
L 249.694704 -211.004767 
L 253.218914 -210.578434 
L 256.743125 -210.842336 
L 260.267336 -211.094617 
L 263.791546 -210.794018 
L 267.315757 -210.493942 
L 270.839967 -210.648652 
L 274.364178 -210.878217 
L 277.888388 -210.480175 
L 281.412599 -210.705503 
L 284.936809 -210.981344 
L 288.46102 -210.74727 
L 291.98523 -210.480558 
L 295.509441 -210.671196 
L 299.033651 -210.629179 
L 302.557862 -210.52151 
L 306.082072 -210.746177 
L 309.606283 -210.878589 
L 313.130493 -210.612563 
L 316.654704 -211.196244 
L 320.178914 -210.732198 
L 323.703125 -210.61207 
L 327.227336 -210.850665 
L 330.751546 -210.499969 
L 334.275757 -210.583027 
L 337.799967 -210.808211 
L 341.324178 -210.723059 
L 344.848388 -210.325326 
L 348.372599 -210.58531 
L 351.896809 -210.31713 
L 355.42102 -210.482513 
L 358.94523 -210.937415 
L 362.469441 -210.345092 
L 365.993651 -210.794931 
L 369.517862 -210.481906 
L 373.042072 -210.344175 
L 376.566283 -210.497686 
L 380.090493 -210.512922 
L 383.614704 -210.413027 
L 387.138914 -210.155843 
L 390.663125 -210.326011 
L 390.663125 -211.546848 
L 390.663125 -211.546848 
L 387.138914 -211.374503 
L 383.614704 -211.654747 
L 380.090493 -211.758494 
L 376.566283 -211.755349 
L 373.042072 -211.602131 
L 369.517862 -211.7448 
L 365.993651 -212.068028 
L 362.469441 -211.607083 
L 358.94523 -212.217628 
L 355.42102 -211.767378 
L 351.896809 -211.621357 
L 348.372599 -211.892014 
L 344.848388 -211.631127 
L 341.324178 -212.033635 
L 337.799967 -212.136471 
L 334.275757 -211.92335 
L 330.751546 -211.854811 
L 327.227336 -212.212194 
L 323.703125 -211.979238 
L 320.178914 -212.123653 
L 316.654704 -212.585959 
L 313.130493 -212.005629 
L 309.606283 -212.277647 
L 306.082072 -212.151698 
L 302.557862 -211.950648 
L 299.033651 -212.053519 
L 295.509441 -212.134175 
L 291.98523 -211.931873 
L 288.46102 -212.197411 
L 284.936809 -212.464942 
L 281.412599 -212.194472 
L 277.888388 -211.958753 
L 274.364178 -212.386403 
L 270.839967 -212.178019 
L 267.315757 -212.006213 
L 263.791546 -212.355822 
L 260.267336 -212.651435 
L 256.743125 -212.406356 
L 253.218914 -212.166101 
L 249.694704 -212.628491 
L 246.170493 -212.460424 
L 242.646283 -212.723714 
L 239.122072 -212.730688 
L 235.597862 -212.653433 
L 232.073651 -213.13169 
L 228.549441 -212.643845 
L 225.02523 -213.249147 
L 221.50102 -213.227763 
L 217.976809 -213.203987 
L 214.452599 -212.812661 
L 210.928388 -212.957594 
L 207.404178 -213.33949 
L 203.879967 -213.362555 
L 200.355757 -212.81744 
L 196.831546 -212.992014 
L 193.307336 -213.37423 
L 189.783125 -213.276666 
L 186.258914 -213.498073 
L 182.734704 -213.758193 
L 179.210493 -213.654679 
L 175.686283 -213.608986 
L 172.162072 -214.056623 
L 168.637862 -214.457144 
L 165.113651 -214.236152 
L 161.589441 -214.341267 
L 158.06523 -214.320779 
L 154.54102 -214.396845 
L 151.016809 -214.582381 
L 147.492599 -214.278623 
L 143.968388 -214.64605 
L 140.444178 -215.063637 
L 136.919967 -215.113197 
L 133.395757 -215.603941 
L 129.871546 -215.774291 
L 126.347336 -215.977823 
L 122.823125 -216.251208 
L 119.298914 -217.05642 
L 115.774704 -216.590096 
L 112.250493 -216.531952 
L 108.726283 -217.737772 
L 105.202072 -217.517349 
L 101.677862 -217.925921 
L 98.153651 -218.85493 
L 94.629441 -219.472541 
L 91.10523 -219.580413 
L 87.58102 -220.522013 
L 84.056809 -221.871699 
L 80.532599 -223.211203 
L 77.008388 -225.307484 
L 73.484178 -226.353598 
L 69.959967 -229.271366 
L 66.435757 -233.328152 
L 62.911546 -239.609395 
L 59.387336 -246.31513 
L 55.863125 -261.024099 
z
" id="m95a9280b78"/>
    </defs>
    <g clip-path="url(#p8757515350)">
     <use style="fill:#bf5b17;fill-opacity:0.1;" x="0" xlink:href="#m95a9280b78" y="300.115625"/>
    </g>
   </g>
   <g id="PolyCollection_5">
    <defs>
     <path d="M 55.863125 -147.16489 
L 55.863125 -133.86715 
L 59.387336 -102.305609 
L 62.911546 -89.980461 
L 66.435757 -77.884951 
L 69.959967 -74.091763 
L 73.484178 -72.425644 
L 77.008388 -74.036822 
L 80.532599 -73.90981 
L 84.056809 -78.189574 
L 87.58102 -77.323521 
L 91.10523 -80.890626 
L 94.629441 -84.245262 
L 98.153651 -87.583254 
L 101.677862 -87.597624 
L 105.202072 -89.929268 
L 108.726283 -92.781007 
L 112.250493 -94.220787 
L 115.774704 -94.816227 
L 119.298914 -98.807315 
L 122.823125 -99.974188 
L 126.347336 -101.187653 
L 129.871546 -102.399022 
L 133.395757 -102.039012 
L 136.919967 -103.290976 
L 140.444178 -104.866743 
L 143.968388 -105.23736 
L 147.492599 -105.594206 
L 151.016809 -106.677006 
L 154.54102 -106.836573 
L 158.06523 -107.573316 
L 161.589441 -110.200846 
L 165.113651 -109.140787 
L 168.637862 -111.737732 
L 172.162072 -111.481245 
L 175.686283 -110.250423 
L 179.210493 -111.044375 
L 182.734704 -111.693507 
L 186.258914 -111.972769 
L 189.783125 -111.329707 
L 193.307336 -111.935686 
L 196.831546 -112.98865 
L 200.355757 -112.736613 
L 203.879967 -113.512832 
L 207.404178 -114.505207 
L 210.928388 -113.116327 
L 214.452599 -113.42328 
L 217.976809 -114.669973 
L 221.50102 -115.175352 
L 225.02523 -117.279099 
L 228.549441 -114.943452 
L 232.073651 -115.259315 
L 235.597862 -114.530486 
L 239.122072 -114.990231 
L 242.646283 -116.192702 
L 246.170493 -115.082716 
L 249.694704 -115.915248 
L 253.218914 -115.061848 
L 256.743125 -116.04482 
L 260.267336 -115.583635 
L 263.791546 -115.818774 
L 267.315757 -115.39969 
L 270.839967 -115.61111 
L 274.364178 -116.570533 
L 277.888388 -116.623246 
L 281.412599 -117.306982 
L 284.936809 -117.479951 
L 288.46102 -116.923138 
L 291.98523 -116.706482 
L 295.509441 -117.355152 
L 299.033651 -117.013283 
L 302.557862 -117.028434 
L 306.082072 -116.780463 
L 309.606283 -118.321798 
L 313.130493 -117.89966 
L 316.654704 -119.060823 
L 320.178914 -118.01445 
L 323.703125 -117.399118 
L 327.227336 -118.418356 
L 330.751546 -117.467873 
L 334.275757 -118.038882 
L 337.799967 -118.937757 
L 341.324178 -118.905866 
L 344.848388 -118.376587 
L 348.372599 -117.387704 
L 351.896809 -117.954825 
L 355.42102 -118.465198 
L 358.94523 -119.348401 
L 362.469441 -118.070169 
L 365.993651 -118.961983 
L 369.517862 -118.493761 
L 373.042072 -118.280013 
L 376.566283 -119.025513 
L 380.090493 -119.62351 
L 383.614704 -118.776639 
L 387.138914 -118.228865 
L 390.663125 -118.524468 
L 390.663125 -122.218519 
L 390.663125 -122.218519 
L 387.138914 -121.899132 
L 383.614704 -122.479723 
L 380.090493 -123.352107 
L 376.566283 -122.805877 
L 373.042072 -122.063749 
L 369.517862 -122.308748 
L 365.993651 -122.774009 
L 362.469441 -121.963922 
L 358.94523 -123.196186 
L 355.42102 -122.353992 
L 351.896809 -121.875443 
L 348.372599 -121.329327 
L 344.848388 -122.324609 
L 341.324178 -122.842992 
L 337.799967 -122.912405 
L 334.275757 -122.05514 
L 330.751546 -121.536375 
L 327.227336 -122.542828 
L 323.703125 -121.497681 
L 320.178914 -122.183664 
L 316.654704 -123.232697 
L 313.130493 -122.082969 
L 309.606283 -122.514791 
L 306.082072 -121.02179 
L 302.557862 -121.300857 
L 299.033651 -121.332765 
L 295.509441 -121.776399 
L 291.98523 -121.059257 
L 288.46102 -121.296714 
L 284.936809 -121.917647 
L 281.412599 -121.775917 
L 277.888388 -121.108201 
L 274.364178 -121.128458 
L 270.839967 -120.237968 
L 267.315757 -119.962168 
L 263.791546 -120.519113 
L 260.267336 -120.245053 
L 256.743125 -120.778735 
L 253.218914 -119.810216 
L 249.694704 -120.726349 
L 246.170493 -119.905576 
L 242.646283 -121.068064 
L 239.122072 -119.952845 
L 235.597862 -119.538072 
L 232.073651 -120.3221 
L 228.549441 -120.018956 
L 225.02523 -122.414506 
L 221.50102 -120.377503 
L 217.976809 -119.83214 
L 214.452599 -118.778064 
L 210.928388 -118.473211 
L 207.404178 -119.939226 
L 203.879967 -119.073102 
L 200.355757 -118.309809 
L 196.831546 -118.606528 
L 193.307336 -117.669577 
L 189.783125 -117.098536 
L 186.258914 -117.809854 
L 182.734704 -117.696508 
L 179.210493 -117.078807 
L 175.686283 -116.349673 
L 172.162072 -117.651436 
L 168.637862 -117.973544 
L 165.113651 -115.520821 
L 161.589441 -116.66963 
L 158.06523 -114.178068 
L 154.54102 -113.52173 
L 151.016809 -113.522192 
L 147.492599 -112.62642 
L 143.968388 -112.352057 
L 140.444178 -112.162031 
L 136.919967 -110.762018 
L 133.395757 -109.620547 
L 129.871546 -110.113804 
L 126.347336 -109.096822 
L 122.823125 -108.052173 
L 119.298914 -107.130825 
L 115.774704 -103.316714 
L 112.250493 -102.903839 
L 108.726283 -101.675249 
L 105.202072 -99.080128 
L 101.677862 -96.987323 
L 98.153651 -97.220593 
L 94.629441 -94.153385 
L 91.10523 -91.080658 
L 87.58102 -87.723298 
L 84.056809 -89.027615 
L 80.532599 -85.041587 
L 77.008388 -85.440834 
L 73.484178 -84.149522 
L 69.959967 -86.088922 
L 66.435757 -90.191581 
L 62.911546 -102.667391 
L 59.387336 -115.363501 
L 55.863125 -147.16489 
z
" id="m9bda692882"/>
    </defs>
    <g clip-path="url(#p8757515350)">
     <use style="fill:#fdc086;fill-opacity:0.1;" x="0" xlink:href="#m9bda692882" y="300.115625"/>
    </g>
   </g>
   <g id="matplotlib.axis_1">
    <g id="xtick_1">
     <g id="line2d_1"/>
     <g id="text_1">
      <!-- 5 -->
      <g style="fill:#666666;" transform="translate(52.526563 275.269375)scale(0.12 -0.12)">
       <defs>
        <path d="M 266 1200 
L 856 1250 
Q 922 819 1161 601 
Q 1400 384 1738 384 
Q 2144 384 2425 690 
Q 2706 997 2706 1503 
Q 2706 1984 2436 2262 
Q 2166 2541 1728 2541 
Q 1456 2541 1237 2417 
Q 1019 2294 894 2097 
L 366 2166 
L 809 4519 
L 3088 4519 
L 3088 3981 
L 1259 3981 
L 1013 2750 
Q 1425 3038 1878 3038 
Q 2478 3038 2890 2622 
Q 3303 2206 3303 1553 
Q 3303 931 2941 478 
Q 2500 -78 1738 -78 
Q 1113 -78 717 272 
Q 322 622 266 1200 
z
" id="ArialMT-35" transform="scale(0.015625)"/>
       </defs>
       <use xlink:href="#ArialMT-35"/>
      </g>
     </g>
    </g>
    <g id="xtick_2">
     <g id="line2d_2"/>
     <g id="text_2">
      <!-- 15 -->
      <g style="fill:#666666;" transform="translate(84.432105 275.269375)scale(0.12 -0.12)">
       <defs>
        <path d="M 2384 0 
L 1822 0 
L 1822 3584 
Q 1619 3391 1289 3197 
Q 959 3003 697 2906 
L 697 3450 
Q 1169 3672 1522 3987 
Q 1875 4303 2022 4600 
L 2384 4600 
L 2384 0 
z
" id="ArialMT-31" transform="scale(0.015625)"/>
       </defs>
       <use xlink:href="#ArialMT-31"/>
       <use x="55.615234" xlink:href="#ArialMT-35"/>
      </g>
     </g>
    </g>
    <g id="xtick_3">
     <g id="line2d_3"/>
     <g id="text_3">
      <!-- 25 -->
      <g style="fill:#666666;" transform="translate(119.674211 275.269375)scale(0.12 -0.12)">
       <defs>
        <path d="M 3222 541 
L 3222 0 
L 194 0 
Q 188 203 259 391 
Q 375 700 629 1000 
Q 884 1300 1366 1694 
Q 2113 2306 2375 2664 
Q 2638 3022 2638 3341 
Q 2638 3675 2398 3904 
Q 2159 4134 1775 4134 
Q 1369 4134 1125 3890 
Q 881 3647 878 3216 
L 300 3275 
Q 359 3922 746 4261 
Q 1134 4600 1788 4600 
Q 2447 4600 2831 4234 
Q 3216 3869 3216 3328 
Q 3216 3053 3103 2787 
Q 2991 2522 2730 2228 
Q 2469 1934 1863 1422 
Q 1356 997 1212 845 
Q 1069 694 975 541 
L 3222 541 
z
" id="ArialMT-32" transform="scale(0.015625)"/>
       </defs>
       <use xlink:href="#ArialMT-32"/>
       <use x="55.615234" xlink:href="#ArialMT-35"/>
      </g>
     </g>
    </g>
    <g id="xtick_4">
     <g id="line2d_4"/>
     <g id="text_4">
      <!-- 35 -->
      <g style="fill:#666666;" transform="translate(154.916316 275.269375)scale(0.12 -0.12)">
       <defs>
        <path d="M 269 1209 
L 831 1284 
Q 928 806 1161 595 
Q 1394 384 1728 384 
Q 2125 384 2398 659 
Q 2672 934 2672 1341 
Q 2672 1728 2419 1979 
Q 2166 2231 1775 2231 
Q 1616 2231 1378 2169 
L 1441 2663 
Q 1497 2656 1531 2656 
Q 1891 2656 2178 2843 
Q 2466 3031 2466 3422 
Q 2466 3731 2256 3934 
Q 2047 4138 1716 4138 
Q 1388 4138 1169 3931 
Q 950 3725 888 3313 
L 325 3413 
Q 428 3978 793 4289 
Q 1159 4600 1703 4600 
Q 2078 4600 2393 4439 
Q 2709 4278 2876 4000 
Q 3044 3722 3044 3409 
Q 3044 3113 2884 2869 
Q 2725 2625 2413 2481 
Q 2819 2388 3044 2092 
Q 3269 1797 3269 1353 
Q 3269 753 2831 336 
Q 2394 -81 1725 -81 
Q 1122 -81 723 278 
Q 325 638 269 1209 
z
" id="ArialMT-33" transform="scale(0.015625)"/>
       </defs>
       <use xlink:href="#ArialMT-33"/>
       <use x="55.615234" xlink:href="#ArialMT-35"/>
      </g>
     </g>
    </g>
    <g id="xtick_5">
     <g id="line2d_5"/>
     <g id="text_5">
      <!-- 45 -->
      <g style="fill:#666666;" transform="translate(190.158421 275.269375)scale(0.12 -0.12)">
       <defs>
        <path d="M 2069 0 
L 2069 1097 
L 81 1097 
L 81 1613 
L 2172 4581 
L 2631 4581 
L 2631 1613 
L 3250 1613 
L 3250 1097 
L 2631 1097 
L 2631 0 
L 2069 0 
z
M 2069 1613 
L 2069 3678 
L 634 1613 
L 2069 1613 
z
" id="ArialMT-34" transform="scale(0.015625)"/>
       </defs>
       <use xlink:href="#ArialMT-34"/>
       <use x="55.615234" xlink:href="#ArialMT-35"/>
      </g>
     </g>
    </g>
    <g id="xtick_6">
     <g id="line2d_6"/>
     <g id="text_6">
      <!-- 55 -->
      <g style="fill:#666666;" transform="translate(225.400526 275.269375)scale(0.12 -0.12)">
       <use xlink:href="#ArialMT-35"/>
       <use x="55.615234" xlink:href="#ArialMT-35"/>
      </g>
     </g>
    </g>
    <g id="xtick_7">
     <g id="line2d_7"/>
     <g id="text_7">
      <!-- 65 -->
      <g style="fill:#666666;" transform="translate(260.642632 275.269375)scale(0.12 -0.12)">
       <defs>
        <path d="M 3184 3459 
L 2625 3416 
Q 2550 3747 2413 3897 
Q 2184 4138 1850 4138 
Q 1581 4138 1378 3988 
Q 1113 3794 959 3422 
Q 806 3050 800 2363 
Q 1003 2672 1297 2822 
Q 1591 2972 1913 2972 
Q 2475 2972 2870 2558 
Q 3266 2144 3266 1488 
Q 3266 1056 3080 686 
Q 2894 316 2569 119 
Q 2244 -78 1831 -78 
Q 1128 -78 684 439 
Q 241 956 241 2144 
Q 241 3472 731 4075 
Q 1159 4600 1884 4600 
Q 2425 4600 2770 4297 
Q 3116 3994 3184 3459 
z
M 888 1484 
Q 888 1194 1011 928 
Q 1134 663 1356 523 
Q 1578 384 1822 384 
Q 2178 384 2434 671 
Q 2691 959 2691 1453 
Q 2691 1928 2437 2201 
Q 2184 2475 1800 2475 
Q 1419 2475 1153 2201 
Q 888 1928 888 1484 
z
" id="ArialMT-36" transform="scale(0.015625)"/>
       </defs>
       <use xlink:href="#ArialMT-36"/>
       <use x="55.615234" xlink:href="#ArialMT-35"/>
      </g>
     </g>
    </g>
    <g id="xtick_8">
     <g id="line2d_8"/>
     <g id="text_8">
      <!-- 75 -->
      <g style="fill:#666666;" transform="translate(295.884737 275.269375)scale(0.12 -0.12)">
       <defs>
        <path d="M 303 3981 
L 303 4522 
L 3269 4522 
L 3269 4084 
Q 2831 3619 2401 2847 
Q 1972 2075 1738 1259 
Q 1569 684 1522 0 
L 944 0 
Q 953 541 1156 1306 
Q 1359 2072 1739 2783 
Q 2119 3494 2547 3981 
L 303 3981 
z
" id="ArialMT-37" transform="scale(0.015625)"/>
       </defs>
       <use xlink:href="#ArialMT-37"/>
       <use x="55.615234" xlink:href="#ArialMT-35"/>
      </g>
     </g>
    </g>
    <g id="xtick_9">
     <g id="line2d_9"/>
     <g id="text_9">
      <!-- 85 -->
      <g style="fill:#666666;" transform="translate(331.126842 275.269375)scale(0.12 -0.12)">
       <defs>
        <path d="M 1131 2484 
Q 781 2613 612 2850 
Q 444 3088 444 3419 
Q 444 3919 803 4259 
Q 1163 4600 1759 4600 
Q 2359 4600 2725 4251 
Q 3091 3903 3091 3403 
Q 3091 3084 2923 2848 
Q 2756 2613 2416 2484 
Q 2838 2347 3058 2040 
Q 3278 1734 3278 1309 
Q 3278 722 2862 322 
Q 2447 -78 1769 -78 
Q 1091 -78 675 323 
Q 259 725 259 1325 
Q 259 1772 486 2073 
Q 713 2375 1131 2484 
z
M 1019 3438 
Q 1019 3113 1228 2906 
Q 1438 2700 1772 2700 
Q 2097 2700 2305 2904 
Q 2513 3109 2513 3406 
Q 2513 3716 2298 3927 
Q 2084 4138 1766 4138 
Q 1444 4138 1231 3931 
Q 1019 3725 1019 3438 
z
M 838 1322 
Q 838 1081 952 856 
Q 1066 631 1291 507 
Q 1516 384 1775 384 
Q 2178 384 2440 643 
Q 2703 903 2703 1303 
Q 2703 1709 2433 1975 
Q 2163 2241 1756 2241 
Q 1359 2241 1098 1978 
Q 838 1716 838 1322 
z
" id="ArialMT-38" transform="scale(0.015625)"/>
       </defs>
       <use xlink:href="#ArialMT-38"/>
       <use x="55.615234" xlink:href="#ArialMT-35"/>
      </g>
     </g>
    </g>
    <g id="xtick_10">
     <g id="line2d_10"/>
     <g id="text_10">
      <!-- 95 -->
      <g style="fill:#666666;" transform="translate(366.368947 275.269375)scale(0.12 -0.12)">
       <defs>
        <path d="M 350 1059 
L 891 1109 
Q 959 728 1153 556 
Q 1347 384 1650 384 
Q 1909 384 2104 503 
Q 2300 622 2425 820 
Q 2550 1019 2634 1356 
Q 2719 1694 2719 2044 
Q 2719 2081 2716 2156 
Q 2547 1888 2255 1720 
Q 1963 1553 1622 1553 
Q 1053 1553 659 1965 
Q 266 2378 266 3053 
Q 266 3750 677 4175 
Q 1088 4600 1706 4600 
Q 2153 4600 2523 4359 
Q 2894 4119 3086 3673 
Q 3278 3228 3278 2384 
Q 3278 1506 3087 986 
Q 2897 466 2520 194 
Q 2144 -78 1638 -78 
Q 1100 -78 759 220 
Q 419 519 350 1059 
z
M 2653 3081 
Q 2653 3566 2395 3850 
Q 2138 4134 1775 4134 
Q 1400 4134 1122 3828 
Q 844 3522 844 3034 
Q 844 2597 1108 2323 
Q 1372 2050 1759 2050 
Q 2150 2050 2401 2323 
Q 2653 2597 2653 3081 
z
" id="ArialMT-39" transform="scale(0.015625)"/>
       </defs>
       <use xlink:href="#ArialMT-39"/>
       <use x="55.615234" xlink:href="#ArialMT-35"/>
      </g>
     </g>
    </g>
    <g id="text_11">
     <!-- Sequence length -->
     <g style="fill:#333333;" transform="translate(178.228438 290.39)scale(0.12 -0.12)">
      <defs>
       <path d="M 288 1472 
L 859 1522 
Q 900 1178 1048 958 
Q 1197 738 1509 602 
Q 1822 466 2213 466 
Q 2559 466 2825 569 
Q 3091 672 3220 851 
Q 3350 1031 3350 1244 
Q 3350 1459 3225 1620 
Q 3100 1781 2813 1891 
Q 2628 1963 1997 2114 
Q 1366 2266 1113 2400 
Q 784 2572 623 2826 
Q 463 3081 463 3397 
Q 463 3744 659 4045 
Q 856 4347 1234 4503 
Q 1613 4659 2075 4659 
Q 2584 4659 2973 4495 
Q 3363 4331 3572 4012 
Q 3781 3694 3797 3291 
L 3216 3247 
Q 3169 3681 2898 3903 
Q 2628 4125 2100 4125 
Q 1550 4125 1298 3923 
Q 1047 3722 1047 3438 
Q 1047 3191 1225 3031 
Q 1400 2872 2139 2705 
Q 2878 2538 3153 2413 
Q 3553 2228 3743 1945 
Q 3934 1663 3934 1294 
Q 3934 928 3725 604 
Q 3516 281 3123 101 
Q 2731 -78 2241 -78 
Q 1619 -78 1198 103 
Q 778 284 539 648 
Q 300 1013 288 1472 
z
" id="ArialMT-53" transform="scale(0.015625)"/>
       <path d="M 2694 1069 
L 3275 997 
Q 3138 488 2766 206 
Q 2394 -75 1816 -75 
Q 1088 -75 661 373 
Q 234 822 234 1631 
Q 234 2469 665 2931 
Q 1097 3394 1784 3394 
Q 2450 3394 2872 2941 
Q 3294 2488 3294 1666 
Q 3294 1616 3291 1516 
L 816 1516 
Q 847 969 1125 678 
Q 1403 388 1819 388 
Q 2128 388 2347 550 
Q 2566 713 2694 1069 
z
M 847 1978 
L 2700 1978 
Q 2663 2397 2488 2606 
Q 2219 2931 1791 2931 
Q 1403 2931 1139 2672 
Q 875 2413 847 1978 
z
" id="ArialMT-65" transform="scale(0.015625)"/>
       <path d="M 2538 -1272 
L 2538 353 
Q 2406 169 2170 47 
Q 1934 -75 1669 -75 
Q 1078 -75 651 397 
Q 225 869 225 1691 
Q 225 2191 398 2587 
Q 572 2984 901 3189 
Q 1231 3394 1625 3394 
Q 2241 3394 2594 2875 
L 2594 3319 
L 3100 3319 
L 3100 -1272 
L 2538 -1272 
z
M 803 1669 
Q 803 1028 1072 708 
Q 1341 388 1716 388 
Q 2075 388 2334 692 
Q 2594 997 2594 1619 
Q 2594 2281 2320 2615 
Q 2047 2950 1678 2950 
Q 1313 2950 1058 2639 
Q 803 2328 803 1669 
z
" id="ArialMT-71" transform="scale(0.015625)"/>
       <path d="M 2597 0 
L 2597 488 
Q 2209 -75 1544 -75 
Q 1250 -75 995 37 
Q 741 150 617 320 
Q 494 491 444 738 
Q 409 903 409 1263 
L 409 3319 
L 972 3319 
L 972 1478 
Q 972 1038 1006 884 
Q 1059 663 1231 536 
Q 1403 409 1656 409 
Q 1909 409 2131 539 
Q 2353 669 2445 892 
Q 2538 1116 2538 1541 
L 2538 3319 
L 3100 3319 
L 3100 0 
L 2597 0 
z
" id="ArialMT-75" transform="scale(0.015625)"/>
       <path d="M 422 0 
L 422 3319 
L 928 3319 
L 928 2847 
Q 1294 3394 1984 3394 
Q 2284 3394 2536 3286 
Q 2788 3178 2913 3003 
Q 3038 2828 3088 2588 
Q 3119 2431 3119 2041 
L 3119 0 
L 2556 0 
L 2556 2019 
Q 2556 2363 2490 2533 
Q 2425 2703 2258 2804 
Q 2091 2906 1866 2906 
Q 1506 2906 1245 2678 
Q 984 2450 984 1813 
L 984 0 
L 422 0 
z
" id="ArialMT-6e" transform="scale(0.015625)"/>
       <path d="M 2588 1216 
L 3141 1144 
Q 3050 572 2676 248 
Q 2303 -75 1759 -75 
Q 1078 -75 664 370 
Q 250 816 250 1647 
Q 250 2184 428 2587 
Q 606 2991 970 3192 
Q 1334 3394 1763 3394 
Q 2303 3394 2647 3120 
Q 2991 2847 3088 2344 
L 2541 2259 
Q 2463 2594 2264 2762 
Q 2066 2931 1784 2931 
Q 1359 2931 1093 2626 
Q 828 2322 828 1663 
Q 828 994 1084 691 
Q 1341 388 1753 388 
Q 2084 388 2306 591 
Q 2528 794 2588 1216 
z
" id="ArialMT-63" transform="scale(0.015625)"/>
       <path id="ArialMT-20" transform="scale(0.015625)"/>
       <path d="M 409 0 
L 409 4581 
L 972 4581 
L 972 0 
L 409 0 
z
" id="ArialMT-6c" transform="scale(0.015625)"/>
       <path d="M 319 -275 
L 866 -356 
Q 900 -609 1056 -725 
Q 1266 -881 1628 -881 
Q 2019 -881 2231 -725 
Q 2444 -569 2519 -288 
Q 2563 -116 2559 434 
Q 2191 0 1641 0 
Q 956 0 581 494 
Q 206 988 206 1678 
Q 206 2153 378 2554 
Q 550 2956 876 3175 
Q 1203 3394 1644 3394 
Q 2231 3394 2613 2919 
L 2613 3319 
L 3131 3319 
L 3131 450 
Q 3131 -325 2973 -648 
Q 2816 -972 2473 -1159 
Q 2131 -1347 1631 -1347 
Q 1038 -1347 672 -1080 
Q 306 -813 319 -275 
z
M 784 1719 
Q 784 1066 1043 766 
Q 1303 466 1694 466 
Q 2081 466 2343 764 
Q 2606 1063 2606 1700 
Q 2606 2309 2336 2618 
Q 2066 2928 1684 2928 
Q 1309 2928 1046 2623 
Q 784 2319 784 1719 
z
" id="ArialMT-67" transform="scale(0.015625)"/>
       <path d="M 1650 503 
L 1731 6 
Q 1494 -44 1306 -44 
Q 1000 -44 831 53 
Q 663 150 594 308 
Q 525 466 525 972 
L 525 2881 
L 113 2881 
L 113 3319 
L 525 3319 
L 525 4141 
L 1084 4478 
L 1084 3319 
L 1650 3319 
L 1650 2881 
L 1084 2881 
L 1084 941 
Q 1084 700 1114 631 
Q 1144 563 1211 522 
Q 1278 481 1403 481 
Q 1497 481 1650 503 
z
" id="ArialMT-74" transform="scale(0.015625)"/>
       <path d="M 422 0 
L 422 4581 
L 984 4581 
L 984 2938 
Q 1378 3394 1978 3394 
Q 2347 3394 2619 3248 
Q 2891 3103 3008 2847 
Q 3125 2591 3125 2103 
L 3125 0 
L 2563 0 
L 2563 2103 
Q 2563 2525 2380 2717 
Q 2197 2909 1863 2909 
Q 1613 2909 1392 2779 
Q 1172 2650 1078 2428 
Q 984 2206 984 1816 
L 984 0 
L 422 0 
z
" id="ArialMT-68" transform="scale(0.015625)"/>
      </defs>
      <use xlink:href="#ArialMT-53"/>
      <use x="66.699219" xlink:href="#ArialMT-65"/>
      <use x="122.314453" xlink:href="#ArialMT-71"/>
      <use x="177.929688" xlink:href="#ArialMT-75"/>
      <use x="233.544922" xlink:href="#ArialMT-65"/>
      <use x="289.160156" xlink:href="#ArialMT-6e"/>
      <use x="344.775391" xlink:href="#ArialMT-63"/>
      <use x="394.775391" xlink:href="#ArialMT-65"/>
      <use x="450.390625" xlink:href="#ArialMT-20"/>
      <use x="478.173828" xlink:href="#ArialMT-6c"/>
      <use x="500.390625" xlink:href="#ArialMT-65"/>
      <use x="556.005859" xlink:href="#ArialMT-6e"/>
      <use x="611.621094" xlink:href="#ArialMT-67"/>
      <use x="667.236328" xlink:href="#ArialMT-74"/>
      <use x="695.019531" xlink:href="#ArialMT-68"/>
     </g>
    </g>
   </g>
   <g id="matplotlib.axis_2">
    <g id="ytick_1">
     <g id="line2d_11"/>
     <g id="text_12">
      <!-- −0.2 -->
      <g style="fill:#666666;" transform="translate(22.174375 251.630515)scale(0.12 -0.12)">
       <defs>
        <path d="M 3381 1997 
L 356 1997 
L 356 2522 
L 3381 2522 
L 3381 1997 
z
" id="ArialMT-2212" transform="scale(0.015625)"/>
        <path d="M 266 2259 
Q 266 3072 433 3567 
Q 600 4063 929 4331 
Q 1259 4600 1759 4600 
Q 2128 4600 2406 4451 
Q 2684 4303 2865 4023 
Q 3047 3744 3150 3342 
Q 3253 2941 3253 2259 
Q 3253 1453 3087 958 
Q 2922 463 2592 192 
Q 2263 -78 1759 -78 
Q 1097 -78 719 397 
Q 266 969 266 2259 
z
M 844 2259 
Q 844 1131 1108 757 
Q 1372 384 1759 384 
Q 2147 384 2411 759 
Q 2675 1134 2675 2259 
Q 2675 3391 2411 3762 
Q 2147 4134 1753 4134 
Q 1366 4134 1134 3806 
Q 844 3388 844 2259 
z
" id="ArialMT-30" transform="scale(0.015625)"/>
        <path d="M 581 0 
L 581 641 
L 1222 641 
L 1222 0 
L 581 0 
z
" id="ArialMT-2e" transform="scale(0.015625)"/>
       </defs>
       <use xlink:href="#ArialMT-2212"/>
       <use x="58.398438" xlink:href="#ArialMT-30"/>
       <use x="114.013672" xlink:href="#ArialMT-2e"/>
       <use x="141.796875" xlink:href="#ArialMT-32"/>
      </g>
     </g>
    </g>
    <g id="ytick_2">
     <g id="line2d_12"/>
     <g id="text_13">
      <!-- −0.1 -->
      <g style="fill:#666666;" transform="translate(22.174375 216.778557)scale(0.12 -0.12)">
       <use xlink:href="#ArialMT-2212"/>
       <use x="58.398438" xlink:href="#ArialMT-30"/>
       <use x="114.013672" xlink:href="#ArialMT-2e"/>
       <use x="141.796875" xlink:href="#ArialMT-31"/>
      </g>
     </g>
    </g>
    <g id="ytick_3">
     <g id="line2d_13"/>
     <g id="text_14">
      <!-- 0.0 -->
      <g style="fill:#666666;" transform="translate(29.183125 181.926598)scale(0.12 -0.12)">
       <use xlink:href="#ArialMT-30"/>
       <use x="55.615234" xlink:href="#ArialMT-2e"/>
       <use x="83.398438" xlink:href="#ArialMT-30"/>
      </g>
     </g>
    </g>
    <g id="ytick_4">
     <g id="line2d_14"/>
     <g id="text_15">
      <!-- 0.1 -->
      <g style="fill:#666666;" transform="translate(29.183125 147.07464)scale(0.12 -0.12)">
       <use xlink:href="#ArialMT-30"/>
       <use x="55.615234" xlink:href="#ArialMT-2e"/>
       <use x="83.398438" xlink:href="#ArialMT-31"/>
      </g>
     </g>
    </g>
    <g id="ytick_5">
     <g id="line2d_15"/>
     <g id="text_16">
      <!-- 0.2 -->
      <g style="fill:#666666;" transform="translate(29.183125 112.222682)scale(0.12 -0.12)">
       <use xlink:href="#ArialMT-30"/>
       <use x="55.615234" xlink:href="#ArialMT-2e"/>
       <use x="83.398438" xlink:href="#ArialMT-32"/>
      </g>
     </g>
    </g>
    <g id="ytick_6">
     <g id="line2d_16"/>
     <g id="text_17">
      <!-- 0.3 -->
      <g style="fill:#666666;" transform="translate(29.183125 77.370724)scale(0.12 -0.12)">
       <use xlink:href="#ArialMT-30"/>
       <use x="55.615234" xlink:href="#ArialMT-2e"/>
       <use x="83.398438" xlink:href="#ArialMT-33"/>
      </g>
     </g>
    </g>
    <g id="ytick_7">
     <g id="line2d_17"/>
     <g id="text_18">
      <!-- 0.4 -->
      <g style="fill:#666666;" transform="translate(29.183125 42.518766)scale(0.12 -0.12)">
       <use xlink:href="#ArialMT-30"/>
       <use x="55.615234" xlink:href="#ArialMT-2e"/>
       <use x="83.398438" xlink:href="#ArialMT-34"/>
      </g>
     </g>
    </g>
    <g id="text_19">
     <!-- Values of transition metrics -->
     <g style="fill:#333333;" transform="translate(15.789375 203.522812)rotate(-90)scale(0.12 -0.12)">
      <defs>
       <path d="M 1803 0 
L 28 4581 
L 684 4581 
L 1875 1253 
Q 2019 853 2116 503 
Q 2222 878 2363 1253 
L 3600 4581 
L 4219 4581 
L 2425 0 
L 1803 0 
z
" id="ArialMT-56" transform="scale(0.015625)"/>
       <path d="M 2588 409 
Q 2275 144 1986 34 
Q 1697 -75 1366 -75 
Q 819 -75 525 192 
Q 231 459 231 875 
Q 231 1119 342 1320 
Q 453 1522 633 1644 
Q 813 1766 1038 1828 
Q 1203 1872 1538 1913 
Q 2219 1994 2541 2106 
Q 2544 2222 2544 2253 
Q 2544 2597 2384 2738 
Q 2169 2928 1744 2928 
Q 1347 2928 1158 2789 
Q 969 2650 878 2297 
L 328 2372 
Q 403 2725 575 2942 
Q 747 3159 1072 3276 
Q 1397 3394 1825 3394 
Q 2250 3394 2515 3294 
Q 2781 3194 2906 3042 
Q 3031 2891 3081 2659 
Q 3109 2516 3109 2141 
L 3109 1391 
Q 3109 606 3145 398 
Q 3181 191 3288 0 
L 2700 0 
Q 2613 175 2588 409 
z
M 2541 1666 
Q 2234 1541 1622 1453 
Q 1275 1403 1131 1340 
Q 988 1278 909 1158 
Q 831 1038 831 891 
Q 831 666 1001 516 
Q 1172 366 1500 366 
Q 1825 366 2078 508 
Q 2331 650 2450 897 
Q 2541 1088 2541 1459 
L 2541 1666 
z
" id="ArialMT-61" transform="scale(0.015625)"/>
       <path d="M 197 991 
L 753 1078 
Q 800 744 1014 566 
Q 1228 388 1613 388 
Q 2000 388 2187 545 
Q 2375 703 2375 916 
Q 2375 1106 2209 1216 
Q 2094 1291 1634 1406 
Q 1016 1563 777 1677 
Q 538 1791 414 1992 
Q 291 2194 291 2438 
Q 291 2659 392 2848 
Q 494 3038 669 3163 
Q 800 3259 1026 3326 
Q 1253 3394 1513 3394 
Q 1903 3394 2198 3281 
Q 2494 3169 2634 2976 
Q 2775 2784 2828 2463 
L 2278 2388 
Q 2241 2644 2061 2787 
Q 1881 2931 1553 2931 
Q 1166 2931 1000 2803 
Q 834 2675 834 2503 
Q 834 2394 903 2306 
Q 972 2216 1119 2156 
Q 1203 2125 1616 2013 
Q 2213 1853 2448 1751 
Q 2684 1650 2818 1456 
Q 2953 1263 2953 975 
Q 2953 694 2789 445 
Q 2625 197 2315 61 
Q 2006 -75 1616 -75 
Q 969 -75 630 194 
Q 291 463 197 991 
z
" id="ArialMT-73" transform="scale(0.015625)"/>
       <path d="M 213 1659 
Q 213 2581 725 3025 
Q 1153 3394 1769 3394 
Q 2453 3394 2887 2945 
Q 3322 2497 3322 1706 
Q 3322 1066 3130 698 
Q 2938 331 2570 128 
Q 2203 -75 1769 -75 
Q 1072 -75 642 372 
Q 213 819 213 1659 
z
M 791 1659 
Q 791 1022 1069 705 
Q 1347 388 1769 388 
Q 2188 388 2466 706 
Q 2744 1025 2744 1678 
Q 2744 2294 2464 2611 
Q 2184 2928 1769 2928 
Q 1347 2928 1069 2612 
Q 791 2297 791 1659 
z
" id="ArialMT-6f" transform="scale(0.015625)"/>
       <path d="M 556 0 
L 556 2881 
L 59 2881 
L 59 3319 
L 556 3319 
L 556 3672 
Q 556 4006 616 4169 
Q 697 4388 901 4523 
Q 1106 4659 1475 4659 
Q 1713 4659 2000 4603 
L 1916 4113 
Q 1741 4144 1584 4144 
Q 1328 4144 1222 4034 
Q 1116 3925 1116 3625 
L 1116 3319 
L 1763 3319 
L 1763 2881 
L 1116 2881 
L 1116 0 
L 556 0 
z
" id="ArialMT-66" transform="scale(0.015625)"/>
       <path d="M 416 0 
L 416 3319 
L 922 3319 
L 922 2816 
Q 1116 3169 1280 3281 
Q 1444 3394 1641 3394 
Q 1925 3394 2219 3213 
L 2025 2691 
Q 1819 2813 1613 2813 
Q 1428 2813 1281 2702 
Q 1134 2591 1072 2394 
Q 978 2094 978 1738 
L 978 0 
L 416 0 
z
" id="ArialMT-72" transform="scale(0.015625)"/>
       <path d="M 425 3934 
L 425 4581 
L 988 4581 
L 988 3934 
L 425 3934 
z
M 425 0 
L 425 3319 
L 988 3319 
L 988 0 
L 425 0 
z
" id="ArialMT-69" transform="scale(0.015625)"/>
       <path d="M 422 0 
L 422 3319 
L 925 3319 
L 925 2853 
Q 1081 3097 1340 3245 
Q 1600 3394 1931 3394 
Q 2300 3394 2536 3241 
Q 2772 3088 2869 2813 
Q 3263 3394 3894 3394 
Q 4388 3394 4653 3120 
Q 4919 2847 4919 2278 
L 4919 0 
L 4359 0 
L 4359 2091 
Q 4359 2428 4304 2576 
Q 4250 2725 4106 2815 
Q 3963 2906 3769 2906 
Q 3419 2906 3187 2673 
Q 2956 2441 2956 1928 
L 2956 0 
L 2394 0 
L 2394 2156 
Q 2394 2531 2256 2718 
Q 2119 2906 1806 2906 
Q 1569 2906 1367 2781 
Q 1166 2656 1075 2415 
Q 984 2175 984 1722 
L 984 0 
L 422 0 
z
" id="ArialMT-6d" transform="scale(0.015625)"/>
      </defs>
      <use xlink:href="#ArialMT-56"/>
      <use x="59.324219" xlink:href="#ArialMT-61"/>
      <use x="114.939453" xlink:href="#ArialMT-6c"/>
      <use x="137.15625" xlink:href="#ArialMT-75"/>
      <use x="192.771484" xlink:href="#ArialMT-65"/>
      <use x="248.386719" xlink:href="#ArialMT-73"/>
      <use x="298.386719" xlink:href="#ArialMT-20"/>
      <use x="326.169922" xlink:href="#ArialMT-6f"/>
      <use x="381.785156" xlink:href="#ArialMT-66"/>
      <use x="409.568359" xlink:href="#ArialMT-20"/>
      <use x="437.351562" xlink:href="#ArialMT-74"/>
      <use x="465.134766" xlink:href="#ArialMT-72"/>
      <use x="498.435547" xlink:href="#ArialMT-61"/>
      <use x="554.050781" xlink:href="#ArialMT-6e"/>
      <use x="609.666016" xlink:href="#ArialMT-73"/>
      <use x="659.666016" xlink:href="#ArialMT-69"/>
      <use x="681.882812" xlink:href="#ArialMT-74"/>
      <use x="709.666016" xlink:href="#ArialMT-69"/>
      <use x="731.882812" xlink:href="#ArialMT-6f"/>
      <use x="787.498047" xlink:href="#ArialMT-6e"/>
      <use x="843.113281" xlink:href="#ArialMT-20"/>
      <use x="870.896484" xlink:href="#ArialMT-6d"/>
      <use x="954.197266" xlink:href="#ArialMT-65"/>
      <use x="1009.8125" xlink:href="#ArialMT-74"/>
      <use x="1037.595703" xlink:href="#ArialMT-72"/>
      <use x="1070.896484" xlink:href="#ArialMT-69"/>
      <use x="1093.113281" xlink:href="#ArialMT-63"/>
      <use x="1143.113281" xlink:href="#ArialMT-73"/>
     </g>
    </g>
   </g>
   <g id="line2d_18">
    <path clip-path="url(#p8757515350)" d="M 55.863125 126.583969 
L 59.387336 141.802498 
L 62.911546 147.862264 
L 66.435757 154.379091 
L 69.959967 157.52178 
L 73.484178 160.084975 
L 77.008388 161.46267 
L 80.532599 162.922956 
L 84.056809 164.110558 
L 87.58102 166.758442 
L 91.10523 167.270619 
L 94.629441 167.067635 
L 98.153651 167.85557 
L 101.677862 168.613857 
L 105.202072 169.482046 
L 108.726283 169.338994 
L 112.250493 170.401433 
L 115.774704 170.767109 
L 119.298914 169.382416 
L 122.823125 170.363693 
L 126.347336 171.07389 
L 129.871546 171.036887 
L 133.395757 171.320699 
L 136.919967 171.462245 
L 140.444178 171.564778 
L 143.968388 172.628175 
L 147.492599 172.896877 
L 151.016809 172.895174 
L 154.54102 173.014556 
L 158.06523 172.945647 
L 161.589441 172.771283 
L 165.113651 172.724329 
L 168.637862 172.737516 
L 172.162072 172.930302 
L 175.686283 173.494029 
L 179.210493 173.47061 
L 182.734704 173.567154 
L 186.258914 173.870119 
L 189.783125 174.216223 
L 193.307336 174.027195 
L 196.831546 174.352977 
L 200.355757 174.363245 
L 203.879967 173.981088 
L 207.404178 173.714295 
L 210.928388 174.545156 
L 214.452599 174.480408 
L 217.976809 174.363939 
L 221.50102 174.178211 
L 225.02523 173.486056 
L 228.549441 174.449285 
L 232.073651 174.324043 
L 235.597862 174.981486 
L 239.122072 174.658019 
L 242.646283 174.496379 
L 246.170493 174.690418 
L 249.694704 174.743904 
L 253.218914 175.129196 
L 256.743125 174.976653 
L 260.267336 175.165545 
L 263.791546 175.08966 
L 267.315757 175.628973 
L 270.839967 175.414365 
L 274.364178 175.218722 
L 277.888388 175.362606 
L 281.412599 174.902552 
L 284.936809 174.936242 
L 288.46102 175.234515 
L 291.98523 175.412924 
L 295.509441 175.116838 
L 299.033651 175.374133 
L 302.557862 175.617829 
L 306.082072 175.672408 
L 309.606283 175.085127 
L 313.130493 175.306567 
L 316.654704 174.961571 
L 320.178914 175.154108 
L 323.703125 175.549204 
L 327.227336 175.220295 
L 330.751546 175.653999 
L 334.275757 175.405345 
L 337.799967 175.268866 
L 341.324178 175.369117 
L 344.848388 175.489557 
L 348.372599 175.87908 
L 351.896809 175.97575 
L 355.42102 175.552111 
L 358.94523 175.353011 
L 362.469441 175.821315 
L 365.993651 175.45077 
L 369.517862 175.632109 
L 373.042072 175.82869 
L 376.566283 175.492291 
L 380.090493 175.343309 
L 383.614704 175.792775 
L 387.138914 176.107398 
L 390.663125 175.952889 
" style="fill:none;stroke:#7fc97f;stroke-linecap:square;stroke-width:1.5;"/>
   </g>
   <g id="line2d_19">
    <path clip-path="url(#p8757515350)" d="M 55.863125 77.634974 
L 59.387336 102.036505 
L 62.911546 112.6242 
L 66.435757 124.343736 
L 69.959967 130.675066 
L 73.484178 132.910508 
L 77.008388 133.98168 
L 80.532599 136.520079 
L 84.056809 135.163146 
L 87.58102 143.412289 
L 91.10523 143.702678 
L 94.629441 142.152458 
L 98.153651 143.162758 
L 101.677862 146.311164 
L 105.202072 147.249211 
L 108.726283 147.057746 
L 112.250493 147.482088 
L 115.774704 150.107707 
L 119.298914 145.829468 
L 122.823125 146.857493 
L 126.347336 147.922721 
L 129.871546 148.437023 
L 133.395757 150.748411 
L 136.919967 150.39343 
L 140.444178 149.503116 
L 143.968388 151.810697 
L 147.492599 152.259867 
L 151.016809 152.580074 
L 154.54102 153.692094 
L 158.06523 153.120897 
L 161.589441 150.907774 
L 165.113651 153.320711 
L 168.637862 150.266159 
L 172.162072 151.590976 
L 175.686283 154.496518 
L 179.210493 153.707444 
L 182.734704 152.409762 
L 186.258914 154.534342 
L 189.783125 156.236028 
L 193.307336 155.266015 
L 196.831546 155.449526 
L 200.355757 156.00303 
L 203.879967 153.937502 
L 207.404178 153.259926 
L 210.928388 157.561238 
L 214.452599 157.554191 
L 217.976809 156.339997 
L 221.50102 154.966208 
L 225.02523 148.939279 
L 228.549441 156.392418 
L 232.073651 154.874762 
L 235.597862 158.036047 
L 239.122072 157.416975 
L 242.646283 154.909635 
L 246.170493 158.592551 
L 249.694704 155.973234 
L 253.218914 159.581436 
L 256.743125 156.752653 
L 260.267336 159.479248 
L 263.791546 158.116781 
L 267.315757 161.728484 
L 270.839967 159.358251 
L 274.364178 158.575062 
L 277.888388 158.349704 
L 281.412599 156.316094 
L 284.936809 155.883275 
L 288.46102 158.659238 
L 291.98523 159.323096 
L 295.509441 156.794714 
L 299.033651 159.197706 
L 302.557862 159.165188 
L 306.082072 160.876772 
L 309.606283 156.316043 
L 313.130493 156.919309 
L 316.654704 153.966364 
L 320.178914 156.982923 
L 323.703125 160.16629 
L 327.227336 156.016312 
L 330.751546 160.095564 
L 334.275757 158.801754 
L 337.799967 156.490805 
L 341.324178 157.559939 
L 344.848388 158.883987 
L 348.372599 162.501124 
L 351.896809 160.927455 
L 355.42102 158.749623 
L 358.94523 156.669315 
L 362.469441 159.963743 
L 365.993651 158.293275 
L 369.517862 159.504173 
L 373.042072 160.796494 
L 376.566283 157.861552 
L 380.090493 156.315073 
L 383.614704 160.123325 
L 387.138914 161.798224 
L 390.663125 160.971513 
" style="fill:none;stroke:#beaed4;stroke-linecap:square;stroke-width:1.5;"/>
   </g>
   <g id="line2d_20">
    <path clip-path="url(#p8757515350)" d="M 62.911546 146.671147 
L 66.435757 159.456562 
L 69.959967 168.030204 
L 73.484178 167.180295 
L 77.008388 156.917991 
L 80.532599 148.848138 
L 84.056809 151.99581 
L 87.58102 149.830745 
L 91.10523 152.623194 
L 94.629441 149.898753 
L 98.153651 153.397398 
L 101.677862 149.434485 
L 105.202072 149.429805 
L 108.726283 153.037698 
L 112.250493 150.425843 
L 115.774704 149.658257 
L 119.298914 150.449177 
L 122.823125 151.856177 
L 126.347336 153.996876 
L 129.871546 152.743554 
L 133.395757 152.816006 
L 136.919967 153.100495 
L 140.444178 151.847945 
L 143.968388 150.766747 
L 147.492599 152.86776 
L 151.016809 154.217972 
L 154.54102 154.823042 
L 158.06523 156.163652 
L 161.589441 153.000753 
L 165.113651 156.168355 
L 168.637862 153.564626 
L 172.162072 154.202466 
L 175.686283 150.771061 
L 179.210493 153.149574 
L 182.734704 154.49783 
L 186.258914 153.988454 
L 189.783125 155.376555 
L 193.307336 156.784278 
L 196.831546 155.322105 
L 200.355757 156.777805 
L 203.879967 156.566515 
L 207.404178 154.641187 
L 210.928388 154.375934 
L 214.452599 153.956538 
L 217.976809 155.686278 
L 221.50102 158.765732 
L 225.02523 155.852546 
L 228.549441 155.990269 
L 232.073651 156.8893 
L 235.597862 157.858373 
L 239.122072 158.60165 
L 242.646283 155.84287 
L 246.170493 156.421436 
L 249.694704 157.229782 
L 253.218914 157.508572 
L 256.743125 158.111344 
L 260.267336 156.96437 
L 263.791546 156.689107 
L 267.315757 154.004282 
L 270.839967 162.909007 
L 274.364178 156.489345 
L 277.888388 159.801748 
L 281.412599 158.574894 
L 284.936809 160.349012 
L 288.46102 157.765038 
L 291.98523 156.308462 
L 295.509441 159.625779 
L 299.033651 159.911949 
L 302.557862 154.973182 
L 306.082072 158.544087 
L 309.606283 159.107292 
L 313.130493 154.271982 
L 316.654704 160.204522 
L 320.178914 158.194658 
L 323.703125 162.501952 
L 327.227336 158.43358 
L 330.751546 160.01491 
L 334.275757 157.654839 
L 337.799967 159.138367 
L 341.324178 159.712016 
L 344.848388 157.498036 
L 348.372599 160.449969 
L 351.896809 154.606547 
L 355.42102 160.224925 
L 358.94523 160.942059 
L 362.469441 161.231422 
L 365.993651 161.511247 
L 369.517862 161.182147 
L 373.042072 160.193445 
L 376.566283 160.012064 
L 380.090493 160.028586 
L 383.614704 162.184981 
L 387.138914 164.079743 
L 390.663125 158.260224 
" style="fill:none;stroke:#386cb0;stroke-linecap:square;stroke-width:1.5;"/>
   </g>
   <g id="line2d_21">
    <path clip-path="url(#p8757515350)" d="M 55.863125 42.051958 
L 59.387336 56.596428 
L 62.911546 63.160111 
L 66.435757 69.291219 
L 69.959967 73.264952 
L 73.484178 76.069044 
L 77.008388 77.018474 
L 80.532599 79.0287 
L 84.056809 80.261967 
L 87.58102 81.550169 
L 91.10523 82.389651 
L 94.629441 82.447549 
L 98.153651 82.991666 
L 101.677862 83.868769 
L 105.202072 84.20847 
L 108.726283 83.978084 
L 112.250493 85.086056 
L 115.774704 85.000269 
L 119.298914 84.517058 
L 122.823125 85.256914 
L 126.347336 85.491143 
L 129.871546 85.680481 
L 133.395757 85.81931 
L 136.919967 86.276318 
L 140.444178 86.286697 
L 143.968388 86.666803 
L 147.492599 87.01635 
L 151.016809 86.700084 
L 154.54102 86.857121 
L 158.06523 86.920082 
L 161.589441 86.867364 
L 165.113651 86.975408 
L 168.637862 86.713771 
L 172.162072 87.102384 
L 175.686283 87.526279 
L 179.210493 87.480077 
L 182.734704 87.367094 
L 186.258914 87.596783 
L 189.783125 87.804723 
L 193.307336 87.702344 
L 196.831546 88.072686 
L 200.355757 88.227046 
L 203.879967 87.684521 
L 207.404178 87.690896 
L 210.928388 88.058896 
L 214.452599 88.200676 
L 217.976809 87.784693 
L 221.50102 87.759892 
L 225.02523 87.723861 
L 228.549441 88.323497 
L 232.073651 87.836176 
L 235.597862 88.297175 
L 239.122072 88.216282 
L 242.646283 88.205414 
L 246.170493 88.472282 
L 249.694704 88.298996 
L 253.218914 88.743358 
L 256.743125 88.491279 
L 260.267336 88.242599 
L 263.791546 88.540705 
L 267.315757 88.865547 
L 270.839967 88.70229 
L 274.364178 88.483315 
L 277.888388 88.896161 
L 281.412599 88.665638 
L 284.936809 88.392482 
L 288.46102 88.643285 
L 291.98523 88.90941 
L 295.509441 88.712939 
L 299.033651 88.774276 
L 302.557862 88.879546 
L 306.082072 88.666688 
L 309.606283 88.537507 
L 313.130493 88.806529 
L 316.654704 88.224523 
L 320.178914 88.687699 
L 323.703125 88.819971 
L 327.227336 88.584195 
L 330.751546 88.938235 
L 334.275757 88.862437 
L 337.799967 88.643284 
L 341.324178 88.737278 
L 344.848388 89.137398 
L 348.372599 88.876963 
L 351.896809 89.146382 
L 355.42102 88.99068 
L 358.94523 88.538103 
L 362.469441 89.139537 
L 365.993651 88.684145 
L 369.517862 89.002272 
L 373.042072 89.142472 
L 376.566283 88.989108 
L 380.090493 88.979917 
L 383.614704 89.081738 
L 387.138914 89.350452 
L 390.663125 89.179196 
" style="fill:none;stroke:#bf5b17;stroke-linecap:square;stroke-width:1.5;"/>
   </g>
   <g id="line2d_22">
    <path clip-path="url(#p8757515350)" d="M 55.863125 159.599605 
L 59.387336 191.28107 
L 62.911546 203.791699 
L 66.435757 216.077359 
L 69.959967 220.025283 
L 73.484178 221.828042 
L 77.008388 220.376797 
L 80.532599 220.639927 
L 84.056809 216.507031 
L 87.58102 217.592216 
L 91.10523 214.129983 
L 94.629441 210.916302 
L 98.153651 207.713701 
L 101.677862 207.823152 
L 105.202072 205.610927 
L 108.726283 202.887497 
L 112.250493 201.553312 
L 115.774704 201.049154 
L 119.298914 197.146555 
L 122.823125 196.102445 
L 126.347336 194.973387 
L 129.871546 193.859212 
L 133.395757 194.285845 
L 136.919967 193.089128 
L 140.444178 191.601238 
L 143.968388 191.320917 
L 147.492599 191.005312 
L 151.016809 190.016026 
L 154.54102 189.936473 
L 158.06523 189.239933 
L 161.589441 186.680387 
L 165.113651 187.784821 
L 168.637862 185.259987 
L 172.162072 185.549285 
L 175.686283 186.815577 
L 179.210493 186.054034 
L 182.734704 185.420617 
L 186.258914 185.224313 
L 189.783125 185.901503 
L 193.307336 185.312993 
L 196.831546 184.318036 
L 200.355757 184.592414 
L 203.879967 183.822658 
L 207.404178 182.893409 
L 210.928388 184.320856 
L 214.452599 184.014953 
L 217.976809 182.864568 
L 221.50102 182.339197 
L 225.02523 180.268822 
L 228.549441 182.634421 
L 232.073651 182.324917 
L 235.597862 183.081346 
L 239.122072 182.644087 
L 242.646283 181.485242 
L 246.170493 182.621479 
L 249.694704 181.794826 
L 253.218914 182.679593 
L 256.743125 181.703847 
L 260.267336 182.201281 
L 263.791546 181.946682 
L 267.315757 182.434696 
L 270.839967 182.191086 
L 274.364178 181.266129 
L 277.888388 181.249901 
L 281.412599 180.574176 
L 284.936809 180.416826 
L 288.46102 181.005699 
L 291.98523 181.232756 
L 295.509441 180.549849 
L 299.033651 180.942601 
L 302.557862 180.95098 
L 306.082072 181.214499 
L 309.606283 179.697331 
L 313.130493 180.12431 
L 316.654704 178.968865 
L 320.178914 180.016568 
L 323.703125 180.667226 
L 327.227336 179.635033 
L 330.751546 180.613501 
L 334.275757 180.068614 
L 337.799967 179.190544 
L 341.324178 179.241196 
L 344.848388 179.765027 
L 348.372599 180.75711 
L 351.896809 180.200491 
L 355.42102 179.70603 
L 358.94523 178.843332 
L 362.469441 180.09858 
L 365.993651 179.247629 
L 369.517862 179.714371 
L 373.042072 179.943744 
L 376.566283 179.19993 
L 380.090493 178.627817 
L 383.614704 179.487444 
L 387.138914 180.051627 
L 390.663125 179.744131 
" style="fill:none;stroke:#fdc086;stroke-linecap:square;stroke-width:1.5;"/>
   </g>
   <g id="line2d_23">
    <path clip-path="url(#p8757515350)" d="M 55.863125 177.631911 
L 59.387336 177.631911 
L 62.911546 177.631911 
L 66.435757 177.631911 
L 69.959967 177.631911 
L 73.484178 177.631911 
L 77.008388 177.631911 
L 80.532599 177.631911 
L 84.056809 177.631911 
L 87.58102 177.631911 
L 91.10523 177.631911 
L 94.629441 177.631911 
L 98.153651 177.631911 
L 101.677862 177.631911 
L 105.202072 177.631911 
L 108.726283 177.631911 
L 112.250493 177.631911 
L 115.774704 177.631911 
L 119.298914 177.631911 
L 122.823125 177.631911 
L 126.347336 177.631911 
L 129.871546 177.631911 
L 133.395757 177.631911 
L 136.919967 177.631911 
L 140.444178 177.631911 
L 143.968388 177.631911 
L 147.492599 177.631911 
L 151.016809 177.631911 
L 154.54102 177.631911 
L 158.06523 177.631911 
L 161.589441 177.631911 
L 165.113651 177.631911 
L 168.637862 177.631911 
L 172.162072 177.631911 
L 175.686283 177.631911 
L 179.210493 177.631911 
L 182.734704 177.631911 
L 186.258914 177.631911 
L 189.783125 177.631911 
L 193.307336 177.631911 
L 196.831546 177.631911 
L 200.355757 177.631911 
L 203.879967 177.631911 
L 207.404178 177.631911 
L 210.928388 177.631911 
L 214.452599 177.631911 
L 217.976809 177.631911 
L 221.50102 177.631911 
L 225.02523 177.631911 
L 228.549441 177.631911 
L 232.073651 177.631911 
L 235.597862 177.631911 
L 239.122072 177.631911 
L 242.646283 177.631911 
L 246.170493 177.631911 
L 249.694704 177.631911 
L 253.218914 177.631911 
L 256.743125 177.631911 
L 260.267336 177.631911 
L 263.791546 177.631911 
L 267.315757 177.631911 
L 270.839967 177.631911 
L 274.364178 177.631911 
L 277.888388 177.631911 
L 281.412599 177.631911 
L 284.936809 177.631911 
L 288.46102 177.631911 
L 291.98523 177.631911 
L 295.509441 177.631911 
L 299.033651 177.631911 
L 302.557862 177.631911 
L 306.082072 177.631911 
L 309.606283 177.631911 
L 313.130493 177.631911 
L 316.654704 177.631911 
L 320.178914 177.631911 
L 323.703125 177.631911 
L 327.227336 177.631911 
L 330.751546 177.631911 
L 334.275757 177.631911 
L 337.799967 177.631911 
L 341.324178 177.631911 
L 344.848388 177.631911 
L 348.372599 177.631911 
L 351.896809 177.631911 
L 355.42102 177.631911 
L 358.94523 177.631911 
L 362.469441 177.631911 
L 365.993651 177.631911 
L 369.517862 177.631911 
L 373.042072 177.631911 
L 376.566283 177.631911 
L 380.090493 177.631911 
L 383.614704 177.631911 
L 387.138914 177.631911 
L 390.663125 177.631911 
" style="fill:none;stroke:#000000;stroke-dasharray:5.55,2.4;stroke-dashoffset:0;stroke-opacity:0.4;stroke-width:1.5;"/>
   </g>
   <g id="patch_3">
    <path d="M 55.863125 256.68 
L 55.863125 7.2 
" style="fill:none;stroke:#cccccc;stroke-linecap:square;stroke-linejoin:miter;stroke-width:0.75;"/>
   </g>
   <g id="patch_4">
    <path d="M 55.863125 256.68 
L 390.663125 256.68 
" style="fill:none;stroke:#cccccc;stroke-linecap:square;stroke-linejoin:miter;stroke-width:0.75;"/>
   </g>
   <g id="legend_1">
    <g id="patch_5">
     <path d="M 308.1125 101.671875 
L 384.663125 101.671875 
L 384.663125 13.2 
L 308.1125 13.2 
z
" style="fill:#ffffff;opacity:0.6;"/>
    </g>
    <g id="line2d_24">
     <path d="M 312.9125 22.389375 
L 336.9125 22.389375 
" style="fill:none;stroke:#7fc97f;stroke-linecap:square;stroke-width:1.5;"/>
    </g>
    <g id="line2d_25"/>
    <g id="text_20">
     <!-- L -->
     <g style="fill:#333333;" transform="translate(346.5125 26.589375)scale(0.12 -0.12)">
      <defs>
       <path d="M 469 0 
L 469 4581 
L 1075 4581 
L 1075 541 
L 3331 541 
L 3331 0 
L 469 0 
z
" id="ArialMT-4c" transform="scale(0.015625)"/>
      </defs>
      <use xlink:href="#ArialMT-4c"/>
     </g>
    </g>
    <g id="line2d_26">
     <path d="M 312.9125 39.36375 
L 336.9125 39.36375 
" style="fill:none;stroke:#beaed4;stroke-linecap:square;stroke-width:1.5;"/>
    </g>
    <g id="line2d_27"/>
    <g id="text_21">
     <!-- LSA -->
     <g style="fill:#333333;" transform="translate(346.5125 43.56375)scale(0.12 -0.12)">
      <defs>
       <path d="M -9 0 
L 1750 4581 
L 2403 4581 
L 4278 0 
L 3588 0 
L 3053 1388 
L 1138 1388 
L 634 0 
L -9 0 
z
M 1313 1881 
L 2866 1881 
L 2388 3150 
Q 2169 3728 2063 4100 
Q 1975 3659 1816 3225 
L 1313 1881 
z
" id="ArialMT-41" transform="scale(0.015625)"/>
      </defs>
      <use xlink:href="#ArialMT-4c"/>
      <use x="55.615234" xlink:href="#ArialMT-53"/>
      <use x="122.314453" xlink:href="#ArialMT-41"/>
     </g>
    </g>
    <g id="line2d_28">
     <path d="M 312.9125 56.338125 
L 336.9125 56.338125 
" style="fill:none;stroke:#386cb0;stroke-linecap:square;stroke-width:1.5;"/>
    </g>
    <g id="line2d_29"/>
    <g id="text_22">
     <!-- LSA-5 -->
     <g style="fill:#333333;" transform="translate(346.5125 60.538125)scale(0.12 -0.12)">
      <defs>
       <path d="M 203 1375 
L 203 1941 
L 1931 1941 
L 1931 1375 
L 203 1375 
z
" id="ArialMT-2d" transform="scale(0.015625)"/>
      </defs>
      <use xlink:href="#ArialMT-4c"/>
      <use x="55.615234" xlink:href="#ArialMT-53"/>
      <use x="122.314453" xlink:href="#ArialMT-41"/>
      <use x="189.013672" xlink:href="#ArialMT-2d"/>
      <use x="222.314453" xlink:href="#ArialMT-35"/>
     </g>
    </g>
    <g id="line2d_30">
     <path d="M 312.9125 73.3125 
L 336.9125 73.3125 
" style="fill:none;stroke:#bf5b17;stroke-linecap:square;stroke-width:1.5;"/>
    </g>
    <g id="line2d_31"/>
    <g id="text_23">
     <!-- MCM -->
     <g style="fill:#333333;" transform="translate(346.5125 77.5125)scale(0.12 -0.12)">
      <defs>
       <path d="M 475 0 
L 475 4581 
L 1388 4581 
L 2472 1338 
Q 2622 884 2691 659 
Q 2769 909 2934 1394 
L 4031 4581 
L 4847 4581 
L 4847 0 
L 4263 0 
L 4263 3834 
L 2931 0 
L 2384 0 
L 1059 3900 
L 1059 0 
L 475 0 
z
" id="ArialMT-4d" transform="scale(0.015625)"/>
       <path d="M 3763 1606 
L 4369 1453 
Q 4178 706 3683 314 
Q 3188 -78 2472 -78 
Q 1731 -78 1267 223 
Q 803 525 561 1097 
Q 319 1669 319 2325 
Q 319 3041 592 3573 
Q 866 4106 1370 4382 
Q 1875 4659 2481 4659 
Q 3169 4659 3637 4309 
Q 4106 3959 4291 3325 
L 3694 3184 
Q 3534 3684 3231 3912 
Q 2928 4141 2469 4141 
Q 1941 4141 1586 3887 
Q 1231 3634 1087 3207 
Q 944 2781 944 2328 
Q 944 1744 1114 1308 
Q 1284 872 1643 656 
Q 2003 441 2422 441 
Q 2931 441 3284 734 
Q 3638 1028 3763 1606 
z
" id="ArialMT-43" transform="scale(0.015625)"/>
      </defs>
      <use xlink:href="#ArialMT-4d"/>
      <use x="83.300781" xlink:href="#ArialMT-43"/>
      <use x="155.517578" xlink:href="#ArialMT-4d"/>
     </g>
    </g>
    <g id="line2d_32">
     <path d="M 312.9125 90.286875 
L 336.9125 90.286875 
" style="fill:none;stroke:#fdc086;stroke-linecap:square;stroke-width:1.5;"/>
    </g>
    <g id="line2d_33"/>
    <g id="text_24">
     <!-- Q -->
     <g style="fill:#333333;" transform="translate(346.5125 94.486875)scale(0.12 -0.12)">
      <defs>
       <path d="M 3966 491 
Q 4388 200 4744 66 
L 4566 -356 
Q 4072 -178 3581 206 
Q 3072 -78 2456 -78 
Q 1834 -78 1328 222 
Q 822 522 548 1065 
Q 275 1609 275 2291 
Q 275 2969 550 3525 
Q 825 4081 1333 4372 
Q 1841 4663 2469 4663 
Q 3103 4663 3612 4361 
Q 4122 4059 4389 3517 
Q 4656 2975 4656 2294 
Q 4656 1728 4484 1276 
Q 4313 825 3966 491 
z
M 2631 1266 
Q 3156 1119 3497 828 
Q 4031 1316 4031 2294 
Q 4031 2850 3842 3265 
Q 3653 3681 3289 3911 
Q 2925 4141 2472 4141 
Q 1794 4141 1347 3677 
Q 900 3213 900 2291 
Q 900 1397 1342 919 
Q 1784 441 2472 441 
Q 2797 441 3084 563 
Q 2800 747 2484 825 
L 2631 1266 
z
" id="ArialMT-51" transform="scale(0.015625)"/>
      </defs>
      <use xlink:href="#ArialMT-51"/>
     </g>
    </g>
   </g>
  </g>
 </g>
 <defs>
  <clipPath id="p8757515350">
   <rect height="249.48" width="334.8" x="55.863125" y="7.2"/>
  </clipPath>
 </defs>
</svg>
