<?xml version="1.0" encoding="utf-8" standalone="no"?>
<!DOCTYPE svg PUBLIC "-//W3C//DTD SVG 1.1//EN"
  "http://www.w3.org/Graphics/SVG/1.1/DTD/svg11.dtd">
<!-- Created with matplotlib (http://matplotlib.org/) -->
<svg height="302pt" version="1.1" viewBox="0 0 392 302" width="392pt" xmlns="http://www.w3.org/2000/svg" xmlns:xlink="http://www.w3.org/1999/xlink">
 <defs>
  <style type="text/css">
*{stroke-linecap:butt;stroke-linejoin:round;}
  </style>
 </defs>
 <g id="figure_1">
  <g id="patch_1">
   <path d="M 0 302.115625 
L 392.854375 302.115625 
L 392.854375 0 
L 0 0 
z
" style="fill:#ffffff;"/>
  </g>
  <g id="axes_1">
   <g id="patch_2">
    <path d="M 48.854375 258.68 
L 383.654375 258.68 
L 383.654375 9.2 
L 48.854375 9.2 
z
" style="fill:#ffffff;"/>
   </g>
   <g id="PolyCollection_1">
    <defs>
     <path d="M 48.854375 -133.246242 
L 48.854375 -128.587272 
L 52.378586 -116.677245 
L 55.902796 -110.444872 
L 59.427007 -106.389673 
L 62.951217 -101.842801 
L 66.475428 -98.296739 
L 69.999638 -97.173168 
L 73.523849 -93.704962 
L 77.048059 -94.203998 
L 80.57227 -91.305738 
L 84.09648 -89.719668 
L 87.620691 -87.521304 
L 91.144901 -88.142243 
L 94.669112 -86.26527 
L 98.193322 -86.132124 
L 101.717533 -85.611867 
L 105.241743 -85.651279 
L 108.765954 -84.149073 
L 112.290164 -83.109281 
L 115.814375 -82.852865 
L 119.338586 -82.218046 
L 122.862796 -82.775573 
L 126.387007 -82.209221 
L 129.911217 -80.844061 
L 133.435428 -81.147248 
L 136.959638 -81.120872 
L 140.483849 -80.425473 
L 144.008059 -79.117758 
L 147.53227 -79.827166 
L 151.05648 -80.552243 
L 154.580691 -79.654264 
L 158.104901 -80.284578 
L 161.629112 -79.328279 
L 165.153322 -78.95041 
L 168.677533 -78.487585 
L 172.201743 -78.950407 
L 175.725954 -78.082919 
L 179.250164 -77.839215 
L 182.774375 -77.710497 
L 186.298586 -77.412761 
L 189.822796 -77.340595 
L 193.347007 -76.962522 
L 196.871217 -77.90992 
L 200.395428 -77.617622 
L 203.919638 -76.890274 
L 207.443849 -77.020133 
L 210.968059 -77.288583 
L 214.49227 -76.52478 
L 218.01648 -76.194412 
L 221.540691 -77.180039 
L 225.064901 -76.390826 
L 228.589112 -76.463457 
L 232.113322 -75.871192 
L 235.637533 -76.355486 
L 239.161743 -76.239041 
L 242.685954 -76.434169 
L 246.210164 -75.723698 
L 249.734375 -75.035367 
L 253.258586 -76.296552 
L 256.782796 -75.431894 
L 260.307007 -75.446858 
L 263.831217 -75.26847 
L 267.355428 -75.713205 
L 270.879638 -75.897815 
L 274.403849 -74.922963 
L 277.928059 -75.459208 
L 281.45227 -75.208037 
L 284.97648 -75.631588 
L 288.500691 -74.779317 
L 292.024901 -75.195582 
L 295.549112 -74.764888 
L 299.073322 -74.973424 
L 302.597533 -75.117403 
L 306.121743 -74.352722 
L 309.645954 -74.225424 
L 313.170164 -75.210544 
L 316.694375 -75.249745 
L 320.218586 -74.909686 
L 323.742796 -74.693687 
L 327.267007 -75.034023 
L 330.791217 -74.564961 
L 334.315428 -74.738705 
L 337.839638 -74.191864 
L 341.363849 -74.39716 
L 344.888059 -74.471169 
L 348.41227 -74.108824 
L 351.93648 -74.599998 
L 355.460691 -74.880283 
L 358.984901 -74.745641 
L 362.509112 -74.181215 
L 366.033322 -74.767404 
L 369.557533 -74.16519 
L 373.081743 -74.444391 
L 376.605954 -74.199085 
L 380.130164 -74.688053 
L 383.654375 -73.689716 
L 383.654375 -74.876638 
L 383.654375 -74.876638 
L 380.130164 -75.887939 
L 376.605954 -75.407534 
L 373.081743 -75.657626 
L 369.557533 -75.378502 
L 366.033322 -75.994237 
L 362.509112 -75.413364 
L 358.984901 -75.9815 
L 355.460691 -76.114918 
L 351.93648 -75.835857 
L 348.41227 -75.363204 
L 344.888059 -75.732211 
L 341.363849 -75.652925 
L 337.839638 -75.46402 
L 334.315428 -76.042494 
L 330.791217 -75.842835 
L 327.267007 -76.33794 
L 323.742796 -75.987258 
L 320.218586 -76.215633 
L 316.694375 -76.579546 
L 313.170164 -76.524554 
L 309.645954 -75.575371 
L 306.121743 -75.709378 
L 302.597533 -76.465434 
L 299.073322 -76.33342 
L 295.549112 -76.121248 
L 292.024901 -76.5744 
L 288.500691 -76.173056 
L 284.97648 -77.035819 
L 281.45227 -76.620438 
L 277.928059 -76.86008 
L 274.403849 -76.353711 
L 270.879638 -77.330226 
L 267.355428 -77.165565 
L 263.831217 -76.719822 
L 260.307007 -76.909774 
L 256.782796 -76.897063 
L 253.258586 -77.776305 
L 249.734375 -76.535634 
L 246.210164 -77.231803 
L 242.685954 -77.959285 
L 239.161743 -77.774849 
L 235.637533 -77.901457 
L 232.113322 -77.458247 
L 228.589112 -78.036566 
L 225.064901 -77.984704 
L 221.540691 -78.79158 
L 218.01648 -77.814817 
L 214.49227 -78.157483 
L 210.968059 -78.92932 
L 207.443849 -78.686582 
L 203.919638 -78.559878 
L 200.395428 -79.317784 
L 196.871217 -79.637389 
L 193.347007 -78.689826 
L 189.822796 -79.083173 
L 186.298586 -79.162335 
L 182.774375 -79.499016 
L 179.250164 -79.659763 
L 175.725954 -79.890903 
L 172.201743 -80.816742 
L 168.677533 -80.372618 
L 165.153322 -80.83638 
L 161.629112 -81.231476 
L 158.104901 -82.221823 
L 154.580691 -81.603501 
L 151.05648 -82.532665 
L 147.53227 -81.832793 
L 144.008059 -81.180011 
L 140.483849 -82.49682 
L 136.959638 -83.206189 
L 133.435428 -83.27605 
L 129.911217 -83.027066 
L 126.387007 -84.404436 
L 122.862796 -85.017949 
L 119.338586 -84.512149 
L 115.814375 -85.173967 
L 112.290164 -85.470428 
L 108.765954 -86.586137 
L 105.241743 -88.13056 
L 101.717533 -88.138989 
L 98.193322 -88.733045 
L 94.669112 -88.901287 
L 91.144901 -90.894299 
L 87.620691 -90.348504 
L 84.09648 -92.565222 
L 80.57227 -94.264191 
L 77.048059 -97.275567 
L 73.523849 -96.841923 
L 69.999638 -100.46033 
L 66.475428 -101.735701 
L 62.951217 -105.389604 
L 59.427007 -110.144968 
L 55.902796 -114.393749 
L 52.378586 -120.892297 
L 48.854375 -133.246242 
z
" id="m49fdc7ccc3"/>
    </defs>
    <g clip-path="url(#pc9704a019d)">
     <use style="fill:#7fc97f;fill-opacity:0.1;" x="0" xlink:href="#m49fdc7ccc3" y="302.115625"/>
    </g>
   </g>
   <g id="PolyCollection_2">
    <defs>
     <path d="M 48.854375 -178.426945 
L 48.854375 -171.222628 
L 52.378586 -152.263519 
L 55.902796 -139.714295 
L 59.427007 -130.508101 
L 62.951217 -120.864041 
L 66.475428 -113.353156 
L 69.999638 -110.392765 
L 73.523849 -102.931777 
L 77.048059 -102.334668 
L 80.57227 -98.365745 
L 84.09648 -96.077259 
L 87.620691 -93.0504 
L 91.144901 -92.937711 
L 94.669112 -90.396015 
L 98.193322 -90.491313 
L 101.717533 -88.57442 
L 105.241743 -88.948212 
L 108.765954 -86.860917 
L 112.290164 -85.196098 
L 115.814375 -85.091657 
L 119.338586 -84.38724 
L 122.862796 -84.33026 
L 126.387007 -84.271556 
L 129.911217 -82.564953 
L 133.435428 -82.611625 
L 136.959638 -82.453152 
L 140.483849 -81.606336 
L 144.008059 -80.330139 
L 147.53227 -80.875156 
L 151.05648 -82.148067 
L 154.580691 -80.510745 
L 158.104901 -81.280692 
L 161.629112 -80.318049 
L 165.153322 -79.943216 
L 168.677533 -79.156016 
L 172.201743 -79.99996 
L 175.725954 -78.684679 
L 179.250164 -78.583818 
L 182.774375 -78.246956 
L 186.298586 -78.181601 
L 189.822796 -77.88022 
L 193.347007 -77.381995 
L 196.871217 -78.601442 
L 200.395428 -78.244991 
L 203.919638 -77.451046 
L 207.443849 -77.647464 
L 210.968059 -77.821615 
L 214.49227 -77.093845 
L 218.01648 -76.579537 
L 221.540691 -77.711576 
L 225.064901 -76.758024 
L 228.589112 -76.863933 
L 232.113322 -76.177399 
L 235.637533 -76.688125 
L 239.161743 -76.70612 
L 242.685954 -76.848669 
L 246.210164 -76.044828 
L 249.734375 -75.203688 
L 253.258586 -76.572097 
L 256.782796 -75.741693 
L 260.307007 -75.816248 
L 263.831217 -75.539082 
L 267.355428 -76.153625 
L 270.879638 -76.195821 
L 274.403849 -75.146767 
L 277.928059 -75.754991 
L 281.45227 -75.424315 
L 284.97648 -75.92064 
L 288.500691 -74.987103 
L 292.024901 -75.37101 
L 295.549112 -74.954156 
L 299.073322 -75.159376 
L 302.597533 -75.313521 
L 306.121743 -74.465943 
L 309.645954 -74.389167 
L 313.170164 -75.389311 
L 316.694375 -75.550378 
L 320.218586 -75.145411 
L 323.742796 -74.921027 
L 327.267007 -75.325753 
L 330.791217 -74.727181 
L 334.315428 -74.949623 
L 337.839638 -74.346762 
L 341.363849 -74.519488 
L 344.888059 -74.592568 
L 348.41227 -74.322174 
L 351.93648 -74.714484 
L 355.460691 -75.040465 
L 358.984901 -74.883308 
L 362.509112 -74.320636 
L 366.033322 -74.867617 
L 369.557533 -74.331718 
L 373.081743 -74.556523 
L 376.605954 -74.290758 
L 380.130164 -74.930858 
L 383.654375 -73.744276 
L 383.654375 -75.003668 
L 383.654375 -75.003668 
L 380.130164 -76.206373 
L 376.605954 -75.579601 
L 373.081743 -75.84524 
L 369.557533 -75.623513 
L 366.033322 -76.173487 
L 362.509112 -75.638884 
L 358.984901 -76.195043 
L 355.460691 -76.358258 
L 351.93648 -76.032596 
L 348.41227 -75.664459 
L 344.888059 -75.941043 
L 341.363849 -75.873626 
L 337.839638 -75.712438 
L 334.315428 -76.354287 
L 330.791217 -76.101147 
L 327.267007 -76.72681 
L 323.742796 -76.318647 
L 320.218586 -76.549836 
L 316.694375 -76.986614 
L 313.170164 -76.808771 
L 309.645954 -75.846024 
L 306.121743 -75.92651 
L 302.597533 -76.76442 
L 299.073322 -76.635638 
L 295.549112 -76.436856 
L 292.024901 -76.870003 
L 288.500691 -76.502844 
L 284.97648 -77.438835 
L 281.45227 -76.959187 
L 277.928059 -77.283946 
L 274.403849 -76.70974 
L 270.879638 -77.767414 
L 267.355428 -77.745931 
L 263.831217 -77.122781 
L 260.307007 -77.414848 
L 256.782796 -77.363406 
L 253.258586 -78.198188 
L 249.734375 -76.870863 
L 246.210164 -77.720673 
L 242.685954 -78.537752 
L 239.161743 -78.421515 
L 235.637533 -78.404185 
L 232.113322 -77.948485 
L 228.589112 -78.616178 
L 225.064901 -78.54116 
L 221.540691 -79.504674 
L 218.01648 -78.411226 
L 214.49227 -78.947921 
L 210.968059 -79.683954 
L 207.443849 -79.521926 
L 203.919638 -79.341831 
L 200.395428 -80.191894 
L 196.871217 -80.550179 
L 193.347007 -79.37145 
L 189.822796 -79.861207 
L 186.298586 -80.209142 
L 182.774375 -80.309487 
L 179.250164 -80.691882 
L 175.725954 -80.797473 
L 172.201743 -82.152884 
L 168.677533 -81.368745 
L 165.153322 -82.170927 
L 161.629112 -82.579939 
L 158.104901 -83.602682 
L 154.580691 -82.815359 
L 151.05648 -84.537977 
L 147.53227 -83.288658 
L 144.008059 -82.877455 
L 140.483849 -84.121537 
L 136.959638 -85.057229 
L 133.435428 -85.28747 
L 129.911217 -85.27326 
L 126.387007 -87.042859 
L 122.862796 -87.231684 
L 119.338586 -87.385187 
L 115.814375 -88.138395 
L 112.290164 -88.290994 
L 108.765954 -90.044152 
L 105.241743 -92.343275 
L 101.717533 -92.166892 
L 98.193322 -94.179038 
L 94.669112 -94.135329 
L 91.144901 -96.959908 
L 87.620691 -97.200807 
L 84.09648 -100.307009 
L 80.57227 -102.933862 
L 77.048059 -107.312553 
L 73.523849 -108.23117 
L 69.999638 -116.098468 
L 66.475428 -119.333763 
L 62.951217 -127.080387 
L 59.427007 -137.030607 
L 55.902796 -146.626 
L 52.378586 -159.292941 
L 48.854375 -178.426945 
z
" id="mc161338f36"/>
    </defs>
    <g clip-path="url(#pc9704a019d)">
     <use style="fill:#beaed4;fill-opacity:0.1;" x="0" xlink:href="#mc161338f36" y="302.115625"/>
    </g>
   </g>
   <g id="PolyCollection_3">
    <defs>
     <path d="M 48.854375 -245.98036 
L 48.854375 -235.203809 
L 52.378586 -207.816062 
L 55.902796 -194.34866 
L 59.427007 -186.713982 
L 62.951217 -176.581037 
L 66.475428 -166.9111 
L 69.999638 -167.251884 
L 73.523849 -156.064528 
L 77.048059 -160.993477 
L 80.57227 -152.773385 
L 84.09648 -148.471537 
L 87.620691 -141.502099 
L 91.144901 -144.663707 
L 94.669112 -138.66242 
L 98.193322 -138.925889 
L 101.717533 -137.97158 
L 105.241743 -140.541054 
L 108.765954 -134.225603 
L 112.290164 -129.674321 
L 115.814375 -129.463034 
L 119.338586 -127.444537 
L 122.862796 -130.714422 
L 126.387007 -129.454267 
L 129.911217 -122.443818 
L 133.435428 -124.973399 
L 136.959638 -125.609784 
L 140.483849 -122.093489 
L 144.008059 -115.321307 
L 147.53227 -120.398434 
L 151.05648 -125.856974 
L 154.580691 -120.359237 
L 158.104901 -125.171124 
L 161.629112 -119.790468 
L 165.153322 -118.042312 
L 168.677533 -115.462841 
L 172.201743 -119.466052 
L 175.725954 -113.87869 
L 179.250164 -112.675529 
L 182.774375 -112.259023 
L 186.298586 -111.148757 
L 189.822796 -110.511954 
L 193.347007 -108.23748 
L 196.871217 -115.486233 
L 200.395428 -113.667637 
L 203.919638 -109.015147 
L 207.443849 -110.585342 
L 210.968059 -112.613411 
L 214.49227 -107.536635 
L 218.01648 -105.396728 
L 221.540691 -112.907082 
L 225.064901 -107.228326 
L 228.589112 -108.295227 
L 232.113322 -103.720017 
L 235.637533 -107.963838 
L 239.161743 -107.39698 
L 242.685954 -109.328788 
L 246.210164 -103.986177 
L 249.734375 -98.318909 
L 253.258586 -108.897287 
L 256.782796 -102.03414 
L 260.307007 -102.28277 
L 263.831217 -101.371333 
L 267.355428 -105.461264 
L 270.879638 -106.991175 
L 274.403849 -98.987957 
L 277.928059 -103.702052 
L 281.45227 -101.711973 
L 284.97648 -105.711948 
L 288.500691 -98.345056 
L 292.024901 -102.237821 
L 295.549112 -98.474927 
L 299.073322 -100.767602 
L 302.597533 -102.223191 
L 306.121743 -95.395929 
L 309.645954 -94.374371 
L 313.170164 -103.50056 
L 316.694375 -104.191748 
L 320.218586 -100.956778 
L 323.742796 -99.347136 
L 327.267007 -102.656977 
L 330.791217 -98.428057 
L 334.315428 -100.41034 
L 337.839638 -95.286689 
L 341.363849 -97.352174 
L 344.888059 -98.068722 
L 348.41227 -94.852014 
L 351.93648 -99.598526 
L 355.460691 -102.444651 
L 358.984901 -101.321169 
L 362.509112 -96.068884 
L 366.033322 -101.788518 
L 369.557533 -95.973144 
L 373.081743 -98.85018 
L 376.605954 -96.651948 
L 380.130164 -101.724901 
L 383.654375 -91.650624 
L 383.654375 -103.688542 
L 383.654375 -103.688542 
L 380.130164 -113.834529 
L 376.605954 -108.787546 
L 373.081743 -110.974874 
L 369.557533 -108.033618 
L 366.033322 -113.923146 
L 362.509112 -108.191923 
L 358.984901 -113.419169 
L 355.460691 -114.47095 
L 351.93648 -111.570316 
L 348.41227 -106.933614 
L 344.888059 -110.156152 
L 341.363849 -109.317303 
L 337.839638 -107.348358 
L 334.315428 -112.696486 
L 330.791217 -110.399151 
L 327.267007 -114.80905 
L 323.742796 -111.332057 
L 320.218586 -112.97659 
L 316.694375 -116.375635 
L 313.170164 -115.474679 
L 309.645954 -106.592017 
L 306.121743 -107.594739 
L 302.597533 -114.267268 
L 299.073322 -112.850859 
L 295.549112 -110.447209 
L 292.024901 -114.318771 
L 288.500691 -110.486287 
L 284.97648 -117.848521 
L 281.45227 -113.841579 
L 277.928059 -115.665732 
L 274.403849 -111.112791 
L 270.879638 -119.047439 
L 267.355428 -117.605499 
L 263.831217 -113.403387 
L 260.307007 -114.32313 
L 256.782796 -114.006183 
L 253.258586 -120.896208 
L 249.734375 -110.400123 
L 246.210164 -116.032555 
L 242.685954 -121.399552 
L 239.161743 -119.484755 
L 235.637533 -120.01273 
L 232.113322 -116.004515 
L 228.589112 -120.359356 
L 225.064901 -119.364386 
L 221.540691 -125.051722 
L 218.01648 -117.507766 
L 214.49227 -119.634751 
L 210.968059 -124.674058 
L 207.443849 -122.689905 
L 203.919638 -121.038015 
L 200.395428 -125.786381 
L 196.871217 -127.656526 
L 193.347007 -120.298538 
L 189.822796 -122.549896 
L 186.298586 -123.110211 
L 182.774375 -124.350896 
L 179.250164 -124.858632 
L 175.725954 -125.849278 
L 172.201743 -131.658535 
L 168.677533 -127.636438 
L 165.153322 -130.084816 
L 161.629112 -131.796537 
L 158.104901 -137.239033 
L 154.580691 -132.329592 
L 151.05648 -137.842793 
L 147.53227 -132.379604 
L 144.008059 -127.498437 
L 140.483849 -134.122358 
L 136.959638 -137.543685 
L 133.435428 -136.95438 
L 129.911217 -134.510815 
L 126.387007 -141.415263 
L 122.862796 -142.725536 
L 119.338586 -139.494461 
L 115.814375 -141.451092 
L 112.290164 -141.585786 
L 108.765954 -146.262199 
L 105.241743 -152.563229 
L 101.717533 -149.974127 
L 98.193322 -150.969641 
L 94.669112 -150.586942 
L 91.144901 -156.763969 
L 87.620691 -153.587696 
L 84.09648 -160.297699 
L 80.57227 -164.674865 
L 77.048059 -172.915089 
L 73.523849 -167.856117 
L 69.999638 -179.062353 
L 66.475428 -178.672401 
L 62.951217 -188.075895 
L 59.427007 -198.137747 
L 55.902796 -205.566964 
L 52.378586 -218.743902 
L 48.854375 -245.98036 
z
" id="m8075979d4c"/>
    </defs>
    <g clip-path="url(#pc9704a019d)">
     <use style="fill:#386cb0;fill-opacity:0.1;" x="0" xlink:href="#m8075979d4c" y="302.115625"/>
    </g>
   </g>
   <g id="PolyCollection_4">
    <defs>
     <path d="M 48.854375 -264.147805 
L 48.854375 -259.988341 
L 52.378586 -252.993826 
L 55.902796 -249.131825 
L 59.427007 -246.926105 
L 62.951217 -243.936673 
L 66.475428 -242.048138 
L 69.999638 -241.80759 
L 73.523849 -238.56899 
L 77.048059 -238.529027 
L 80.57227 -237.275457 
L 84.09648 -236.056687 
L 87.620691 -234.600312 
L 91.144901 -235.585759 
L 94.669112 -233.78344 
L 98.193322 -234.30334 
L 101.717533 -234.18206 
L 105.241743 -233.582156 
L 108.765954 -232.879199 
L 112.290164 -232.124311 
L 115.814375 -232.198949 
L 119.338586 -232.255359 
L 122.862796 -231.846722 
L 126.387007 -231.701891 
L 129.911217 -230.618744 
L 133.435428 -230.961555 
L 136.959638 -230.757363 
L 140.483849 -230.366966 
L 144.008059 -230.110943 
L 147.53227 -230.248751 
L 151.05648 -230.947624 
L 154.580691 -230.280403 
L 158.104901 -230.366108 
L 161.629112 -229.757328 
L 165.153322 -229.60765 
L 168.677533 -229.365081 
L 172.201743 -229.991183 
L 175.725954 -229.240975 
L 179.250164 -228.974091 
L 182.774375 -229.078977 
L 186.298586 -228.997325 
L 189.822796 -228.790934 
L 193.347007 -228.641953 
L 196.871217 -229.096006 
L 200.395428 -228.888786 
L 203.919638 -228.632954 
L 207.443849 -228.688547 
L 210.968059 -228.957921 
L 214.49227 -228.568476 
L 218.01648 -228.280841 
L 221.540691 -228.626591 
L 225.064901 -228.324867 
L 228.589112 -228.514192 
L 232.113322 -227.969908 
L 235.637533 -228.277872 
L 239.161743 -228.437908 
L 242.685954 -228.595938 
L 246.210164 -228.082025 
L 249.734375 -227.698788 
L 253.258586 -228.253493 
L 256.782796 -227.732243 
L 260.307007 -227.912724 
L 263.831217 -228.013537 
L 267.355428 -227.984268 
L 270.879638 -227.990332 
L 274.403849 -227.456456 
L 277.928059 -227.819457 
L 281.45227 -227.71693 
L 284.97648 -228.104485 
L 288.500691 -227.460258 
L 292.024901 -227.836281 
L 295.549112 -227.698007 
L 299.073322 -227.714677 
L 302.597533 -227.643066 
L 306.121743 -227.523861 
L 309.645954 -227.240905 
L 313.170164 -227.713137 
L 316.694375 -227.675171 
L 320.218586 -227.441491 
L 323.742796 -227.654557 
L 327.267007 -227.57224 
L 330.791217 -227.376644 
L 334.315428 -227.519149 
L 337.839638 -227.294278 
L 341.363849 -227.489082 
L 344.888059 -227.275897 
L 348.41227 -227.064894 
L 351.93648 -227.32066 
L 355.460691 -227.508789 
L 358.984901 -227.49442 
L 362.509112 -227.150642 
L 366.033322 -227.381768 
L 369.557533 -227.289353 
L 373.081743 -227.238239 
L 376.605954 -227.209054 
L 380.130164 -227.577919 
L 383.654375 -226.99931 
L 383.654375 -227.864207 
L 383.654375 -227.864207 
L 380.130164 -228.456978 
L 376.605954 -228.086322 
L 373.081743 -228.116643 
L 369.557533 -228.175264 
L 366.033322 -228.270194 
L 362.509112 -228.046631 
L 358.984901 -228.391271 
L 355.460691 -228.40771 
L 351.93648 -228.223529 
L 348.41227 -227.970367 
L 344.888059 -228.188407 
L 341.363849 -228.410365 
L 337.839638 -228.222171 
L 334.315428 -228.466097 
L 330.791217 -228.314031 
L 327.267007 -228.527875 
L 323.742796 -228.611263 
L 320.218586 -228.396905 
L 316.694375 -228.639018 
L 313.170164 -228.689526 
L 309.645954 -228.222495 
L 306.121743 -228.50646 
L 302.597533 -228.633585 
L 299.073322 -228.710346 
L 295.549112 -228.70393 
L 292.024901 -228.844767 
L 288.500691 -228.484621 
L 284.97648 -229.131376 
L 281.45227 -228.750622 
L 277.928059 -228.849908 
L 274.403849 -228.505902 
L 270.879638 -229.049522 
L 267.355428 -229.045159 
L 263.831217 -229.079668 
L 260.307007 -228.997059 
L 256.782796 -228.825848 
L 253.258586 -229.349726 
L 249.734375 -228.813743 
L 246.210164 -229.203082 
L 242.685954 -229.720295 
L 239.161743 -229.566491 
L 235.637533 -229.419364 
L 232.113322 -229.126823 
L 228.589112 -229.679146 
L 225.064901 -229.513693 
L 221.540691 -229.820567 
L 218.01648 -229.481539 
L 214.49227 -229.800627 
L 210.968059 -230.200464 
L 207.443849 -229.926496 
L 203.919638 -229.893409 
L 200.395428 -230.145069 
L 196.871217 -230.370867 
L 193.347007 -229.935676 
L 189.822796 -230.093768 
L 186.298586 -230.326188 
L 182.774375 -230.422606 
L 179.250164 -230.345603 
L 175.725954 -230.620999 
L 172.201743 -231.392227 
L 168.677533 -230.779968 
L 165.153322 -231.032799 
L 161.629112 -231.219605 
L 158.104901 -231.842704 
L 154.580691 -231.772347 
L 151.05648 -232.478502 
L 147.53227 -231.789555 
L 144.008059 -231.705118 
L 140.483849 -231.955731 
L 136.959638 -232.380711 
L 133.435428 -232.621832 
L 129.911217 -232.313863 
L 126.387007 -233.435619 
L 122.862796 -233.600882 
L 119.338586 -234.058502 
L 115.814375 -234.047893 
L 112.290164 -233.983175 
L 108.765954 -234.790977 
L 105.241743 -235.562947 
L 101.717533 -236.226644 
L 98.193322 -236.420428 
L 94.669112 -235.929849 
L 91.144901 -237.828544 
L 87.620691 -236.911369 
L 84.09648 -238.446151 
L 80.57227 -239.762609 
L 77.048059 -241.109331 
L 73.523849 -241.285823 
L 69.999638 -244.683606 
L 66.475428 -245.05836 
L 62.951217 -247.092644 
L 59.427007 -250.290948 
L 55.902796 -252.742216 
L 52.378586 -256.832465 
L 48.854375 -264.147805 
z
" id="m27571fa977"/>
    </defs>
    <g clip-path="url(#pc9704a019d)">
     <use style="fill:#bf5b17;fill-opacity:0.1;" x="0" xlink:href="#m27571fa977" y="302.115625"/>
    </g>
   </g>
   <g id="PolyCollection_5">
    <defs>
     <path d="M 48.854375 -158.84905 
L 48.854375 -153.460774 
L 52.378586 -132.58276 
L 55.902796 -121.781603 
L 59.427007 -115.182234 
L 62.951217 -108.792514 
L 66.475428 -103.44886 
L 69.999638 -101.928288 
L 73.523849 -97.149253 
L 77.048059 -97.489425 
L 80.57227 -94.198531 
L 84.09648 -92.231055 
L 87.620691 -89.735984 
L 91.144901 -89.954231 
L 94.669112 -87.954209 
L 98.193322 -87.558852 
L 101.717533 -86.917413 
L 105.241743 -87.1071 
L 108.765954 -85.358074 
L 112.290164 -84.074124 
L 115.814375 -83.758466 
L 119.338586 -83.092924 
L 122.862796 -83.517076 
L 126.387007 -83.040804 
L 129.911217 -81.479978 
L 133.435428 -81.782113 
L 136.959638 -81.725241 
L 140.483849 -80.915051 
L 144.008059 -79.549171 
L 147.53227 -80.323352 
L 151.05648 -81.142171 
L 154.580691 -80.059688 
L 158.104901 -80.753011 
L 161.629112 -79.729861 
L 165.153322 -79.333452 
L 168.677533 -78.814132 
L 172.201743 -79.363589 
L 175.725954 -78.383971 
L 179.250164 -78.114272 
L 182.774375 -77.973395 
L 186.298586 -77.730913 
L 189.822796 -77.566187 
L 193.347007 -77.161781 
L 196.871217 -78.171052 
L 200.395428 -77.836761 
L 203.919638 -77.101157 
L 207.443849 -77.270254 
L 210.968059 -77.501261 
L 214.49227 -76.733388 
L 218.01648 -76.388175 
L 221.540691 -77.375531 
L 225.064901 -76.550118 
L 228.589112 -76.649847 
L 232.113322 -75.994224 
L 235.637533 -76.518653 
L 239.161743 -76.402653 
L 242.685954 -76.614281 
L 246.210164 -75.883577 
L 249.734375 -75.12367 
L 253.258586 -76.439547 
L 256.782796 -75.537247 
L 260.307007 -75.538368 
L 263.831217 -75.395815 
L 267.355428 -75.87128 
L 270.879638 -76.027076 
L 274.403849 -75.024739 
L 277.928059 -75.568198 
L 281.45227 -75.302736 
L 284.97648 -75.75211 
L 288.500691 -74.855799 
L 292.024901 -75.289845 
L 295.549112 -74.828199 
L 299.073322 -75.072129 
L 302.597533 -75.216955 
L 306.121743 -74.41612 
L 309.645954 -74.283098 
L 313.170164 -75.293586 
L 316.694375 -75.348444 
L 320.218586 -74.966522 
L 323.742796 -74.768896 
L 327.267007 -75.113762 
L 330.791217 -74.632074 
L 334.315428 -74.829889 
L 337.839638 -74.259245 
L 341.363849 -74.466039 
L 344.888059 -74.526764 
L 348.41227 -74.169968 
L 351.93648 -74.656632 
L 355.460691 -74.938795 
L 358.984901 -74.80411 
L 362.509112 -74.242836 
L 366.033322 -74.819303 
L 369.557533 -74.206291 
L 373.081743 -74.486933 
L 376.605954 -74.249425 
L 380.130164 -74.748921 
L 383.654375 -73.72107 
L 383.654375 -74.930926 
L 383.654375 -74.930926 
L 380.130164 -75.972178 
L 376.605954 -75.481608 
L 373.081743 -75.724404 
L 369.557533 -75.44367 
L 366.033322 -76.070895 
L 362.509112 -75.499936 
L 358.984901 -76.065414 
L 355.460691 -76.199494 
L 351.93648 -75.91857 
L 348.41227 -75.450615 
L 344.888059 -75.815288 
L 341.363849 -75.748836 
L 337.839638 -75.559888 
L 334.315428 -76.162509 
L 330.791217 -75.938228 
L 327.267007 -76.447625 
L 323.742796 -76.092409 
L 320.218586 -76.302056 
L 316.694375 -76.710644 
L 313.170164 -76.64078 
L 309.645954 -75.666474 
L 306.121743 -75.806303 
L 302.597533 -76.598505 
L 299.073322 -76.467383 
L 295.549112 -76.219949 
L 292.024901 -76.703813 
L 288.500691 -76.286657 
L 284.97648 -77.192456 
L 281.45227 -76.752501 
L 277.928059 -77.008456 
L 274.403849 -76.495091 
L 270.879638 -77.499983 
L 267.355428 -77.366132 
L 263.831217 -76.888208 
L 260.307007 -77.043413 
L 256.782796 -77.045583 
L 253.258586 -77.963411 
L 249.734375 -76.670511 
L 246.210164 -77.438758 
L 242.685954 -78.185761 
L 239.161743 -77.989856 
L 235.637533 -78.114567 
L 232.113322 -77.635809 
L 228.589112 -78.276574 
L 225.064901 -78.201627 
L 221.540691 -79.043725 
L 218.01648 -78.067674 
L 214.49227 -78.427463 
L 210.968059 -79.206894 
L 207.443849 -78.999477 
L 203.919638 -78.836508 
L 200.395428 -79.604461 
L 196.871217 -79.965464 
L 193.347007 -78.959737 
L 189.822796 -79.380975 
L 186.298586 -79.555018 
L 182.774375 -79.839212 
L 179.250164 -80.016953 
L 175.725954 -80.276687 
L 172.201743 -81.315948 
L 168.677533 -80.78895 
L 165.153322 -81.313228 
L 161.629112 -81.730872 
L 158.104901 -82.792859 
L 154.580691 -82.112586 
L 151.05648 -83.228634 
L 147.53227 -82.441343 
L 144.008059 -81.736249 
L 140.483849 -83.111212 
L 136.959638 -83.941311 
L 133.435428 -84.046306 
L 129.911217 -83.802273 
L 126.387007 -85.386548 
L 122.862796 -85.919299 
L 119.338586 -85.552605 
L 115.814375 -86.258149 
L 112.290164 -86.613657 
L 108.765954 -87.984674 
L 105.241743 -89.79534 
L 101.717533 -89.670986 
L 98.193322 -90.397592 
L 94.669112 -90.846331 
L 91.144901 -92.979297 
L 87.620691 -92.856471 
L 84.09648 -95.39173 
L 80.57227 -97.499407 
L 77.048059 -100.930898 
L 73.523849 -100.704551 
L 69.999638 -105.663087 
L 66.475428 -107.369293 
L 62.951217 -112.85656 
L 59.427007 -119.500011 
L 55.902796 -126.361457 
L 52.378586 -137.469838 
L 48.854375 -158.84905 
z
" id="m2cd6e6496e"/>
    </defs>
    <g clip-path="url(#pc9704a019d)">
     <use style="fill:#fdc086;fill-opacity:0.1;" x="0" xlink:href="#m2cd6e6496e" y="302.115625"/>
    </g>
   </g>
   <g id="PolyCollection_6">
    <defs>
     <path d="M 48.854375 -243.695373 
L 48.854375 -234.641242 
L 52.378586 -212.275474 
L 55.902796 -194.081114 
L 59.427007 -177.898943 
L 62.951217 -163.705345 
L 66.475428 -149.686774 
L 69.999638 -144.624873 
L 73.523849 -132.621544 
L 77.048059 -130.864257 
L 80.57227 -123.003451 
L 84.09648 -118.117396 
L 87.620691 -112.702713 
L 91.144901 -111.583827 
L 94.669112 -107.42877 
L 98.193322 -105.878971 
L 101.717533 -104.152352 
L 105.241743 -104.553774 
L 108.765954 -100.467249 
L 112.290164 -97.671784 
L 115.814375 -97.124946 
L 119.338586 -95.554302 
L 122.862796 -96.18543 
L 126.387007 -95.191484 
L 129.911217 -92.087739 
L 133.435428 -92.479092 
L 136.959638 -92.279529 
L 140.483849 -90.487315 
L 144.008059 -88.008922 
L 147.53227 -89.463534 
L 151.05648 -90.962257 
L 154.580691 -88.771403 
L 158.104901 -90.073696 
L 161.629112 -88.023262 
L 165.153322 -87.227663 
L 168.677533 -86.104219 
L 172.201743 -87.252361 
L 175.725954 -85.334909 
L 179.250164 -84.797749 
L 182.774375 -84.444995 
L 186.298586 -84.109332 
L 189.822796 -83.525731 
L 193.347007 -82.747197 
L 196.871217 -84.677773 
L 200.395428 -84.03731 
L 203.919638 -82.711454 
L 207.443849 -83.076084 
L 210.968059 -83.399297 
L 214.49227 -81.942015 
L 218.01648 -81.269685 
L 221.540691 -83.106497 
L 225.064901 -81.504895 
L 228.589112 -81.699544 
L 232.113322 -80.380453 
L 235.637533 -81.458283 
L 239.161743 -81.202627 
L 242.685954 -81.599587 
L 246.210164 -80.205233 
L 249.734375 -78.666829 
L 253.258586 -81.206217 
L 256.782796 -79.455201 
L 260.307007 -79.454731 
L 263.831217 -79.205313 
L 267.355428 -80.109759 
L 270.879638 -80.369454 
L 274.403849 -78.429445 
L 277.928059 -79.522892 
L 281.45227 -78.951631 
L 284.97648 -79.841694 
L 288.500691 -78.055072 
L 292.024901 -78.885379 
L 295.549112 -78.006289 
L 299.073322 -78.526855 
L 302.597533 -78.788189 
L 306.121743 -77.169739 
L 309.645954 -76.918395 
L 313.170164 -78.940943 
L 316.694375 -79.032469 
L 320.218586 -78.236921 
L 323.742796 -77.867731 
L 327.267007 -78.573743 
L 330.791217 -77.594191 
L 334.315428 -77.97284 
L 337.839638 -76.872079 
L 341.363849 -77.286281 
L 344.888059 -77.384435 
L 348.41227 -76.686648 
L 351.93648 -77.637224 
L 355.460691 -78.178665 
L 358.984901 -77.887172 
L 362.509112 -76.81002 
L 366.033322 -77.908692 
L 369.557533 -76.722202 
L 373.081743 -77.27301 
L 376.605954 -76.819586 
L 380.130164 -77.813799 
L 383.654375 -75.77145 
L 383.654375 -78.147567 
L 383.654375 -78.147567 
L 380.130164 -80.215629 
L 376.605954 -79.23837 
L 373.081743 -79.700153 
L 369.557533 -79.151616 
L 366.033322 -80.361742 
L 362.509112 -79.275481 
L 358.984901 -80.357826 
L 355.460691 -80.651121 
L 351.93648 -80.114241 
L 348.41227 -79.195115 
L 344.888059 -79.910437 
L 341.363849 -79.801772 
L 337.839638 -79.420488 
L 334.315428 -80.57866 
L 330.791217 -80.154545 
L 327.267007 -81.183995 
L 323.742796 -80.457468 
L 320.218586 -80.849411 
L 316.694375 -81.69429 
L 313.170164 -81.580328 
L 309.645954 -79.622026 
L 306.121743 -79.882602 
L 302.597533 -81.488272 
L 299.073322 -81.25391 
L 295.549112 -80.728419 
L 292.024901 -81.643952 
L 288.500691 -80.846811 
L 284.97648 -82.648994 
L 281.45227 -81.778854 
L 277.928059 -82.337063 
L 274.403849 -81.295704 
L 270.879638 -83.244346 
L 267.355428 -83.024101 
L 263.831217 -82.112377 
L 260.307007 -82.385898 
L 256.782796 -82.392014 
L 253.258586 -84.172573 
L 249.734375 -81.679162 
L 246.210164 -83.233214 
L 242.685954 -84.652394 
L 239.161743 -84.284421 
L 235.637533 -84.558547 
L 232.113322 -83.568796 
L 228.589112 -84.855206 
L 225.064901 -84.71047 
L 221.540691 -86.341928 
L 218.01648 -84.523314 
L 214.49227 -85.224787 
L 210.968059 -86.712602 
L 207.443849 -86.428441 
L 203.919638 -86.07088 
L 200.395428 -87.454931 
L 196.871217 -88.144477 
L 193.347007 -86.219631 
L 189.822796 -87.024504 
L 186.298586 -87.635369 
L 182.774375 -88.040234 
L 179.250164 -88.459111 
L 175.725954 -88.990895 
L 172.201743 -91.007609 
L 168.677533 -89.887204 
L 165.153322 -91.025996 
L 161.629112 -91.867367 
L 158.104901 -93.988046 
L 154.580691 -92.718047 
L 151.05648 -94.970128 
L 147.53227 -93.524739 
L 144.008059 -92.197222 
L 140.483849 -94.688502 
L 136.959638 -96.517916 
L 133.435428 -96.800136 
L 129.911217 -96.519223 
L 126.387007 -99.670355 
L 122.862796 -100.766046 
L 119.338586 -100.247357 
L 115.814375 -101.89835 
L 112.290164 -102.496808 
L 108.765954 -105.467955 
L 105.241743 -109.685486 
L 101.717533 -109.412765 
L 98.193322 -111.295571 
L 94.669112 -112.947791 
L 91.144901 -117.344755 
L 87.620691 -118.679042 
L 84.09648 -124.199527 
L 80.57227 -129.326269 
L 77.048059 -137.434913 
L 73.523849 -139.465395 
L 69.999638 -151.771568 
L 66.475428 -157.150041 
L 62.951217 -171.408918 
L 59.427007 -185.910267 
L 55.902796 -202.370338 
L 52.378586 -220.840014 
L 48.854375 -243.695373 
z
" id="m9e96a2fd4c"/>
    </defs>
    <g clip-path="url(#pc9704a019d)">
     <use style="fill:#f0027f;fill-opacity:0.1;" x="0" xlink:href="#m9e96a2fd4c" y="302.115625"/>
    </g>
   </g>
   <g id="matplotlib.axis_1">
    <g id="xtick_1">
     <g id="line2d_1"/>
     <g id="text_1">
      <!-- 5 -->
      <defs>
       <path d="M 4.15625 18.75 
L 13.375 19.53125 
Q 14.40625 12.796875 18.140625 9.390625 
Q 21.875 6 27.15625 6 
Q 33.5 6 37.890625 10.78125 
Q 42.28125 15.578125 42.28125 23.484375 
Q 42.28125 31 38.0625 35.34375 
Q 33.84375 39.703125 27 39.703125 
Q 22.75 39.703125 19.328125 37.765625 
Q 15.921875 35.84375 13.96875 32.765625 
L 5.71875 33.84375 
L 12.640625 70.609375 
L 48.25 70.609375 
L 48.25 62.203125 
L 19.671875 62.203125 
L 15.828125 42.96875 
Q 22.265625 47.46875 29.34375 47.46875 
Q 38.71875 47.46875 45.15625 40.96875 
Q 51.609375 34.46875 51.609375 24.265625 
Q 51.609375 14.546875 45.953125 7.46875 
Q 39.0625 -1.21875 27.15625 -1.21875 
Q 17.390625 -1.21875 11.203125 4.25 
Q 5.03125 9.71875 4.15625 18.75 
z
" id="ArialMT-35"/>
      </defs>
      <g style="fill:#666666;" transform="translate(45.517813 277.269375)scale(0.12 -0.12)">
       <use xlink:href="#ArialMT-35"/>
      </g>
     </g>
    </g>
    <g id="xtick_2">
     <g id="line2d_2"/>
     <g id="text_2">
      <!-- 15 -->
      <defs>
       <path d="M 37.25 0 
L 28.46875 0 
L 28.46875 56 
Q 25.296875 52.984375 20.140625 49.953125 
Q 14.984375 46.921875 10.890625 45.40625 
L 10.890625 53.90625 
Q 18.265625 57.375 23.78125 62.296875 
Q 29.296875 67.234375 31.59375 71.875 
L 37.25 71.875 
z
" id="ArialMT-31"/>
      </defs>
      <g style="fill:#666666;" transform="translate(77.423355 277.269375)scale(0.12 -0.12)">
       <use xlink:href="#ArialMT-31"/>
       <use x="55.615234" xlink:href="#ArialMT-35"/>
      </g>
     </g>
    </g>
    <g id="xtick_3">
     <g id="line2d_3"/>
     <g id="text_3">
      <!-- 25 -->
      <defs>
       <path d="M 50.34375 8.453125 
L 50.34375 0 
L 3.03125 0 
Q 2.9375 3.171875 4.046875 6.109375 
Q 5.859375 10.9375 9.828125 15.625 
Q 13.8125 20.3125 21.34375 26.46875 
Q 33.015625 36.03125 37.109375 41.625 
Q 41.21875 47.21875 41.21875 52.203125 
Q 41.21875 57.421875 37.46875 61 
Q 33.734375 64.59375 27.734375 64.59375 
Q 21.390625 64.59375 17.578125 60.78125 
Q 13.765625 56.984375 13.71875 50.25 
L 4.6875 51.171875 
Q 5.609375 61.28125 11.65625 66.578125 
Q 17.71875 71.875 27.9375 71.875 
Q 38.234375 71.875 44.234375 66.15625 
Q 50.25 60.453125 50.25 52 
Q 50.25 47.703125 48.484375 43.546875 
Q 46.734375 39.40625 42.65625 34.8125 
Q 38.578125 30.21875 29.109375 22.21875 
Q 21.1875 15.578125 18.9375 13.203125 
Q 16.703125 10.84375 15.234375 8.453125 
z
" id="ArialMT-32"/>
      </defs>
      <g style="fill:#666666;" transform="translate(112.665461 277.269375)scale(0.12 -0.12)">
       <use xlink:href="#ArialMT-32"/>
       <use x="55.615234" xlink:href="#ArialMT-35"/>
      </g>
     </g>
    </g>
    <g id="xtick_4">
     <g id="line2d_4"/>
     <g id="text_4">
      <!-- 35 -->
      <defs>
       <path d="M 4.203125 18.890625 
L 12.984375 20.0625 
Q 14.5 12.59375 18.140625 9.296875 
Q 21.78125 6 27 6 
Q 33.203125 6 37.46875 10.296875 
Q 41.75 14.59375 41.75 20.953125 
Q 41.75 27 37.796875 30.921875 
Q 33.84375 34.859375 27.734375 34.859375 
Q 25.25 34.859375 21.53125 33.890625 
L 22.515625 41.609375 
Q 23.390625 41.5 23.921875 41.5 
Q 29.546875 41.5 34.03125 44.421875 
Q 38.53125 47.359375 38.53125 53.46875 
Q 38.53125 58.296875 35.25 61.46875 
Q 31.984375 64.65625 26.8125 64.65625 
Q 21.6875 64.65625 18.265625 61.421875 
Q 14.84375 58.203125 13.875 51.765625 
L 5.078125 53.328125 
Q 6.6875 62.15625 12.390625 67.015625 
Q 18.109375 71.875 26.609375 71.875 
Q 32.46875 71.875 37.390625 69.359375 
Q 42.328125 66.84375 44.9375 62.5 
Q 47.5625 58.15625 47.5625 53.265625 
Q 47.5625 48.640625 45.0625 44.828125 
Q 42.578125 41.015625 37.703125 38.765625 
Q 44.046875 37.3125 47.5625 32.6875 
Q 51.078125 28.078125 51.078125 21.140625 
Q 51.078125 11.765625 44.234375 5.25 
Q 37.40625 -1.265625 26.953125 -1.265625 
Q 17.53125 -1.265625 11.296875 4.34375 
Q 5.078125 9.96875 4.203125 18.890625 
z
" id="ArialMT-33"/>
      </defs>
      <g style="fill:#666666;" transform="translate(147.907566 277.269375)scale(0.12 -0.12)">
       <use xlink:href="#ArialMT-33"/>
       <use x="55.615234" xlink:href="#ArialMT-35"/>
      </g>
     </g>
    </g>
    <g id="xtick_5">
     <g id="line2d_5"/>
     <g id="text_5">
      <!-- 45 -->
      <defs>
       <path d="M 32.328125 0 
L 32.328125 17.140625 
L 1.265625 17.140625 
L 1.265625 25.203125 
L 33.9375 71.578125 
L 41.109375 71.578125 
L 41.109375 25.203125 
L 50.78125 25.203125 
L 50.78125 17.140625 
L 41.109375 17.140625 
L 41.109375 0 
z
M 32.328125 25.203125 
L 32.328125 57.46875 
L 9.90625 25.203125 
z
" id="ArialMT-34"/>
      </defs>
      <g style="fill:#666666;" transform="translate(183.149671 277.269375)scale(0.12 -0.12)">
       <use xlink:href="#ArialMT-34"/>
       <use x="55.615234" xlink:href="#ArialMT-35"/>
      </g>
     </g>
    </g>
    <g id="xtick_6">
     <g id="line2d_6"/>
     <g id="text_6">
      <!-- 55 -->
      <g style="fill:#666666;" transform="translate(218.391776 277.269375)scale(0.12 -0.12)">
       <use xlink:href="#ArialMT-35"/>
       <use x="55.615234" xlink:href="#ArialMT-35"/>
      </g>
     </g>
    </g>
    <g id="xtick_7">
     <g id="line2d_7"/>
     <g id="text_7">
      <!-- 65 -->
      <defs>
       <path d="M 49.75 54.046875 
L 41.015625 53.375 
Q 39.84375 58.546875 37.703125 60.890625 
Q 34.125 64.65625 28.90625 64.65625 
Q 24.703125 64.65625 21.53125 62.3125 
Q 17.390625 59.28125 14.984375 53.46875 
Q 12.59375 47.65625 12.5 36.921875 
Q 15.671875 41.75 20.265625 44.09375 
Q 24.859375 46.4375 29.890625 46.4375 
Q 38.671875 46.4375 44.84375 39.96875 
Q 51.03125 33.5 51.03125 23.25 
Q 51.03125 16.5 48.125 10.71875 
Q 45.21875 4.9375 40.140625 1.859375 
Q 35.0625 -1.21875 28.609375 -1.21875 
Q 17.625 -1.21875 10.6875 6.859375 
Q 3.765625 14.9375 3.765625 33.5 
Q 3.765625 54.25 11.421875 63.671875 
Q 18.109375 71.875 29.4375 71.875 
Q 37.890625 71.875 43.28125 67.140625 
Q 48.6875 62.40625 49.75 54.046875 
z
M 13.875 23.1875 
Q 13.875 18.65625 15.796875 14.5 
Q 17.71875 10.359375 21.1875 8.171875 
Q 24.65625 6 28.46875 6 
Q 34.03125 6 38.03125 10.484375 
Q 42.046875 14.984375 42.046875 22.703125 
Q 42.046875 30.125 38.078125 34.390625 
Q 34.125 38.671875 28.125 38.671875 
Q 22.171875 38.671875 18.015625 34.390625 
Q 13.875 30.125 13.875 23.1875 
z
" id="ArialMT-36"/>
      </defs>
      <g style="fill:#666666;" transform="translate(253.633882 277.269375)scale(0.12 -0.12)">
       <use xlink:href="#ArialMT-36"/>
       <use x="55.615234" xlink:href="#ArialMT-35"/>
      </g>
     </g>
    </g>
    <g id="xtick_8">
     <g id="line2d_8"/>
     <g id="text_8">
      <!-- 75 -->
      <defs>
       <path d="M 4.734375 62.203125 
L 4.734375 70.65625 
L 51.078125 70.65625 
L 51.078125 63.8125 
Q 44.234375 56.546875 37.515625 44.484375 
Q 30.8125 32.421875 27.15625 19.671875 
Q 24.515625 10.6875 23.78125 0 
L 14.75 0 
Q 14.890625 8.453125 18.0625 20.40625 
Q 21.234375 32.375 27.171875 43.484375 
Q 33.109375 54.59375 39.796875 62.203125 
z
" id="ArialMT-37"/>
      </defs>
      <g style="fill:#666666;" transform="translate(288.875987 277.269375)scale(0.12 -0.12)">
       <use xlink:href="#ArialMT-37"/>
       <use x="55.615234" xlink:href="#ArialMT-35"/>
      </g>
     </g>
    </g>
    <g id="xtick_9">
     <g id="line2d_9"/>
     <g id="text_9">
      <!-- 85 -->
      <defs>
       <path d="M 17.671875 38.8125 
Q 12.203125 40.828125 9.5625 44.53125 
Q 6.9375 48.25 6.9375 53.421875 
Q 6.9375 61.234375 12.546875 66.546875 
Q 18.171875 71.875 27.484375 71.875 
Q 36.859375 71.875 42.578125 66.421875 
Q 48.296875 60.984375 48.296875 53.171875 
Q 48.296875 48.1875 45.671875 44.5 
Q 43.0625 40.828125 37.75 38.8125 
Q 44.34375 36.671875 47.78125 31.875 
Q 51.21875 27.09375 51.21875 20.453125 
Q 51.21875 11.28125 44.71875 5.03125 
Q 38.234375 -1.21875 27.640625 -1.21875 
Q 17.046875 -1.21875 10.546875 5.046875 
Q 4.046875 11.328125 4.046875 20.703125 
Q 4.046875 27.6875 7.59375 32.390625 
Q 11.140625 37.109375 17.671875 38.8125 
z
M 15.921875 53.71875 
Q 15.921875 48.640625 19.1875 45.40625 
Q 22.46875 42.1875 27.6875 42.1875 
Q 32.765625 42.1875 36.015625 45.375 
Q 39.265625 48.578125 39.265625 53.21875 
Q 39.265625 58.0625 35.90625 61.359375 
Q 32.5625 64.65625 27.59375 64.65625 
Q 22.5625 64.65625 19.234375 61.421875 
Q 15.921875 58.203125 15.921875 53.71875 
z
M 13.09375 20.65625 
Q 13.09375 16.890625 14.875 13.375 
Q 16.65625 9.859375 20.171875 7.921875 
Q 23.6875 6 27.734375 6 
Q 34.03125 6 38.125 10.046875 
Q 42.234375 14.109375 42.234375 20.359375 
Q 42.234375 26.703125 38.015625 30.859375 
Q 33.796875 35.015625 27.4375 35.015625 
Q 21.234375 35.015625 17.15625 30.90625 
Q 13.09375 26.8125 13.09375 20.65625 
z
" id="ArialMT-38"/>
      </defs>
      <g style="fill:#666666;" transform="translate(324.118092 277.269375)scale(0.12 -0.12)">
       <use xlink:href="#ArialMT-38"/>
       <use x="55.615234" xlink:href="#ArialMT-35"/>
      </g>
     </g>
    </g>
    <g id="xtick_10">
     <g id="line2d_10"/>
     <g id="text_10">
      <!-- 95 -->
      <defs>
       <path d="M 5.46875 16.546875 
L 13.921875 17.328125 
Q 14.984375 11.375 18.015625 8.6875 
Q 21.046875 6 25.78125 6 
Q 29.828125 6 32.875 7.859375 
Q 35.9375 9.71875 37.890625 12.8125 
Q 39.84375 15.921875 41.15625 21.1875 
Q 42.484375 26.46875 42.484375 31.9375 
Q 42.484375 32.515625 42.4375 33.6875 
Q 39.796875 29.5 35.234375 26.875 
Q 30.671875 24.265625 25.34375 24.265625 
Q 16.453125 24.265625 10.296875 30.703125 
Q 4.15625 37.15625 4.15625 47.703125 
Q 4.15625 58.59375 10.578125 65.234375 
Q 17 71.875 26.65625 71.875 
Q 33.640625 71.875 39.421875 68.109375 
Q 45.21875 64.359375 48.21875 57.390625 
Q 51.21875 50.4375 51.21875 37.25 
Q 51.21875 23.53125 48.234375 15.40625 
Q 45.265625 7.28125 39.375 3.03125 
Q 33.5 -1.21875 25.59375 -1.21875 
Q 17.1875 -1.21875 11.859375 3.4375 
Q 6.546875 8.109375 5.46875 16.546875 
z
M 41.453125 48.140625 
Q 41.453125 55.71875 37.421875 60.15625 
Q 33.40625 64.59375 27.734375 64.59375 
Q 21.875 64.59375 17.53125 59.8125 
Q 13.1875 55.03125 13.1875 47.40625 
Q 13.1875 40.578125 17.3125 36.296875 
Q 21.4375 32.03125 27.484375 32.03125 
Q 33.59375 32.03125 37.515625 36.296875 
Q 41.453125 40.578125 41.453125 48.140625 
z
" id="ArialMT-39"/>
      </defs>
      <g style="fill:#666666;" transform="translate(359.360197 277.269375)scale(0.12 -0.12)">
       <use xlink:href="#ArialMT-39"/>
       <use x="55.615234" xlink:href="#ArialMT-35"/>
      </g>
     </g>
    </g>
    <g id="text_11">
     <!-- Sequence length -->
     <defs>
      <path d="M 4.5 23 
L 13.421875 23.78125 
Q 14.0625 18.40625 16.375 14.96875 
Q 18.703125 11.53125 23.578125 9.40625 
Q 28.46875 7.28125 34.578125 7.28125 
Q 39.984375 7.28125 44.140625 8.890625 
Q 48.296875 10.5 50.3125 13.296875 
Q 52.34375 16.109375 52.34375 19.4375 
Q 52.34375 22.796875 50.390625 25.3125 
Q 48.4375 27.828125 43.953125 29.546875 
Q 41.0625 30.671875 31.203125 33.03125 
Q 21.34375 35.40625 17.390625 37.5 
Q 12.25 40.1875 9.734375 44.15625 
Q 7.234375 48.140625 7.234375 53.078125 
Q 7.234375 58.5 10.296875 63.203125 
Q 13.375 67.921875 19.28125 70.359375 
Q 25.203125 72.796875 32.421875 72.796875 
Q 40.375 72.796875 46.453125 70.234375 
Q 52.546875 67.671875 55.8125 62.6875 
Q 59.078125 57.71875 59.328125 51.421875 
L 50.25 50.734375 
Q 49.515625 57.515625 45.28125 60.984375 
Q 41.0625 64.453125 32.8125 64.453125 
Q 24.21875 64.453125 20.28125 61.296875 
Q 16.359375 58.15625 16.359375 53.71875 
Q 16.359375 49.859375 19.140625 47.359375 
Q 21.875 44.875 33.421875 42.265625 
Q 44.96875 39.65625 49.265625 37.703125 
Q 55.515625 34.8125 58.484375 30.390625 
Q 61.46875 25.984375 61.46875 20.21875 
Q 61.46875 14.5 58.203125 9.4375 
Q 54.9375 4.390625 48.796875 1.578125 
Q 42.671875 -1.21875 35.015625 -1.21875 
Q 25.296875 -1.21875 18.71875 1.609375 
Q 12.15625 4.4375 8.421875 10.125 
Q 4.6875 15.828125 4.5 23 
z
" id="ArialMT-53"/>
      <path d="M 42.09375 16.703125 
L 51.171875 15.578125 
Q 49.03125 7.625 43.21875 3.21875 
Q 37.40625 -1.171875 28.375 -1.171875 
Q 17 -1.171875 10.328125 5.828125 
Q 3.65625 12.84375 3.65625 25.484375 
Q 3.65625 38.578125 10.390625 45.796875 
Q 17.140625 53.03125 27.875 53.03125 
Q 38.28125 53.03125 44.875 45.953125 
Q 51.46875 38.875 51.46875 26.03125 
Q 51.46875 25.25 51.421875 23.6875 
L 12.75 23.6875 
Q 13.234375 15.140625 17.578125 10.59375 
Q 21.921875 6.0625 28.421875 6.0625 
Q 33.25 6.0625 36.671875 8.59375 
Q 40.09375 11.140625 42.09375 16.703125 
z
M 13.234375 30.90625 
L 42.1875 30.90625 
Q 41.609375 37.453125 38.875 40.71875 
Q 34.671875 45.796875 27.984375 45.796875 
Q 21.921875 45.796875 17.796875 41.75 
Q 13.671875 37.703125 13.234375 30.90625 
z
" id="ArialMT-65"/>
      <path d="M 39.65625 -19.875 
L 39.65625 5.515625 
Q 37.59375 2.640625 33.90625 0.734375 
Q 30.21875 -1.171875 26.078125 -1.171875 
Q 16.84375 -1.171875 10.171875 6.203125 
Q 3.515625 13.578125 3.515625 26.421875 
Q 3.515625 34.234375 6.21875 40.421875 
Q 8.9375 46.625 14.078125 49.828125 
Q 19.234375 53.03125 25.390625 53.03125 
Q 35.015625 53.03125 40.53125 44.921875 
L 40.53125 51.859375 
L 48.4375 51.859375 
L 48.4375 -19.875 
z
M 12.546875 26.078125 
Q 12.546875 16.0625 16.75 11.0625 
Q 20.953125 6.0625 26.8125 6.0625 
Q 32.421875 6.0625 36.46875 10.8125 
Q 40.53125 15.578125 40.53125 25.296875 
Q 40.53125 35.640625 36.25 40.859375 
Q 31.984375 46.09375 26.21875 46.09375 
Q 20.515625 46.09375 16.53125 41.234375 
Q 12.546875 36.375 12.546875 26.078125 
z
" id="ArialMT-71"/>
      <path d="M 40.578125 0 
L 40.578125 7.625 
Q 34.515625 -1.171875 24.125 -1.171875 
Q 19.53125 -1.171875 15.546875 0.578125 
Q 11.578125 2.34375 9.640625 5 
Q 7.71875 7.671875 6.9375 11.53125 
Q 6.390625 14.109375 6.390625 19.734375 
L 6.390625 51.859375 
L 15.1875 51.859375 
L 15.1875 23.09375 
Q 15.1875 16.21875 15.71875 13.8125 
Q 16.546875 10.359375 19.234375 8.375 
Q 21.921875 6.390625 25.875 6.390625 
Q 29.828125 6.390625 33.296875 8.421875 
Q 36.765625 10.453125 38.203125 13.9375 
Q 39.65625 17.4375 39.65625 24.078125 
L 39.65625 51.859375 
L 48.4375 51.859375 
L 48.4375 0 
z
" id="ArialMT-75"/>
      <path d="M 6.59375 0 
L 6.59375 51.859375 
L 14.5 51.859375 
L 14.5 44.484375 
Q 20.21875 53.03125 31 53.03125 
Q 35.6875 53.03125 39.625 51.34375 
Q 43.5625 49.65625 45.515625 46.921875 
Q 47.46875 44.1875 48.25 40.4375 
Q 48.734375 37.984375 48.734375 31.890625 
L 48.734375 0 
L 39.9375 0 
L 39.9375 31.546875 
Q 39.9375 36.921875 38.90625 39.578125 
Q 37.890625 42.234375 35.28125 43.8125 
Q 32.671875 45.40625 29.15625 45.40625 
Q 23.53125 45.40625 19.453125 41.84375 
Q 15.375 38.28125 15.375 28.328125 
L 15.375 0 
z
" id="ArialMT-6e"/>
      <path d="M 40.4375 19 
L 49.078125 17.875 
Q 47.65625 8.9375 41.8125 3.875 
Q 35.984375 -1.171875 27.484375 -1.171875 
Q 16.84375 -1.171875 10.375 5.78125 
Q 3.90625 12.75 3.90625 25.734375 
Q 3.90625 34.125 6.6875 40.421875 
Q 9.46875 46.734375 15.15625 49.875 
Q 20.84375 53.03125 27.546875 53.03125 
Q 35.984375 53.03125 41.359375 48.75 
Q 46.734375 44.484375 48.25 36.625 
L 39.703125 35.296875 
Q 38.484375 40.53125 35.375 43.15625 
Q 32.28125 45.796875 27.875 45.796875 
Q 21.234375 45.796875 17.078125 41.03125 
Q 12.9375 36.28125 12.9375 25.984375 
Q 12.9375 15.53125 16.9375 10.796875 
Q 20.953125 6.0625 27.390625 6.0625 
Q 32.5625 6.0625 36.03125 9.234375 
Q 39.5 12.40625 40.4375 19 
z
" id="ArialMT-63"/>
      <path id="ArialMT-20"/>
      <path d="M 6.390625 0 
L 6.390625 71.578125 
L 15.1875 71.578125 
L 15.1875 0 
z
" id="ArialMT-6c"/>
      <path d="M 4.984375 -4.296875 
L 13.53125 -5.5625 
Q 14.0625 -9.515625 16.5 -11.328125 
Q 19.78125 -13.765625 25.4375 -13.765625 
Q 31.546875 -13.765625 34.859375 -11.328125 
Q 38.1875 -8.890625 39.359375 -4.5 
Q 40.046875 -1.8125 39.984375 6.78125 
Q 34.234375 0 25.640625 0 
Q 14.9375 0 9.078125 7.71875 
Q 3.21875 15.4375 3.21875 26.21875 
Q 3.21875 33.640625 5.90625 39.90625 
Q 8.59375 46.1875 13.6875 49.609375 
Q 18.796875 53.03125 25.6875 53.03125 
Q 34.859375 53.03125 40.828125 45.609375 
L 40.828125 51.859375 
L 48.921875 51.859375 
L 48.921875 7.03125 
Q 48.921875 -5.078125 46.453125 -10.125 
Q 44 -15.1875 38.640625 -18.109375 
Q 33.296875 -21.046875 25.484375 -21.046875 
Q 16.21875 -21.046875 10.5 -16.875 
Q 4.78125 -12.703125 4.984375 -4.296875 
z
M 12.25 26.859375 
Q 12.25 16.65625 16.296875 11.96875 
Q 20.359375 7.28125 26.46875 7.28125 
Q 32.515625 7.28125 36.609375 11.9375 
Q 40.71875 16.609375 40.71875 26.5625 
Q 40.71875 36.078125 36.5 40.90625 
Q 32.28125 45.75 26.3125 45.75 
Q 20.453125 45.75 16.34375 40.984375 
Q 12.25 36.234375 12.25 26.859375 
z
" id="ArialMT-67"/>
      <path d="M 25.78125 7.859375 
L 27.046875 0.09375 
Q 23.34375 -0.6875 20.40625 -0.6875 
Q 15.625 -0.6875 12.984375 0.828125 
Q 10.359375 2.34375 9.28125 4.8125 
Q 8.203125 7.28125 8.203125 15.1875 
L 8.203125 45.015625 
L 1.765625 45.015625 
L 1.765625 51.859375 
L 8.203125 51.859375 
L 8.203125 64.703125 
L 16.9375 69.96875 
L 16.9375 51.859375 
L 25.78125 51.859375 
L 25.78125 45.015625 
L 16.9375 45.015625 
L 16.9375 14.703125 
Q 16.9375 10.9375 17.40625 9.859375 
Q 17.875 8.796875 18.921875 8.15625 
Q 19.96875 7.515625 21.921875 7.515625 
Q 23.390625 7.515625 25.78125 7.859375 
z
" id="ArialMT-74"/>
      <path d="M 6.59375 0 
L 6.59375 71.578125 
L 15.375 71.578125 
L 15.375 45.90625 
Q 21.53125 53.03125 30.90625 53.03125 
Q 36.671875 53.03125 40.921875 50.75 
Q 45.171875 48.484375 47 44.484375 
Q 48.828125 40.484375 48.828125 32.859375 
L 48.828125 0 
L 40.046875 0 
L 40.046875 32.859375 
Q 40.046875 39.453125 37.1875 42.453125 
Q 34.328125 45.453125 29.109375 45.453125 
Q 25.203125 45.453125 21.75 43.421875 
Q 18.3125 41.40625 16.84375 37.9375 
Q 15.375 34.46875 15.375 28.375 
L 15.375 0 
z
" id="ArialMT-68"/>
     </defs>
     <g style="fill:#333333;" transform="translate(171.219688 292.39)scale(0.12 -0.12)">
      <use xlink:href="#ArialMT-53"/>
      <use x="66.699219" xlink:href="#ArialMT-65"/>
      <use x="122.314453" xlink:href="#ArialMT-71"/>
      <use x="177.929688" xlink:href="#ArialMT-75"/>
      <use x="233.544922" xlink:href="#ArialMT-65"/>
      <use x="289.160156" xlink:href="#ArialMT-6e"/>
      <use x="344.775391" xlink:href="#ArialMT-63"/>
      <use x="394.775391" xlink:href="#ArialMT-65"/>
      <use x="450.390625" xlink:href="#ArialMT-20"/>
      <use x="478.173828" xlink:href="#ArialMT-6c"/>
      <use x="500.390625" xlink:href="#ArialMT-65"/>
      <use x="556.005859" xlink:href="#ArialMT-6e"/>
      <use x="611.621094" xlink:href="#ArialMT-67"/>
      <use x="667.236328" xlink:href="#ArialMT-74"/>
      <use x="695.019531" xlink:href="#ArialMT-68"/>
     </g>
    </g>
   </g>
   <g id="matplotlib.axis_2">
    <g id="ytick_1">
     <g id="line2d_11"/>
     <g id="text_12">
      <!-- 0.0 -->
      <defs>
       <path d="M 4.15625 35.296875 
Q 4.15625 48 6.765625 55.734375 
Q 9.375 63.484375 14.515625 67.671875 
Q 19.671875 71.875 27.484375 71.875 
Q 33.25 71.875 37.59375 69.546875 
Q 41.9375 67.234375 44.765625 62.859375 
Q 47.609375 58.5 49.21875 52.21875 
Q 50.828125 45.953125 50.828125 35.296875 
Q 50.828125 22.703125 48.234375 14.96875 
Q 45.65625 7.234375 40.5 3 
Q 35.359375 -1.21875 27.484375 -1.21875 
Q 17.140625 -1.21875 11.234375 6.203125 
Q 4.15625 15.140625 4.15625 35.296875 
z
M 13.1875 35.296875 
Q 13.1875 17.671875 17.3125 11.828125 
Q 21.4375 6 27.484375 6 
Q 33.546875 6 37.671875 11.859375 
Q 41.796875 17.71875 41.796875 35.296875 
Q 41.796875 52.984375 37.671875 58.78125 
Q 33.546875 64.59375 27.390625 64.59375 
Q 21.34375 64.59375 17.71875 59.46875 
Q 13.1875 52.9375 13.1875 35.296875 
z
" id="ArialMT-30"/>
       <path d="M 9.078125 0 
L 9.078125 10.015625 
L 19.09375 10.015625 
L 19.09375 0 
z
" id="ArialMT-2e"/>
      </defs>
      <g style="fill:#666666;" transform="translate(22.174375 234.692573)scale(0.12 -0.12)">
       <use xlink:href="#ArialMT-30"/>
       <use x="55.615234" xlink:href="#ArialMT-2e"/>
       <use x="83.398438" xlink:href="#ArialMT-30"/>
      </g>
     </g>
    </g>
    <g id="ytick_2">
     <g id="line2d_12"/>
     <g id="text_13">
      <!-- 0.1 -->
      <g style="fill:#666666;" transform="translate(22.174375 203.845021)scale(0.12 -0.12)">
       <use xlink:href="#ArialMT-30"/>
       <use x="55.615234" xlink:href="#ArialMT-2e"/>
       <use x="83.398438" xlink:href="#ArialMT-31"/>
      </g>
     </g>
    </g>
    <g id="ytick_3">
     <g id="line2d_13"/>
     <g id="text_14">
      <!-- 0.2 -->
      <g style="fill:#666666;" transform="translate(22.174375 172.997469)scale(0.12 -0.12)">
       <use xlink:href="#ArialMT-30"/>
       <use x="55.615234" xlink:href="#ArialMT-2e"/>
       <use x="83.398438" xlink:href="#ArialMT-32"/>
      </g>
     </g>
    </g>
    <g id="ytick_4">
     <g id="line2d_14"/>
     <g id="text_15">
      <!-- 0.3 -->
      <g style="fill:#666666;" transform="translate(22.174375 142.149917)scale(0.12 -0.12)">
       <use xlink:href="#ArialMT-30"/>
       <use x="55.615234" xlink:href="#ArialMT-2e"/>
       <use x="83.398438" xlink:href="#ArialMT-33"/>
      </g>
     </g>
    </g>
    <g id="ytick_5">
     <g id="line2d_15"/>
     <g id="text_16">
      <!-- 0.4 -->
      <g style="fill:#666666;" transform="translate(22.174375 111.302365)scale(0.12 -0.12)">
       <use xlink:href="#ArialMT-30"/>
       <use x="55.615234" xlink:href="#ArialMT-2e"/>
       <use x="83.398438" xlink:href="#ArialMT-34"/>
      </g>
     </g>
    </g>
    <g id="ytick_6">
     <g id="line2d_16"/>
     <g id="text_17">
      <!-- 0.5 -->
      <g style="fill:#666666;" transform="translate(22.174375 80.454813)scale(0.12 -0.12)">
       <use xlink:href="#ArialMT-30"/>
       <use x="55.615234" xlink:href="#ArialMT-2e"/>
       <use x="83.398438" xlink:href="#ArialMT-35"/>
      </g>
     </g>
    </g>
    <g id="ytick_7">
     <g id="line2d_17"/>
     <g id="text_18">
      <!-- 0.6 -->
      <g style="fill:#666666;" transform="translate(22.174375 49.607261)scale(0.12 -0.12)">
       <use xlink:href="#ArialMT-30"/>
       <use x="55.615234" xlink:href="#ArialMT-2e"/>
       <use x="83.398438" xlink:href="#ArialMT-36"/>
      </g>
     </g>
    </g>
    <g id="ytick_8">
     <g id="line2d_18"/>
     <g id="text_19">
      <!-- 0.7 -->
      <g style="fill:#666666;" transform="translate(22.174375 18.759709)scale(0.12 -0.12)">
       <use xlink:href="#ArialMT-30"/>
       <use x="55.615234" xlink:href="#ArialMT-2e"/>
       <use x="83.398438" xlink:href="#ArialMT-37"/>
      </g>
     </g>
    </g>
    <g id="text_20">
     <!-- Values of transition metrics -->
     <defs>
      <path d="M 28.171875 0 
L 0.4375 71.578125 
L 10.6875 71.578125 
L 29.296875 19.578125 
Q 31.546875 13.328125 33.0625 7.859375 
Q 34.71875 13.71875 36.921875 19.578125 
L 56.25 71.578125 
L 65.921875 71.578125 
L 37.890625 0 
z
" id="ArialMT-56"/>
      <path d="M 40.4375 6.390625 
Q 35.546875 2.25 31.03125 0.53125 
Q 26.515625 -1.171875 21.34375 -1.171875 
Q 12.796875 -1.171875 8.203125 3 
Q 3.609375 7.171875 3.609375 13.671875 
Q 3.609375 17.484375 5.34375 20.625 
Q 7.078125 23.78125 9.890625 25.6875 
Q 12.703125 27.59375 16.21875 28.5625 
Q 18.796875 29.25 24.03125 29.890625 
Q 34.671875 31.15625 39.703125 32.90625 
Q 39.75 34.71875 39.75 35.203125 
Q 39.75 40.578125 37.25 42.78125 
Q 33.890625 45.75 27.25 45.75 
Q 21.046875 45.75 18.09375 43.578125 
Q 15.140625 41.40625 13.71875 35.890625 
L 5.125 37.0625 
Q 6.296875 42.578125 8.984375 45.96875 
Q 11.671875 49.359375 16.75 51.1875 
Q 21.828125 53.03125 28.515625 53.03125 
Q 35.15625 53.03125 39.296875 51.46875 
Q 43.453125 49.90625 45.40625 47.53125 
Q 47.359375 45.171875 48.140625 41.546875 
Q 48.578125 39.3125 48.578125 33.453125 
L 48.578125 21.734375 
Q 48.578125 9.46875 49.140625 6.21875 
Q 49.703125 2.984375 51.375 0 
L 42.1875 0 
Q 40.828125 2.734375 40.4375 6.390625 
z
M 39.703125 26.03125 
Q 34.90625 24.078125 25.34375 22.703125 
Q 19.921875 21.921875 17.671875 20.9375 
Q 15.4375 19.96875 14.203125 18.09375 
Q 12.984375 16.21875 12.984375 13.921875 
Q 12.984375 10.40625 15.640625 8.0625 
Q 18.3125 5.71875 23.4375 5.71875 
Q 28.515625 5.71875 32.46875 7.9375 
Q 36.421875 10.15625 38.28125 14.015625 
Q 39.703125 17 39.703125 22.796875 
z
" id="ArialMT-61"/>
      <path d="M 3.078125 15.484375 
L 11.765625 16.84375 
Q 12.5 11.625 15.84375 8.84375 
Q 19.1875 6.0625 25.203125 6.0625 
Q 31.25 6.0625 34.171875 8.515625 
Q 37.109375 10.984375 37.109375 14.3125 
Q 37.109375 17.28125 34.515625 19 
Q 32.71875 20.171875 25.53125 21.96875 
Q 15.875 24.421875 12.140625 26.203125 
Q 8.40625 27.984375 6.46875 31.125 
Q 4.546875 34.28125 4.546875 38.09375 
Q 4.546875 41.546875 6.125 44.5 
Q 7.71875 47.46875 10.453125 49.421875 
Q 12.5 50.921875 16.03125 51.96875 
Q 19.578125 53.03125 23.640625 53.03125 
Q 29.734375 53.03125 34.34375 51.265625 
Q 38.96875 49.515625 41.15625 46.5 
Q 43.359375 43.5 44.1875 38.484375 
L 35.59375 37.3125 
Q 35.015625 41.3125 32.203125 43.546875 
Q 29.390625 45.796875 24.265625 45.796875 
Q 18.21875 45.796875 15.625 43.796875 
Q 13.03125 41.796875 13.03125 39.109375 
Q 13.03125 37.40625 14.109375 36.03125 
Q 15.1875 34.625 17.484375 33.6875 
Q 18.796875 33.203125 25.25 31.453125 
Q 34.578125 28.953125 38.25 27.359375 
Q 41.9375 25.78125 44.03125 22.75 
Q 46.140625 19.734375 46.140625 15.234375 
Q 46.140625 10.84375 43.578125 6.953125 
Q 41.015625 3.078125 36.171875 0.953125 
Q 31.34375 -1.171875 25.25 -1.171875 
Q 15.140625 -1.171875 9.84375 3.03125 
Q 4.546875 7.234375 3.078125 15.484375 
z
" id="ArialMT-73"/>
      <path d="M 3.328125 25.921875 
Q 3.328125 40.328125 11.328125 47.265625 
Q 18.015625 53.03125 27.640625 53.03125 
Q 38.328125 53.03125 45.109375 46.015625 
Q 51.90625 39.015625 51.90625 26.65625 
Q 51.90625 16.65625 48.90625 10.90625 
Q 45.90625 5.171875 40.15625 2 
Q 34.421875 -1.171875 27.640625 -1.171875 
Q 16.75 -1.171875 10.03125 5.8125 
Q 3.328125 12.796875 3.328125 25.921875 
z
M 12.359375 25.921875 
Q 12.359375 15.96875 16.703125 11.015625 
Q 21.046875 6.0625 27.640625 6.0625 
Q 34.1875 6.0625 38.53125 11.03125 
Q 42.875 16.015625 42.875 26.21875 
Q 42.875 35.84375 38.5 40.796875 
Q 34.125 45.75 27.640625 45.75 
Q 21.046875 45.75 16.703125 40.8125 
Q 12.359375 35.890625 12.359375 25.921875 
z
" id="ArialMT-6f"/>
      <path d="M 8.6875 0 
L 8.6875 45.015625 
L 0.921875 45.015625 
L 0.921875 51.859375 
L 8.6875 51.859375 
L 8.6875 57.375 
Q 8.6875 62.59375 9.625 65.140625 
Q 10.890625 68.5625 14.078125 70.671875 
Q 17.28125 72.796875 23.046875 72.796875 
Q 26.765625 72.796875 31.25 71.921875 
L 29.9375 64.265625 
Q 27.203125 64.75 24.75 64.75 
Q 20.75 64.75 19.09375 63.03125 
Q 17.4375 61.328125 17.4375 56.640625 
L 17.4375 51.859375 
L 27.546875 51.859375 
L 27.546875 45.015625 
L 17.4375 45.015625 
L 17.4375 0 
z
" id="ArialMT-66"/>
      <path d="M 6.5 0 
L 6.5 51.859375 
L 14.40625 51.859375 
L 14.40625 44 
Q 17.4375 49.515625 20 51.265625 
Q 22.5625 53.03125 25.640625 53.03125 
Q 30.078125 53.03125 34.671875 50.203125 
L 31.640625 42.046875 
Q 28.421875 43.953125 25.203125 43.953125 
Q 22.3125 43.953125 20.015625 42.21875 
Q 17.71875 40.484375 16.75 37.40625 
Q 15.28125 32.71875 15.28125 27.15625 
L 15.28125 0 
z
" id="ArialMT-72"/>
      <path d="M 6.640625 61.46875 
L 6.640625 71.578125 
L 15.4375 71.578125 
L 15.4375 61.46875 
z
M 6.640625 0 
L 6.640625 51.859375 
L 15.4375 51.859375 
L 15.4375 0 
z
" id="ArialMT-69"/>
      <path d="M 6.59375 0 
L 6.59375 51.859375 
L 14.453125 51.859375 
L 14.453125 44.578125 
Q 16.890625 48.390625 20.9375 50.703125 
Q 25 53.03125 30.171875 53.03125 
Q 35.9375 53.03125 39.625 50.640625 
Q 43.3125 48.25 44.828125 43.953125 
Q 50.984375 53.03125 60.84375 53.03125 
Q 68.5625 53.03125 72.703125 48.75 
Q 76.859375 44.484375 76.859375 35.59375 
L 76.859375 0 
L 68.109375 0 
L 68.109375 32.671875 
Q 68.109375 37.9375 67.25 40.25 
Q 66.40625 42.578125 64.15625 43.984375 
Q 61.921875 45.40625 58.890625 45.40625 
Q 53.421875 45.40625 49.796875 41.765625 
Q 46.1875 38.140625 46.1875 30.125 
L 46.1875 0 
L 37.40625 0 
L 37.40625 33.6875 
Q 37.40625 39.546875 35.25 42.46875 
Q 33.109375 45.40625 28.21875 45.40625 
Q 24.515625 45.40625 21.359375 43.453125 
Q 18.21875 41.5 16.796875 37.734375 
Q 15.375 33.984375 15.375 26.90625 
L 15.375 0 
z
" id="ArialMT-6d"/>
     </defs>
     <g style="fill:#333333;" transform="translate(15.789375 205.95875)rotate(-90)scale(0.12 -0.12)">
      <use xlink:href="#ArialMT-56"/>
      <use x="66.589844" xlink:href="#ArialMT-61"/>
      <use x="122.205078" xlink:href="#ArialMT-6c"/>
      <use x="144.421875" xlink:href="#ArialMT-75"/>
      <use x="200.037109" xlink:href="#ArialMT-65"/>
      <use x="255.652344" xlink:href="#ArialMT-73"/>
      <use x="305.652344" xlink:href="#ArialMT-20"/>
      <use x="333.435547" xlink:href="#ArialMT-6f"/>
      <use x="389.050781" xlink:href="#ArialMT-66"/>
      <use x="416.833984" xlink:href="#ArialMT-20"/>
      <use x="444.617188" xlink:href="#ArialMT-74"/>
      <use x="472.400391" xlink:href="#ArialMT-72"/>
      <use x="505.701172" xlink:href="#ArialMT-61"/>
      <use x="561.316406" xlink:href="#ArialMT-6e"/>
      <use x="616.931641" xlink:href="#ArialMT-73"/>
      <use x="666.931641" xlink:href="#ArialMT-69"/>
      <use x="689.148438" xlink:href="#ArialMT-74"/>
      <use x="716.931641" xlink:href="#ArialMT-69"/>
      <use x="739.148438" xlink:href="#ArialMT-6f"/>
      <use x="794.763672" xlink:href="#ArialMT-6e"/>
      <use x="850.378906" xlink:href="#ArialMT-20"/>
      <use x="878.162109" xlink:href="#ArialMT-6d"/>
      <use x="961.462891" xlink:href="#ArialMT-65"/>
      <use x="1017.078125" xlink:href="#ArialMT-74"/>
      <use x="1044.861328" xlink:href="#ArialMT-72"/>
      <use x="1078.162109" xlink:href="#ArialMT-69"/>
      <use x="1100.378906" xlink:href="#ArialMT-63"/>
      <use x="1150.378906" xlink:href="#ArialMT-73"/>
     </g>
    </g>
   </g>
   <g id="line2d_19">
    <path clip-path="url(#pc9704a019d)" d="M 48.854375 171.198868 
L 52.378586 183.330854 
L 55.902796 189.696315 
L 59.427007 193.848305 
L 62.951217 198.499423 
L 66.475428 202.099405 
L 69.999638 203.298876 
L 73.523849 206.842182 
L 77.048059 206.375842 
L 80.57227 209.33066 
L 84.09648 210.97318 
L 87.620691 213.180721 
L 91.144901 212.597354 
L 94.669112 214.532347 
L 98.193322 214.683041 
L 101.717533 215.240197 
L 105.241743 215.224705 
L 108.765954 216.74802 
L 112.290164 217.825771 
L 115.814375 218.102209 
L 119.338586 218.750527 
L 122.862796 218.218864 
L 126.387007 218.808797 
L 129.911217 220.180061 
L 133.435428 219.903976 
L 136.959638 219.952095 
L 140.483849 220.654478 
L 144.008059 221.966741 
L 147.53227 221.285645 
L 151.05648 220.573171 
L 154.580691 221.486742 
L 158.104901 220.862424 
L 161.629112 221.835747 
L 165.153322 222.22223 
L 168.677533 222.685524 
L 172.201743 222.23205 
L 175.725954 223.128714 
L 179.250164 223.366136 
L 182.774375 223.510869 
L 186.298586 223.828077 
L 189.822796 223.903741 
L 193.347007 224.289451 
L 196.871217 223.341971 
L 200.395428 223.647922 
L 203.919638 224.390549 
L 207.443849 224.262267 
L 210.968059 224.006673 
L 214.49227 224.774494 
L 218.01648 225.111011 
L 221.540691 224.129815 
L 225.064901 224.92786 
L 228.589112 224.865613 
L 232.113322 225.450906 
L 235.637533 224.987153 
L 239.161743 225.10868 
L 242.685954 224.918898 
L 246.210164 225.637874 
L 249.734375 226.330125 
L 253.258586 225.079196 
L 256.782796 225.951146 
L 260.307007 225.937309 
L 263.831217 226.121479 
L 267.355428 225.67624 
L 270.879638 225.501604 
L 274.403849 226.477288 
L 277.928059 225.955981 
L 281.45227 226.201387 
L 284.97648 225.781922 
L 288.500691 226.639438 
L 292.024901 226.230634 
L 295.549112 226.672557 
L 299.073322 226.462203 
L 302.597533 226.324206 
L 306.121743 227.084575 
L 309.645954 227.215228 
L 313.170164 226.248076 
L 316.694375 226.200979 
L 320.218586 226.552966 
L 323.742796 226.775153 
L 327.267007 226.429644 
L 330.791217 226.911727 
L 334.315428 226.725025 
L 337.839638 227.287683 
L 341.363849 227.090583 
L 344.888059 227.013935 
L 348.41227 227.379611 
L 351.93648 226.897698 
L 355.460691 226.618025 
L 358.984901 226.752054 
L 362.509112 227.318335 
L 366.033322 226.734804 
L 369.557533 227.343779 
L 373.081743 227.064617 
L 376.605954 227.312315 
L 380.130164 226.827629 
L 383.654375 227.832448 
" style="fill:none;stroke:#7fc97f;stroke-linecap:square;stroke-width:1.5;"/>
   </g>
   <g id="line2d_20">
    <path clip-path="url(#pc9704a019d)" d="M 48.854375 127.290838 
L 52.378586 146.337395 
L 55.902796 158.945478 
L 59.427007 168.346271 
L 62.951217 178.143411 
L 66.475428 185.772165 
L 69.999638 188.870009 
L 73.523849 196.534152 
L 77.048059 197.292015 
L 80.57227 201.465822 
L 84.09648 203.923491 
L 87.620691 206.990021 
L 91.144901 207.166815 
L 94.669112 209.849953 
L 98.193322 209.780449 
L 101.717533 211.744969 
L 105.241743 211.469882 
L 108.765954 213.66309 
L 112.290164 215.372079 
L 115.814375 215.500599 
L 119.338586 216.229412 
L 122.862796 216.334653 
L 126.387007 216.458417 
L 129.911217 218.196519 
L 133.435428 218.166078 
L 136.959638 218.360434 
L 140.483849 219.251689 
L 144.008059 220.511828 
L 147.53227 220.033718 
L 151.05648 218.772603 
L 154.580691 220.452573 
L 158.104901 219.673938 
L 161.629112 220.666631 
L 165.153322 221.058554 
L 168.677533 221.853244 
L 172.201743 221.039203 
L 175.725954 222.374549 
L 179.250164 222.477775 
L 182.774375 222.837404 
L 186.298586 222.920253 
L 189.822796 223.244911 
L 193.347007 223.738902 
L 196.871217 222.539814 
L 200.395428 222.897182 
L 203.919638 223.719186 
L 207.443849 223.53093 
L 210.968059 223.362841 
L 214.49227 224.094742 
L 218.01648 224.620243 
L 221.540691 223.5075 
L 225.064901 224.466033 
L 228.589112 224.37557 
L 232.113322 225.052683 
L 235.637533 224.56947 
L 239.161743 224.551808 
L 242.685954 224.422414 
L 246.210164 225.232874 
L 249.734375 226.078349 
L 253.258586 224.730482 
L 256.782796 225.563076 
L 260.307007 225.500077 
L 263.831217 225.784694 
L 267.355428 225.165847 
L 270.879638 225.134008 
L 274.403849 226.187372 
L 277.928059 225.596157 
L 281.45227 225.923874 
L 284.97648 225.435887 
L 288.500691 226.370652 
L 292.024901 225.995118 
L 295.549112 226.420119 
L 299.073322 226.218118 
L 302.597533 226.076654 
L 306.121743 226.919398 
L 309.645954 226.998029 
L 313.170164 226.016584 
L 316.694375 225.847129 
L 320.218586 226.268001 
L 323.742796 226.495788 
L 327.267007 226.089343 
L 330.791217 226.701461 
L 334.315428 226.46367 
L 337.839638 227.086025 
L 341.363849 226.919068 
L 344.888059 226.848819 
L 348.41227 227.122308 
L 351.93648 226.742085 
L 355.460691 226.416264 
L 358.984901 226.576449 
L 362.509112 227.135865 
L 366.033322 226.595073 
L 369.557533 227.138009 
L 373.081743 226.914744 
L 376.605954 227.180445 
L 380.130164 226.547009 
L 383.654375 227.741653 
" style="fill:none;stroke:#beaed4;stroke-linecap:square;stroke-width:1.5;"/>
   </g>
   <g id="line2d_21">
    <path clip-path="url(#pc9704a019d)" d="M 48.854375 61.52354 
L 52.378586 88.835643 
L 55.902796 102.157813 
L 59.427007 109.689761 
L 62.951217 119.787159 
L 66.475428 129.323874 
L 69.999638 128.958507 
L 73.523849 140.155302 
L 77.048059 135.161342 
L 80.57227 143.3915 
L 84.09648 147.731007 
L 87.620691 154.570727 
L 91.144901 151.401787 
L 94.669112 157.490944 
L 98.193322 157.16786 
L 101.717533 158.142772 
L 105.241743 155.563484 
L 108.765954 161.871724 
L 112.290164 166.485572 
L 115.814375 166.658562 
L 119.338586 168.646126 
L 122.862796 165.395646 
L 126.387007 166.68086 
L 129.911217 173.638309 
L 133.435428 171.151735 
L 136.959638 170.53889 
L 140.483849 174.007702 
L 144.008059 180.705753 
L 147.53227 175.726606 
L 151.05648 170.265742 
L 154.580691 175.77121 
L 158.104901 170.910546 
L 161.629112 176.322123 
L 165.153322 178.052061 
L 168.677533 180.565986 
L 172.201743 176.553332 
L 175.725954 182.251641 
L 179.250164 183.348544 
L 182.774375 183.810665 
L 186.298586 184.986141 
L 189.822796 185.5847 
L 193.347007 187.847616 
L 196.871217 180.544246 
L 200.395428 182.388616 
L 203.919638 187.089044 
L 207.443849 185.478002 
L 210.968059 183.47189 
L 214.49227 188.529932 
L 218.01648 190.663378 
L 221.540691 183.136223 
L 225.064901 188.819269 
L 228.589112 187.788333 
L 232.113322 192.253359 
L 235.637533 188.127341 
L 239.161743 188.674758 
L 242.685954 186.751455 
L 246.210164 192.106259 
L 249.734375 197.756109 
L 253.258586 187.218877 
L 256.782796 194.095463 
L 260.307007 193.812675 
L 263.831217 194.728265 
L 267.355428 190.582244 
L 270.879638 189.096318 
L 274.403849 197.065251 
L 277.928059 192.431733 
L 281.45227 194.338849 
L 284.97648 190.335391 
L 288.500691 197.699953 
L 292.024901 193.837329 
L 295.549112 197.654557 
L 299.073322 195.306394 
L 302.597533 193.870396 
L 306.121743 200.620291 
L 309.645954 201.632431 
L 313.170164 192.628005 
L 316.694375 191.831933 
L 320.218586 195.148941 
L 323.742796 196.776029 
L 327.267007 193.382611 
L 330.791217 197.702021 
L 334.315428 195.562212 
L 337.839638 200.798101 
L 341.363849 198.780886 
L 344.888059 198.003188 
L 348.41227 201.222811 
L 351.93648 196.531204 
L 355.460691 193.657825 
L 358.984901 194.745456 
L 362.509112 199.985221 
L 366.033322 194.259793 
L 369.557533 200.112244 
L 373.081743 197.203098 
L 376.605954 199.395878 
L 380.130164 194.33591 
L 383.654375 204.446042 
" style="fill:none;stroke:#386cb0;stroke-linecap:square;stroke-width:1.5;"/>
   </g>
   <g id="line2d_22">
    <path clip-path="url(#pc9704a019d)" d="M 48.854375 40.047552 
L 52.378586 47.202479 
L 55.902796 51.178605 
L 59.427007 53.507098 
L 62.951217 56.600967 
L 66.475428 58.562376 
L 69.999638 58.870027 
L 73.523849 62.188218 
L 77.048059 62.296446 
L 80.57227 63.596592 
L 84.09648 64.864206 
L 87.620691 66.359785 
L 91.144901 65.408474 
L 94.669112 67.258981 
L 98.193322 66.753741 
L 101.717533 66.911273 
L 105.241743 67.543074 
L 108.765954 68.280537 
L 112.290164 69.061882 
L 115.814375 68.992204 
L 119.338586 68.958695 
L 122.862796 69.391823 
L 126.387007 69.54687 
L 129.911217 70.649321 
L 133.435428 70.323931 
L 136.959638 70.546588 
L 140.483849 70.954277 
L 144.008059 71.207594 
L 147.53227 71.096472 
L 151.05648 70.402562 
L 154.580691 71.08925 
L 158.104901 71.011219 
L 161.629112 71.627159 
L 165.153322 71.795401 
L 168.677533 72.043101 
L 172.201743 71.42392 
L 175.725954 72.184638 
L 179.250164 72.455778 
L 182.774375 72.364833 
L 186.298586 72.453868 
L 189.822796 72.673274 
L 193.347007 72.82681 
L 196.871217 72.382189 
L 200.395428 72.598698 
L 203.919638 72.852444 
L 207.443849 72.808103 
L 210.968059 72.536432 
L 214.49227 72.931074 
L 218.01648 73.234435 
L 221.540691 72.892046 
L 225.064901 73.196345 
L 228.589112 73.018956 
L 232.113322 73.56726 
L 235.637533 73.267007 
L 239.161743 73.113425 
L 242.685954 72.957509 
L 246.210164 73.473071 
L 249.734375 73.85936 
L 253.258586 73.314016 
L 256.782796 73.836579 
L 260.307007 73.660734 
L 263.831217 73.569022 
L 267.355428 73.600912 
L 270.879638 73.595698 
L 274.403849 74.134446 
L 277.928059 73.780942 
L 281.45227 73.881849 
L 284.97648 73.497694 
L 288.500691 74.143186 
L 292.024901 73.775101 
L 295.549112 73.914657 
L 299.073322 73.903113 
L 302.597533 73.977299 
L 306.121743 74.100465 
L 309.645954 74.383925 
L 313.170164 73.914293 
L 316.694375 73.95853 
L 320.218586 74.196427 
L 323.742796 73.982715 
L 327.267007 74.065567 
L 330.791217 74.270288 
L 334.315428 74.123002 
L 337.839638 74.3574 
L 341.363849 74.165902 
L 344.888059 74.383473 
L 348.41227 74.597994 
L 351.93648 74.34353 
L 355.460691 74.157375 
L 358.984901 74.172779 
L 362.509112 74.516989 
L 366.033322 74.289644 
L 369.557533 74.383317 
L 373.081743 74.438184 
L 376.605954 74.467937 
L 380.130164 74.098177 
L 383.654375 74.683866 
" style="fill:none;stroke:#bf5b17;stroke-linecap:square;stroke-width:1.5;"/>
   </g>
   <g id="line2d_23">
    <path clip-path="url(#pc9704a019d)" d="M 48.854375 145.960713 
L 52.378586 167.089326 
L 55.902796 178.044095 
L 59.427007 184.774503 
L 62.951217 191.291088 
L 66.475428 196.706548 
L 69.999638 198.319937 
L 73.523849 203.188723 
L 77.048059 202.905463 
L 80.57227 206.266656 
L 84.09648 208.304233 
L 87.620691 210.819397 
L 91.144901 210.648861 
L 94.669112 212.715355 
L 98.193322 213.137403 
L 101.717533 213.821425 
L 105.241743 213.664405 
L 108.765954 215.444251 
L 112.290164 216.771734 
L 115.814375 217.107318 
L 119.338586 217.79286 
L 122.862796 217.397438 
L 126.387007 217.901949 
L 129.911217 219.4745 
L 133.435428 219.201416 
L 136.959638 219.282349 
L 140.483849 220.102494 
L 144.008059 221.472915 
L 147.53227 220.733277 
L 151.05648 219.930223 
L 154.580691 221.029488 
L 158.104901 220.34269 
L 161.629112 221.385258 
L 165.153322 221.792285 
L 168.677533 222.314084 
L 172.201743 221.775856 
L 175.725954 222.785296 
L 179.250164 223.050013 
L 182.774375 223.209321 
L 186.298586 223.472659 
L 189.822796 223.642044 
L 193.347007 224.054866 
L 196.871217 223.047367 
L 200.395428 223.395014 
L 203.919638 224.146793 
L 207.443849 223.980759 
L 210.968059 223.761548 
L 214.49227 224.535199 
L 218.01648 224.887701 
L 221.540691 223.905997 
L 225.064901 224.739752 
L 228.589112 224.652415 
L 232.113322 225.300609 
L 235.637533 224.799015 
L 239.161743 224.91937 
L 242.685954 224.715604 
L 246.210164 225.454458 
L 249.734375 226.218534 
L 253.258586 224.914146 
L 256.782796 225.82421 
L 260.307007 225.824734 
L 263.831217 225.973614 
L 267.355428 225.496919 
L 270.879638 225.352096 
L 274.403849 226.35571 
L 277.928059 225.827298 
L 281.45227 226.088006 
L 284.97648 225.643342 
L 288.500691 226.544397 
L 292.024901 226.118796 
L 295.549112 226.591551 
L 299.073322 226.345869 
L 302.597533 226.207895 
L 306.121743 227.004414 
L 309.645954 227.140839 
L 313.170164 226.148442 
L 316.694375 226.086081 
L 320.218586 226.481336 
L 323.742796 226.684973 
L 327.267007 226.334931 
L 330.791217 226.830474 
L 334.315428 226.619426 
L 337.839638 227.206059 
L 341.363849 227.008187 
L 344.888059 226.944599 
L 348.41227 227.305334 
L 351.93648 226.828024 
L 355.460691 226.546481 
L 358.984901 226.680863 
L 362.509112 227.244239 
L 366.033322 226.670526 
L 369.557533 227.290644 
L 373.081743 227.009957 
L 376.605954 227.250109 
L 380.130164 226.755076 
L 383.654375 227.789627 
" style="fill:none;stroke:#fdc086;stroke-linecap:square;stroke-width:1.5;"/>
   </g>
   <g id="line2d_24">
    <path clip-path="url(#pc9704a019d)" d="M 48.854375 62.947318 
L 52.378586 85.557881 
L 55.902796 103.889899 
L 59.427007 120.21102 
L 62.951217 134.558493 
L 66.475428 148.697218 
L 69.999638 153.917404 
L 73.523849 166.072156 
L 77.048059 167.96604 
L 80.57227 175.950765 
L 84.09648 180.957163 
L 87.620691 186.424747 
L 91.144901 187.651334 
L 94.669112 191.927344 
L 98.193322 193.528354 
L 101.717533 195.333066 
L 105.241743 194.995995 
L 108.765954 199.148023 
L 112.290164 202.031329 
L 115.814375 202.603977 
L 119.338586 204.214795 
L 122.862796 203.639887 
L 126.387007 204.684706 
L 129.911217 207.812144 
L 133.435428 207.476011 
L 136.959638 207.716903 
L 140.483849 209.527716 
L 144.008059 212.012553 
L 147.53227 210.621489 
L 151.05648 209.149433 
L 154.580691 211.3709 
L 158.104901 210.084754 
L 161.629112 212.170311 
L 165.153322 212.988796 
L 168.677533 214.119913 
L 172.201743 212.98564 
L 175.725954 214.952723 
L 179.250164 215.487195 
L 182.774375 215.873011 
L 186.298586 216.243275 
L 189.822796 216.840508 
L 193.347007 217.632211 
L 196.871217 215.7045 
L 200.395428 216.369504 
L 203.919638 217.724458 
L 207.443849 217.363363 
L 210.968059 217.059676 
L 214.49227 218.532224 
L 218.01648 219.219125 
L 221.540691 217.391412 
L 225.064901 219.007942 
L 228.589112 218.83825 
L 232.113322 220.141001 
L 235.637533 219.10721 
L 239.161743 219.372101 
L 242.685954 218.989634 
L 246.210164 220.396401 
L 249.734375 221.94263 
L 253.258586 219.42623 
L 256.782796 221.192017 
L 260.307007 221.195311 
L 263.831217 221.45678 
L 267.355428 220.548695 
L 270.879638 220.308725 
L 274.403849 222.253051 
L 277.928059 221.185648 
L 281.45227 221.750383 
L 284.97648 220.870281 
L 288.500691 222.664684 
L 292.024901 221.85096 
L 295.549112 222.748271 
L 299.073322 222.225243 
L 302.597533 221.977395 
L 306.121743 223.589454 
L 309.645954 223.845414 
L 313.170164 221.85499 
L 316.694375 221.752245 
L 320.218586 222.572459 
L 323.742796 222.953026 
L 327.267007 222.236756 
L 330.791217 223.241257 
L 334.315428 222.839875 
L 337.839638 223.969342 
L 341.363849 223.571599 
L 344.888059 223.468189 
L 348.41227 224.174744 
L 351.93648 223.239893 
L 355.460691 222.700732 
L 358.984901 222.993126 
L 362.509112 224.072875 
L 366.033322 222.980408 
L 369.557533 224.178716 
L 373.081743 223.629043 
L 376.605954 224.086647 
L 380.130164 223.100911 
L 383.654375 225.156117 
" style="fill:none;stroke:#f0027f;stroke-linecap:square;stroke-width:1.5;"/>
   </g>
   <g id="line2d_25">
    <path clip-path="url(#pc9704a019d)" d="M 48.854375 230.397885 
L 52.378586 230.397885 
L 55.902796 230.397885 
L 59.427007 230.397885 
L 62.951217 230.397885 
L 66.475428 230.397885 
L 69.999638 230.397885 
L 73.523849 230.397885 
L 77.048059 230.397885 
L 80.57227 230.397885 
L 84.09648 230.397885 
L 87.620691 230.397885 
L 91.144901 230.397885 
L 94.669112 230.397885 
L 98.193322 230.397885 
L 101.717533 230.397885 
L 105.241743 230.397885 
L 108.765954 230.397885 
L 112.290164 230.397885 
L 115.814375 230.397885 
L 119.338586 230.397885 
L 122.862796 230.397885 
L 126.387007 230.397885 
L 129.911217 230.397885 
L 133.435428 230.397885 
L 136.959638 230.397885 
L 140.483849 230.397885 
L 144.008059 230.397885 
L 147.53227 230.397885 
L 151.05648 230.397885 
L 154.580691 230.397885 
L 158.104901 230.397885 
L 161.629112 230.397885 
L 165.153322 230.397885 
L 168.677533 230.397885 
L 172.201743 230.397885 
L 175.725954 230.397885 
L 179.250164 230.397885 
L 182.774375 230.397885 
L 186.298586 230.397885 
L 189.822796 230.397885 
L 193.347007 230.397885 
L 196.871217 230.397885 
L 200.395428 230.397885 
L 203.919638 230.397885 
L 207.443849 230.397885 
L 210.968059 230.397885 
L 214.49227 230.397885 
L 218.01648 230.397885 
L 221.540691 230.397885 
L 225.064901 230.397885 
L 228.589112 230.397885 
L 232.113322 230.397885 
L 235.637533 230.397885 
L 239.161743 230.397885 
L 242.685954 230.397885 
L 246.210164 230.397885 
L 249.734375 230.397885 
L 253.258586 230.397885 
L 256.782796 230.397885 
L 260.307007 230.397885 
L 263.831217 230.397885 
L 267.355428 230.397885 
L 270.879638 230.397885 
L 274.403849 230.397885 
L 277.928059 230.397885 
L 281.45227 230.397885 
L 284.97648 230.397885 
L 288.500691 230.397885 
L 292.024901 230.397885 
L 295.549112 230.397885 
L 299.073322 230.397885 
L 302.597533 230.397885 
L 306.121743 230.397885 
L 309.645954 230.397885 
L 313.170164 230.397885 
L 316.694375 230.397885 
L 320.218586 230.397885 
L 323.742796 230.397885 
L 327.267007 230.397885 
L 330.791217 230.397885 
L 334.315428 230.397885 
L 337.839638 230.397885 
L 341.363849 230.397885 
L 344.888059 230.397885 
L 348.41227 230.397885 
L 351.93648 230.397885 
L 355.460691 230.397885 
L 358.984901 230.397885 
L 362.509112 230.397885 
L 366.033322 230.397885 
L 369.557533 230.397885 
L 373.081743 230.397885 
L 376.605954 230.397885 
L 380.130164 230.397885 
L 383.654375 230.397885 
" style="fill:none;opacity:0.4;stroke:#000000;stroke-dasharray:5.55,2.4;stroke-dashoffset:0;stroke-width:1.5;"/>
   </g>
   <g id="patch_3">
    <path d="M 48.854375 258.68 
L 48.854375 9.2 
" style="fill:none;stroke:#cccccc;stroke-linecap:square;stroke-linejoin:miter;stroke-width:0.75;"/>
   </g>
   <g id="patch_4">
    <path d="M 48.854375 258.68 
L 383.654375 258.68 
" style="fill:none;stroke:#cccccc;stroke-linecap:square;stroke-linejoin:miter;stroke-width:0.75;"/>
   </g>
   <g id="legend_1">
    <g id="patch_5">
     <path d="M 299.7575 120.64625 
L 377.654375 120.64625 
L 377.654375 15.2 
L 299.7575 15.2 
z
" style="fill:#ffffff;opacity:0.6;"/>
    </g>
    <g id="line2d_26">
     <path d="M 304.5575 24.389375 
L 328.5575 24.389375 
" style="fill:none;stroke:#7fc97f;stroke-linecap:square;stroke-width:1.5;"/>
    </g>
    <g id="line2d_27"/>
    <g id="text_21">
     <!-- Kappa -->
     <defs>
      <path d="M 7.328125 0 
L 7.328125 71.578125 
L 16.796875 71.578125 
L 16.796875 36.078125 
L 52.34375 71.578125 
L 65.1875 71.578125 
L 35.15625 42.578125 
L 66.5 0 
L 54 0 
L 28.515625 36.234375 
L 16.796875 24.8125 
L 16.796875 0 
z
" id="ArialMT-4b"/>
      <path d="M 6.59375 -19.875 
L 6.59375 51.859375 
L 14.59375 51.859375 
L 14.59375 45.125 
Q 17.4375 49.078125 21 51.046875 
Q 24.5625 53.03125 29.640625 53.03125 
Q 36.28125 53.03125 41.359375 49.609375 
Q 46.4375 46.1875 49.015625 39.953125 
Q 51.609375 33.734375 51.609375 26.3125 
Q 51.609375 18.359375 48.75 11.984375 
Q 45.90625 5.609375 40.453125 2.21875 
Q 35.015625 -1.171875 29 -1.171875 
Q 24.609375 -1.171875 21.109375 0.6875 
Q 17.625 2.546875 15.375 5.375 
L 15.375 -19.875 
z
M 14.546875 25.640625 
Q 14.546875 15.625 18.59375 10.84375 
Q 22.65625 6.0625 28.421875 6.0625 
Q 34.28125 6.0625 38.453125 11.015625 
Q 42.625 15.96875 42.625 26.375 
Q 42.625 36.28125 38.546875 41.203125 
Q 34.46875 46.140625 28.8125 46.140625 
Q 23.1875 46.140625 18.859375 40.890625 
Q 14.546875 35.640625 14.546875 25.640625 
z
" id="ArialMT-70"/>
     </defs>
     <g style="fill:#333333;" transform="translate(338.1575 28.589375)scale(0.12 -0.12)">
      <use xlink:href="#ArialMT-4b"/>
      <use x="66.699219" xlink:href="#ArialMT-61"/>
      <use x="122.314453" xlink:href="#ArialMT-70"/>
      <use x="177.929688" xlink:href="#ArialMT-70"/>
      <use x="233.544922" xlink:href="#ArialMT-61"/>
     </g>
    </g>
    <g id="line2d_28">
     <path d="M 304.5575 41.36375 
L 328.5575 41.36375 
" style="fill:none;stroke:#beaed4;stroke-linecap:square;stroke-width:1.5;"/>
    </g>
    <g id="line2d_29"/>
    <g id="text_22">
     <!-- L -->
     <defs>
      <path d="M 7.328125 0 
L 7.328125 71.578125 
L 16.796875 71.578125 
L 16.796875 8.453125 
L 52.046875 8.453125 
L 52.046875 0 
z
" id="ArialMT-4c"/>
     </defs>
     <g style="fill:#333333;" transform="translate(338.1575 45.56375)scale(0.12 -0.12)">
      <use xlink:href="#ArialMT-4c"/>
     </g>
    </g>
    <g id="line2d_30">
     <path d="M 304.5575 58.338125 
L 328.5575 58.338125 
" style="fill:none;stroke:#386cb0;stroke-linecap:square;stroke-width:1.5;"/>
    </g>
    <g id="line2d_31"/>
    <g id="text_23">
     <!-- LSA -->
     <defs>
      <path d="M -0.140625 0 
L 27.34375 71.578125 
L 37.546875 71.578125 
L 66.84375 0 
L 56.0625 0 
L 47.703125 21.6875 
L 17.78125 21.6875 
L 9.90625 0 
z
M 20.515625 29.390625 
L 44.78125 29.390625 
L 37.3125 49.21875 
Q 33.890625 58.25 32.234375 64.0625 
Q 30.859375 57.171875 28.375 50.390625 
z
" id="ArialMT-41"/>
     </defs>
     <g style="fill:#333333;" transform="translate(338.1575 62.538125)scale(0.12 -0.12)">
      <use xlink:href="#ArialMT-4c"/>
      <use x="55.615234" xlink:href="#ArialMT-53"/>
      <use x="122.314453" xlink:href="#ArialMT-41"/>
     </g>
    </g>
    <g id="line2d_32">
     <path d="M 304.5575 75.3125 
L 328.5575 75.3125 
" style="fill:none;stroke:#bf5b17;stroke-linecap:square;stroke-width:1.5;"/>
    </g>
    <g id="line2d_33"/>
    <g id="text_24">
     <!-- MCM -->
     <defs>
      <path d="M 7.421875 0 
L 7.421875 71.578125 
L 21.6875 71.578125 
L 38.625 20.90625 
Q 40.96875 13.8125 42.046875 10.296875 
Q 43.265625 14.203125 45.84375 21.78125 
L 62.984375 71.578125 
L 75.734375 71.578125 
L 75.734375 0 
L 66.609375 0 
L 66.609375 59.90625 
L 45.796875 0 
L 37.25 0 
L 16.546875 60.9375 
L 16.546875 0 
z
" id="ArialMT-4d"/>
      <path d="M 58.796875 25.09375 
L 68.265625 22.703125 
Q 65.28125 11.03125 57.546875 4.90625 
Q 49.8125 -1.21875 38.625 -1.21875 
Q 27.046875 -1.21875 19.796875 3.484375 
Q 12.546875 8.203125 8.765625 17.140625 
Q 4.984375 26.078125 4.984375 36.328125 
Q 4.984375 47.515625 9.25 55.828125 
Q 13.53125 64.15625 21.40625 68.46875 
Q 29.296875 72.796875 38.765625 72.796875 
Q 49.515625 72.796875 56.828125 67.328125 
Q 64.15625 61.859375 67.046875 51.953125 
L 57.71875 49.75 
Q 55.21875 57.5625 50.484375 61.125 
Q 45.75 64.703125 38.578125 64.703125 
Q 30.328125 64.703125 24.78125 60.734375 
Q 19.234375 56.78125 16.984375 50.109375 
Q 14.75 43.453125 14.75 36.375 
Q 14.75 27.25 17.40625 20.4375 
Q 20.0625 13.625 25.671875 10.25 
Q 31.296875 6.890625 37.84375 6.890625 
Q 45.796875 6.890625 51.3125 11.46875 
Q 56.84375 16.0625 58.796875 25.09375 
z
" id="ArialMT-43"/>
     </defs>
     <g style="fill:#333333;" transform="translate(338.1575 79.5125)scale(0.12 -0.12)">
      <use xlink:href="#ArialMT-4d"/>
      <use x="83.300781" xlink:href="#ArialMT-43"/>
      <use x="155.517578" xlink:href="#ArialMT-4d"/>
     </g>
    </g>
    <g id="line2d_34">
     <path d="M 304.5575 92.286875 
L 328.5575 92.286875 
" style="fill:none;stroke:#fdc086;stroke-linecap:square;stroke-width:1.5;"/>
    </g>
    <g id="line2d_35"/>
    <g id="text_25">
     <!-- Phi -->
     <defs>
      <path d="M 7.71875 0 
L 7.71875 71.578125 
L 34.71875 71.578125 
Q 41.84375 71.578125 45.609375 70.90625 
Q 50.875 70.015625 54.4375 67.546875 
Q 58.015625 65.09375 60.1875 60.640625 
Q 62.359375 56.203125 62.359375 50.875 
Q 62.359375 41.75 56.546875 35.421875 
Q 50.734375 29.109375 35.546875 29.109375 
L 17.1875 29.109375 
L 17.1875 0 
z
M 17.1875 37.546875 
L 35.6875 37.546875 
Q 44.875 37.546875 48.734375 40.96875 
Q 52.59375 44.390625 52.59375 50.59375 
Q 52.59375 55.078125 50.3125 58.265625 
Q 48.046875 61.46875 44.34375 62.5 
Q 41.9375 63.140625 35.5 63.140625 
L 17.1875 63.140625 
z
" id="ArialMT-50"/>
     </defs>
     <g style="fill:#333333;" transform="translate(338.1575 96.486875)scale(0.12 -0.12)">
      <use xlink:href="#ArialMT-50"/>
      <use x="66.699219" xlink:href="#ArialMT-68"/>
      <use x="122.314453" xlink:href="#ArialMT-69"/>
     </g>
    </g>
    <g id="line2d_36">
     <path d="M 304.5575 109.26125 
L 328.5575 109.26125 
" style="fill:none;stroke:#f0027f;stroke-linecap:square;stroke-width:1.5;"/>
    </g>
    <g id="line2d_37"/>
    <g id="text_26">
     <!-- Q -->
     <defs>
      <path d="M 61.96875 7.671875 
Q 68.5625 3.125 74.125 1.03125 
L 71.34375 -5.5625 
Q 63.625 -2.78125 55.953125 3.21875 
Q 48 -1.21875 38.375 -1.21875 
Q 28.65625 -1.21875 20.75 3.46875 
Q 12.84375 8.15625 8.5625 16.640625 
Q 4.296875 25.140625 4.296875 35.796875 
Q 4.296875 46.390625 8.59375 55.078125 
Q 12.890625 63.765625 20.828125 68.3125 
Q 28.765625 72.859375 38.578125 72.859375 
Q 48.484375 72.859375 56.4375 68.140625 
Q 64.40625 63.421875 68.578125 54.953125 
Q 72.75 46.484375 72.75 35.84375 
Q 72.75 27 70.0625 19.9375 
Q 67.390625 12.890625 61.96875 7.671875 
z
M 41.109375 19.78125 
Q 49.3125 17.484375 54.640625 12.9375 
Q 62.984375 20.5625 62.984375 35.84375 
Q 62.984375 44.53125 60.03125 51.015625 
Q 57.078125 57.515625 51.390625 61.109375 
Q 45.703125 64.703125 38.625 64.703125 
Q 28.03125 64.703125 21.046875 57.453125 
Q 14.0625 50.203125 14.0625 35.796875 
Q 14.0625 21.828125 20.96875 14.359375 
Q 27.875 6.890625 38.625 6.890625 
Q 43.703125 6.890625 48.1875 8.796875 
Q 43.75 11.671875 38.8125 12.890625 
z
" id="ArialMT-51"/>
     </defs>
     <g style="fill:#333333;" transform="translate(338.1575 113.46125)scale(0.12 -0.12)">
      <use xlink:href="#ArialMT-51"/>
     </g>
    </g>
   </g>
  </g>
 </g>
 <defs>
  <clipPath id="pc9704a019d">
   <rect height="249.48" width="334.8" x="48.854375" y="9.2"/>
  </clipPath>
 </defs>
</svg>
